<svg xmlns="http://www.w3.org/2000/svg" viewBox="0 0 589.7 506.45"><defs><style>.cls-1,.cls-10,.cls-11,.cls-3,.cls-8,.cls-9{fill:none;stroke-miterlimit:10;}.cls-1{stroke:#d3d3d3;}.cls-2{fill:#d3d3d3;}.cls-3{stroke:#ccc;}.cls-11,.cls-3,.cls-9{stroke-linecap:round;stroke-width:2px;}.cls-4{font-size:21px;fill:#375972;font-family:Roboto-Medium, Roboto;}.cls-5{letter-spacing:0.01em;}.cls-6{letter-spacing:0em;}.cls-7{letter-spacing:-0.02em;}.cls-8,.cls-9{stroke:#001443;}.cls-10,.cls-8{stroke-width:4px;}.cls-10,.cls-11{stroke:#008acf;}.cls-12{fill:#008acf;}</style></defs><title>Asset 6</title><g id="Layer_2" data-name="Layer 2"><g id="Layer_1-2" data-name="Layer 1"><line class="cls-1" x1="367.38" y1="169.3" x2="332.6" y2="217.53"/><polyline class="cls-1" points="168.38 489.3 204.38 489.3 248.06 397.18"/><polyline class="cls-1" points="422.38 489.3 381.38 489.3 338.88 397.18"/><line class="cls-1" x1="226.95" y1="277.3" x2="109.38" y2="277.3"/><circle class="cls-2" cx="430.97" cy="278.37" r="4.1"/><circle class="cls-2" cx="352.97" cy="189.37" r="4.1"/><line class="cls-1" x1="230.88" y1="169.3" x2="265.66" y2="217.53"/><circle class="cls-2" cx="245.3" cy="189.37" r="4.1"/><circle class="cls-2" cx="166.97" cy="277.37" r="4.1"/><circle class="cls-2" cx="204.97" cy="489.37" r="4.1"/><circle class="cls-2" cx="380.97" cy="489.37" r="4.1"/><rect class="cls-3" x="8.46" y="260.33" width="101.14" height="35.79" rx="4.68" ry="4.68"/><text class="cls-4" transform="translate(37.21 285.63)">Date</text><rect class="cls-3" x="155.74" y="132.66" width="111.79" height="35.79" rx="4.68" ry="4.68"/><text class="cls-4" transform="translate(169.08 156.96)">Catego<tspan class="cls-5" x="66.98" y="0">r</tspan><tspan class="cls-6" x="74.47" y="0">y</tspan></text><rect class="cls-3" x="50.24" y="469.66" width="118.79" height="35.79" rx="4.68" ry="4.68"/><text class="cls-4" transform="translate(61.84 493.96)">Campaign</text><rect class="cls-3" x="469.91" y="260.66" width="118.79" height="35.79" rx="4.68" ry="4.68"/><text class="cls-4" transform="translate(488.03 284.96)">Platform</text><rect class="cls-3" x="422.99" y="468.9" width="118.79" height="35.79" rx="4.68" ry="4.68"/><text class="cls-4" transform="translate(448.4 493.2)"><tspan class="cls-7">F</tspan><tspan x="11.81" y="0">ormat</tspan></text><rect class="cls-3" x="338.89" y="132.66" width="86.81" height="35.79" rx="4.68" ry="4.68"/><text class="cls-4" transform="translate(350.41 156.96)">Author</text><rect class="cls-8" x="226.95" y="217.18" width="133.58" height="180"/><polyline class="cls-8" points="243.38 410.8 372.38 410.8 372.38 231.8"/><line class="cls-8" x1="242.38" y1="235.8" x2="296.38" y2="235.8"/><line class="cls-9" x1="242.38" y1="307.8" x2="342.38" y2="307.8"/><line class="cls-9" x1="258.38" y1="321.8" x2="294.38" y2="321.8"/><line class="cls-9" x1="242.38" y1="352.8" x2="342.38" y2="352.8"/><line class="cls-9" x1="242.38" y1="367.8" x2="342.38" y2="367.8"/><line class="cls-9" x1="242.38" y1="383.8" x2="305.38" y2="383.8"/><rect class="cls-9" x="243.15" y="247.37" width="98.99" height="45.33"/><path class="cls-9" d="M330.43,292A17.71,17.71,0,1,0,295,292"/><circle class="cls-9" cx="312.93" cy="264.37" r="9.29"/><line class="cls-9" x1="253.38" y1="280.8" x2="253.38" y2="254.8"/><line class="cls-9" x1="253.38" y1="286.8" x2="253.38" y2="283.8"/><line class="cls-9" x1="258.38" y1="280.8" x2="258.38" y2="266.8"/><line class="cls-9" x1="258.38" y1="286.8" x2="258.38" y2="283.8"/><line class="cls-9" x1="264.38" y1="280.8" x2="264.38" y2="264.8"/><line class="cls-9" x1="264.38" y1="286.8" x2="264.38" y2="283.8"/><line class="cls-9" x1="269.38" y1="280.8" x2="269.38" y2="270.8"/><line class="cls-9" x1="269.38" y1="286.8" x2="269.38" y2="283.8"/><line class="cls-9" x1="274.38" y1="280.8" x2="274.38" y2="261.8"/><line class="cls-9" x1="274.38" y1="286.8" x2="274.38" y2="283.8"/><rect class="cls-9" x="243.15" y="317.43" width="7.82" height="7.82"/><line class="cls-9" x1="258.38" y1="335.8" x2="294.38" y2="335.8"/><rect class="cls-9" x="243.15" y="332.02" width="7.82" height="7.82"/><polyline class="cls-1" points="368.38 422.3 387.88 422.3 387.88 206.3 368.38 206.3"/><line class="cls-1" x1="387.38" y1="278.3" x2="469.38" y2="278.3"/><circle class="cls-10" cx="59.16" cy="189.16" r="57.16"/><circle class="cls-10" cx="529.16" cy="189.16" r="57.16"/><circle class="cls-10" cx="480.16" cy="395.16" r="57.16"/><circle class="cls-10" cx="111.16" cy="394.16" r="57.16"/><circle class="cls-10" cx="384.16" cy="60.16" r="57.16"/><polyline class="cls-11" points="376.38 54.8 376.38 60.8 391.38 60.8 391.38 54.8"/><circle class="cls-11" cx="384.4" cy="38.89" r="16.75"/><path class="cls-11" d="M368.19,40.51a18.68,18.68,0,0,0,11.35-9.19s7,15.67,21.35,10.54"/><path class="cls-11" d="M413.73,93.2V74.55c0-7.13-4.86-13-10.81-13H365.09c-5.94,0-10.81,5.84-10.81,13V93.2"/><line class="cls-11" x1="365.38" y1="93.8" x2="365.38" y2="74.8"/><line class="cls-11" x1="384.38" y1="93.8" x2="384.38" y2="61.8"/><line class="cls-11" x1="402.38" y1="93.8" x2="402.38" y2="74.8"/><line class="cls-11" x1="379.38" y1="83.8" x2="379.38" y2="80.8"/><line class="cls-11" x1="379.38" y1="91.8" x2="379.38" y2="87.8"/><polyline class="cls-11" points="375.76 61.94 376.93 69.78 384.22 62.57"/><polyline class="cls-11" points="392.87 61.94 391.7 69.78 384.4 62.57"/><circle class="cls-10" cx="213.16" cy="59.16" r="57.16"/><rect class="cls-11" x="189.64" y="18.37" width="21.37" height="19.81"/><rect class="cls-11" x="224.21" y="38.57" width="14.76" height="15.15"/><rect class="cls-11" x="224.21" y="61.44" width="14.76" height="15.15"/><rect class="cls-11" x="224.21" y="84.31" width="14.76" height="15.15"/><polyline class="cls-11" points="198.38 37.8 198.38 92.8 223.38 92.8"/><line class="cls-11" x1="223.38" y1="68.8" x2="199.38" y2="68.8"/><line class="cls-11" x1="223.38" y1="47.8" x2="199.38" y2="47.8"/><path class="cls-11" d="M138.27,390.36h3.61a7.23,7.23,0,0,1,7.23,7.23V403a7.23,7.23,0,0,1-7.23,7.23h-3.61a0,0,0,0,1,0,0V390.36a0,0,0,0,1,0,0Z" transform="translate(115.45 -24.07) rotate(15.94)"/><path class="cls-11" d="M87.7,374.12a7.23,7.23,0,0,0-7.22,5.24L79,384.52a7.23,7.23,0,0,0,3.37,8.27"/><polyline class="cls-11" points="118.03 406.05 103.72 426.29 113.28 429.02 130.87 409.58"/><path class="cls-11" d="M118.33,384.39l-4.78,16.74c-19.22-2.59-30.22,9.36-30.22,9.36l-5.57-1.59,14.31-50.1,5.57,1.59S100.64,376.44,118.33,384.39Z"/><rect class="cls-11" x="115.5" y="382.83" width="23.52" height="25.28" transform="translate(113.5 -19.74) rotate(15.94)"/><path class="cls-11" d="M559.88,192.6V164a4.75,4.75,0,0,0-4.74-4.74h-57a4.75,4.75,0,0,0-4.74,4.74v42.11a4.75,4.75,0,0,0,4.74,4.74h48.12"/><polyline class="cls-11" points="553.78 192.43 553.78 166 499.49 166 499.49 200.64 546.14 200.64"/><path class="cls-11" d="M546.14,210.8v9.88a2.3,2.3,0,0,0,2.29,2.29h15.41a2.3,2.3,0,0,0,2.29-2.29V194.89a2.3,2.3,0,0,0-2.29-2.29H548.43a2.3,2.3,0,0,0-2.29,2.29V210.8"/><rect class="cls-11" x="550.7" y="197.01" width="10.87" height="17.27"/><line class="cls-11" x1="525.38" y1="205.8" x2="529.38" y2="205.8"/><line class="cls-11" x1="554.38" y1="218.8" x2="558.38" y2="218.8"/><rect class="cls-11" x="514.26" y="217.4" width="26.5" height="5.15"/><line class="cls-11" x1="524.38" y1="216.8" x2="524.38" y2="210.8"/><line class="cls-11" x1="531.38" y1="216.8" x2="531.38" y2="210.8"/><polyline class="cls-11" points="547.13 193.05 547.13 170.55 506.88 170.55 506.88 200.8"/><line class="cls-11" x1="511.38" y1="176.8" x2="541.38" y2="176.8"/><line class="cls-11" x1="511.38" y1="183.8" x2="541.38" y2="183.8"/><line class="cls-11" x1="511.38" y1="190.8" x2="527.38" y2="190.8"/><line class="cls-11" x1="553.38" y1="200.8" x2="558.38" y2="200.8"/><line class="cls-11" x1="553.38" y1="204.8" x2="558.38" y2="204.8"/><line class="cls-11" x1="553.38" y1="208.8" x2="558.38" y2="208.8"/><rect class="cls-11" x="448.38" y="362.66" width="62" height="67.02"/><circle class="cls-11" cx="479.13" cy="387.8" r="17"/><polygon class="cls-11" points="476.38 380.8 476.38 395.8 485.13 388.05 476.38 380.8"/><line class="cls-11" x1="454.38" y1="421.8" x2="503.38" y2="421.8"/><line class="cls-11" x1="448.38" y1="412.8" x2="509.38" y2="412.8"/><circle class="cls-12" cx="490.88" cy="421.3" r="2.92"/><rect class="cls-11" x="22.75" y="158.47" width="70.97" height="62.9"/><line class="cls-11" x1="22.38" y1="169.8" x2="93.38" y2="169.8"/><line class="cls-11" x1="32.38" y1="163.8" x2="32.38" y2="154.8"/><line class="cls-11" x1="39.38" y1="163.8" x2="39.38" y2="154.8"/><line class="cls-11" x1="46.38" y1="163.8" x2="46.38" y2="154.8"/><line class="cls-11" x1="53.38" y1="163.8" x2="53.38" y2="154.8"/><line class="cls-11" x1="60.38" y1="163.8" x2="60.38" y2="154.8"/><line class="cls-11" x1="67.38" y1="163.8" x2="67.38" y2="154.8"/><line class="cls-11" x1="74.38" y1="163.8" x2="74.38" y2="154.8"/><line class="cls-11" x1="81.38" y1="163.8" x2="81.38" y2="154.8"/><rect class="cls-11" x="30.22" y="176.97" width="9.5" height="9.5"/><rect class="cls-11" x="45.72" y="176.97" width="9.5" height="9.5"/><rect class="cls-11" x="61.22" y="176.97" width="9.5" height="9.5"/><rect class="cls-11" x="76.72" y="176.97" width="9.5" height="9.5"/><rect class="cls-11" x="30.22" y="190.8" width="9.5" height="9.5"/><rect class="cls-11" x="45.72" y="190.8" width="9.5" height="9.5"/><rect class="cls-11" x="61.22" y="190.8" width="9.5" height="9.5"/><rect class="cls-11" x="76.72" y="190.8" width="9.5" height="9.5"/><rect class="cls-11" x="30.22" y="204.63" width="9.5" height="9.5"/><rect class="cls-11" x="45.72" y="204.63" width="9.5" height="9.5"/><rect class="cls-11" x="61.22" y="204.63" width="9.5" height="9.5"/><rect class="cls-11" x="76.72" y="204.63" width="9.5" height="9.5"/></g></g></svg>