<svg xmlns="http://www.w3.org/2000/svg" viewBox="0 0 192.91 138.33"><defs><style>.cls-1{fill:#eaeaea;}.cls-2{fill:#fff;stroke-width:4px;}.cls-2,.cls-3{stroke:#001443;}.cls-2,.cls-3,.cls-5{stroke-miterlimit:10;}.cls-3,.cls-5{fill:none;}.cls-3{stroke-linecap:round;}.cls-4{fill:#008acf;}.cls-5{stroke:#dbdddd;}</style></defs><title>Asset 13</title><g id="Layer_2" data-name="Layer 2"><g id="Layer_1-2" data-name="Layer 1"><rect class="cls-1" x="36.87" y="14.05" width="134.94" height="124.28" rx="5.08" ry="5.08"/><rect class="cls-2" x="23.68" y="4.84" width="138.4" height="119.32" rx="4.94" ry="4.94"/><line class="cls-3" x1="24.08" y1="29.5" x2="161.08" y2="29.5"/><circle class="cls-4" cx="120.67" cy="18.24" r="3.55"/><circle class="cls-4" cx="134.89" cy="18.24" r="3.55"/><circle class="cls-4" cx="149.1" cy="18.24" r="3.55"/><rect class="cls-5" x="183.08" y="97.67" width="9.33" height="9.33"/><rect class="cls-5" x="0.5" y="81.34" width="9.33" height="9.33" rx="4.67" ry="4.67" transform="translate(-80.45 95.65) rotate(-92.99)"/><line class="cls-5" x1="178.58" x2="178.58" y2="9"/><line class="cls-5" x1="183.08" y1="4.5" x2="174.08" y2="4.5"/><path class="cls-4" d="M58.73,76.84l17.36,6.59v7.15l-24.63-11V73.93L76.09,63v7.15Z"/><path class="cls-4" d="M85.92,99.08H80.3L97.16,52.57h5.62Z"/><path class="cls-4" d="M126,76.69,107.83,70V63l25.42,10.94v5.68L107.83,90.55v-7Z"/></g></g></svg>