<svg xmlns="http://www.w3.org/2000/svg" xmlns:xlink="http://www.w3.org/1999/xlink" viewBox="0 0 182.14 152.32"><defs><style>.cls-1,.cls-12,.cls-3,.cls-4,.cls-6,.cls-7{fill:none;}.cls-2{clip-path:url(#clip-path);}.cls-3,.cls-9{stroke:#008acf;}.cls-12,.cls-3,.cls-4,.cls-5,.cls-6,.cls-7,.cls-8,.cls-9{stroke-miterlimit:10;}.cls-3,.cls-5,.cls-6,.cls-8,.cls-9{stroke-width:2px;}.cls-4{stroke:#d3d3d3;}.cls-5,.cls-8,.cls-9{fill:#fff;}.cls-12,.cls-5,.cls-6{stroke:#001443;}.cls-7{stroke:#dbdddd;}.cls-8{stroke:#ccc;}.cls-8,.cls-9{stroke-linecap:round;}.cls-10{fill:#b2b2b2;}.cls-11{fill:#eaeaea;}.cls-12{stroke-width:4px;}</style><clipPath id="clip-path"><polyline class="cls-1" points="150.3 108.59 150.3 40.59 132.64 40.59 132.64 107.78"/></clipPath></defs><title>Asset 17</title><g id="Layer_2" data-name="Layer 2"><g id="Layer_1-2" data-name="Layer 1"><g class="cls-2"><line class="cls-3" x1="105.99" y1="81.67" x2="169.12" y2="6.92"/><line class="cls-3" x1="105.99" y1="95.67" x2="169.12" y2="20.92"/><line class="cls-3" x1="105.99" y1="109.67" x2="169.12" y2="34.92"/><line class="cls-3" x1="105.99" y1="123.67" x2="169.12" y2="48.92"/><line class="cls-3" x1="105.99" y1="137.67" x2="169.12" y2="62.92"/><line class="cls-3" x1="105.99" y1="151.67" x2="169.12" y2="76.92"/></g><polyline class="cls-4" points="166.8 24.92 166.8 52.92 151.05 68.67"/><polyline class="cls-4" points="22.8 95.92 22.8 73.92 46.97 56.59"/><polyline class="cls-5" points="65.3 100.59 65.3 44.26 47.64 44.26 47.64 96.59"/><polyline class="cls-5" points="93.3 108.59 93.3 24.25 75.64 24.25 75.64 107.59"/><polyline class="cls-5" points="122.3 108.59 122.3 60.59 104.64 60.59 104.64 107.78"/><polyline class="cls-6" points="150.3 108.59 150.3 40.59 132.64 40.59 132.64 107.78"/><rect class="cls-7" x="172.3" y="109.92" width="9.33" height="9.33"/><rect class="cls-7" x="39.64" y="0.83" width="9.33" height="9.33" rx="4.67" ry="4.67" transform="translate(41.13 50.04) rotate(-92.99)"/><line class="cls-7" x1="16.8" y1="22.92" x2="16.8" y2="31.92"/><line class="cls-7" x1="21.3" y1="27.42" x2="12.3" y2="27.42"/><rect class="cls-8" x="1" y="96.5" width="64.28" height="24.18" rx="2.72" ry="2.72"/><rect class="cls-9" x="116.5" y="1" width="64.28" height="24.18" rx="2.72" ry="2.72"/><circle class="cls-10" cx="23.3" cy="74.42" r="3"/><circle class="cls-10" cx="166.3" cy="52.42" r="3"/><rect class="cls-11" x="7.64" y="104.92" width="50.33" height="7"/><rect class="cls-11" x="123.64" y="9.92" width="50.33" height="7"/><line class="cls-12" x1="65.3" y1="108.92" x2="160.3" y2="108.92"/></g></g></svg>