<?xml version="1.0"?>
<svg xmlns="http://www.w3.org/2000/svg" viewBox="0 0 601.43 644.11">
<defs>
    <style>
      .cls-1,.cls-12,.cls-14,.cls-15,.cls-2,.cls-4{fill:none;stroke-miterlimit:10;}
      .cls-1{stroke:#d3d3d3;}
      .cls-12,.cls-2{stroke:#008acf;}
      .cls-14,.cls-2{stroke-width:4px;}
      .cls-3{fill:#d3d3d3;}
      .cls-4{stroke:#ccc;}
      .cls-4{fill-opacity="0.4";}
      .cls-12,.cls-15,.cls-4{stroke-linecap:round;stroke-width:2px;}
      .cls-5,.cls-8{font-size:19px;fill:#375972;font-family:'Avenir Next W01','Helvetica Neue',Helvetica,Arial,sans-serif;}
      .cls-6{letter-spacing:0.01em;}
      .cls-7{letter-spacing:0em;}
      .cls-8{letter-spacing:-0.02em;}
      .cls-9{letter-spacing:-0.02em;}
      .cls-10{letter-spacing:0em;}
      .cls-11{letter-spacing:-0.01em;}
      .cls-13{fill:#008acf;}
      .cls-14,.cls-15{stroke:#023E73;}</style>
</defs>
<title>Asset 5</title>
<g id="Layer_2" data-name="Layer 2">
    <g id="Layer_1-2" data-name="Layer 1">
        <path class="cls-1" d="M465.89,120.7A235.72,235.72,0,0,0,362,62.27"/>
        <path class="cls-1" d="M532.89,241q-1.76-8.2-4.08-16.19"/>
        <path class="cls-1" d="M524.66,369.45a235.1,235.1,0,0,0,13.09-65.38"/>
        <path class="cls-1" d="M426.14,491.54a236.85,236.85,0,0,0,29.23-21.35"/>
        <path class="cls-1" d="M360.62,519.42a234.51,234.51,0,0,0,53.19-20.75"/>
        <path class="cls-1" d="M195.61,501.44a234.45,234.45,0,0,0,45.29,17.31"/>
        <path class="cls-1" d="M142.69,464.84a236.93,236.93,0,0,0,37.43,28"/>
        <path class="cls-1" d="M66.37,304.31a235.25,235.25,0,0,0,11,59.07"/>
        <path class="cls-1" d="M75.21,225.06Q73,232.78,71.28,240.7"/>
        <path class="cls-1" d="M239.61,62.94a235.77,235.77,0,0,0-101.35,57.72"/>
        <circle class="cls-2" cx="300.83" cy="63.16" r="61.16"/>
        <circle class="cls-2" cx="300.83" cy="531.02" r="61.16"/>
        <path class="cls-2" d="M528.81,224.79a61.17,61.17,0,1,0-63.23-104.38"/>
        <path class="cls-2" d="M465.58,120.41a61.17,61.17,0,0,0,63.23,104.38"/>
        <circle class="cls-2" cx="491.64" cy="420.94" r="61.16"/>
        <circle class="cls-2" cx="101" cy="420.94" r="61.16"/>
        <circle class="cls-3" cx="417.78" cy="84.26" r="4.1"/>
        <circle class="cls-3" cx="185.4" cy="85.51" r="4.1"/>
        <line class="cls-1" x1="213.83" y1="139.98" x2="185.4" y2="85.51"/>
        <line class="cls-1" x1="262.18" y1="232.59" x2="231.39" y2="173.6"/>
        <line class="cls-1" x1="284.06" y1="274.49" x2="269.38" y2="246.39"/>
        <line class="cls-1" x1="268.91" y1="361.03" x2="277.42" y2="347.03"/>
        <line class="cls-1" x1="188.73" y1="492.96" x2="235.77" y2="415.56"/>
        <line class="cls-1" x1="389.57" y1="137.59" x2="416.76" y2="85.51"/>
        <path class="cls-1" d="M389.57,137.59"/>
        <line class="cls-1" x1="329.67" y1="252.35" x2="370.78" y2="173.6"/>
        <line class="cls-1" x1="312.05" y1="286.09" x2="323.63" y2="263.92"/>
        <line class="cls-1" x1="414.33" y1="494.42" x2="364.94" y2="413.17"/>
        <line class="cls-1" x1="392.05" y1="291.17" x2="418.53" y2="291.17"/>
        <line class="cls-1" x1="176.42" y1="291.17" x2="201.39" y2="291.17"/>
        <line class="cls-1" x1="229.39" y1="291.17" x2="241.39" y2="291.17"/>
        <line class="cls-1" x1="268.91" y1="291.17" x2="284.05" y2="291.17"/>
        <line class="cls-1" x1="312.05" y1="291.17" x2="324.29" y2="291.17"/>
        <line class="cls-1" x1="351.82" y1="291.17" x2="364.05" y2="291.17"/>
        <rect class="cls-4" x="213.84" y="133.71" width="175.74" height="39.89" rx="4.68" ry="4.68"/>
        <text class="cls-5" transform="translate(227.98 161.06)">Purchase History</text>
        <rect class="cls-4" x="173.08" y="601.78" width="260.32" height="41.33" rx="4.68" ry="4.68"/>
        <text class="cls-5" transform="translate(186.59 629.85)">Customer Acquisition Cost </text>
        <rect class="cls-4" x="413.81" y="491.54" width="172.35" height="38.44" rx="4.68" ry="4.68"/>
        <text class="cls-8" transform="translate(445.68 518.16)">V<tspan class="cls-7" x="11.61" y="0">alue Profile</tspan>
    </text>
    <rect class="cls-4" x="1" y="492.86" width="194.61" height="35.79" rx="4.68" ry="4.68"/>
    <text class="cls-5" transform="translate(13.59 518.16)">Customer Segment </text>
    <rect class="cls-4" x="418.53" y="240.98" width="181.9" height="63.09" rx="4.68" ry="4.68"/>
    <text class="cls-5" transform="translate(429.17 266.84)">Customer Lifetime<tspan class="cls-9">
    <tspan x="55.17" y="24">V</tspan>
    <tspan class="cls-10" x="66.77" y="24">alue</tspan>
</tspan>
</text>
<rect class="cls-4" x="34.61" y="240.98" width="141.81" height="63.09" rx="4.68" ry="4.68"/>
<text class="cls-5" transform="translate(44.91 266.84)">A<tspan class="cls-11" x="12.25" y="0">v</tspan>
<tspan x="21.75" y="0">erage Order</tspan>
<tspan class="cls-9">
    <tspan x="36.76" y="24">V</tspan>
    <tspan class="cls-10" x="48.37" y="24">alue</tspan>
</tspan>
</text>
<circle class="cls-12" cx="281.55" cy="511.42" r="18.42"/>
<path class="cls-12" d="M294.23,524.09A12.2,12.2,0,0,0,282,511.9c-6.74,0-12.8,5.7-12.8,12.44"/>
<circle class="cls-12" cx="281.79" cy="504.6" r="6.94"/>
<circle class="cls-12" cx="320.55" cy="551.42" r="17.54"/>
<path class="cls-13" d="M324.06,555.41a2.47,2.47,0,0,0-.17-.92,2.28,2.28,0,0,0-.54-.78,4,4,0,0,0-1-.67,9.89,9.89,0,0,0-1.45-.6,11.59,11.59,0,0,1-1.88-.74,5.71,5.71,0,0,1-1.42-1,4,4,0,0,1-.89-1.32,4.53,4.53,0,0,1-.31-1.73,4.84,4.84,0,0,1,.28-1.67,3.88,3.88,0,0,1,.79-1.31,4,4,0,0,1,1.24-.9,5.25,5.25,0,0,1,1.64-.46V541.7a.82.82,0,0,1,.82-.82h0a.82.82,0,0,1,.82.82v1.6a4.25,4.25,0,0,1,2.88,1.56,4.9,4.9,0,0,1,1,2.43,1,1,0,0,1-1,1.13h0a1,1,0,0,1-1-.89,4.32,4.32,0,0,0-.1-.47,3.18,3.18,0,0,0-.52-1.07,2.44,2.44,0,0,0-.86-.71,2.62,2.62,0,0,0-1.18-.25,3.47,3.47,0,0,0-1.2.19,2.24,2.24,0,0,0-.84.52,2.14,2.14,0,0,0-.5.81,3.17,3.17,0,0,0-.16,1,2.77,2.77,0,0,0,.15,1,2.05,2.05,0,0,0,.52.78,4.1,4.1,0,0,0,1,.67,10.25,10.25,0,0,0,1.52.61,12.65,12.65,0,0,1,1.89.77,5.59,5.59,0,0,1,1.39,1,3.84,3.84,0,0,1,.87,1.3,4.56,4.56,0,0,1,.3,1.71,4.69,4.69,0,0,1-.3,1.72,3.74,3.74,0,0,1-.86,1.31,4.19,4.19,0,0,1-1.35.88,6.14,6.14,0,0,1-1.76.43V561a.82.82,0,0,1-.82.82h0a.82.82,0,0,1-.82-.82v-1.29a5.94,5.94,0,0,1-1.64-.39,4.27,4.27,0,0,1-1.4-.89,4.18,4.18,0,0,1-1-1.48,4.81,4.81,0,0,1-.29-1.08,1,1,0,0,1,1-1.07H317a1,1,0,0,1,.95.84,3,3,0,0,0,.21.72,2.54,2.54,0,0,0,1.71,1.49,4.29,4.29,0,0,0,1.1.14,4.36,4.36,0,0,0,1.31-.18,2.79,2.79,0,0,0,1-.52,2.23,2.23,0,0,0,.61-.82A2.67,2.67,0,0,0,324.06,555.41Z"/>
<path class="cls-12" d="M337.89,532a36.67,36.67,0,0,0-36.67-36.67"/>
<path class="cls-12" d="M264.55,532a36.67,36.67,0,0,0,36.67,36.67"/>
<polyline class="cls-12" points="260.73 535.3 264.51 530.92 268.89 535.01"/>
<polyline class="cls-12" points="341.31 528.49 338.05 532.79 333.15 528.78"/>
<path class="cls-12" d="M114.93,152.51V142.37c0-4.45-3.29-8.09-7.31-8.09H88.2c-4,0-7.31,3.64-7.31,8.09v10.14"/>
<circle class="cls-13" cx="120.3" cy="164.16" r="2.94"/>
<line class="cls-12" x1="500.05" y1="170.67" x2="500.05" y2="164.67"/>
<line class="cls-12" x1="485.05" y1="164.67" x2="485.05" y2="170.67"/>
<circle class="cls-12" cx="493.07" cy="148.75" r="16.75"/>
<path class="cls-12" d="M476.86,150.37a18.68,18.68,0,0,0,11.35-9.19s7,15.67,21.35,10.54"/>
<path class="cls-12" d="M504.86,171.45H473.76c-5.94,0-10.81,5.84-10.81,13v18.64"/>
<line class="cls-12" x1="522.4" y1="203.06" x2="522.4" y2="193.83"/>
<line class="cls-12" x1="474.05" y1="203.67" x2="474.05" y2="184.67"/>
<line class="cls-12" x1="493.05" y1="203.67" x2="493.05" y2="171.67"/>
<line class="cls-12" x1="511.05" y1="203.67" x2="511.05" y2="189.88"/>
<line class="cls-12" x1="488.05" y1="193.67" x2="488.05" y2="190.67"/>
<line class="cls-12" x1="488.05" y1="201.67" x2="488.05" y2="197.67"/>
<polyline class="cls-12" points="484.43 171.81 485.6 179.65 492.89 172.44"/>
<polyline class="cls-12" points="501.54 171.81 500.37 179.65 493.07 172.44"/>
<circle class="cls-12" cx="523.55" cy="174.83" r="19"/>
<path class="cls-13" d="M527.18,178.87A2.47,2.47,0,0,0,527,178a2.28,2.28,0,0,0-.54-.78,4,4,0,0,0-1-.67,9.89,9.89,0,0,0-1.45-.6,11.59,11.59,0,0,1-1.88-.74,5.71,5.71,0,0,1-1.42-1,4,4,0,0,1-.89-1.32,4.53,4.53,0,0,1-.31-1.73,4.84,4.84,0,0,1,.28-1.67,3.88,3.88,0,0,1,.79-1.31,4,4,0,0,1,1.24-.9,5.25,5.25,0,0,1,1.64-.46v-1.59a.82.82,0,0,1,.82-.82h0a.82.82,0,0,1,.82.82v1.6a4.25,4.25,0,0,1,2.88,1.56,4.9,4.9,0,0,1,1,2.43,1,1,0,0,1-1,1.13h0a1,1,0,0,1-1-.89,4.32,4.32,0,0,0-.1-.47,3.18,3.18,0,0,0-.52-1.07,2.44,2.44,0,0,0-.86-.71,2.62,2.62,0,0,0-1.18-.25,3.47,3.47,0,0,0-1.2.19,2.24,2.24,0,0,0-.84.52,2.14,2.14,0,0,0-.5.81,3.17,3.17,0,0,0-.16,1,2.77,2.77,0,0,0,.15,1,2.05,2.05,0,0,0,.52.78,4.1,4.1,0,0,0,1,.67,10.25,10.25,0,0,0,1.52.61,12.65,12.65,0,0,1,1.89.77,5.59,5.59,0,0,1,1.39,1,3.84,3.84,0,0,1,.87,1.3,4.56,4.56,0,0,1,.3,1.71,4.69,4.69,0,0,1-.3,1.72,3.74,3.74,0,0,1-.86,1.31,4.19,4.19,0,0,1-1.35.88,6.14,6.14,0,0,1-1.76.43v1.29a.82.82,0,0,1-.82.82h0a.82.82,0,0,1-.82-.82v-1.29a5.94,5.94,0,0,1-1.64-.39,4.27,4.27,0,0,1-1.4-.89,4.18,4.18,0,0,1-1-1.48,4.81,4.81,0,0,1-.29-1.08,1,1,0,0,1,1-1.07h.13a1,1,0,0,1,.95.84,3,3,0,0,0,.21.72,2.54,2.54,0,0,0,1.71,1.49,4.29,4.29,0,0,0,1.1.14,4.36,4.36,0,0,0,1.31-.18,2.79,2.79,0,0,0,1-.52,2.23,2.23,0,0,0,.61-.82A2.67,2.67,0,0,0,527.18,178.87Z"/>
<polygon class="cls-12" points="464.44 458.67 448.2 408.74 490.72 377.88 533.24 408.73 517 458.67 464.44 458.67"/>
<line class="cls-12" x1="493.81" y1="392.91" x2="511.48" y2="413.62"/>
<line class="cls-12" x1="462.6" y1="409.79" x2="487.24" y2="391.83"/>
<line class="cls-12" x1="475.18" y1="436.99" x2="462.34" y2="415.31"/>
<line class="cls-12" x1="504.96" y1="446.7" x2="480.55" y2="441.62"/>
<line class="cls-12" x1="513.67" y1="420.52" x2="510.29" y2="443.22"/>
<line class="cls-12" x1="491.05" y1="386.75" x2="491.05" y2="378.67"/>
<polyline class="cls-12" points="479.81 438.11 491.05 423.33 491.05 394.32"/>
<line class="cls-12" x1="464.72" y1="457.92" x2="475.17" y2="444.19"/>
<line class="cls-12" x1="517.41" y1="414.95" x2="532.05" y2="409.42"/>
<polyline class="cls-12" points="463.24 414.17 491.22 424.83 510.05 417.72"/>
<line class="cls-12" x1="448.39" y1="408.5" x2="456.24" y2="411.5"/>
<line class="cls-12" x1="505.73" y1="444.11" x2="491.22" y2="424.83"/>
<line class="cls-12" x1="516.55" y1="458.5" x2="510.29" y2="450.18"/>
<circle class="cls-12" cx="513.8" cy="416.67" r="3.75"/>
<circle class="cls-12" cx="508.8" cy="446.67" r="3.75"/>
<circle class="cls-12" cx="476.8" cy="440.67" r="3.75"/>
<circle class="cls-12" cx="459.8" cy="412.67" r="3.75"/>
<circle class="cls-12" cx="490.8" cy="390.67" r="3.75"/>
<circle class="cls-12" cx="278.3" cy="31.42" r="7"/>
<line class="cls-12" x1="292.05" y1="31.67" x2="324.05" y2="31.67"/>
<circle class="cls-12" cx="278.3" cy="52.42" r="7"/>
<line class="cls-12" x1="292.05" y1="52.67" x2="324.05" y2="52.67"/>
<circle class="cls-12" cx="278.3" cy="73.42" r="7"/>
<line class="cls-12" x1="292.05" y1="73.67" x2="324.05" y2="73.67"/>
<circle class="cls-12" cx="278.3" cy="94.42" r="7"/>
<line class="cls-12" x1="292.05" y1="94.67" x2="324.05" y2="94.67"/>
<circle class="cls-2" cx="102.67" cy="170.4" r="61.16"/>
<path class="cls-12" d="M81.13,208.41h42.49a6.09,6.09,0,0,0,6-5.06l7.47-43.61a6.18,6.18,0,0,0-6.09-7.23H74.7a6.18,6.18,0,0,0-6.11,7.1l6.52,43.61A6.09,6.09,0,0,0,81.13,208.41Z"/>
<path class="cls-12" d="M120.1,164.17V137.5c0-4.45-3.29-8.09-7.31-8.09H93.37c-4,0-7.31,3.64-7.31,8.09v26.67"/>
<circle class="cls-13" cx="86.27" cy="164.16" r="2.94"/>
<path class="cls-13" d="M106.56,187.72a3,3,0,0,0-.2-1.11,2.77,2.77,0,0,0-.65-1,4.84,4.84,0,0,0-1.17-.82,12,12,0,0,0-1.76-.72,14.08,14.08,0,0,1-2.29-.91A6.94,6.94,0,0,1,98.77,182a4.8,4.8,0,0,1-1.09-1.61,5.5,5.5,0,0,1-.38-2.1,5.88,5.88,0,0,1,.34-2,4.71,4.71,0,0,1,1-1.6,4.88,4.88,0,0,1,1.51-1.1,6.38,6.38,0,0,1,2-.56v-1.94a1,1,0,0,1,1-1h0a1,1,0,0,1,1,1v2a5.17,5.17,0,0,1,3.51,1.89,6,6,0,0,1,1.17,3,1.24,1.24,0,0,1-1.24,1.38h0a1.26,1.26,0,0,1-1.23-1.08,5.25,5.25,0,0,0-.13-.57,3.87,3.87,0,0,0-.64-1.3,3,3,0,0,0-1-.86,3.19,3.19,0,0,0-1.43-.31,4.22,4.22,0,0,0-1.46.23,2.72,2.72,0,0,0-1,.64,2.61,2.61,0,0,0-.6,1,3.85,3.85,0,0,0-.2,1.27,3.36,3.36,0,0,0,.19,1.16,2.49,2.49,0,0,0,.63.95,5,5,0,0,0,1.18.81,12.45,12.45,0,0,0,1.85.74,15.38,15.38,0,0,1,2.29.93,6.79,6.79,0,0,1,1.7,1.2,4.66,4.66,0,0,1,1.05,1.58,5.54,5.54,0,0,1,.36,2.08,5.7,5.7,0,0,1-.36,2.09,4.55,4.55,0,0,1-1,1.6,5.09,5.09,0,0,1-1.64,1.07,7.46,7.46,0,0,1-2.14.52v1.57a1,1,0,0,1-1,1h0a1,1,0,0,1-1-1V193a7.22,7.22,0,0,1-2-.47,5.19,5.19,0,0,1-1.7-1.09,5.08,5.08,0,0,1-1.19-1.8,5.84,5.84,0,0,1-.35-1.31A1.16,1.16,0,0,1,97.81,187H98a1.18,1.18,0,0,1,1.15,1,3.64,3.64,0,0,0,.26.87,3.08,3.08,0,0,0,2.08,1.81,5.22,5.22,0,0,0,1.33.17,5.3,5.3,0,0,0,1.6-.22,3.39,3.39,0,0,0,1.18-.63,2.71,2.71,0,0,0,.74-1A3.24,3.24,0,0,0,106.56,187.72Z"/>
<polyline class="cls-14" points="229.39 308.44 229.39 257.36 201.39 257.36 201.39 371.14"/>
<polyline class="cls-14" points="241.39 308.26 241.39 232.59 269.39 232.59 269.39 315.65"/>
<line class="cls-14" x1="269.39" y1="361.09" x2="269.39" y2="335.68"/>
<polyline class="cls-14" points="312.05 299.85 312.05 200.33 284.05 200.33 284.05 299.9"/>
<polyline class="cls-14" points="324.05 310.29 324.05 252.35 352.05 252.35 352.05 308.88"/>
<line class="cls-14" x1="324.05" y1="359.75" x2="324.05" y2="341.04"/>
<polyline class="cls-14" points="392.05 370.19 392.05 231.78 364.05 231.78 364.05 308.11"/>
<line class="cls-14" x1="398.62" y1="384.67" x2="414.05" y2="384.67"/>
<line class="cls-14" x1="181.05" y1="384.67" x2="195.61" y2="384.67"/>
<path class="cls-15" d="M350.72,354.36a41.24,41.24,0,0,0-20.07,10.08"/>
<path class="cls-15" d="M399.24,413.17V391.94c0-18.17-13.51-33.5-31.48-37.39"/>
<ellipse class="cls-15" cx="359.21" cy="331.66" rx="25.32" ry="24"/>
<path class="cls-15" d="M226.81,354.45c-18.2,3.73-31.94,19.16-31.94,37.49v21.23"/>
<path class="cls-15" d="M264,364.93a41.19,41.19,0,0,0-20.13-10.48"/>
<path class="cls-15" d="M241.39,308.26a26.74,26.74,0,0,0-5.62-.59c-14,0-25.32,10.74-25.32,24s11.34,24,25.32,24,25.32-10.74,25.32-24c0-11.42-8.42-21-19.7-23.4"/>
<path class="cls-15" d="M288,353.06c-22.37,4.24-39.36,23.06-39.36,45.46v23.65"/>
<path class="cls-15" d="M346.48,422.17V398.51c0-22-16.41-40.58-38.22-45.23"/>
<ellipse class="cls-15" cx="298.11" cy="325.67" rx="30.6" ry="29"/>
<line class="cls-12" x1="65.05" y1="451.67" x2="137.05" y2="451.67"/>
<rect class="cls-12" x="71.33" y="405.67" width="14.63" height="46"/>
<rect class="cls-12" x="93.74" y="383.67" width="14.63" height="68"/>
<rect class="cls-12" x="115.69" y="420.04" width="14.63" height="31.63"/>
</g>
</g>
</svg>
