<svg xmlns="http://www.w3.org/2000/svg" viewBox="0 0 1097.42 503"><defs><style>.cls-1{fill:#132a2d;}.cls-2{font-size:24px;letter-spacing:0.1em;}.cls-15,.cls-2{fill:#fff;font-family:Roboto-Bold, Roboto;font-weight:700;}.cls-3{letter-spacing:0.09em;}.cls-4{font-size:16px;fill:#a1afb5;font-family:Roboto-Regular, Roboto;}.cls-12,.cls-13,.cls-14,.cls-5,.cls-8{fill:none;stroke-miterlimit:10;}.cls-12,.cls-14,.cls-5{stroke:#00b7ff;}.cls-14,.cls-5{stroke-linecap:round;}.cls-6{letter-spacing:-0.02em;}.cls-7{fill:#00b7ff;}.cls-8{stroke:#376266;}.cls-9{fill:#5b9599;}.cls-10{letter-spacing:0.08em;}.cls-11{letter-spacing:0.1em;}.cls-13{stroke:#426266;stroke-width:2px;}.cls-14{stroke-width:4px;}.cls-15{font-size:30px;letter-spacing:0.3em;}</style></defs><title>Asset 10</title><g id="Layer_2" data-name="Layer 2"><g id="Layer_1-2" data-name="Layer 1"><rect class="cls-1" width="229.42" height="503" rx="12" ry="12"/><rect class="cls-1" x="868" width="229.42" height="503" rx="12" ry="12"/><text class="cls-2" transform="translate(922.58 49.14)">INSIGH<tspan class="cls-3" x="93.74" y="0">T</tspan><tspan x="109.61" y="0">S</tspan></text><text class="cls-4" transform="translate(119.58 112.72)">Video</text><text class="cls-4" transform="translate(912.19 182.72)">Campaign Analytics</text><rect class="cls-5" x="47.52" y="83.6" width="50.28" height="46.8" rx="4.94" ry="4.94"/><text class="cls-4" transform="translate(119.58 186.72)"><tspan class="cls-6">W</tspan><tspan x="13.89" y="0">eb</tspan></text><rect class="cls-5" x="48.52" y="157.6" width="50.28" height="46.8" rx="4.94" ry="4.94"/><line class="cls-5" x1="49" y1="167.56" x2="98" y2="167.56"/><circle class="cls-7" cx="54.17" cy="162.46" r="1.16"/><circle class="cls-7" cx="58.8" cy="162.46" r="1.16"/><circle class="cls-7" cx="63.44" cy="162.46" r="1.16"/><rect class="cls-5" x="54.47" y="172.92" width="38.45" height="10.65"/><line class="cls-5" x1="92.92" y1="188.59" x2="54.47" y2="188.59"/><line class="cls-5" x1="92.92" y1="193.62" x2="54.47" y2="193.62"/><line class="cls-5" x1="74.83" y1="198.64" x2="54.47" y2="198.64"/><text class="cls-4" transform="translate(119.58 353.72)">Email</text><path class="cls-5" d="M53.63,338.28H52.46a5,5,0,0,0-4.94,4.94v23.24a5,5,0,0,0,4.94,4.94H92.87a5,5,0,0,0,4.94-4.94V343.22a5,5,0,0,0-4.94-4.94H91.75"/><path class="cls-5" d="M91.76,343.25V326.4a1.81,1.81,0,0,0-1.8-1.8H55.37a1.81,1.81,0,0,0-1.8,1.8v16.35"/><text class="cls-4" transform="translate(119.58 269.72)">Social</text><text class="cls-4" transform="translate(119.58 431.22)">Mobile</text><circle class="cls-5" cx="73.13" cy="99.87" r="10.04"/><polygon class="cls-5" points="71.5 95.73 71.5 104.59 76.67 100.02 71.5 95.73"/><line class="cls-5" x1="53" y1="123.56" x2="92" y2="123.56"/><line class="cls-5" x1="48" y1="116.56" x2="97" y2="116.56"/><circle class="cls-7" cx="64.34" cy="123.59" r="1.76"/><g id="XzYpVV.tif"><path class="cls-5" d="M47.45,291.91a11.78,11.78,0,0,0,7.63-2.23,25.21,25.21,0,0,1-2.88-1.31,4.63,4.63,0,0,1-1.95-2.68H52.4l0-.17a5.43,5.43,0,0,1-3-2,5,5,0,0,1-1.13-3.32l2.16.6c-2.27-2.81-2.73-5-1.4-7.33a15.85,15.85,0,0,0,11.23,5.7c0-.55,0-1,0-1.53a5.48,5.48,0,0,1,9.05-3.86,1,1,0,0,0,1.14.23c.72-.27,1.44-.56,2.16-.84l.6-.24a8.07,8.07,0,0,1-2,2.92l2.61-.7.1.11a25.41,25.41,0,0,1-2,2.06,1.61,1.61,0,0,0-.64,1.36,15.42,15.42,0,0,1-1.75,7,14.81,14.81,0,0,1-12.35,8.42,15.28,15.28,0,0,1-9.28-1.95Z"/></g><g id="xDV8Ym.tif"><path class="cls-5" d="M98,238c-.13-.4-.46-.4-.8-.4H90.26a7,7,0,0,0-1.23.11,7.17,7.17,0,0,0-4.32,2.44A5.52,5.52,0,0,0,88,249.06c.41.09.84.13,1.17.19l.28,2.2c-.17,0-.4,0-.62,0a8.21,8.21,0,0,0-5.5,2.42c-2.35,2.46-1.83,5.43,1.18,7a7.93,7.93,0,0,0,.75.34,12.33,12.33,0,0,0,5.17.78,8.43,8.43,0,0,0,4.83-1.62,5.19,5.19,0,0,0,2.2-4.5,5.61,5.61,0,0,0-2.4-4.53,14,14,0,0,1-1.66-1.47.93.93,0,0,1,.07-1.52c.34-.34.74-.62,1.1-.94a5.11,5.11,0,0,0,1.74-5.3A16.44,16.44,0,0,0,95.5,240c.41-.22.87-.45,1.3-.71.27-.16.5-.36.76-.54S98.12,238.37,98,238Zm-8.63,9a4.86,4.86,0,0,1-2.17-3.32,4.32,4.32,0,0,1,.11-2.35,2.09,2.09,0,0,1,3.31-1.19c1.52,1,2.09,2.49,2.21,4.44a9,9,0,0,1-.35,1.39A2,2,0,0,1,89.36,247Zm4.81,8.42A2.74,2.74,0,0,1,93,259.08a7.11,7.11,0,0,1-3.06.63,4.78,4.78,0,0,1-3.41-1.23,2.56,2.56,0,0,1,.15-4,5.16,5.16,0,0,1,5-1A4.91,4.91,0,0,1,94.17,255.4Z"/></g><polygon class="cls-5" points="107.5 247.56 107.5 250.56 104.5 250.56 104.5 253.56 101.5 253.56 101.5 250.56 97.5 250.56 97.5 247.56 101.5 247.56 101.5 243.56 104.5 243.56 104.5 247.56 107.5 247.56"/><path class="cls-5" d="M80.42,293.57V269.64a2,2,0,0,1,.82-1.3,6.77,6.77,0,0,1,.92-.4H106a6.91,6.91,0,0,1,1,.43,2,2,0,0,1,.79,1.28v23.93a4.59,4.59,0,0,1-.31.76,2,2,0,0,1-1.85.94H82.5a2.13,2.13,0,0,1-1.34-.45A2.19,2.19,0,0,1,80.42,293.57ZM91,290.8l.1,0H95c.17,0,.17-.1.17-.21q0-.89,0-1.79c0-1.74,0-3.48,0-5.22a2.22,2.22,0,0,1,2.16-2.17,1.83,1.83,0,0,1,1.94,1.31,4.69,4.69,0,0,1,.22,1.59q0,3.12,0,6.24c0,.18,0,.26.24.25h3.69c.19,0,.23-.07.23-.24,0-2.27,0-4.54,0-6.81a7.86,7.86,0,0,0-.38-2.51,4.31,4.31,0,0,0-1.91-2.45,5,5,0,0,0-3-.6,3.88,3.88,0,0,0-2.66,1.28c-.18.2-.35.42-.55.67,0-.11,0-.18,0-.25,0-.39,0-.79,0-1.18,0-.19,0-.27-.25-.26H91Zm-6.43-12.31v.25q0,5.9,0,11.81c0,.2,0,.27.26.27q1.81,0,3.62,0c.21,0,.27-.05.27-.27q0-5.92,0-11.83c0-.08,0-.15,0-.24Zm2.12-6a2.22,2.22,0,0,0-2.28,1.57,2.1,2.1,0,0,0,1,2.42,2.68,2.68,0,0,0,2.14.1,2.07,2.07,0,0,0,1.11-3A2.18,2.18,0,0,0,86.69,272.52Z"/><path class="cls-5" d="M75.5,238.67v21.91a2.88,2.88,0,0,1-2.58,3H64.5v-11H68c.14-2,.27-2.64.41-3.92-.09,0-.16-.08-.23-.08H65.11a.19.19,0,0,1-.19-.21c0-.82,0-1.68,0-2.49a.9.9,0,0,1,.71-.87,3.19,3.19,0,0,1,.62-.08c.63,0,1.3,0,1.93,0,.17,0,.27,0,.27-.23v-3.37c0-.1-.1.27-.1.27H64.63c-.06,0-.13-.25-.19-.24-.46.1-.92,0-1.36.16a2.8,2.8,0,0,0-1.78,1.44,4.94,4.94,0,0,0-.54,2.15c0,1,0,2.14,0,3.17,0,.25,0,.33-.26.33H58.11c-.15,0-.21-.06-.21.1,0,1.17,0,2.45,0,3.61a2.39,2.39,0,0,0,0,.3H60.5v11H49.83c-1.47,0-2.33-1.51-2.33-3V238.67c0-1.47.86-2.11,2.33-2.11H72.92C74.39,236.56,75.5,237.2,75.5,238.67Z"/><polyline class="cls-5" points="47.52 366.46 73 351.25 97.81 366.46"/><line class="cls-5" x1="49.69" y1="339.56" x2="67.56" y2="354.12"/><line class="cls-5" x1="96.06" y1="339.81" x2="78.06" y2="354.37"/><line class="cls-5" x1="58" y1="331.56" x2="86" y2="331.56"/><line class="cls-5" x1="58" y1="336.56" x2="86" y2="336.56"/><line class="cls-5" x1="58" y1="341.56" x2="86" y2="341.56"/><line class="cls-5" x1="59" y1="346.56" x2="72" y2="346.56"/><rect class="cls-5" x="53.41" y="398.63" width="37.18" height="55.78" rx="4.17" ry="4.17"/><rect class="cls-5" x="58.76" y="404.7" width="25.96" height="38.29" rx="0.26" ry="0.26"/><circle class="cls-5" cx="71.66" cy="448.07" r="1.5"/><line class="cls-5" x1="64" y1="412.56" x2="79" y2="412.56"/><line class="cls-5" x1="64" y1="419.56" x2="79" y2="419.56"/><line class="cls-5" x1="64" y1="425.56" x2="79" y2="425.56"/><line class="cls-5" x1="64" y1="431.56" x2="79" y2="431.56"/><polyline class="cls-8" points="166 110.53 283 140.54 379.25 226.56 430 226.56"/><circle class="cls-9" cx="283" cy="140.5" r="3.5"/><circle class="cls-9" cx="379" cy="226.5" r="3.5"/><polyline class="cls-8" points="160 184.78 257 186.04 378.25 246.56 429 246.56"/><circle class="cls-9" cx="379" cy="246.5" r="3.5"/><line class="cls-8" x1="178" y1="266.56" x2="430" y2="266.56"/><circle class="cls-9" cx="260" cy="186.5" r="3.5"/><polyline class="cls-8" points="176.67 423.72 283 393.42 379.25 307.56 430 307.56"/><circle class="cls-9" cx="283" cy="393" r="3.5"/><circle class="cls-9" cx="379" cy="307" r="3.5"/><polyline class="cls-8" points="166 349.03 257 347.92 378.25 287.56 429 287.56"/><circle class="cls-9" cx="379" cy="287" r="3.5"/><circle class="cls-9" cx="260" cy="347" r="3.5"/><circle class="cls-9" cx="260" cy="266.5" r="3.5"/><circle class="cls-9" cx="379" cy="266.5" r="3.5"/><text class="cls-2" transform="translate(58.74 49.14)">COLLE<tspan class="cls-10" x="83.48" y="0">C</tspan><tspan class="cls-11" x="100.83" y="0">T</tspan></text><line class="cls-8" x1="665" y1="226.56" x2="880" y2="226.56"/><line class="cls-8" x1="665" y1="246.56" x2="880" y2="246.56"/><line class="cls-8" x1="665" y1="266.56" x2="880" y2="266.56"/><line class="cls-8" x1="665" y1="287.56" x2="880" y2="287.56"/><line class="cls-8" x1="665" y1="307.56" x2="880" y2="307.56"/><rect class="cls-12" x="938.94" y="70.8" width="90.25" height="67.9" rx="4.13" ry="4.13"/><rect class="cls-5" x="944.67" y="79.42" width="78.78" height="46.55"/><line class="cls-12" x1="974.5" y1="146.06" x2="974.5" y2="139.06"/><line class="cls-12" x1="990.5" y1="146.06" x2="990.5" y2="139.06"/><rect class="cls-12" x="965.54" y="146.83" width="37.05" height="6.18" rx="2.25" ry="2.25"/><line class="cls-5" x1="945" y1="88.56" x2="1023" y2="88.56"/><line class="cls-5" x1="950" y1="93.56" x2="993" y2="93.56"/><line class="cls-5" x1="950" y1="100.56" x2="993" y2="100.56"/><line class="cls-5" x1="950" y1="106.56" x2="966" y2="106.56"/><line class="cls-5" x1="970" y1="106.56" x2="973" y2="106.56"/><circle class="cls-5" cx="983.99" cy="131.77" r="2.6"/><circle class="cls-7" cx="949.37" cy="83.45" r="0.88"/><circle class="cls-7" cx="953.97" cy="83.45" r="0.88"/><circle class="cls-7" cx="958.58" cy="83.45" r="0.88"/><circle class="cls-7" cx="983.52" cy="75.97" r="0.88"/><rect class="cls-5" x="998.67" y="93.21" width="19.58" height="27.64"/><rect class="cls-5" x="949.8" y="112.13" width="8.06" height="8.06"/><rect class="cls-5" x="962.64" y="112.13" width="8.06" height="8.06"/><rect class="cls-5" x="975.47" y="112.13" width="8.06" height="8.06"/><circle class="cls-5" cx="1008.5" cy="104.53" r="3.97"/><path class="cls-5" d="M1017.33,120.62a9.06,9.06,0,0,0-18.13,0"/><text class="cls-4" transform="translate(920.23 327.72)">Content Analytics</text><text class="cls-4" transform="translate(915.16 470.72)">Audience Analytics</text><rect class="cls-8" x="880.6" y="13.9" width="203.8" height="474.2" rx="7.79" ry="7.79"/><rect class="cls-12" x="951.97" y="213.12" width="59.33" height="79.95"/><polyline class="cls-12" points="960 299.56 1016.5 299.56 1016.5 220.06"/><line class="cls-12" x1="960" y1="220.56" x2="985" y2="220.56"/><line class="cls-5" x1="959" y1="253.56" x2="1004" y2="253.56"/><line class="cls-5" x1="966" y1="260.56" x2="983" y2="260.56"/><line class="cls-5" x1="959" y1="273.56" x2="1004" y2="273.56"/><line class="cls-5" x1="959" y1="280.56" x2="1004" y2="280.56"/><line class="cls-5" x1="959" y1="287.56" x2="987" y2="287.56"/><rect class="cls-5" x="959.16" y="226.53" width="43.97" height="20.13"/><path class="cls-5" d="M997.92,246.36a7.87,7.87,0,1,0-15.74,0"/><circle class="cls-5" cx="990.15" cy="234.08" r="4.13"/><line class="cls-5" x1="963.5" y1="241.06" x2="963.5" y2="230.06"/><line class="cls-5" x1="963.5" y1="244.06" x2="963.5" y2="243.06"/><line class="cls-5" x1="965.5" y1="241.06" x2="965.5" y2="235.06"/><line class="cls-5" x1="965.5" y1="244.06" x2="965.5" y2="243.06"/><line class="cls-5" x1="968.5" y1="241.06" x2="968.5" y2="234.06"/><line class="cls-5" x1="968.5" y1="244.06" x2="968.5" y2="243.06"/><line class="cls-5" x1="970.5" y1="241.06" x2="970.5" y2="237.06"/><line class="cls-5" x1="970.5" y1="244.06" x2="970.5" y2="243.06"/><line class="cls-5" x1="973.5" y1="241.06" x2="973.5" y2="233.06"/><line class="cls-5" x1="973.5" y1="244.06" x2="973.5" y2="243.06"/><rect class="cls-5" x="959.16" y="257.65" width="3.47" height="3.47"/><line class="cls-5" x1="966" y1="265.56" x2="983" y2="265.56"/><rect class="cls-5" x="959.16" y="264.13" width="3.47" height="3.47"/><circle class="cls-9" cx="760" cy="226.5" r="3.5"/><circle class="cls-9" cx="760" cy="246.5" r="3.5"/><circle class="cls-9" cx="760" cy="307" r="3.5"/><circle class="cls-9" cx="760" cy="287" r="3.5"/><circle class="cls-9" cx="760" cy="266.5" r="3.5"/><path class="cls-13" d="M530.74,244.91v9.69l0,.16a1.51,1.51,0,0,1-1.23,1.18l-.89.13-6.56,1a.29.29,0,0,0-.27.22,25.26,25.26,0,0,1-1.48,3.46.25.25,0,0,0,0,.32l3.46,4.49c.32.42.67.81,1,1.23a1.44,1.44,0,0,1,0,1.85,48.19,48.19,0,0,1-6.14,6.37,13.69,13.69,0,0,1-1.5,1.06.91.91,0,0,1-.8.12,3.46,3.46,0,0,1-.86-.4c-.45-.31-.87-.67-1.31-1l-4.3-3.37a.19.19,0,0,0-.24,0,22.81,22.81,0,0,1-3.56,1.48.19.19,0,0,0-.15.18c-.14,1.14-.27,2.29-.45,3.42q-.33,2.1-.75,4.19a1.38,1.38,0,0,1-1.55,1.22h-9.41a1.46,1.46,0,0,1-1.34-1.07c0-.14,0-.28-.06-.43q-.56-3.64-1.11-7.29a.26.26,0,0,0-.2-.24,24.28,24.28,0,0,1-3.45-1.42.23.23,0,0,0-.28,0l-5.84,4.44a1.52,1.52,0,0,1-2-.08c-1.28-1.19-2.56-2.38-3.81-3.59a29.41,29.41,0,0,1-3-3.34,1.61,1.61,0,0,1,0-2.17c.88-1.17,1.79-2.32,2.68-3.48L477,261l-.18-.35a19.68,19.68,0,0,1-1.47-3.6.3.3,0,0,0-.29-.24l-2.69-.39-4.23-.62-.57-.09a1.46,1.46,0,0,1-1.16-1.49q0-4.66,0-9.31c0-.06,0-.11,0-.17a1.54,1.54,0,0,1,1.28-1.37l1.86-.28,5.62-.85a.23.23,0,0,0,.21-.19,19.67,19.67,0,0,1,1.49-3.52.27.27,0,0,0,0-.35l-3.35-4.36c-.36-.47-.75-.91-1.11-1.37a1.31,1.31,0,0,1-.1-1.62,7,7,0,0,1,.53-.73,54.17,54.17,0,0,1,5.27-5.44,9.69,9.69,0,0,1,1.83-1.37,1.31,1.31,0,0,1,1.34,0,3.27,3.27,0,0,1,.44.29l5.58,4.32a.21.21,0,0,0,.26,0,22.79,22.79,0,0,1,3.52-1.47.21.21,0,0,0,.17-.2c.21-1.59.4-3.19.65-4.78.15-1,.35-1.94.56-2.91a1.33,1.33,0,0,1,1.19-1.11,3.13,3.13,0,0,1,.43,0h9.29a1.43,1.43,0,0,1,1.38,1.16c.15,1,.29,1.9.43,2.86q.36,2.39.72,4.78a.23.23,0,0,0,.19.21,25,25,0,0,1,3.45,1.42.25.25,0,0,0,.31,0l5.93-4.48a1.22,1.22,0,0,1,.35-.18,1.58,1.58,0,0,1,1.67.41c1.25,1.19,2.51,2.37,3.74,3.59a27.67,27.67,0,0,1,3.09,3.47,1.46,1.46,0,0,1,.22.45,1.59,1.59,0,0,1-.28,1.44c-.26.35-.51.7-.78,1l-3.51,4.54a.25.25,0,0,0,0,.32,23.49,23.49,0,0,1,1.55,3.71.34.34,0,0,0,.33.27l3.06.46c1.37.21,2.74.43,4.12.62a1.53,1.53,0,0,1,1.37,1C530.68,244.69,530.71,244.8,530.74,244.91Zm-42.92,4.77a10.74,10.74,0,1,0,10.79-10.75A10.79,10.79,0,0,0,487.81,249.68Z"/><path class="cls-13" d="M626.66,278v14.71l-.07.24a2.29,2.29,0,0,1-1.87,1.8l-1.35.19-10,1.51a.44.44,0,0,0-.41.34,38.35,38.35,0,0,1-2.25,5.25.38.38,0,0,0,0,.48L616,309.4c.49.63,1,1.23,1.5,1.87a2.18,2.18,0,0,1,.06,2.81,73.16,73.16,0,0,1-9.33,9.67,20.79,20.79,0,0,1-2.27,1.6,1.38,1.38,0,0,1-1.21.17,5.25,5.25,0,0,1-1.31-.6c-.69-.47-1.32-1-2-1.54L595,318.27a.29.29,0,0,0-.37-.05,34.63,34.63,0,0,1-5.4,2.25.28.28,0,0,0-.23.27c-.22,1.73-.4,3.47-.68,5.2q-.51,3.19-1.14,6.36a2.1,2.1,0,0,1-2.35,1.86H570.52a2.21,2.21,0,0,1-2-1.62c0-.21-.06-.43-.1-.65q-.84-5.53-1.68-11.06a.39.39,0,0,0-.31-.37,36.86,36.86,0,0,1-5.23-2.15.35.35,0,0,0-.43,0l-8.87,6.75a2.3,2.3,0,0,1-3-.12c-1.94-1.81-3.88-3.61-5.79-5.45a44.66,44.66,0,0,1-4.62-5.08,2.45,2.45,0,0,1,0-3.29c1.34-1.77,2.71-3.52,4.07-5.28l2.52-3.3-.28-.53a29.88,29.88,0,0,1-2.23-5.47.46.46,0,0,0-.45-.37l-4.09-.59-6.42-.95c-.29,0-.58-.08-.87-.13a2.22,2.22,0,0,1-1.76-2.26q0-7.07,0-14.14c0-.09,0-.17,0-.26a2.33,2.33,0,0,1,1.95-2.08l2.82-.42,8.53-1.28a.34.34,0,0,0,.32-.29,29.87,29.87,0,0,1,2.26-5.34.42.42,0,0,0,0-.53c-1.7-2.21-3.38-4.42-5.08-6.62-.55-.71-1.14-1.38-1.68-2.08a2,2,0,0,1-.14-2.46,10.58,10.58,0,0,1,.8-1.11,82.25,82.25,0,0,1,8-8.26,14.72,14.72,0,0,1,2.78-2.08,2,2,0,0,1,2,0,5,5,0,0,1,.66.44l8.47,6.57a.32.32,0,0,0,.4,0,34.61,34.61,0,0,1,5.35-2.24.33.33,0,0,0,.26-.31c.32-2.42.61-4.84,1-7.25.22-1.48.54-2.95.86-4.41a2,2,0,0,1,1.81-1.69,4.75,4.75,0,0,1,.65,0H585a2.17,2.17,0,0,1,2.09,1.77c.23,1.44.44,2.89.66,4.34q.55,3.63,1.1,7.26a.35.35,0,0,0,.28.32,37.93,37.93,0,0,1,5.23,2.15.38.38,0,0,0,.47,0l9-6.81a1.85,1.85,0,0,1,.53-.28,2.39,2.39,0,0,1,2.54.62c1.9,1.81,3.81,3.61,5.68,5.44a42,42,0,0,1,4.7,5.27,2.22,2.22,0,0,1,.34.68,2.42,2.42,0,0,1-.43,2.18c-.39.53-.78,1.06-1.18,1.57l-5.33,6.9a.38.38,0,0,0,0,.48,35.67,35.67,0,0,1,2.36,5.64.52.52,0,0,0,.51.41c1.55.22,3.1.46,4.65.7,2.08.32,4.16.66,6.25.95a2.33,2.33,0,0,1,2.08,1.56C626.58,277.72,626.62,277.89,626.66,278Zm-65.17,7.24A16.31,16.31,0,1,0,577.87,269,16.38,16.38,0,0,0,561.49,285.29Z"/><polyline class="cls-12" points="955.15 398.7 955.15 376.46 943.36 376.46 943.36 425.64"/><polyline class="cls-12" points="972 401.49 972 365.8 960.21 365.8 960.21 398.46"/><polyline class="cls-12" points="989.96 394.79 989.96 351.91 978.17 351.91 978.17 394.71"/><polyline class="cls-12" points="995.02 399.42 995.02 374.3 1006.81 374.3 1006.81 398.11"/><polyline class="cls-12" points="1023.65 425.08 1023.65 365.45 1011.86 365.45 1011.86 398.38"/><line class="cls-12" x1="1026" y1="431.56" x2="1034" y2="431.56"/><line class="cls-12" x1="934" y1="431.56" x2="941" y2="431.56"/><path class="cls-12" d="M1006.26,418.2a17.23,17.23,0,0,0-8.47,4.34"/><path class="cls-12" d="M1026.68,443.51v-9.13a16.7,16.7,0,0,0-13.52-16.15"/><ellipse class="cls-12" cx="1009.75" cy="408.43" rx="10.66" ry="10.33"/><path class="cls-12" d="M954.24,418.2a16.71,16.71,0,0,0-13.62,16.17v9.13"/><path class="cls-12" d="M969.61,422.64a17.23,17.23,0,0,0-8.48-4.42"/><ellipse class="cls-12" cx="957.77" cy="408.43" rx="10.66" ry="10.33"/><path class="cls-12" d="M979.86,417.64a20.2,20.2,0,0,0-16.58,19.56v7.17"/><path class="cls-12" d="M1004.46,444.37V437.2a20.19,20.19,0,0,0-16.28-19.5"/><ellipse class="cls-12" cx="984.02" cy="405.85" rx="12.88" ry="12.48"/><polygon class="cls-14" points="431 203 547 135.94 663 203 663 337.12 547 404.17 431 337.12 431 203"/><text class="cls-15" transform="translate(470.74 95.99)">ENRICH</text><rect class="cls-8" x="452" y="53.72" width="188.67" height="62" rx="12" ry="12"/></g></g></svg>