<svg xmlns="http://www.w3.org/2000/svg" viewBox="0 0 920.78 590.33"><defs><style>.cls-1{fill:#30565e;}.cls-2,.cls-4{fill:none;stroke-miterlimit:10;}.cls-2{stroke:#214244;}.cls-3{fill:#39656b;}.cls-4{stroke:#39676d;}</style></defs><title>Asset 49</title><g id="Layer_2" data-name="Layer 2"><g id="Layer_1-2" data-name="Layer 1"><path class="cls-1" d="M563.1,568.37a1.76,1.76,0,1,1,1.76-1.76,1.76,1.76,0,0,1-1.76,1.76Zm-1.89,3.8-7.6-.45-1.89-1.89,3,.18,0-.47,0,0,.39-.31s0,0-2.35-2.09h2.66l5.71,5.05Zm-1.36,4a1.76,1.76,0,0,1,0,2.48,1.8,1.8,0,0,1-2.48,0,1.76,1.76,0,0,1,2.48-2.48ZM553.34,580l-5.06-5.7v-2.67l2,2.26.35-.31h0l.5,0s0-.05-.19-3.12l1.88,1.88c.14,2.28.37,6,.47,7.62Zm-3.8,1.87a1.76,1.76,0,1,1-1.76-1.76,1.76,1.76,0,0,1,1.76,1.76ZM542.22,580l.45-7.61,1.89-1.89-.18,3,.47,0,0,0,.31.39s0,0,2.09-2.35v2.66L542.22,580Zm-4-1.36a1.8,1.8,0,0,1-2.48,0,1.76,1.76,0,1,1,2.48,0Zm-3.83-6.51,5.7-5.06h2.67l-2.26,2,.31.35v0l0,.5,3.12-.19L542,571.66l-7.62.47Zm0-11.11,7.6.45,1.89,1.89-3-.18,0,.47,0,0-.39.31s0,0,2.35,2.09h-2.66L534.39,561Zm1.36-4a1.76,1.76,0,1,1,2.48,0,1.8,1.8,0,0,1-2.48,0Zm6.51-3.83,5.06,5.7v2.67l-2-2.26-.35.31h0l-.5-.06c0,.05,0,.06.18,3.14l-1.88-1.88c-.14-2.28-.37-6-.47-7.62Zm3.8-1.87a1.76,1.76,0,1,1,1.76,1.76,1.76,1.76,0,0,1-1.76-1.76Zm7.31,1.89-.45,7.6L551,562.68l.18-3-.47,0,0,0-.31-.39s0,0-2.09,2.35V558.9l5.05-5.72Zm4,1.36a1.76,1.76,0,1,1,2.48,2.48,1.8,1.8,0,0,1-2.48,0,1.76,1.76,0,0,1,0-2.48Zm-7.52,14.17,0,.57.18,2.89-2.32-2.61-.38.42-1.92,2.17.21-3.49-.57,0-2.89.18,2.61-2.32-.42-.38-2.17-1.92,3.49.21,0-.57-.18-2.89,2.32,2.61.38-.42,1.92-2.17-.21,3.49.57,0,2.89-.18-2.61,2.32.42.38,2.17,1.92-3.49-.21Zm11.36-7.66-5.7,5.06h-2.67l2.26-2-.31-.35v0l.06-.5c-.05,0-.07,0-3.14.18l1.88-1.88,7.62-.47Zm-28.73,7.27a1.76,1.76,0,1,1,1.76-1.76,1.76,1.76,0,0,1-1.76,1.76Zm30.6-4.47a2.76,2.76,0,0,0-2.71,2.26H557l5.42-4.81-.47-.53v-.26l.05-.5c-.06,0,0,0-7.35.44l2.39-2.39a2.77,2.77,0,1,0-.71-.71L554,559.72l.43-7.23-.71,0-.19-.18-.31-.39s-.05,0-4.89,5.51V554a2.76,2.76,0,1,0-1,0v3.35l-4.81-5.42-.53.47h-.26l-.5-.05c0,.06,0,.06.44,7.35l-2.39-2.39a2.76,2.76,0,1,0-.71.71l2.37,2.37L533.7,560l0,.71-.18.19-.39.31s0,.05,5.51,4.89h-3.38a2.76,2.76,0,1,0,0,1h3.35l-5.42,4.81.47.53v.26l-.06.5c.06,0,.07,0,7.36-.44l-2.39,2.39a2.75,2.75,0,0,0-3.51.32,2.76,2.76,0,1,0,4.22.39l2.37-2.37-.43,7.23.71,0,.19.18.32.39s0,0,4.88-5.51v3.38a2.76,2.76,0,1,0,1,0v-3.35l4.81,5.42.53-.47h.26l.5.06c0-.06,0-.07-.44-7.36l2.39,2.39a2.76,2.76,0,1,0,.71-.71l-2.37-2.37,7.23.43,0-.71.18-.19.39-.32s0,0-5.51-4.88h3.38a2.76,2.76,0,1,0,2.71-3.26Z"/><path class="cls-1" d="M863.69,118.4l1.09,2.85-2.85-1.09-1.25,2.78-1.25-2.78-2.85,1.09,1.09-2.85-2.78-1.25,2.78-1.25-1.09-2.85,2.85,1.09,1.25-2.78,1.25,2.78,2.85-1.09-1.09,2.85,2.78,1.25-2.78,1.25Zm6.2,7.85h2v2h-2v-2Zm-18.43,2.12h-2v-2h2v2Zm0-20.43h-2v-2h2v2Zm18.43-2.12h2v2h-2v-2Zm10.33,10.83h-6l4.73-4.73-.71-.71-5.44,5.44H869.1l4.73-4.73-.71-.71-5.4,5.4L865,115.38l1.11-2.92,3.63-3.63h3.19v-4h-4v3.42l-3.53,3.53-2.91,1.11-1.24-2.76,5.4-5.4-.71-.71-4.73,4.73V105l5.44-5.44-.71-.71-4.73,4.73v-6h-1v6l-4.73-4.73-.71.71,5.44,5.44v3.71L855.44,104l-.71.71,5.41,5.41-1.24,2.75L856,111.76l-3.53-3.53v-3.3h-4v4h3.3l3.52,3.52,1.11,2.92-2.76,1.24-5.4-5.41-.71.71,4.73,4.73h-3.71l-5.44-5.44-.71.71,4.73,4.73h-6v1h6l-4.73,4.73.71.71,5.44-5.44h3.71l-4.73,4.73.71.71,5.41-5.4,2.76,1.24-1.11,2.91-3.53,3.53h-3.3v4h4v-3.3l3.52-3.52,2.92-1.11,1.24,2.75-5.41,5.41.71.71,4.73-4.73v3.71l-5.44,5.44.71.71,4.73-4.73v6h1v-6l4.73,4.73.71-.71-5.44-5.44v-3.71l4.73,4.73.71-.71-5.4-5.4,1.24-2.76,2.92,1.11,3.52,3.52v3.19h4v-4h-3.42l-3.41-3.41L865,118.93l2.76-1.24,5.4,5.4.71-.71-4.73-4.73h3.71l5.44,5.44.71-.71-4.73-4.73h6v-1Z"/><path class="cls-1" d="M35.82,454.81a1,1,0,1,1,1-1,1,1,0,0,1-1,1ZM21,451.34l.78,2-2-.78-.89,2-.89-2-2,.78.78-2-2-.89,2-.89-.78-2,2,.78.89-2,.89,2,2-.78-.78,2,2,.89-2,.89Zm9.46,3.47a1,1,0,1,1-1,1,1,1,0,0,1,1-1Zm1,7.28a1,1,0,1,1-1-1,1,1,0,0,1,1,1Zm-7.27-1a1,1,0,1,1-1,1,1,1,0,0,1,1-1Zm-1.94,5.33a1,1,0,1,1-1,1,1,1,0,0,1,1-1Zm-6.78,1.94a1,1,0,1,1,1-1,1,1,0,0,1-1,1ZM13.55,463a1,1,0,1,1,1-1,1,1,0,0,1-1,1Zm-6.31,0a1,1,0,1,1,1-1,1,1,0,0,1-1,1Zm0-6.3a1,1,0,1,1,1-1,1,1,0,0,1-1,1Zm-5.33-1.94a1,1,0,1,1,1-1,1,1,0,0,1-1,1Zm0-6.78a1,1,0,1,1,1-1,1,1,0,0,1-1,1Zm5.33-1.94a1,1,0,1,1,1-1,1,1,0,0,1-1,1Zm-1-7.28a1,1,0,1,1,1,1,1,1,0,0,1-1-1Zm7.27,1a1,1,0,1,1,1-1,1,1,0,0,1-1,1Zm1.94-5.33a1,1,0,1,1,1-1,1,1,0,0,1-1,1Zm6.78-1.94a1,1,0,1,1-1,1,1,1,0,0,1,1-1Zm1.94,5.33a1,1,0,1,1-1,1,1,1,0,0,1,1-1Zm6.31,0a1,1,0,1,1-1,1,1,1,0,0,1,1-1Zm0,6.3a1,1,0,1,1-1,1,1,1,0,0,1,1-1Zm5.33,1.94a1,1,0,1,1-1,1,1,1,0,0,1,1-1Zm0,5.81a1.92,1.92,0,0,0-1,.27l-1.73-1.73,1.73-1.73a1.92,1.92,0,0,0,1,.28,1.94,1.94,0,1,0-1.94-1.94,1.92,1.92,0,0,0,.27,1L32.23,450h-5.9l3.18-3.18a1.92,1.92,0,0,0,1,.28,1.94,1.94,0,1,0-1.94-1.94,1.91,1.91,0,0,0,.27,1L25,450H24.3l-2-.91.79-2.09,6.47-6.47a1.91,1.91,0,0,0,1,.28,1.94,1.94,0,1,0-1.95-1.95,1.91,1.91,0,0,0,.28,1l-6.46,6.46-2.1.8L19.36,445v-.64l3.87-3.87a1.92,1.92,0,0,0,1,.28,1.94,1.94,0,1,0-1.94-1.94,1.92,1.92,0,0,0,.27,1L19.36,443v-5.9l1.93-1.93a2,2,0,1,0-.68-.69l-1.73,1.73-1.73-1.73a1.92,1.92,0,0,0,.28-1,1.94,1.94,0,1,0-1.94,1.94,1.92,1.92,0,0,0,1-.27l1.93,1.93V443l-3.18-3.18a1.91,1.91,0,0,0,.28-1,1.94,1.94,0,1,0-1.94,1.94,1.92,1.92,0,0,0,1-.27l3.86,3.86V445l-.91,2-2.09-.8-6.47-6.47a1.91,1.91,0,0,0,.28-1,1.94,1.94,0,1,0-1.95,1.95,1.91,1.91,0,0,0,1-.28l6.46,6.46.8,2.1-2.05.92h-.64L8.93,446.1a2,2,0,1,0-.69.68L11.42,450H5.53L3.6,448a1.92,1.92,0,0,0,.28-1A1.94,1.94,0,1,0,1.94,449a1.91,1.91,0,0,0,1-.27l1.73,1.73-1.73,1.72a1.93,1.93,0,1,0,1,1.66,1.91,1.91,0,0,0-.27-1l1.93-1.93h5.9l-3.18,3.18a1.92,1.92,0,0,0-1-.28,1.94,1.94,0,1,0,1.94,1.94,1.92,1.92,0,0,0-.27-1l3.86-3.86h.66l2,.91-.8,2.1-6.46,6.46a1.91,1.91,0,0,0-1-.28,1.94,1.94,0,1,0,1.95,1.95,1.91,1.91,0,0,0-.28-1l6.47-6.47,2.09-.8.92,2.05v.64l-3.87,3.87a1.92,1.92,0,0,0-1-.28,1.94,1.94,0,1,0,1.94,1.94,1.91,1.91,0,0,0-.27-1l3.18-3.18v5.9l-1.93,1.93a1.92,1.92,0,0,0-1-.28,1.94,1.94,0,1,0,1.94,1.94,1.91,1.91,0,0,0-.27-1l1.73-1.73,1.73,1.73a2,2,0,1,0,.69-.68l-1.93-1.93v-5.9l3.18,3.18a2,2,0,1,0,.69-.68l-3.86-3.86v-.66l.91-2,2.1.8,6.46,6.46a1.92,1.92,0,0,0-.28,1,1.94,1.94,0,1,0,1.95-1.95,1.91,1.91,0,0,0-1,.28l-6.47-6.47-.8-2.09,2.05-.92H25l3.87,3.87a1.91,1.91,0,0,0-.28,1,1.94,1.94,0,1,0,1.94-1.94,1.91,1.91,0,0,0-1,.27l-3.18-3.18h5.9l1.93,1.93a1.92,1.92,0,0,0-.28,1,1.94,1.94,0,1,0,1.94-1.94Z"/><path class="cls-1" d="M494.61,27.58a1,1,0,1,1,1-1,1,1,0,0,1-1,1Zm-14.79-3.47.78,2-2-.78-.89,2-.89-2-2,.78.78-2-2-.89,2-.89-.78-2,2,.78.89-2,.89,2,2-.78-.78,2,2,.89-2,.89Zm9.46,3.47a1,1,0,1,1-1,1,1,1,0,0,1,1-1Zm1,7.28a1,1,0,1,1-1-1,1,1,0,0,1,1,1Zm-7.27-1a1,1,0,1,1-1,1,1,1,0,0,1,1-1Zm-1.94,5.33a1,1,0,1,1-1,1,1,1,0,0,1,1-1Zm-6.78,1.94a1,1,0,1,1,1-1,1,1,0,0,1-1,1Zm-1.94-5.33a1,1,0,1,1,1-1,1,1,0,0,1-1,1Zm-6.31,0a1,1,0,1,1,1-1,1,1,0,0,1-1,1Zm0-6.3a1,1,0,1,1,1-1,1,1,0,0,1-1,1Zm-5.33-1.94a1,1,0,1,1,1-1,1,1,0,0,1-1,1Zm0-6.78a1,1,0,1,1,1-1,1,1,0,0,1-1,1Zm5.33-1.94a1,1,0,1,1,1-1,1,1,0,0,1-1,1Zm-1-7.28a1,1,0,1,1,1,1,1,1,0,0,1-1-1Zm7.27,1a1,1,0,1,1,1-1,1,1,0,0,1-1,1Zm1.94-5.33a1,1,0,1,1,1-1,1,1,0,0,1-1,1Zm6.78-1.94a1,1,0,1,1-1,1,1,1,0,0,1,1-1ZM483,10.64a1,1,0,1,1-1,1,1,1,0,0,1,1-1Zm6.31,0a1,1,0,1,1-1,1,1,1,0,0,1,1-1Zm0,6.3a1,1,0,1,1-1,1,1,1,0,0,1,1-1Zm5.33,1.94a1,1,0,1,1-1,1,1,1,0,0,1,1-1Zm0,5.81a1.92,1.92,0,0,0-1,.27l-1.73-1.73,1.73-1.73a1.92,1.92,0,0,0,1,.28,1.94,1.94,0,1,0-1.94-1.94,1.92,1.92,0,0,0,.27,1L491,22.74h-5.9l3.18-3.18a1.92,1.92,0,0,0,1,.28,1.94,1.94,0,1,0-1.94-1.94,1.91,1.91,0,0,0,.27,1l-3.86,3.86h-.66l-2-.91.79-2.09,6.47-6.47a1.91,1.91,0,0,0,1,.28,1.94,1.94,0,1,0-1.95-1.95,1.91,1.91,0,0,0,.28,1L481.17,19l-2.1.8-.92-2.06v-.64L482,13.27a1.92,1.92,0,0,0,1,.28,1.94,1.94,0,1,0-1.94-1.94,1.92,1.92,0,0,0,.27,1l-3.18,3.18V9.88l1.93-1.93a2,2,0,1,0-.68-.69L477.66,9l-1.73-1.73a1.92,1.92,0,0,0,.28-1,1.94,1.94,0,1,0-1.94,1.94,1.92,1.92,0,0,0,1-.27l1.93,1.93v5.9L474,12.59a1.91,1.91,0,0,0,.28-1,1.94,1.94,0,1,0-1.94,1.94,1.92,1.92,0,0,0,1-.27l3.86,3.86v.66l-.91,2-2.09-.8-6.47-6.47a1.91,1.91,0,0,0,.28-1A1.94,1.94,0,1,0,466,13.54a1.91,1.91,0,0,0,1-.28l6.46,6.46.8,2.1-2.05.92h-.64l-3.87-3.87a2,2,0,1,0-.69.68l3.18,3.18h-5.9l-1.93-1.93a1.92,1.92,0,0,0,.28-1,1.94,1.94,0,1,0-1.94,1.94,1.91,1.91,0,0,0,1-.27l1.73,1.73L461.71,25a2,2,0,1,0,.68.69l1.93-1.93h5.9L467,26.89a1.92,1.92,0,0,0-1-.28A1.94,1.94,0,1,0,468,28.55a1.92,1.92,0,0,0-.27-1l3.86-3.86h.66l2,.91-.8,2.1L467,33.19a1.91,1.91,0,0,0-1-.28A1.94,1.94,0,1,0,468,34.86a1.91,1.91,0,0,0-.28-1l6.47-6.47,2.09-.8.92,2.05v.64l-3.87,3.87a1.92,1.92,0,0,0-1-.28,1.94,1.94,0,1,0,1.94,1.94,1.91,1.91,0,0,0-.27-1l3.18-3.18v5.9l-1.93,1.93a1.92,1.92,0,0,0-1-.28,1.94,1.94,0,1,0,1.94,1.94,1.91,1.91,0,0,0-.27-1l1.73-1.73,1.73,1.73a2,2,0,1,0,.69-.68l-1.93-1.93v-5.9l3.18,3.18a2,2,0,1,0,.69-.68l-3.86-3.86v-.66l.91-2,2.1.8,6.46,6.46a1.92,1.92,0,0,0-.28,1,1.94,1.94,0,1,0,1.95-1.95,1.91,1.91,0,0,0-1,.28l-6.47-6.47-.8-2.09,2.05-.92h.64l3.87,3.87a1.91,1.91,0,0,0-.28,1,1.94,1.94,0,1,0,1.94-1.94,1.91,1.91,0,0,0-1,.27l-3.18-3.18H491l1.93,1.93a1.92,1.92,0,0,0-.28,1,1.94,1.94,0,1,0,1.94-1.94Z"/><path class="cls-1" d="M157,540.95l3.3,8,.9-.37-3.3-8-.9.37Zm-10.77-12-8-3.3-.37.9,8,3.3.37-.9Zm5-4.46-3.3-8-.89.37,3.3,8,.9-.37Zm11.14,5.36,8-3.3-.37-.9-8,3.3.37.9Zm-15.34,18.74.89.37,3.3-8-.9-.37-3.3,8Zm15-12.06,8,3.3.37-.89-8-3.3-.37.9Zm-.79-19.64-.9-.37-3.3,8,.9.37,3.3-8ZM145.9,535.59l-8,3.3.37.89,8-3.3-.37-.9Zm.65,4.71,1.45-3.49,3.49-1.45L150,538.85l-3.49,1.45Zm6.74-6.74-6,2.5-2,4.85-3.71,3.71.69.68,3.71-3.71,4.86-2,2.5-6Zm8.12.58-3.49-1.44,3.49-1.44,3.49,1.44-3.49,1.44Zm4.86-1.93-4.86-2-6,2.49,6,2.49,4.86-2h5.24v-1Zm-8,6.64-1.45-3.49,3.49,1.45,1.45,3.49-3.49-1.45Zm2.78-2.78-6-2.5,2.5,6,4.86,2,3.71,3.71.68-.68-3.71-3.71-2-4.85Zm-6.89,7.38L152.7,540l1.44-3.49,1.44,3.49-1.44,3.49ZM151.65,540l2,4.86v5.24h1v-5.24l2-4.86-2.49-6-2.49,6Zm-4.76-8.7,3.49,1.44-3.49,1.44-3.49-1.44,3.49-1.44Zm0,3.94,6-2.49-6-2.49-4.86,2h-5.24v1H142l4.86,2Zm14.86-10.09-1.45,3.49L156.8,530l1.45-3.49,3.49-1.45ZM155,531.83l6-2.5,2-4.85,3.71-3.71-.68-.68-3.71,3.71-4.86,2-2.5,6Zm-.87-9.88,1.44,3.49-1.44,3.49-1.44-3.49,1.44-3.49Zm2.49,3.49-2-4.86v-5.24h-1v5.24l-2,4.86,2.49,6,2.49-6Zm-6.6,1.1,1.45,3.49L148,528.59l-1.45-3.49,3.49,1.45Zm-2.78,2.78,6,2.5-2.5-6-4.86-2-3.71-3.71-.69.68,3.71,3.71,2,4.85Z"/><path class="cls-1" d="M351.18,89.8a1.45,1.45,0,1,1,1.45-1.45,1.45,1.45,0,0,1-1.45,1.45ZM347.39,99a1.45,1.45,0,0,1,0,2.06,1.49,1.49,0,0,1-2.05,0A1.45,1.45,0,0,1,347.39,99Zm-11.33,5.3a1.45,1.45,0,1,1-1.34-.9,1.45,1.45,0,0,1,1.34.9Zm-4.82-3.72a1.45,1.45,0,1,1-.79-1.9,1.45,1.45,0,0,1,.79,1.9Zm-6.83,0a1.45,1.45,0,1,1-.79-1.9,1.45,1.45,0,0,1,.79,1.9Zm0-6.83a1.45,1.45,0,1,1,0-1.11,1.45,1.45,0,0,1,0,1.11Zm0-9.64a1.45,1.45,0,1,1,0-1.11,1.45,1.45,0,0,1,0,1.11Zm-1.35-5.93a1.45,1.45,0,1,1,1.34-.9,1.44,1.44,0,0,1-1.34.9Zm5.48-.89a1.45,1.45,0,1,1,1.9.79,1.44,1.44,0,0,1-.56.11,1.45,1.45,0,0,1-1.34-.9Zm4.71-5.39a1.45,1.45,0,1,1,1.45,1.45,1.45,1.45,0,0,1-1.45-1.45Zm12.07,3.8a1.45,1.45,0,1,1,2.05,2.05,1.49,1.49,0,0,1-2.05,0,1.45,1.45,0,0,1,0-2.05ZM334.72,89.8a1.45,1.45,0,1,1,1.34-2,1.45,1.45,0,0,1-1.34,2Zm11.63,1.91a1.45,1.45,0,1,1-1.45,1.45,1.45,1.45,0,0,1,1.45-1.45ZM340.56,99a1.45,1.45,0,0,1,0,2.05,1.49,1.49,0,0,1-2.05,0A1.45,1.45,0,1,1,340.56,99ZM318.8,89.69a1.45,1.45,0,1,1,.79-1.9,1.44,1.44,0,0,1-.79,1.9Zm20.73-14.43a1.45,1.45,0,1,1-1.45,1.45,1.45,1.45,0,0,1,1.45-1.45Zm5.79,7.24a1.45,1.45,0,0,1,2.05,2.05,1.49,1.49,0,0,1-2.05,0,1.45,1.45,0,0,1,0-2.05Zm5.86,3.43a2.43,2.43,0,0,0-2.37,1.94H337.15l7.2-3a2.42,2.42,0,0,0,3.72.36A2.42,2.42,0,1,0,344,84l-7.19,3L345,78.73a2.42,2.42,0,1,0-.68-.68l-8.24,8.24,3-7.19a2.42,2.42,0,1,0-.9-.37l-3,7.2V74.25a2.42,2.42,0,1,0-1,0V85.92l-3-7.19a2.42,2.42,0,1,0-1.36.42,2.4,2.4,0,0,0,.46,0l3,7.19L325.09,78a2.39,2.39,0,1,0-.68.69L332.65,87l-7.19-3a2.45,2.45,0,1,0-.38.89l7.2,3H320.62a2.41,2.41,0,0,0-2.37-1.94,2.42,2.42,0,1,0,2.37,2.91h11.66l-7.2,3a2.39,2.39,0,1,0,.38.89l7.2-3L324.4,98a2.44,2.44,0,0,0-.41-.22,2.42,2.42,0,1,0,1.09.9l8.25-8.25-3,7.19a2.42,2.42,0,1,0,1.78,3.3,2.43,2.43,0,0,0-.88-2.93l3-7.19v11.66a2.45,2.45,0,0,0-.44.14,2.43,2.43,0,1,0,1.41-.13V90.79l3,7.19a2.46,2.46,0,0,0-.36.29,2.43,2.43,0,1,0,1.25-.67l-3-7.2,8.25,8.25A2.42,2.42,0,1,0,345,98l-8.24-8.24,7.19,3a2.42,2.42,0,1,0,.37-.9l-7.19-3h11.66a2.42,2.42,0,1,0,2.37-2.91Z"/><path class="cls-1" d="M794,477.52l-1.19,2.66-1.19-2.66-2.73,1,1-2.73-2.66-1.19,2.66-1.19-1-2.73,2.73,1,1.19-2.66,1.19,2.66,2.73-1-1,2.73,2.66,1.19-2.66,1.19,1,2.73-2.73-1Zm.36,8.4-1.55,1.55-1.55-1.55,1.55-1.55,1.55,1.55Zm-3.1-22.57,1.55-1.55,1.55,1.55-1.55,1.55-1.55-1.55Zm-9.74,12.83L780,474.64l1.55-1.55,1.55,1.55-1.55,1.55Zm22.57-3.1,1.55,1.55-1.55,1.55-1.55-1.55,1.55-1.55Zm-4.41,2.05h1.95l2.46,2.46,2.47-2.47h1.89l.92.92,1.42-1.42-1.42-1.42-.92.92h-1.89l-2.47-2.47-2.47,2.47h-1.94L797,472.92l1-2.72h5.22l.87.87,1.42-1.42-1.42-1.42-1,1H799l2.79-2.79H807l.87.87,1.42-1.42-1.42-1.42-1,1h-4.18l2.59-2.59h1.3v-2h-2v1.29l-2.59,2.59v-4.17l1-1-1.42-1.42-1.42,1.42.86.86v5.27l-2.79,2.79v-4.17l1-1-1.42-1.42-1.42,1.42.86.86v5.23l-2.71,1-1.22-2.71v-1.95l2.46-2.46-2.47-2.47V459l.92-.92-1.42-1.42-1.42,1.42.92.92v1.89l-2.47,2.47,2.47,2.47v1.93l-1.22,2.73-2.73-1v-5.23l.87-.87-1.42-1.42-1.42,1.42,1,1v4.18l-2.77-2.77v-5.27l.87-.87-1.42-1.42-1.42,1.42,1,1v4.18L781,462.12v-1.3h-2v2h1.29l2.59,2.59h-4.17l-1-1-1.42,1.42,1.42,1.42.86-.86h5.27l2.77,2.77h-4.17l-1-1-1.42,1.42,1.42,1.42.86-.86h5.24l1,2.72L786,474.14H784l-2.46-2.46-2.47,2.47H777.2l-.92-.92-1.42,1.42,1.42,1.42.92-.92h1.89l2.47,2.47,2.47-2.47H786l2.72,1.22-1,2.73h-5.23l-.87-.87-1.42,1.42,1.42,1.42,1-1h4.18l-2.77,2.77h-5.27l-.87-.87-1.42,1.42,1.42,1.42,1-1h4.18l-2.59,2.59H779v2h2v-1.29l2.59-2.59v4.17l-1,1,1.42,1.42,1.42-1.42-.86-.86v-5.27l2.77-2.77V485l-1,1,1.42,1.42,1.42-1.42-.86-.86v-5.24l2.72-1,1.22,2.73v1.94l-2.46,2.46,2.47,2.47v1.89l-.92.92,1.42,1.42,1.42-1.42-.92-.92v-1.89l2.47-2.47-2.47-2.47v-1.94l1.22-2.72,2.72,1v5.22l-.87.87,1.42,1.42,1.42-1.42-1-1v-4.18l2.79,2.79v5.27l-.87.87,1.42,1.42,1.42-1.42-1-1v-4.18l2.59,2.59v1.3h2v-2h-1.29l-2.59-2.59h4.17l1,1,1.42-1.42L807.92,482l-.86.86h-5.27L799,480.08h4.17l1,1,1.42-1.42-1.42-1.42-.86.86H798l-1-2.71,2.72-1.22Z"/><path class="cls-1" d="M689.36,91.82l.85,2.23L688,93.21l-1,2.18-1-2.18-2.23.85.85-2.23-2.18-1,2.18-1-.85-2.23,2.23.85,1-2.18,1,2.18,2.23-.85-.85,2.23,2.18,1-2.18,1ZM687,109l-1.42-1.42,1.42-1.42,1.42,1.42L687,109ZM670.28,92.27l-1.42-1.42,1.42-1.42,1.42,1.42-1.42,1.42ZM687,72.7l1.42,1.42L687,75.54l-1.42-1.42L687,72.7Zm16.72,16.73,1.42,1.42-1.42,1.42-1.42-1.42,1.42-1.42Zm-4.2,6.44h2v2h-2v-2Zm-7.53,0h2v2h-2v-2Zm0,7.52h2v2h-2v-2Zm-10,2h-2v-2h2v2Zm0-7.52h-2v-2h2v2Zm-7.52,0h-2v-2h2v2Zm0-12h-2v-2h2v2Zm7.52,0h-2v-2h2v2Zm0-7.53h-2v-2h2v2Zm10-2h2v2h-2v-2Zm0,7.53h2v2h-2v-2Zm7.52,0h2v2h-2v-2Zm1.86,7.52,2.34,2.34,2.84-2.84L703.74,88l-2.34,2.34h-5.67l3.51-3.51h3.31v-4h-4v3.3l-4.23,4.23h-1.43l-2.25-1,.87-2.3.21-.21H695V83.53L700.57,78l-.71-.71-5.55,5.55H691v3.3l-.21.21-2.29.87-1-2.22V83.52l4.21-4.21H695v-4h-4v3.3l-3.51,3.51V76.46l2.34-2.34L687,71.28l-2.84,2.84,2.33,2.33v5.66L683,78.6V75.29h-4v4h3.3l4.23,4.23v1.42l-1,2.26-2.3-.87-.21-.21v-3.3h-3.3l-5.54-5.54-.71.71L679,83.53v3.3h3.3l.21.21.87,2.29-2.25,1h-1.44l-4.21-4.21V82.82h-4v4h3.3l3.51,3.51h-5.64L670.28,88l-2.84,2.84,2.84,2.84,2.34-2.34h5.66l-3.51,3.51h-3.31v4h4v-3.3l4.23-4.23h1.44l2.23,1-.87,2.29-.21.21H679v3.3l-5.54,5.54.71.71,5.54-5.54H683v-3.3l.21-.21,2.29-.87,1,2.26v1.42l-4.22,4.21H679v4h4v-3.3l3.51-3.51v5.67l-2.33,2.33,2.84,2.84,2.84-2.84-2.34-2.34V99.57l3.51,3.51v3.31h4v-4h-3.3l-4.23-4.23V96.7l1-2.22,2.3.88.21.21v3.31h3.31l5.54,5.54.71-.71L695,98.16v-3.3h-3.3l-.22-.22-.87-2.29,2.23-1h1.45l4.21,4.21v3.31h4v-4h-3.3l-3.51-3.51Z"/><path class="cls-1" d="M652.5,394.7v2.1h-2.1l-1.48,1.48-1.48-1.48h-2.1v-2.1l-1.48-1.48,1.48-1.48v-2.1h2.1l1.48-1.48,1.48,1.48h2.1v2.1l1.48,1.48-1.48,1.48Zm3.13,5.21h2.19v2.19h-2.19v-2.19Zm-13.41,2.19H640v-2.19h2.19v2.19Zm0-15.6H640v-2.19h2.19v2.19Zm13.41-2.19h2.19v2.19h-2.19v-2.19Zm9.51,5.54-.71.71,2.16,2.16h-3.7L660,389.85l-.71.71,2.16,2.16h-6.57l-1.4-1.4v-2l1.84-1.84h3.48V384l4-4v3.06h1v-4.76h-4.76v1h3l-4,4h-3.49v3.49l-1.84,1.84h-2l-1.4-1.4v-6.57l2.16,2.16.71-.71-2.87-2.87v-3.7l2.16,2.16.71-.71-3.36-3.36L645.57,377l.71.71,2.14-2.14v3.7l-2.85,2.85.71.71,2.14-2.14v6.55L647,388.64h-2l-1.85-1.85v-3.48h-3.48l-4-4h3v-1H634v4.76h1v-3l4,4v3.49h3.49l1.83,1.83v2l-1.4,1.4h-6.55l2.16-2.16-.71-.71L635,392.72h-3.7l2.16-2.16-.71-.71-3.36,3.36,3.36,3.36.71-.71-2.14-2.14H635l2.85,2.85.71-.71-2.14-2.14H643l1.39,1.39v2l-1.84,1.84H639v3.48l-4,4v-3h-1v4.76h4.76v-1h-3.07l4-4h3.49v-3.49L645,397.8h2l1.39,1.39v6.54l-2.14-2.14-.71.71,2.85,2.85v3.7l-2.14-2.14-.71.71,3.36,3.36,3.36-3.36-.71-.71-2.16,2.16v-3.7l2.87-2.87-.71-.71-2.16,2.16V399.2l1.4-1.4h2l1.83,1.83v3.48h3.48l4,4h-3v1h4.76v-4.76h-1v3.06l-4-4v-3.49h-3.49l-1.82-1.82v-2l1.39-1.39h6.56l-2.14,2.14.71.71,2.85-2.85h3.7l-2.14,2.14.71.71,3.36-3.36-3.36-3.36Z"/><path class="cls-1" d="M383.29,483.15a2,2,0,1,1,2-2,2,2,0,0,1-2,2ZM368.68,483v2.6l-1.84-1.84L365,485.58V483h-2.6l1.84-1.84-1.84-1.84H365v-2.6l1.84,1.84,1.84-1.84v2.6h2.6l-1.84,1.84,1.84,1.84Zm11.22,8.37a2,2,0,1,1-1.42-.59,2,2,0,0,1,1.42.59Zm-11,6.24a2,2,0,1,1-2-2,2,2,0,0,1,2,2Zm-12.22-3.4a2.06,2.06,0,0,1-2.84,0,2,2,0,1,1,2.84,0Zm-6.24-11a2,2,0,1,1,2-2,2,2,0,0,1-2,2Zm3.4-12.22a2,2,0,1,1,1.42.59,2,2,0,0,1-1.42-.59Zm11-6.24a2,2,0,1,1,2,2,2,2,0,0,1-2-2Zm12.22,3.4a2,2,0,1,1,2.84,2.84,2.05,2.05,0,0,1-2.84,0,2,2,0,0,1,0-2.84Zm6.24,10a3,3,0,0,0-3,2.51H376.8l3.34-3.34a.5.5,0,0,0-.71-.71l-4,4h-4l1.41-1.41.38-.16a1.22,1.22,0,0,0,1.33.26,1.25,1.25,0,0,0,.67-1.63,1.26,1.26,0,0,0-1.63-.67,1.25,1.25,0,0,0-.77,1.12l-.38.16h-2l2.85-2.85H379a.5.5,0,0,0,0-1h-4.72l2.49-2.49a3,3,0,1,0-.71-.71l-2.5,2.5V469a.5.5,0,1,0-1,0v5.73l-2.85,2.85v-2l.16-.38a1.24,1.24,0,0,0,.44-2.39,1.26,1.26,0,0,0-1.63.67,1.23,1.23,0,0,0,0,1,1.25,1.25,0,0,0,.25.39l-.16.37-1.41,1.42v-4l4.05-4.05a.5.5,0,0,0-.71-.71l-3.34,3.34v-3.53a3,3,0,1,0-1,0v3.52L363,467.84a.5.5,0,1,0-.71.71l4,4v4l-1.41-1.42-.16-.38a1.23,1.23,0,0,0,.24-1.32,1.26,1.26,0,0,0-1.63-.67,1.24,1.24,0,0,0,.46,2.39l.16.39v2l-2.85-2.85V469a.5.5,0,0,0-1,0v4.72l-2.5-2.5a3,3,0,1,0-.7.71l2.49,2.49h-4.72a.5.5,0,1,0,0,1h5.73l2.85,2.85h-2l-.34-.14a1.24,1.24,0,0,0-.77-1.14,1.26,1.26,0,0,0-1.62.67,1.24,1.24,0,0,0,1.15,1.72,1.23,1.23,0,0,0,.83-.34l.43.18,1.38,1.38h-4l-4-4a.5.5,0,0,0-.71.71l3.34,3.34h-3.53a3,3,0,1,0,0,1h3.53L353.54,485a.5.5,0,1,0,.71.71l4-4h4l-1.43,1.43-.37.15a1.27,1.27,0,0,0-1.33-.26,1.24,1.24,0,1,0,1.72,1.19l.4-.17h2l-2.84,2.84h-5.73a.5.5,0,1,0,0,1h4.72l-2.49,2.49a3,3,0,1,0,.71.71l2.49-2.49v4.72a.5.5,0,1,0,1,0v-5.73l2.85-2.85v2l-.16.38a1.26,1.26,0,0,0-1.12.76,1.24,1.24,0,1,0,2-.38l.16-.38,1.41-1.41v4l-4,4a.5.5,0,0,0,.71.71l3.34-3.34v3.53a3,3,0,1,0,1,0v-3.53l3.34,3.34a.5.5,0,0,0,.71-.71l-4-4v-4l1.41,1.41.16.38a1.24,1.24,0,1,0,2,.38,1.27,1.27,0,0,0-1.12-.76l-.16-.39v-2l2.85,2.85v5.73a.5.5,0,1,0,1,0v-4.72L376,491a3,3,0,1,0,.7-.71l-2.49-2.49H379a.5.5,0,1,0,0-1h-5.73L370.39,484h2l.38.16a1.24,1.24,0,1,0,1.72-1.18,1.27,1.27,0,0,0-1.33.25l-.39-.16-1.42-1.42h4l4,4a.5.5,0,0,0,.71-.71l-3.34-3.34h3.53a3,3,0,1,0,3-3.52Z"/><polyline class="cls-2" points="871.28 146.83 917.28 249.83 853.28 256.83"/><polyline class="cls-2" points="692.28 110.33 721.78 186.33 802.28 365.83 680.28 461.83 504.28 433.83 449.28 586.83 532.42 569.77"/><line class="cls-2" x1="381.78" y1="471.33" x2="504.28" y2="433.83"/><line class="cls-2" x1="680.28" y1="461.83" x2="655.05" y2="408.44"/><line class="cls-2" x1="868.28" y1="567.83" x2="806.38" y2="497.78"/><line class="cls-2" x1="802.28" y1="369.33" x2="788.1" y2="455.73"/><line class="cls-2" x1="721.78" y1="186.33" x2="806.91" y2="247.57"/><path class="cls-1" d="M841.51,259.33a1,1,0,1,1,1-1,1,1,0,0,1-1,1Zm-15.31-.07.8,2.11-2.11-.8-.92,2.06-.92-2.06-2.11.8.8-2.11-2.06-.92,2.06-.92-.8-2.11,2.11.8L824,254l.92,2.06,2.11-.8-.8,2.11,2.06.92-2.06.92ZM825,275.87a1,1,0,1,1-1-1,1,1,0,0,1,1,1Zm-2-35.09a1,1,0,1,1,1,1,1,1,0,0,1-1-1Zm13.3,28.83a1,1,0,1,1-1-1,1,1,0,0,1,1,1Zm-23.58,1a1,1,0,1,1,1-1,1,1,0,0,1-1,1Zm-6.26-11.28a1,1,0,1,1,1-1,1,1,0,0,1-1,1Zm5.26-12.3a1,1,0,1,1,1,1,1,1,0,0,1-1-1Zm23.58-1a1,1,0,1,1-1,1,1,1,0,0,1,1-1Zm6.25,10.28a2,2,0,0,0-1.94,1.51H835.7l3.66-3.66-.71-.71-4.37,4.37h-3.6l5.16-5.16-.71-.71-5.77,5.77-1.89-.85.83-2.18,5.94-5.94a2,2,0,0,0,1,.28,2,2,0,1,0-2-2,2,2,0,0,0,.28,1L827.59,254l-2.17.82-.85-1.9,5.77-5.77-.71-.71-5.16,5.16V248l4.37-4.37-.71-.71-3.66,3.66v-3.88a2,2,0,1,0-1,0v3.88l-3.66-3.66-.71.71,4.37,4.37v3.6l-5.16-5.16-.71.71,5.77,5.77-.85,1.89-2.17-.82-5.95-5.95a2,2,0,0,0,.28-1,2,2,0,1,0-2,2,2,2,0,0,0,1-.28l5.94,5.94.83,2.18-1.9.85L812.8,252l-.71.71,5.16,5.16h-3.6l-4.37-4.37-.71.71,3.66,3.66h-3.88a2,2,0,1,0,0,1h3.88l-3.66,3.66.71.71,4.37-4.37h3.6L812.09,264l.71.71,5.77-5.77,1.89.85-.82,2.17-5.94,5.94a2,2,0,0,0-1-.28,2,2,0,1,0,2,2,2,2,0,0,0-.28-1l5.94-5.94,2.18-.83.85,1.89-5.77,5.77.71.71,5.16-5.16v3.6L819.1,273l.71.71,3.66-3.66v3.88a2,2,0,1,0,1,0v-3.88l3.66,3.66.71-.71-4.37-4.37V265l5.16,5.16.71-.71-5.77-5.77.85-1.9,2.18.83,5.94,5.94a2,2,0,0,0-.28,1,2,2,0,1,0,2-2,2,2,0,0,0-1,.28l-5.94-5.94-.82-2.17,1.89-.85,5.77,5.77.71-.71-5.16-5.16h3.6l4.37,4.37.71-.71-3.66-3.66h3.88a2,2,0,1,0,1.93-2.51Z"/><circle class="cls-3" cx="722.28" cy="185.83" r="3.5"/><circle class="cls-3" cx="802.28" cy="365.83" r="3.5"/><circle class="cls-3" cx="680.28" cy="461.83" r="3.5"/><circle class="cls-3" cx="504.28" cy="433.83" r="3.5"/><circle class="cls-3" cx="449.28" cy="586.83" r="3.5"/><circle class="cls-3" cx="868.28" cy="567.83" r="3.5"/><circle class="cls-3" cx="917.28" cy="249.83" r="3.5"/><rect class="cls-4" x="534.78" y="358.08" width="9.33" height="9.33"/><rect class="cls-4" x="41.61" y="552.17" width="9.33" height="9.33"/><rect class="cls-4" x="348.95" y="0.5" width="9.33" height="9.33"/><rect class="cls-4" x="610.11" y="494.75" width="9.33" height="9.33"/><rect class="cls-4" x="818.78" y="186.08" width="9.33" height="9.33"/><rect class="cls-4" x="581.95" y="46.17" width="9.33" height="9.33"/><rect class="cls-4" x="687.61" y="266.5" width="9.33" height="9.33" rx="4.67" ry="4.67" transform="translate(1384.56 542.33) rotate(180)"/><rect class="cls-4" x="857.28" y="342.83" width="9.33" height="9.33" rx="4.67" ry="4.67" transform="translate(1723.89 695) rotate(-180)"/><rect class="cls-4" x="733.61" y="529.5" width="9.33" height="9.33" rx="4.67" ry="4.67" transform="translate(1476.56 1068.33) rotate(180)"/><rect class="cls-4" x="429.28" y="502.17" width="9.33" height="9.33" rx="4.67" ry="4.67" transform="translate(1084.26 357.56) rotate(117.64)"/><rect class="cls-4" x="688.48" y="4" width="9.33" height="9.33" rx="4.67" ry="4.67" transform="translate(1022.41 -601.34) rotate(117.64)"/><line class="cls-4" x1="716.78" y1="356.83" x2="716.78" y2="365.83"/><line class="cls-4" x1="721.28" y1="361.33" x2="712.28" y2="361.33"/><line class="cls-4" x1="444.78" y1="92.83" x2="444.78" y2="101.83"/><line class="cls-4" x1="449.28" y1="97.33" x2="440.28" y2="97.33"/><line class="cls-4" x1="857.78" y1="442.83" x2="857.78" y2="451.83"/><line class="cls-4" x1="862.28" y1="447.33" x2="853.28" y2="447.33"/><line class="cls-4" x1="330.78" y1="560.83" x2="330.78" y2="569.83"/><line class="cls-4" x1="335.28" y1="565.33" x2="326.28" y2="565.33"/><line class="cls-4" x1="197.78" y1="454.83" x2="197.78" y2="463.83"/><line class="cls-4" x1="202.28" y1="459.33" x2="193.28" y2="459.33"/><line class="cls-4" x1="763.78" y1="143.83" x2="763.78" y2="152.83"/><line class="cls-4" x1="768.28" y1="148.33" x2="759.28" y2="148.33"/><line class="cls-4" x1="804.78" y1="13.83" x2="804.78" y2="22.83"/><line class="cls-4" x1="809.28" y1="18.33" x2="800.28" y2="18.33"/><line class="cls-2" x1="346.78" y1="492.33" x2="180.78" y2="526.83"/><line class="cls-2" x1="707.28" y1="179.83" x2="514.28" y2="54.83"/></g></g></svg>