<?xml version="1.0"?>
<svg xmlns="http://www.w3.org/2000/svg" viewBox="0 0 604.32 367.32">
<defs>
    <style>
      .cls-1,.cls-3,.cls-4,.cls-6,.cls-7{fill:none;stroke-miterlimit:10;}
      .cls-1{stroke:#d3d3d3;}.cls-2{fill:#fff;}
      .cls-3{stroke:#001443;}
      .cls-4{stroke:#001443;}
      .cls-3,.cls-6{stroke-width:4px;}
      .cls-4,.cls-7{stroke-width:2px;}
      .cls-5{fill:#001443;}
      .cls-6,.cls-7{stroke:#023E73;}
      .cls-7{stroke-linecap:round;}
      .cls-8{fill:#008acf;}
    </style>
</defs>
<title>Asset 9</title>
<g id="Layer_2" data-name="Layer 2">
    <g id="Layer_1-2" data-name="Layer 1">
        <line class="cls-1" x1="336.04" y1="314.42" x2="336.04" y2="262.31"/>
        <line class="cls-1" x1="542.04" y1="183.94" x2="542.04" y2="243.42"/>
        <polyline class="cls-1" points="470.47 67.92 542.04 67.92 542.04 133.68"/>
        <polyline class="cls-1" points="336.04 120.42 336.04 67.92 420.18 67.92"/>
        <line class="cls-1" x1="188.42" y1="339.92" x2="311.15" y2="339.92"/>
        <polyline class="cls-1" points="67.04 281.42 67.59 339.92 138.78 339.92"/>
        <polygon class="cls-2" points="255.16 346.66 259.05 339.92 255.16 333.19 266.66 339.92 255.16 346.66"/>
        <circle class="cls-3" cx="63.16" cy="63.16" r="61.16"/>
        <line class="cls-4" x1="70.54" y1="65.42" x2="70.54" y2="56.42"/>
        <line class="cls-4" x1="57.54" y1="56.42" x2="57.54" y2="65.42"/>
        <circle class="cls-4" cx="64.61" cy="39.85" r="19.09"/>
        <path class="cls-4" d="M46.14,41.69A21.28,21.28,0,0,0,59.07,31.23s8,17.86,24.32,12"/>
        <path class="cls-4" d="M98,101.74V80.49c0-8.13-5.54-14.78-12.32-14.78H42.61c-6.77,0-12.32,6.65-12.32,14.78v21.25"/>
        <line class="cls-4" x1="42.54" y1="102.42" x2="42.54" y2="80.42"/>
        <line class="cls-4" x1="64.54" y1="102.42" x2="64.54" y2="66.42"/>
        <line class="cls-4" x1="85.54" y1="102.42" x2="85.54" y2="80.42"/>
        <line class="cls-4" x1="58.54" y1="91.42" x2="58.54" y2="87.42"/>
        <line class="cls-4" x1="58.54" y1="100.42" x2="58.54" y2="95.42"/>
        <polyline class="cls-4" points="54.76 66.12 56.1 75.05 64.41 66.84"/>
        <polyline class="cls-4" points="74.26 66.12 72.93 75.05 64.61 66.84"/>
        <circle class="cls-3" cx="541.16" cy="304.16" r="61.16"/>
        <polyline class="cls-4" points="495.54 282.42 511.38 282.42 527.89 326.42 566.84 326.42 578.72 296.42 517.54 296.42"/>
        <circle class="cls-4" cx="533.17" cy="341.15" r="5.94"/>
        <circle class="cls-4" cx="558.26" cy="341.15" r="5.94"/>
        <line class="cls-4" x1="520.54" y1="305.42" x2="574.54" y2="305.42"/>
        <line class="cls-4" x1="524.54" y1="315.42" x2="570.54" y2="315.42"/>
        <line class="cls-4" x1="539.54" y1="326.42" x2="539.54" y2="296.42"/>
        <line class="cls-4" x1="556.54" y1="326.42" x2="556.54" y2="296.42"/>
        <circle class="cls-4" cx="544.54" cy="271.67" r="16.5"/>
        <path class="cls-5" d="M548.33,276a2.72,2.72,0,0,0-.18-1,2.5,2.5,0,0,0-.59-.86,4.38,4.38,0,0,0-1.06-.74,10.88,10.88,0,0,0-1.6-.66,12.75,12.75,0,0,1-2.07-.82,6.28,6.28,0,0,1-1.56-1.1,4.34,4.34,0,0,1-1-1.46,5,5,0,0,1-.34-1.9,5.32,5.32,0,0,1,.3-1.84,4.27,4.27,0,0,1,.87-1.44,4.41,4.41,0,0,1,1.36-1,5.77,5.77,0,0,1,1.81-.5v-1.75a.9.9,0,0,1,.9-.9h0a.9.9,0,0,1,.9.9v1.77a4.68,4.68,0,0,1,3.17,1.71,5.38,5.38,0,0,1,1.06,2.67,1.12,1.12,0,0,1-1.12,1.25h0a1.14,1.14,0,0,1-1.11-1,4.75,4.75,0,0,0-.12-.51,3.5,3.5,0,0,0-.58-1.18,2.69,2.69,0,0,0-.95-.78,2.88,2.88,0,0,0-1.29-.28,3.82,3.82,0,0,0-1.32.21,2.46,2.46,0,0,0-.92.58,2.36,2.36,0,0,0-.55.89,3.49,3.49,0,0,0-.18,1.15,3,3,0,0,0,.17,1,2.26,2.26,0,0,0,.57.86,4.51,4.51,0,0,0,1.07.73,11.27,11.27,0,0,0,1.67.67,13.92,13.92,0,0,1,2.08.84,6.15,6.15,0,0,1,1.53,1.09,4.22,4.22,0,0,1,1,1.43,5,5,0,0,1,.33,1.88,5.16,5.16,0,0,1-.33,1.89,4.12,4.12,0,0,1-.94,1.44,4.61,4.61,0,0,1-1.48,1,6.75,6.75,0,0,1-1.93.47v1.42a.9.9,0,0,1-.9.9h0a.9.9,0,0,1-.9-.9v-1.42a6.54,6.54,0,0,1-1.8-.42,4.69,4.69,0,0,1-1.54-1,4.6,4.6,0,0,1-1.07-1.63,5.29,5.29,0,0,1-.32-1.19,1,1,0,0,1,1-1.18h.14a1.07,1.07,0,0,1,1,.92,3.3,3.3,0,0,0,.23.79,2.79,2.79,0,0,0,1.89,1.64,4.72,4.72,0,0,0,1.21.16,4.8,4.8,0,0,0,1.44-.2,3.07,3.07,0,0,0,1.07-.57,2.45,2.45,0,0,0,.67-.9A2.94,2.94,0,0,0,548.33,276Z"/>
        <rect class="cls-6" x="248.12" y="121.54" width="166.17" height="140.77" rx="4.94" ry="4.94"/>
        <line class="cls-7" x1="249.54" y1="148.42" x2="412.54" y2="148.42"/>
        <circle class="cls-8" cx="262.92" cy="135.86" r="3.41"/>
        <circle class="cls-8" cx="276.56" cy="135.86" r="3.41"/>
        <circle class="cls-8" cx="290.21" cy="135.86" r="3.41"/>
        <rect class="cls-7" x="297.31" y="186.84" width="68.48" height="37.26"/>
        <rect class="cls-7" x="297.31" y="161.49" width="68.48" height="16.55"/>
        <line class="cls-7" x1="365.78" y1="245.75" x2="297.31" y2="245.75"/>
        <line class="cls-7" x1="365.78" y1="234.67" x2="297.31" y2="234.67"/>
        <rect class="cls-7" x="262.05" y="161.43" width="22.45" height="85.55"/>
        <rect class="cls-7" x="378.29" y="161.43" width="22.45" height="85.55"/>
        <circle class="cls-7" cx="332.25" cy="205.91" r="9.76"/>
        <polygon class="cls-8" points="329.54 201.9 329.54 210.5 334.56 206.06 329.54 201.9"/>
        <polyline class="cls-1" points="126.54 59.92 181.04 59.92 181.04 137.62"/>
        <polyline class="cls-1" points="180.04 189.42 180.04 257.92 93.54 257.92"/>
        <circle class="cls-6" cx="67.31" cy="255.78" r="25.16"/>
        <circle class="cls-6" cx="163.31" cy="339.78" r="25.16"/>
        <circle class="cls-6" cx="336.31" cy="339.78" r="25.16"/>
        <circle class="cls-6" cx="445.31" cy="67.78" r="25.16"/>
        <circle class="cls-6" cx="541.31" cy="158.78" r="25.16"/>
        <circle class="cls-6" cx="180.31" cy="162.78" r="25.16"/>
        <polygon class="cls-2" points="174.18 88.17 180.91 92.06 187.65 88.17 180.91 99.67 174.18 88.17"/>
        <polygon class="cls-2" points="173.3 216.17 180.04 220.06 186.78 216.17 180.04 227.67 173.3 216.17"/>
        <polygon class="cls-2" points="60.3 299.17 67.04 303.06 73.78 299.17 67.04 310.67 60.3 299.17"/>
        <polygon class="cls-2" points="342.65 296.67 335.91 292.79 329.18 296.67 335.91 285.17 342.65 296.67"/>
        <polygon class="cls-2" points="381.16 74.66 385.05 67.92 381.16 61.19 392.66 67.92 381.16 74.66"/>
        <polygon class="cls-2" points="505.16 74.66 509.05 67.92 505.16 61.19 516.66 67.92 505.16 74.66"/>
        <circle class="cls-7" cx="177.21" cy="160.09" r="9"/>
        <line class="cls-7" x1="182.87" y1="167.09" x2="190.87" y2="176.09"/>
        <ellipse class="cls-7" cx="67.29" cy="257.94" rx="16" ry="9.58"/>
        <ellipse class="cls-7" cx="67.59" cy="257.6" rx="6.03" ry="5.41"/>
        <line class="cls-7" x1="67.54" y1="247.42" x2="67.54" y2="242.42"/>
        <line class="cls-7" x1="61.07" y1="248.81" x2="56.85" y2="244.75"/>
        <line class="cls-7" x1="74.41" y1="248.81" x2="78.63" y2="244.75"/>
        <polygon class="cls-7" points="155.51 327.92 157.37 351.09 163.39 345.8 167.63 353.59 172.37 351.09 167.93 343.47 176.04 340.59 155.51 327.92"/>
        <polygon class="cls-7" points="554.04 148.78 530.05 148.78 530.05 165.44 537.2 165.44 537.36 171.95 543.24 165.44 554.04 165.44 554.04 148.78"/>
        <circle class="cls-8" cx="538.92" cy="156.86" r="1.91"/>
        <circle class="cls-8" cx="544.92" cy="156.86" r="1.91"/>
        <circle class="cls-7" cx="445.29" cy="67.42" r="14.5"/>
        <polygon class="cls-7" points="442.54 61.04 442.54 74.72 450.52 67.65 442.54 61.04"/>
        <rect class="cls-7" x="320.89" y="330.19" width="29.62" height="20.17" transform="translate(675.98 4.57) rotate(90)"/>
        <rect class="cls-7" x="328.01" y="331.66" width="15.39" height="11.29" transform="translate(673.01 1.6) rotate(90)"/>
        <circle class="cls-8" cx="335.92" cy="349.86" r="1.91"/>
    </g>
</g>
</svg>
