<?xml version="1.0"?>
<svg xmlns="http://www.w3.org/2000/svg" viewBox="0 0 596.82 636.45">
<defs>
    <style>
      .cls-1,.cls-10,.cls-12,.cls-13,.cls-14,.cls-15,.cls-3,.cls-5,.cls-9{fill:none;}
      .cls-1{stroke:#d3d3d3;}
      .cls-1,.cls-10,.cls-14,.cls-15,.cls-3,.cls-5,.cls-9{stroke-miterlimit:10;}
      .cls-2{fill:#d3d3d3;}
      .cls-3{stroke:#ccc;}
      .cls-12,.cls-13,.cls-14,.cls-15,.cls-3,.cls-9{stroke-linecap:round;}
      .cls-10,.cls-13,.cls-15,.cls-3,.cls-9{stroke-width:2px;}
      .cls-4{font-size:21px;fill:#375972;font-family:'Avenir Next W01','Helvetica Neue',Helvetica,Arial,sans-serif;}
      .cls-10,.cls-5,.cls-9{stroke:#008acf;}
      .cls-12,.cls-5{stroke-width:4px;}
      .cls-6{letter-spacing:0.01em;}
      .cls-7{letter-spacing:0em;}
      .cls-8{letter-spacing:-0.01em;}
      .cls-11{fill:#008acf;}
      .cls-12,.cls-13,.cls-14,.cls-15{stroke:#001443;}
      .cls-12,.cls-13{stroke-linejoin:round;}
      .cls-14{stroke-width:1.9px;}
    </style>
</defs>
<title>Asset 7</title>
<g id="Layer_2" data-name="Layer 2">
    <g id="Layer_1-2" data-name="Layer 1">
        <line class="cls-1" x1="388.92" y1="256.36" x2="479.23" y2="210.8"/>
        <line class="cls-1" x1="341.44" y1="280.31" x2="377.61" y2="262.07"/>
        <line class="cls-1" x1="288.93" y1="306.8" x2="330.66" y2="285.75"/>
        <line class="cls-1" x1="364.72" y1="132.66" x2="374.14" y2="111.02"/>
        <line class="cls-1" x1="335.37" y1="200.09" x2="348.92" y2="168.97"/>
        <line class="cls-1" x1="288.93" y1="306.8" x2="308.33" y2="262.23"/>
        <line class="cls-1" x1="388.08" y1="344.09" x2="478.33" y2="378.04"/>
        <line class="cls-1" x1="288.93" y1="306.8" x2="293.92" y2="308.68"/>
        <line class="cls-1" x1="336.41" y1="403.07" x2="372.04" y2="475.33"/>
        <line class="cls-1" x1="306.49" y1="342.42" x2="317.34" y2="364.4"/>
        <line class="cls-1" x1="288.93" y1="306.8" x2="291.02" y2="311.03"/>
        <line class="cls-1" x1="168.12" y1="246.36" x2="118.01" y2="221.08"/>
        <line class="cls-1" x1="287.93" y1="306.8" x2="269.9" y2="297.71"/>
        <line class="cls-1" x1="230.47" y1="132.66" x2="224.13" y2="113.45"/>
        <line class="cls-1" x1="257.01" y1="213.1" x2="242.45" y2="168.97"/>
        <path class="cls-1" d="M257,213.1"/>
        <line class="cls-1" x1="287.93" y1="306.8" x2="269.9" y2="252.16"/>
        <line class="cls-1" x1="287.93" y1="306.8" x2="119.73" y2="370.07"/>
        <line class="cls-1" x1="256.26" y1="388.59" x2="223.53" y2="473.11"/>
        <line class="cls-1" x1="287.93" y1="306.8" x2="267.63" y2="359.21"/>
        <path class="cls-1" d="M347.62,196.66a124.08,124.08,0,0,0-142.94,17.06"/>
        <path class="cls-1" d="M412,309.14q.05-1.83.05-3.67a123.51,123.51,0,0,0-29.27-80"/>
        <path class="cls-1" d="M388.29,378.53a123.64,123.64,0,0,0,17.27-33.24"/>
        <path class="cls-1" d="M196.08,388.59a124,124,0,0,0,168.5,14.48"/>
        <path class="cls-1" d="M164.37,297.24q-.27,4.08-.27,8.23A123.46,123.46,0,0,0,178.25,363"/>
        <circle class="cls-2" cx="403.85" cy="350.37" r="4.1"/>
        <circle class="cls-2" cx="343.85" cy="416.37" r="4.1"/>
        <circle class="cls-2" cx="399.85" cy="251.37" r="4.1"/>
        <circle class="cls-2" cx="338.85" cy="192.37" r="4.1"/>
        <circle class="cls-2" cx="173.01" cy="350.37" r="4.1"/>
        <circle class="cls-2" cx="243.01" cy="421.37" r="4.1"/>
        <circle class="cls-2" cx="249.01" cy="188.37" r="4.1"/>
        <rect class="cls-3" x="148.79" y="132.66" width="111.79" height="35.79" rx="4.68" ry="4.68"/>
        <text class="cls-4" transform="translate(169.45 156.96)">Season</text>
        <rect class="cls-3" x="475.95" y="270.66" width="118.79" height="35.79" rx="4.68" ry="4.68"/>
        <text class="cls-4" transform="translate(501.61 294.96)">Gender</text>
        <rect class="cls-3" x="477.03" y="463.9" width="118.79" height="35.79" rx="4.68" ry="4.68"/>
        <text class="cls-4" transform="translate(495.31 488.2)">Location</text>
        <circle class="cls-5" cx="535.2" cy="199.16" r="57.16"/>
        <circle class="cls-5" cx="534.2" cy="390.16" r="57.16"/>
        <circle class="cls-5" cx="206.2" cy="59.16" r="57.16"/>
        <rect class="cls-3" x="340.79" y="132.66" width="111.79" height="35.79" rx="4.68" ry="4.68"/>
        <text class="cls-4" transform="translate(368.71 156.96)">Brand</text>
        <circle class="cls-5" cx="398.2" cy="59.16" r="57.16"/>
        <rect class="cls-3" x="144.79" y="599.66" width="111.79" height="35.79" rx="4.68" ry="4.68"/>
        <text class="cls-4" transform="translate(158.12 623.96)">Category</text>
        <rect class="cls-3" x="344.22" y="598.66" width="104.25" height="35.79" rx="4.68" ry="4.68"/>
        <text class="cls-4" transform="translate(355.65 622.96)">Revenue</text>
        <circle class="cls-5" cx="398.2" cy="526.16" r="57.16"/>
        <circle class="cls-5" cx="202.2" cy="526.16" r="57.16"/>
        <rect class="cls-9" x="178.68" y="485.37" width="21.37" height="19.81"/>
        <rect class="cls-9" x="213.26" y="505.57" width="14.76" height="15.15"/>
        <rect class="cls-9" x="213.26" y="528.44" width="14.76" height="15.15"/>
        <rect class="cls-9" x="213.26" y="551.31" width="14.76" height="15.15"/>
        <polyline class="cls-9" points="187.43 505.8 187.43 559.8 212.43 559.8"/>
        <line class="cls-9" x1="212.43" y1="535.8" x2="188.43" y2="535.8"/>
        <line class="cls-9" x1="212.43" y1="514.8" x2="188.43" y2="514.8"/>
        <rect class="cls-3" x="5.95" y="270.66" width="118.79" height="35.79" rx="4.68" ry="4.68"/>
        <text class="cls-4" transform="translate(28.2 294.96)">Returns</text>
        <circle class="cls-5" cx="65.2" cy="199.16" r="57.16"/>
        <rect class="cls-3" x="1" y="463.9" width="134.86" height="35.79" rx="4.68" ry="4.68"/>
        <text class="cls-4" transform="translate(13.21 488.2)">Profitability</text>
        <circle class="cls-5" cx="66.2" cy="390.16" r="57.16"/>
        <path class="cls-9" d="M559.43,381.69a25.5,25.5,0,1,0-51,0c0,14.08,24.57,46.66,25.5,45.72C534.59,426.75,559.43,395.77,559.43,381.69Z"/>
        <circle class="cls-9" cx="533.93" cy="381.69" r="14.51"/>
        <polygon class="cls-9" points="427.82 33.38 367.05 33.38 367.05 75.59 385.16 75.59 385.56 92.09 400.45 75.59 427.82 75.59 427.82 33.38"/>
        <line class="cls-9" x1="377.43" y1="47.8" x2="420.43" y2="47.8"/>
        <line class="cls-9" x1="377.43" y1="56.8" x2="420.43" y2="56.8"/>
        <line class="cls-9" x1="377.43" y1="65.8" x2="387.43" y2="65.8"/>
        <circle class="cls-9" cx="518.81" cy="195.72" r="18.04"/>
        <circle class="cls-9" cx="542.34" cy="195.72" r="18.04"/>
        <line class="cls-9" x1="554.7" y1="182.78" x2="571.37" y2="166.5"/>
        <line class="cls-9" x1="518.43" y1="214.8" x2="518.43" y2="236.8"/>
        <line class="cls-9" x1="511.43" y1="228.8" x2="525.43" y2="228.8"/>
        <polyline class="cls-9" points="562.43 166.8 571.43 166.8 571.43 175.8"/>
        <polyline class="cls-9" points="80.95 184.72 77.01 188.55 73.34 184.71"/>
        <polyline class="cls-9" points="52.26 188.46 56.2 184.63 59.86 188.48"/>
        <path class="cls-10" d="M48.26,421.53v-22A2.19,2.19,0,0,0,46,397.47H37.87a2.19,2.19,0,0,0-2.28,2.08v22"/>
        <path class="cls-10" d="M71.26,421.53v-33c0-1.61-1-2.92-2.28-2.92H60.87c-1.25,0-2.28,1.32-2.28,2.92v33"/>
        <path class="cls-10" d="M93.26,421.53V375.1c0-2.18-1-4-2.28-4H82.87c-1.25,0-2.28,1.78-2.28,4v46.43"/>
        <line class="cls-9" x1="28.43" y1="420.8" x2="103.43" y2="420.8"/>
        <path class="cls-11" d="M44.61,383.71a2.47,2.47,0,0,0-.17-.92,2.28,2.28,0,0,0-.54-.78,4,4,0,0,0-1-.67,9.89,9.89,0,0,0-1.45-.6,11.59,11.59,0,0,1-1.88-.74,5.71,5.71,0,0,1-1.42-1,4,4,0,0,1-.89-1.32,4.53,4.53,0,0,1-.31-1.73,4.84,4.84,0,0,1,.28-1.67,3.88,3.88,0,0,1,.79-1.31,4,4,0,0,1,1.24-.9,5.25,5.25,0,0,1,1.64-.46V370a.82.82,0,0,1,.82-.82h0a.82.82,0,0,1,.82.82v1.6a4.25,4.25,0,0,1,2.88,1.56,4.9,4.9,0,0,1,1,2.43,1,1,0,0,1-1,1.13h0a1,1,0,0,1-1-.89,4.32,4.32,0,0,0-.1-.47,3.18,3.18,0,0,0-.52-1.07,2.44,2.44,0,0,0-.86-.71,2.62,2.62,0,0,0-1.18-.25,3.47,3.47,0,0,0-1.2.19,2.24,2.24,0,0,0-.84.52,2.14,2.14,0,0,0-.5.81,3.17,3.17,0,0,0-.16,1,2.77,2.77,0,0,0,.15,1,2.05,2.05,0,0,0,.52.78,4.1,4.1,0,0,0,1,.67,10.25,10.25,0,0,0,1.52.61,12.65,12.65,0,0,1,1.89.77,5.59,5.59,0,0,1,1.39,1,3.84,3.84,0,0,1,.87,1.3,4.56,4.56,0,0,1,.3,1.71,4.69,4.69,0,0,1-.3,1.72,3.74,3.74,0,0,1-.86,1.31,4.19,4.19,0,0,1-1.35.88,6.14,6.14,0,0,1-1.76.43v1.29a.82.82,0,0,1-.82.82h0a.82.82,0,0,1-.82-.82V388a5.94,5.94,0,0,1-1.64-.39,4.27,4.27,0,0,1-1.4-.89,4.18,4.18,0,0,1-1-1.48,4.81,4.81,0,0,1-.29-1.08,1,1,0,0,1,1-1.07h.13a1,1,0,0,1,.95.84,3,3,0,0,0,.21.72,2.54,2.54,0,0,0,1.71,1.49,4.29,4.29,0,0,0,1.1.14,4.36,4.36,0,0,0,1.31-.18,2.79,2.79,0,0,0,1-.52,2.23,2.23,0,0,0,.61-.82A2.67,2.67,0,0,0,44.61,383.71Z"/>
        <polyline class="cls-9" points="50.43 375.3 58.6 368.8 66.43 375.63 86.26 353.13"/>
        <path class="cls-9" d="M55.88,186v18.42a4.74,4.74,0,0,0,4.73,4.73H72.33a4.74,4.74,0,0,0,4.73-4.73V193.3"/>
        <path class="cls-9" d="M77.06,187.73V173.26a4.74,4.74,0,0,0-4.73-4.73H60.61a4.74,4.74,0,0,0-4.73,4.73v6"/>
        <polyline class="cls-9" points="23.43 181.8 36.76 181.8 50.65 218.8 83.43 218.8 93.43 192.8 84.43 192.8"/>
        <circle class="cls-9" cx="55.1" cy="230.8" r="5"/>
        <circle class="cls-9" cx="76.21" cy="230.8" r="5"/>
        <line class="cls-9" x1="49.43" y1="193.8" x2="41.43" y2="193.8"/>
        <rect class="cls-9" x="355.09" y="503.07" width="84.67" height="47.46"/>
        <rect class="cls-9" x="360.49" y="508.15" width="73.88" height="37.3"/>
        <circle class="cls-9" cx="397.38" cy="526.8" r="17.67"/>
        <path class="cls-11" d="M401.11,531.67a2.47,2.47,0,0,0-.17-.92,2.28,2.28,0,0,0-.54-.78,4,4,0,0,0-1-.67,9.89,9.89,0,0,0-1.45-.6,11.59,11.59,0,0,1-1.88-.74,5.71,5.71,0,0,1-1.42-1,4,4,0,0,1-.89-1.32,4.53,4.53,0,0,1-.31-1.73,4.84,4.84,0,0,1,.28-1.67,3.88,3.88,0,0,1,.79-1.31,4,4,0,0,1,1.24-.9,5.25,5.25,0,0,1,1.64-.46V518a.82.82,0,0,1,.82-.82h0a.82.82,0,0,1,.82.82v1.6a4.25,4.25,0,0,1,2.88,1.56,4.9,4.9,0,0,1,1,2.43,1,1,0,0,1-1,1.13h0a1,1,0,0,1-1-.89,4.32,4.32,0,0,0-.1-.47,3.18,3.18,0,0,0-.52-1.07,2.44,2.44,0,0,0-.86-.71,2.62,2.62,0,0,0-1.18-.25,3.47,3.47,0,0,0-1.2.19,2.24,2.24,0,0,0-.84.52,2.14,2.14,0,0,0-.5.81,3.17,3.17,0,0,0-.16,1,2.77,2.77,0,0,0,.15,1,2.05,2.05,0,0,0,.52.78,4.1,4.1,0,0,0,1,.67,10.25,10.25,0,0,0,1.52.61,12.65,12.65,0,0,1,1.89.77,5.59,5.59,0,0,1,1.39,1,3.84,3.84,0,0,1,.87,1.3,4.56,4.56,0,0,1,.3,1.71,4.69,4.69,0,0,1-.3,1.72,3.74,3.74,0,0,1-.86,1.31,4.19,4.19,0,0,1-1.35.88,6.14,6.14,0,0,1-1.76.43v1.29a.82.82,0,0,1-.82.82h0a.82.82,0,0,1-.82-.82V536a5.94,5.94,0,0,1-1.64-.39,4.27,4.27,0,0,1-1.4-.89,4.18,4.18,0,0,1-1-1.48,4.81,4.81,0,0,1-.29-1.08,1,1,0,0,1,1-1.07H394a1,1,0,0,1,.95.84,3,3,0,0,0,.21.72,2.54,2.54,0,0,0,1.71,1.49,4.29,4.29,0,0,0,1.1.14,4.36,4.36,0,0,0,1.31-.18,2.79,2.79,0,0,0,1-.52,2.23,2.23,0,0,0,.61-.82A2.67,2.67,0,0,0,401.11,531.67Z"/>
        <circle class="cls-9" cx="370.6" cy="526.63" r="3.17"/>
        <circle class="cls-9" cx="423.6" cy="526.63" r="3.17"/>
        <path class="cls-9" d="M218.25,42.25a22.32,22.32,0,0,0-37,21.87"/>
        <line class="cls-9" x1="204.11" y1="29.38" x2="204.11" y2="20.6"/>
        <line class="cls-9" x1="194.38" y1="30.28" x2="191.69" y2="22.88"/>
        <line class="cls-9" x1="185.29" y1="34.85" x2="180.23" y2="28.82"/>
        <line class="cls-9" x1="178.31" y1="42.25" x2="171.5" y2="38.31"/>
        <line class="cls-9" x1="174.29" y1="51.59" x2="166.54" y2="50.23"/>
        <line class="cls-9" x1="173.7" y1="61.75" x2="165.95" y2="63.12"/>
        <line class="cls-9" x1="222.88" y1="37.02" x2="227.95" y2="30.98"/>
        <line class="cls-9" x1="214.38" y1="31.43" x2="217.08" y2="24.03"/>
        <path class="cls-9" d="M241.08,76.35a5.12,5.12,0,0,0,4.85-3.51,10.41,10.41,0,0,0,.53-3.3,10.22,10.22,0,0,0-8.21-10.1A17.61,17.61,0,0,0,221.1,45.14a17.42,17.42,0,0,0-15.2,9,12.92,12.92,0,0,0-2.12-.19,13.21,13.21,0,0,0-12.62,9.62,7.54,7.54,0,0,0-5.11.59,8.26,8.26,0,0,0-4.6,6.33v.1a5.16,5.16,0,0,0,5.11,5.71Z"/>
        <path class="cls-9" d="M225.18,69.75a10.86,10.86,0,0,1,14.67-9.85"/>
        <line class="cls-9" x1="191.19" y1="79.98" x2="187.91" y2="87.74"/>
        <line class="cls-9" x1="204.97" y1="79.98" x2="197.46" y2="97.71"/>
        <line class="cls-9" x1="218.74" y1="79.98" x2="215.51" y2="87.61"/>
        <line class="cls-9" x1="232.52" y1="79.98" x2="226.32" y2="94.63"/>
        <path class="cls-12" d="M266.54,388.37"/>
        <path class="cls-12" d="M155.92,388.59v-6.83s-.82-18.62,20.4-18.62,53.87-37,53.87-37,20.88,12.82,36.5,6.15v56.31Z"/>
        <line class="cls-13" x1="177.67" y1="363.07" x2="184.69" y2="381.09"/>
        <line class="cls-13" x1="191.15" y1="359.21" x2="195.48" y2="368.05"/>
        <path class="cls-13" d="M233.45,381.46s5-21.54,32.86-20.81"/>
        <line class="cls-12" x1="266.55" y1="332.28" x2="272.37" y2="325.73"/>
        <line class="cls-13" x1="155.92" y1="381.49" x2="266.69" y2="381.49"/>
        <line class="cls-13" x1="200.92" y1="353.27" x2="206.92" y2="363.24"/>
        <line class="cls-13" x1="208.82" y1="347.23" x2="216.71" y2="357.07"/>
        <line class="cls-13" x1="215.21" y1="341.28" x2="223.91" y2="350.6"/>
        <line class="cls-13" x1="221.69" y1="335.6" x2="230.02" y2="343.83"/>
        <circle class="cls-13" cx="236.69" cy="336.93" r="2.75"/>
        <path class="cls-13" d="M233.94,329.39C205.53,364.27,185.12,366,185.12,366l-3.37-4.26"/>
        <polyline class="cls-12" points="327.8 291.1 317.57 291.1 281.99 317.81 299.08 347.09 317.34 335.3 317.34 403.08 352.69 403.08"/>
        <polygon class="cls-13" points="332.76 280.47 343.1 302.8 334.76 310.8 328.7 291.1 332.76 280.47"/>
        <polygon class="cls-13" points="372.43 280.47 361.7 302.8 370.03 310.8 376.1 291.1 372.43 280.47"/>
        <polyline class="cls-12" points="352.74 403.08 388.08 403.08 388.08 335.3 404.18 345.3 421.27 316.02 387.85 291.1 376.72 291.1"/>
        <line class="cls-13" x1="286.41" y1="314.49" x2="303.95" y2="343.95"/>
        <line class="cls-13" x1="416.44" y1="312.7" x2="398.9" y2="342.16"/>
        <path class="cls-12" d="M383.75,255.21v-22.4c-4.31-29.83-38.8-34.66-38.8-34.66s-34.49,4.83-38.8,34.66v22.34"/>
        <path class="cls-13" d="M344.95,198.15s-23.11,3.62-24.49,28.28V255"/>
        <path class="cls-13" d="M344.95,198.15s23.11,3.62,24.49,28.28V255"/>
        <circle class="cls-13" cx="344.95" cy="228.5" r="8.07"/>
        <path class="cls-13" d="M297.93,263.4a3.1,3.1,0,0,1-.42-6.18,396.68,396.68,0,0,1,47.44-3.13,396.66,396.66,0,0,1,47.44,3.13,3.1,3.1,0,0,1-.85,6.15,389.93,389.93,0,0,0-46.59-3.08,389.67,389.67,0,0,0-46.59,3.07A3.08,3.08,0,0,1,297.93,263.4Z"/>
        <polygon class="cls-12" points="264.45 213.1 218.32 213.1 172.2 213.1 161.93 296.8 203.84 304.3 218.32 273.58 232.81 304.3 274.72 296.8 264.45 213.1"/>
        <line class="cls-13" x1="171.01" y1="222.79" x2="265.3" y2="222.79"/>
        <line class="cls-13" x1="218.32" y1="274.79" x2="218.32" y2="222.79"/>
        <path class="cls-13" d="M226.41,222.79v27.34a20.74,20.74,0,0,1-5.66,14.41l-2.43,2.5"/>
        <path class="cls-13" d="M190.13,222.79s3.1,25.68-23,31.31"/>
        <path class="cls-13" d="M246.37,222.79s-3.1,25.68,23,31.31"/>
        <line class="cls-13" x1="162.66" y1="290.87" x2="206.53" y2="298.67"/>
        <line class="cls-13" x1="273.95" y1="290.87" x2="231.07" y2="298.67"/>
        <line class="cls-14" x1="332.76" y1="280.47" x2="372.43" y2="280.47"/>
        <polyline class="cls-15" points="351.76 403.8 351.76 313.55 361.7 302.8"/>
        <line class="cls-15" x1="343.1" y1="302.8" x2="351.76" y2="313.55"/>
        <line class="cls-15" x1="336.43" y1="288.8" x2="368.18" y2="288.8"/>
    </g>
</g>
</svg>
