<svg xmlns="http://www.w3.org/2000/svg" viewBox="0 0 196.31 147.12"><defs><style>.cls-1{fill:#eaeaea;}.cls-2,.cls-3,.cls-4{fill:#fff;}.cls-2,.cls-6{stroke:#008acf;}.cls-2,.cls-4,.cls-6,.cls-7{stroke-linecap:round;}.cls-2,.cls-3,.cls-4,.cls-5,.cls-6,.cls-7{stroke-miterlimit:10;}.cls-2,.cls-4{stroke-width:2px;}.cls-3,.cls-4,.cls-7{stroke:#001443;}.cls-3{stroke-width:4px;}.cls-5,.cls-6,.cls-7{fill:none;}.cls-5{stroke:#dbdddd;}</style></defs><title>Asset 14</title><g id="Layer_2" data-name="Layer 2"><g id="Layer_1-2" data-name="Layer 1"><path class="cls-1" d="M85.67,91.77V100l0,.14a1.27,1.27,0,0,1-1,1l-.75.11-5.54.84a.24.24,0,0,0-.23.19,21.33,21.33,0,0,1-1.25,2.92.21.21,0,0,0,0,.27l2.92,3.79c.27.35.56.69.83,1a1.21,1.21,0,0,1,0,1.56,40.69,40.69,0,0,1-5.19,5.38,11.56,11.56,0,0,1-1.27.89.77.77,0,0,1-.67.1,2.92,2.92,0,0,1-.73-.34c-.38-.26-.74-.57-1.1-.85L68,114.14a.16.16,0,0,0-.21,0,19.26,19.26,0,0,1-3,1.25.16.16,0,0,0-.13.15c-.12,1-.23,1.93-.38,2.89q-.28,1.77-.63,3.54a1.17,1.17,0,0,1-1.31,1H54.44a1.23,1.23,0,0,1-1.14-.9c0-.12,0-.24-.05-.36q-.47-3.08-.94-6.15a.22.22,0,0,0-.17-.21,20.5,20.5,0,0,1-2.91-1.2.19.19,0,0,0-.24,0l-4.93,3.75a1.28,1.28,0,0,1-1.67-.07c-1.08-1-2.16-2-3.22-3A24.84,24.84,0,0,1,36.6,112a1.36,1.36,0,0,1,0-1.83c.75-1,1.51-2,2.26-2.94l1.4-1.83-.15-.3a16.62,16.62,0,0,1-1.24-3,.25.25,0,0,0-.25-.21l-2.27-.33L32.77,101l-.49-.07a1.23,1.23,0,0,1-1-1.26q0-3.93,0-7.86s0-.1,0-.14a1.3,1.3,0,0,1,1.08-1.16L34,90.27l4.75-.71a.19.19,0,0,0,.18-.16,16.61,16.61,0,0,1,1.26-3,.23.23,0,0,0,0-.29l-2.83-3.68c-.3-.39-.63-.77-.94-1.16a1.11,1.11,0,0,1-.08-1.37,5.89,5.89,0,0,1,.45-.62,45.75,45.75,0,0,1,4.45-4.6,8.19,8.19,0,0,1,1.54-1.16,1.11,1.11,0,0,1,1.13,0,2.76,2.76,0,0,1,.37.24l4.71,3.65a.18.18,0,0,0,.22,0,19.25,19.25,0,0,1,3-1.24.18.18,0,0,0,.15-.17c.18-1.35.34-2.69.55-4,.13-.82.3-1.64.48-2.45a1.12,1.12,0,0,1,1-.94,2.64,2.64,0,0,1,.36,0h7.85a1.21,1.21,0,0,1,1.16,1c.13.8.24,1.61.37,2.41q.31,2,.61,4a.2.2,0,0,0,.16.18,21.09,21.09,0,0,1,2.91,1.2.21.21,0,0,0,.26,0l5-3.78a1,1,0,0,1,.29-.15,1.33,1.33,0,0,1,1.41.35c1.06,1,2.12,2,3.16,3a23.37,23.37,0,0,1,2.61,2.93,1.24,1.24,0,0,1,.19.38,1.34,1.34,0,0,1-.24,1.21l-.65.88-3,3.84a.21.21,0,0,0,0,.27,19.84,19.84,0,0,1,1.31,3.14.29.29,0,0,0,.28.23L81,90.1c1.16.18,2.32.37,3.48.53a1.29,1.29,0,0,1,1.16.87C85.62,91.59,85.64,91.68,85.67,91.77Zm-36.25,4a9.07,9.07,0,1,0,9.11-9.08A9.11,9.11,0,0,0,49.42,95.8Z"/><path class="cls-1" d="M108.91,15.61v5.52l0,.09a.86.86,0,0,1-.7.67l-.51.07-3.74.57a.17.17,0,0,0-.15.13,14.38,14.38,0,0,1-.84,2,.14.14,0,0,0,0,.18l2,2.56c.18.24.38.46.56.7a.82.82,0,0,1,0,1.05,27.44,27.44,0,0,1-3.5,3.63,7.8,7.8,0,0,1-.85.6.52.52,0,0,1-.45.07,2,2,0,0,1-.49-.23c-.26-.18-.5-.38-.74-.58L97,30.69a.11.11,0,0,0-.14,0,13,13,0,0,1-2,.85.11.11,0,0,0-.08.1c-.08.65-.15,1.3-.25,1.95q-.19,1.2-.43,2.38a.79.79,0,0,1-.88.7H87.85a.83.83,0,0,1-.77-.61c0-.08,0-.16,0-.24q-.32-2.07-.63-4.15a.15.15,0,0,0-.11-.14,13.82,13.82,0,0,1-2-.81.13.13,0,0,0-.16,0l-3.32,2.53a.86.86,0,0,1-1.13,0c-.73-.68-1.46-1.35-2.17-2a16.75,16.75,0,0,1-1.73-1.9.92.92,0,0,1,0-1.23c.5-.66,1-1.32,1.53-2l.95-1.24-.1-.2a11.2,11.2,0,0,1-.84-2.05.17.17,0,0,0-.17-.14l-1.53-.22-2.41-.36-.33-.05a.83.83,0,0,1-.66-.85q0-2.65,0-5.3s0-.06,0-.1a.87.87,0,0,1,.73-.78L74,14.6l3.2-.48a.13.13,0,0,0,.12-.11,11.2,11.2,0,0,1,.85-2,.16.16,0,0,0,0-.2L76.29,9.33c-.2-.27-.43-.52-.63-.78a.75.75,0,0,1-.05-.92,4,4,0,0,1,.3-.42,30.84,30.84,0,0,1,3-3.1,5.52,5.52,0,0,1,1-.78.75.75,0,0,1,.76,0A1.86,1.86,0,0,1,81,3.5L84.14,6a.12.12,0,0,0,.15,0,13,13,0,0,1,2-.84.12.12,0,0,0,.1-.12c.12-.91.23-1.82.37-2.72.08-.56.2-1.11.32-1.66A.75.75,0,0,1,87.76,0H93.3a.81.81,0,0,1,.78.66c.09.54.17,1.08.25,1.63q.21,1.36.41,2.72a.13.13,0,0,0,.11.12,14.22,14.22,0,0,1,2,.81.14.14,0,0,0,.18,0l3.37-2.55a.69.69,0,0,1,.2-.1.9.9,0,0,1,1,.23c.71.68,1.43,1.35,2.13,2a15.75,15.75,0,0,1,1.76,2,.83.83,0,0,1,.13.25.91.91,0,0,1-.16.82l-.44.59-2,2.59a.14.14,0,0,0,0,.18,13.38,13.38,0,0,1,.89,2.11.2.2,0,0,0,.19.15l1.74.26c.78.12,1.56.25,2.34.36a.87.87,0,0,1,.78.59C108.88,15.49,108.89,15.55,108.91,15.61ZM84.47,18.33a6.12,6.12,0,1,0,6.14-6.12A6.14,6.14,0,0,0,84.47,18.33Z"/><path class="cls-2" d="M72.52,46V56.73l0,.18a1.67,1.67,0,0,1-1.37,1.32l-1,.14-7.29,1.1a.32.32,0,0,0-.3.25,28.06,28.06,0,0,1-1.64,3.85.28.28,0,0,0,0,.35l3.84,5c.36.46.74.9,1.1,1.36a1.6,1.6,0,0,1,0,2.06,53.54,53.54,0,0,1-6.82,7.07,15.21,15.21,0,0,1-1.66,1.17,1,1,0,0,1-.88.13,3.84,3.84,0,0,1-1-.44c-.5-.35-1-.75-1.45-1.12l-4.78-3.74a.21.21,0,0,0-.27,0,25.34,25.34,0,0,1-4,1.65.21.21,0,0,0-.17.2c-.16,1.27-.3,2.54-.5,3.8q-.37,2.33-.83,4.65A1.54,1.54,0,0,1,41.89,87H31.44a1.62,1.62,0,0,1-1.49-1.19c0-.16,0-.32-.07-.47q-.62-4-1.23-8.1a.28.28,0,0,0-.22-.27,27,27,0,0,1-3.83-1.57.25.25,0,0,0-.31,0l-6.49,4.94a1.68,1.68,0,0,1-2.2-.09c-1.42-1.32-2.84-2.64-4.24-4A32.68,32.68,0,0,1,8,72.58a1.79,1.79,0,0,1,0-2.41c1-1.3,2-2.58,3-3.87l1.85-2.41-.2-.39a21.86,21.86,0,0,1-1.64-4,.33.33,0,0,0-.33-.27l-3-.43-4.7-.69c-.21,0-.43-.06-.64-.1A1.62,1.62,0,0,1,1,56.35Q1,51.18,1,46c0-.06,0-.13,0-.19A1.71,1.71,0,0,1,2.44,44.3L4.5,44l6.24-.94a.25.25,0,0,0,.24-.21,21.85,21.85,0,0,1,1.65-3.91.3.3,0,0,0,0-.39L8.88,33.7c-.4-.52-.83-1-1.23-1.52a1.46,1.46,0,0,1-.11-1.8,7.74,7.74,0,0,1,.59-.81,60.19,60.19,0,0,1,5.86-6A10.77,10.77,0,0,1,16,22a1.46,1.46,0,0,1,1.49,0,3.63,3.63,0,0,1,.49.32l6.19,4.8a.23.23,0,0,0,.29,0,25.32,25.32,0,0,1,3.91-1.64.24.24,0,0,0,.19-.23c.23-1.77.45-3.54.72-5.31.16-1.08.39-2.16.63-3.23a1.47,1.47,0,0,1,1.32-1.23,3.48,3.48,0,0,1,.48,0H42.06a1.59,1.59,0,0,1,1.53,1.29c.17,1.06.32,2.11.48,3.17q.4,2.66.8,5.32a.26.26,0,0,0,.21.24,27.75,27.75,0,0,1,3.83,1.57.28.28,0,0,0,.35,0l6.59-5a1.35,1.35,0,0,1,.38-.2,1.75,1.75,0,0,1,1.86.45c1.39,1.32,2.79,2.64,4.16,4a30.74,30.74,0,0,1,3.44,3.86,1.63,1.63,0,0,1,.25.5,1.77,1.77,0,0,1-.31,1.6c-.28.39-.57.77-.86,1.15l-3.9,5a.28.28,0,0,0,0,.35A26.1,26.1,0,0,1,62.56,43a.38.38,0,0,0,.37.3l3.4.51c1.52.23,3,.48,4.57.69a1.7,1.7,0,0,1,1.52,1.14C72.46,45.72,72.49,45.84,72.52,46Zm-47.69,5.3a11.93,11.93,0,1,0,12-11.94A12,12,0,0,0,24.84,51.26Z"/><path class="cls-3" d="M179.1,82.78V99.12l-.07.27a2.54,2.54,0,0,1-2.08,2l-1.5.22-11.07,1.68a.49.49,0,0,0-.46.37,42.61,42.61,0,0,1-2.5,5.84.42.42,0,0,0,0,.53l5.83,7.58c.54.7,1.13,1.37,1.67,2.07a2.42,2.42,0,0,1,.06,3.12,81.28,81.28,0,0,1-10.36,10.74,23.1,23.1,0,0,1-2.53,1.78,1.53,1.53,0,0,1-1.34.19,5.83,5.83,0,0,1-1.45-.67c-.76-.52-1.47-1.13-2.2-1.71l-7.25-5.68a.32.32,0,0,0-.41-.06,38.47,38.47,0,0,1-6,2.5.31.31,0,0,0-.25.3c-.24,1.93-.45,3.86-.75,5.77q-.56,3.54-1.26,7.07a2.33,2.33,0,0,1-2.61,2.06H116.72a2.45,2.45,0,0,1-2.27-1.8c-.05-.24-.07-.48-.11-.72q-.94-6.15-1.87-12.29a.43.43,0,0,0-.34-.41,41,41,0,0,1-5.81-2.39.38.38,0,0,0-.48,0L96,135a2.56,2.56,0,0,1-3.33-.14c-2.15-2-4.31-4-6.43-6.06a49.62,49.62,0,0,1-5.13-5.64,2.72,2.72,0,0,1,0-3.66c1.49-2,3-3.91,4.52-5.87l2.8-3.66-.31-.59a33.19,33.19,0,0,1-2.48-6.08.51.51,0,0,0-.49-.41l-4.54-.66-7.14-1.05c-.32,0-.65-.08-1-.15a2.46,2.46,0,0,1-2-2.51q0-7.85,0-15.71c0-.09,0-.19,0-.28a2.59,2.59,0,0,1,2.16-2.31l3.13-.46,9.48-1.43a.38.38,0,0,0,.36-.32,33.18,33.18,0,0,1,2.51-5.93.46.46,0,0,0,0-.59c-1.89-2.45-3.76-4.91-5.65-7.36-.61-.79-1.26-1.53-1.87-2.31a2.21,2.21,0,0,1-.16-2.73,11.76,11.76,0,0,1,.89-1.23,91.38,91.38,0,0,1,8.9-9.18,16.35,16.35,0,0,1,3.08-2.31,2.21,2.21,0,0,1,2.26,0,5.51,5.51,0,0,1,.74.49l9.41,7.3a.35.35,0,0,0,.45,0,38.45,38.45,0,0,1,5.94-2.49.36.36,0,0,0,.29-.34c.35-2.69.68-5.38,1.09-8.06.25-1.64.6-3.28,1-4.9a2.24,2.24,0,0,1,2-1.87,5.28,5.28,0,0,1,.73,0h15.68a2.41,2.41,0,0,1,2.32,2c.26,1.6.49,3.21.73,4.82q.61,4,1.22,8.07a.39.39,0,0,0,.32.36,42.14,42.14,0,0,1,5.81,2.39.42.42,0,0,0,.53,0q5-3.79,10-7.56a2,2,0,0,1,.58-.31,2.66,2.66,0,0,1,2.82.69c2.11,2,4.23,4,6.31,6a46.67,46.67,0,0,1,5.22,5.86,2.47,2.47,0,0,1,.38.75,2.68,2.68,0,0,1-.47,2.42c-.43.59-.86,1.17-1.31,1.75q-3,3.84-5.92,7.67a.42.42,0,0,0,0,.53A39.63,39.63,0,0,1,164,78.21a.58.58,0,0,0,.56.46c1.72.25,3.44.52,5.16.78,2.31.35,4.63.73,6.94,1.05a2.58,2.58,0,0,1,2.31,1.74C179,82.41,179,82.6,179.1,82.78Z"/><path class="cls-4" d="M106.7,90.83c-.17,9.81,8.17,18,17.91,18.14a18.14,18.14,0,1,0,.29-36.27C114.91,72.64,106.51,81,106.7,90.83Z"/><rect class="cls-5" x="142.31" y="6.5" width="9.33" height="9.33"/><rect class="cls-5" x="30.84" y="130.33" width="9.33" height="9.33" rx="4.67" ry="4.67" transform="translate(-97.46 177.49) rotate(-92.99)"/><line class="cls-5" x1="191.81" y1="108.5" x2="191.81" y2="117.5"/><line class="cls-5" x1="196.31" y1="113" x2="187.31" y2="113"/><circle class="cls-6" cx="36.89" cy="51.42" r="18.92"/><circle class="cls-7" cx="124.39" cy="90.92" r="27.92"/></g></g></svg>