<svg xmlns="http://www.w3.org/2000/svg" viewBox="0 0 528.13 644.11"><defs><style>.cls-1,.cls-2,.cls-3,.cls-6,.cls-7,.cls-9{fill:none;stroke-miterlimit:10;}.cls-1{stroke:#d3d3d3;}.cls-2,.cls-3{stroke:#008acf;}.cls-2,.cls-6{stroke-width:4px;}.cls-3,.cls-7,.cls-9{stroke-linecap:round;stroke-width:2px;}.cls-4{fill:#008acf;}.cls-5{fill:#d3d3d3;}.cls-6,.cls-7{stroke:#001443;}.cls-8{fill:#001443;}.cls-9{stroke:#ccc;}.cls-10{font-size:21px;fill:#375972;font-family:Roboto-Medium, Roboto;}.cls-11{letter-spacing:0.01em;}.cls-12{letter-spacing:0em;}.cls-13{letter-spacing:-0.01em;}</style></defs><title>Asset 4</title><g id="Layer_2" data-name="Layer 2"><g id="Layer_1-2" data-name="Layer 1"><path class="cls-1" d="M423.36,114.5a235.55,235.55,0,0,0-97.21-52.23"/><path class="cls-1" d="M494.32,229.65q-1.9-7.13-4.24-14.08"/><path class="cls-1" d="M494.32,229.65"/><path class="cls-1" d="M488.94,369.09a235.7,235.7,0,0,0,13.34-78.42q0-12-1.17-23.63"/><path class="cls-1" d="M325,519.36a235.43,235.43,0,0,0,94.5-49.17"/><path class="cls-1" d="M106.27,464.31a235.64,235.64,0,0,0,98.79,54.43"/><path class="cls-1" d="M31.25,267.6q-1.1,11.38-1.11,23.07a235.89,235.89,0,0,0,11.51,73"/><path class="cls-1" d="M42.07,216.34Q40,222.73,38.2,229.27"/><path class="cls-1" d="M203.77,62.94a235.62,235.62,0,0,0-95.62,52.37"/><circle class="cls-2" cx="264.98" cy="63.16" r="61.16"/><circle class="cls-2" cx="264.98" cy="531.02" r="61.16"/><circle class="cls-2" cx="464.97" cy="160.4" r="61.16"/><circle class="cls-2" cx="455.8" cy="420.94" r="61.16"/><circle class="cls-2" cx="66.83" cy="160.4" r="61.16"/><circle class="cls-2" cx="63.16" cy="420.94" r="61.16"/><polygon class="cls-3" points="296.6 36.25 235.83 36.25 235.83 78.46 253.94 78.46 254.34 94.96 269.23 78.46 296.6 78.46 296.6 36.25"/><line class="cls-3" x1="246.21" y1="50.67" x2="289.21" y2="50.67"/><line class="cls-3" x1="246.21" y1="59.67" x2="289.21" y2="59.67"/><line class="cls-3" x1="246.21" y1="68.67" x2="256.21" y2="68.67"/><rect class="cls-3" x="442.62" y="123.3" width="49.18" height="73.78" rx="4.17" ry="4.17"/><rect class="cls-3" x="449.69" y="131.32" width="34.34" height="50.65" rx="0.26" ry="0.26"/><circle class="cls-4" cx="466.75" cy="188.7" r="1.98"/><line class="cls-3" x1="456.21" y1="140.67" x2="476.21" y2="140.67"/><line class="cls-3" x1="456.21" y1="150.67" x2="476.21" y2="150.67"/><line class="cls-3" x1="456.21" y1="158.67" x2="476.21" y2="158.67"/><line class="cls-3" x1="456.21" y1="166.67" x2="476.21" y2="166.67"/><circle class="cls-5" cx="29.95" cy="292.23" r="4.1"/><circle class="cls-5" cx="502.79" cy="292.23" r="4.1"/><circle class="cls-5" cx="151.09" cy="495.9" r="4.1"/><circle class="cls-5" cx="380.68" cy="497.15" r="4.1"/><circle class="cls-5" cx="381.93" cy="84.26" r="4.1"/><circle class="cls-5" cx="149.56" cy="85.51" r="4.1"/><circle class="cls-3" cx="65.97" cy="163.11" r="9.42" transform="translate(-2 0.82) rotate(-0.7)"/><circle class="cls-3" cx="64.16" cy="129.64" r="9.42" transform="translate(-1.59 0.8) rotate(-0.7)"/><circle class="cls-3" cx="96.49" cy="148.78" r="9.42" transform="translate(-1.82 1.2) rotate(-0.7)"/><circle class="cls-3" cx="87.22" cy="189.35" r="9.42" transform="translate(-2.32 1.09) rotate(-0.7)"/><line class="cls-3" x1="65.37" y1="153.36" x2="65.2" y2="139.57"/><line class="cls-3" x1="74.48" y1="160.39" x2="88.7" y2="153.76"/><line class="cls-3" x1="71.64" y1="170.36" x2="80.86" y2="182.63"/><circle class="cls-3" cx="34.76" cy="149.54" r="9.42" transform="translate(-1.83 0.44) rotate(-0.7)"/><circle class="cls-3" cx="45.02" cy="189.87" r="9.42" transform="translate(-2.33 0.57) rotate(-0.7)"/><line class="cls-3" x1="57.04" y1="160.6" x2="42.67" y2="154.32"/><line class="cls-3" x1="60.13" y1="170.5" x2="51.22" y2="182.99"/><rect class="cls-3" x="430.46" y="382.23" width="21.37" height="19.81"/><rect class="cls-3" x="465.04" y="402.43" width="14.76" height="15.15"/><rect class="cls-3" x="465.04" y="425.31" width="14.76" height="15.15"/><rect class="cls-3" x="465.04" y="448.18" width="14.76" height="15.15"/><polyline class="cls-3" points="439.21 401.67 439.21 456.67 464.21 456.67"/><line class="cls-3" x1="464.21" y1="432.67" x2="440.21" y2="432.67"/><line class="cls-3" x1="464.21" y1="411.67" x2="440.21" y2="411.67"/><rect class="cls-3" x="35.66" y="386.71" width="48.39" height="65.21"/><polyline class="cls-3" points="41.21 457.67 90.21 457.67 90.21 391.67"/><rect class="cls-3" x="41.95" y="392.84" width="17.13" height="14.49"/><line class="cls-3" x1="41.21" y1="414.67" x2="77.21" y2="414.67"/><line class="cls-3" x1="41.21" y1="421.67" x2="77.21" y2="421.67"/><line class="cls-3" x1="41.21" y1="428.67" x2="77.21" y2="428.67"/><line class="cls-3" x1="41.21" y1="435.67" x2="77.21" y2="435.67"/><line class="cls-3" x1="41.21" y1="442.67" x2="57.21" y2="442.67"/><line class="cls-1" x1="221.65" y1="223.62" x2="149.56" y2="85.51"/><line class="cls-1" x1="151.09" y1="495.9" x2="223.26" y2="377.16"/><line class="cls-1" x1="308.82" y1="223.62" x2="380.92" y2="85.51"/><line class="cls-1" x1="379.38" y1="495.9" x2="307.21" y2="377.16"/><line class="cls-1" x1="365.4" y1="291.17" x2="502.21" y2="291.17"/><line class="cls-1" x1="31.21" y1="291.17" x2="161.32" y2="291.17"/><path class="cls-3" d="M290.5,545.09l2.23.64a7.23,7.23,0,0,0,8.94-5l1.47-5.16a7.23,7.23,0,0,0-5-8.94l-2.07-.59"/><path class="cls-3" d="M242.52,511a7.23,7.23,0,0,0-7.22,5.24l-1.47,5.16a7.23,7.23,0,0,0,3.36,8.26"/><polyline class="cls-3" points="272.89 543.08 258.54 563.15 268.11 565.88 285.64 546.5"/><path class="cls-3" d="M273.24,521.13l-4.78,16.74c-19.22-2.59-30.3,9.48-30.3,9.48l-5.57-1.59,14.31-50.1,5.57,1.59S255.55,513.18,273.24,521.13Z"/><rect class="cls-3" x="270.33" y="519.7" width="23.52" height="25.28" transform="translate(157.04 -57) rotate(15.94)"/><path class="cls-6" d="M307.21,377.16h54.07A4.12,4.12,0,0,0,365.4,373V227.75a4.12,4.12,0,0,0-4.12-4.12H165.45a4.12,4.12,0,0,0-4.12,4.13V373a4.12,4.12,0,0,0,4.13,4.13H307.21"/><line class="cls-6" x1="242.21" y1="394.67" x2="242.21" y2="378.67"/><line class="cls-6" x1="278.21" y1="394.67" x2="278.21" y2="378.67"/><rect class="cls-6" x="221.47" y="395.56" width="83.78" height="13.96" rx="2.25" ry="2.25"/><line class="cls-7" x1="175.21" y1="261.67" x2="352.21" y2="261.67"/><line class="cls-7" x1="185.21" y1="274.67" x2="284.21" y2="274.67"/><line class="cls-7" x1="185.21" y1="289.67" x2="284.21" y2="289.67"/><line class="cls-7" x1="185.21" y1="302.67" x2="222.21" y2="302.67"/><line class="cls-7" x1="231.21" y1="302.67" x2="239.21" y2="302.67"/><circle class="cls-7" cx="263.19" cy="361.5" r="5.89"/><circle class="cls-8" cx="184.9" cy="252.23" r="1.98"/><circle class="cls-8" cx="195.32" cy="252.23" r="1.98"/><circle class="cls-8" cx="205.73" cy="252.23" r="1.98"/><circle class="cls-8" cx="262.12" cy="235.32" r="1.98"/><rect class="cls-7" x="296.39" y="274.31" width="44.27" height="62.5"/><rect class="cls-7" x="185.89" y="317.09" width="18.23" height="18.23"/><rect class="cls-7" x="214.91" y="317.09" width="18.23" height="18.23"/><rect class="cls-7" x="243.93" y="317.09" width="18.23" height="18.23"/><rect class="cls-7" x="174.29" y="243.13" width="178.15" height="105.26"/><circle class="cls-7" cx="318.6" cy="299.9" r="8.97"/><path class="cls-7" d="M338.59,336.28a20.49,20.49,0,1,0-41,0"/><rect class="cls-9" x="219.67" y="133.71" width="92.37" height="39.89" rx="4.68" ry="4.68"/><text class="cls-10" transform="translate(237.89 161.06)">Brand</text><rect class="cls-9" x="197.81" y="601.78" width="139.18" height="41.33" rx="4.68" ry="4.68"/><text class="cls-10" transform="translate(219.6 629.85)">Campaign</text><rect class="cls-9" x="403.38" y="491.54" width="121.52" height="38.44" rx="4.68" ry="4.68"/><text class="cls-10" transform="translate(421.58 518.16)">Catego<tspan class="cls-11" x="66.98" y="0">r</tspan><tspan class="cls-12" x="74.47" y="0">y</tspan></text><rect class="cls-9" x="6.92" y="492.86" width="111.08" height="35.79" rx="4.68" ry="4.68"/><text class="cls-10" transform="translate(25.08 518.16)">Content</text><rect class="cls-9" x="1.86" y="229.27" width="121.2" height="38.33" rx="4.68" ry="4.68"/><text class="cls-10" transform="translate(23.95 255.84)">Channel</text><rect class="cls-9" x="424.87" y="229.65" width="94.93" height="37.58" rx="4.68" ry="4.68"/><text class="cls-10" transform="translate(440.83 255.84)">D<tspan class="cls-13" x="13.8" y="0">e</tspan><tspan x="24.77" y="0">vice</tspan></text><line class="cls-3" x1="59.07" y1="392.84" x2="41.95" y2="407.33"/></g></g></svg>