<svg xmlns="http://www.w3.org/2000/svg" viewBox="0 0 176.79 142.67"><defs><style>.cls-1{fill:#eaeaea;}.cls-10,.cls-2,.cls-5,.cls-7,.cls-8,.cls-9{fill:none;}.cls-2{stroke:#eaeaea;}.cls-10,.cls-11,.cls-2,.cls-3,.cls-4,.cls-8,.cls-9{stroke-linecap:round;}.cls-10,.cls-11,.cls-2,.cls-3,.cls-4,.cls-5,.cls-6,.cls-7,.cls-8,.cls-9{stroke-miterlimit:10;}.cls-11,.cls-3,.cls-4,.cls-6{fill:#fff;}.cls-11,.cls-3{stroke:#008acf;}.cls-3,.cls-4{stroke-width:2px;}.cls-4{stroke:#ccc;stroke-dasharray:4;}.cls-5{stroke:#dbdddd;}.cls-10,.cls-6,.cls-7,.cls-8,.cls-9{stroke:#001443;}.cls-6,.cls-7{stroke-width:4px;}.cls-9{stroke-dasharray:3.99 3.99;}.cls-10{stroke-dasharray:4.23 4.23;}</style></defs><title>Asset 15</title><g id="Layer_2" data-name="Layer 2"><g id="Layer_1-2" data-name="Layer 1"><polygon class="cls-1" points="85.5 119.93 119.17 85 176.79 85 144.29 119.88 85.5 119.93"/><line class="cls-2" x1="1.67" y1="118.5" x2="22.67" y2="118.5"/><line class="cls-2" x1="1.67" y1="84.5" x2="55.67" y2="84.5"/><line class="cls-2" x1="1.67" y1="24.5" x2="144.67" y2="24.5"/><line class="cls-3" x1="139.67" y1="3" x2="4.5" y2="138.17"/><line class="cls-4" x1="79.83" y1="2.83" x2="1" y2="81.67"/><line class="cls-4" x1="139.83" y1="62.83" x2="61" y2="141.67"/><rect class="cls-5" x="119" y="129.33" width="9.33" height="9.33"/><rect class="cls-5" x="131.01" y="37.58" width="9.33" height="9.33" rx="4.67" ry="4.67" transform="translate(100.56 179.93) rotate(-92.99)"/><line class="cls-5" x1="43.17" x2="43.17" y2="9"/><line class="cls-5" x1="47.67" y1="4.5" x2="38.67" y2="4.5"/><rect class="cls-6" x="23.67" y="61" width="60" height="57"/><polyline class="cls-7" points="23.02 61 56 26 117.67 26"/><line class="cls-8" x1="56.17" y1="27" x2="56.17" y2="29"/><polyline class="cls-9" points="56.17 32.99 56.17 84 25.99 114.18"/><line class="cls-8" x1="24.58" y1="115.59" x2="23.17" y2="117"/><line class="cls-8" x1="55.67" y1="84.5" x2="57.67" y2="84.5"/><line class="cls-10" x1="61.9" y1="84.5" x2="110.55" y2="84.5"/><line class="cls-8" x1="112.67" y1="84.5" x2="114.67" y2="84.5"/><line class="cls-11" x1="89.17" y1="112" x2="89.17" y2="57"/><line class="cls-11" x1="94.17" y1="107" x2="94.17" y2="52"/><line class="cls-11" x1="99.17" y1="102" x2="99.17" y2="47"/><line class="cls-11" x1="104.17" y1="97" x2="104.17" y2="42"/><line class="cls-11" x1="109.17" y1="92" x2="109.17" y2="37"/><polyline class="cls-7" points="83.5 60.83 115.67 28.83 115.67 86 83.67 118.67"/></g></g></svg>