<?xml version="1.0"?>
<svg xmlns="http://www.w3.org/2000/svg" viewBox="0 0 1100.98 272.99">
<defs>
    <style>
      .cls-1,.cls-7,.cls-8{fill:none;stroke-miterlimit:10;}
      .cls-1{stroke:#376266;}
      .cls-2{fill:#5b9599;}
      .cls-3{fill:#132a2d;}
      .cls-4{font-size:24px;}
      .cls-4{font-family:'Avenir Next W01','Helvetica Neue',Helvetica,Arial,sans-serif;}
      .cls-4{font-weight:700;letter-spacing:0.1em;}
      .cls-12,.cls-4{fill:#fff;}.cls-5{letter-spacing:0.08em;}
      .cls-6{letter-spacing:0.1em;}
      .cls-7,.cls-8{stroke:#00b7ff;stroke-linecap:round;}
      .cls-8{stroke-width:4px;}
      .cls-9{fill:#0c1d1e;}
      .cls-10{font-size:18px;fill:#a1afb5;}
      .cls-10{font-family:'Avenir Next W01','Helvetica Neue',Helvetica,Arial,sans-serif;}
      .cls-11{letter-spacing:-0.01em;}
    </style>
</defs>
<title>Asset 12</title>
<g id="Layer_2" data-name="Layer 2">
    <g id="Layer_1-2" data-name="Layer 1">
        <line class="cls-1" x1="657.51" y1="132.86" x2="428.51" y2="132.86"/>
        <line class="cls-1" x1="576.21" y1="75.86" x2="523.82" y2="191.86"/>
        <circle class="cls-2" cx="550.51" cy="133.05" r="3.5"/>
        <rect class="cls-3" width="464.48" height="272.99" rx="12" ry="12"/>
        <text class="cls-4" transform="translate(180.51 131.52)">BA<tspan class="cls-5" x="35.56" y="0">T</tspan>
        <tspan class="cls-6" x="51.27" y="0">CH</tspan>
    </text>
    <ellipse class="cls-7" cx="81.82" cy="107.91" rx="18.94" ry="5.94"/>
    <path class="cls-7" d="M63,107.36v30c0,3.28,8.63,5.94,19,5.94s19-2.66,19-5.94v-30"/>
    <path class="cls-7" d="M62.89,131.05c0,3.28,8.49,5.94,19,5.94s19-2.66,19-5.94"/>
    <path class="cls-7" d="M62.89,123.55c0,3.28,8.49,5.94,19,5.94s19-2.66,19-5.94"/>
    <path class="cls-7" d="M62.89,116c0,3.28,8.49,5.94,19,5.94s19-2.66,19-5.94"/>
    <path class="cls-8" d="M166.18,122.4A57.86,57.86,0,0,0,208,178"/>
    <path class="cls-8" d="M224,64.57a57.85,57.85,0,0,0-56.8,46.9"/>
    <path class="cls-8" d="M281.85,122.4a57.85,57.85,0,0,0-48.31-57.05"/>
    <path class="cls-8" d="M217.37,179.86a58.45,58.45,0,0,0,6.65.38,57.85,57.85,0,0,0,57.1-48.63"/>
    <polyline class="cls-8" points="218.95 70.33 224.7 64.58 218.95 58.83"/>
    <polyline class="cls-8" points="222.52 174.07 216.83 179.76 222.52 185.45"/>
    <path class="cls-7" d="M365.61,141.12V127.79a1.28,1.28,0,0,0-1.29-1.26h-4.61a1.28,1.28,0,0,0-1.29,1.26v13.33"/>
    <path class="cls-7" d="M378.67,141.12v-20c0-1-.58-1.77-1.29-1.77h-4.61c-.71,0-1.29.8-1.29,1.77v20"/>
    <path class="cls-7" d="M391.16,141.12V113c0-1.32-.58-2.4-1.29-2.4h-4.61c-.71,0-1.29,1.08-1.29,2.4v28.15"/>
    <line class="cls-7" x1="354.51" y1="140.86" x2="396.51" y2="140.86"/>
    <polyline class="cls-7" points="361.54 122.19 371.48 109.15 375.93 113.29 387.19 99.65"/>
    <rect class="cls-9" x="45.18" y="175.89" width="74.67" height="31.61" rx="8.84" ry="8.84"/>
    <rect class="cls-9" x="170.9" y="205.89" width="103.9" height="31.61" rx="8.84" ry="8.84"/>
    <text class="cls-10" transform="translate(62.6 196.74)">Data</text>
    <rect class="cls-9" x="338.89" y="175.89" width="74.67" height="31.61" rx="8.84" ry="8.84"/>
    <text class="cls-10" transform="translate(348.25 196.74)">Insight</text>
    <text class="cls-10" transform="translate(190.51 226.74)">P<tspan class="cls-11" x="11.53" y="0">r</tspan>
    <tspan x="17.53" y="0">ocess</tspan>
</text>
<line class="cls-1" x1="336.51" y1="122.86" x2="284.51" y2="122.86"/>
<circle class="cls-8" cx="375.34" cy="122.36" r="36.5"/>
<circle class="cls-8" cx="82.68" cy="122.36" r="36.5"/>
<line class="cls-1" x1="163.51" y1="122.86" x2="121.51" y2="122.86"/>
<rect class="cls-1" x="13.07" y="13.36" width="437.87" height="247"/>
<polyline class="cls-8" points="276.19 117.58 281.95 123.33 287.7 117.58"/>
<polyline class="cls-8" points="171.7 124.58 165.95 118.83 160.19 124.58"/>
<rect class="cls-3" x="633.5" width="467.48" height="272.99" rx="12" ry="12"/>
<rect class="cls-1" x="646.66" y="13.36" width="440.68" height="247"/>
<path class="cls-12" d="M816.27,113.77h-2.8V120H810V103h6.34a9.67,9.67,0,0,1,2.65.33,5.54,5.54,0,0,1,2,1,4.31,4.31,0,0,1,1.24,1.61,5.37,5.37,0,0,1,.43,2.23,6.17,6.17,0,0,1-.21,1.68,4.38,4.38,0,0,1-1.57,2.34,6.29,6.29,0,0,1-1.27.75l3.69,7V120h-3.77Zm-2.8-2.85h2.84a3.69,3.69,0,0,0,1.21-.18,2.33,2.33,0,0,0,.87-.52,2.16,2.16,0,0,0,.52-.8,2.9,2.9,0,0,0,.18-1,2.58,2.58,0,0,0-.69-1.9,2.85,2.85,0,0,0-2.1-.69h-2.82Z"/>
<path class="cls-12" d="M837.94,112.62h-6.75v4.57h7.92V120H827.67V103h11.41v2.85h-7.9v4.07h6.75Z"/>
<path class="cls-12" d="M853.21,116.5H847L845.87,120h-3.74L848.48,103h3.26L858.13,120h-3.74ZM848,113.65h4.27l-2.14-6.39Z"/>
<path class="cls-12" d="M865.64,117.19h7.46V120h-11V103h3.52Z"/>
<path class="cls-12" d="M823.6,129.8h-5.23V144h-3.52V129.8H809.7V127h13.9Z"/>
<path class="cls-12" d="M831.74,144h-3.52V127h3.52Z"/>
<path class="cls-12" d="M842,127l4.38,12.38L850.73,127h4.62V144h-3.53v-4.66l.35-8.05L847.57,144h-2.41l-4.59-12.7.35,8V144H837.4V127Z"/>
<path class="cls-12" d="M871.09,136.62h-6.75v4.57h7.92V144H860.82V127h11.41v2.85h-7.9v4.07h6.75Z"/>
<ellipse class="cls-7" cx="709.82" cy="107.91" rx="18.94" ry="5.94"/>
<path class="cls-7" d="M691,107.36v30c0,3.28,8.63,5.94,19,5.94s19-2.66,19-5.94v-30"/>
<path class="cls-7" d="M690.89,131.05c0,3.28,8.49,5.94,19,5.94s19-2.66,19-5.94"/>
<path class="cls-7" d="M690.89,123.55c0,3.28,8.49,5.94,19,5.94s19-2.66,19-5.94"/>
<path class="cls-7" d="M690.89,116c0,3.28,8.49,5.94,19,5.94s19-2.66,19-5.94"/>
<path class="cls-8" d="M811.5,171.54A57.53,57.53,0,0,0,826,178"/>
<path class="cls-8" d="M792.59,152.45a58.11,58.11,0,0,0,10.75,13"/>
<path class="cls-8" d="M784.26,125.54a57.57,57.57,0,0,0,3.67,17.39"/>
<path class="cls-8" d="M790.7,95.7A57.43,57.43,0,0,0,785,112.48"/>
<path class="cls-8" d="M810.88,73.66a58.14,58.14,0,0,0-13.49,12"/>
<path class="cls-8" d="M842,64.57a57.68,57.68,0,0,0-21.46,4.11"/>
<polyline class="cls-8" points="836.95 70.33 842.7 64.58 836.95 58.83"/>
<polyline class="cls-8" points="811.01 80.59 813.12 72.74 805.26 70.63"/>
<polyline class="cls-8" points="794.18 100.58 792.08 92.73 784.22 94.83"/>
<polyline class="cls-8" points="799.5 152.61 791.64 150.51 789.54 158.36"/>
<polyline class="cls-8" points="818.49 168.44 810.63 170.55 812.74 178.4"/>
<polyline class="cls-8" points="870.52 166.12 868.41 173.98 876.27 176.09"/>
<polyline class="cls-8" points="888.35 146.13 890.45 153.99 898.31 151.88"/>
<polyline class="cls-8" points="885.03 93.11 892.88 95.21 894.99 87.36"/>
<polyline class="cls-8" points="864.04 75.28 871.89 73.17 869.79 65.32"/>
<polyline class="cls-8" points="840.52 174.07 834.83 179.76 840.52 185.45"/>
<path class="cls-7" d="M983.61,180.12V167.79a1.28,1.28,0,0,0-1.29-1.26h-4.61a1.28,1.28,0,0,0-1.29,1.26v12.33"/>
<path class="cls-7" d="M996.67,180.12v-19c0-1-.58-1.77-1.29-1.77h-4.61c-.71,0-1.29.8-1.29,1.77v19"/>
<path class="cls-7" d="M1009.16,180.12V153c0-1.32-.58-2.4-1.29-2.4h-4.61c-.71,0-1.29,1.08-1.29,2.4v27.15"/>
<line class="cls-7" x1="972.51" y1="180.86" x2="1014.51" y2="180.86"/>
<polyline class="cls-7" points="979.54 162.19 989.48 149.15 993.92 153.29 1005.18 139.65"/>
<rect class="cls-9" x="673.18" y="175.89" width="74.67" height="31.61" rx="8.84" ry="8.84"/>
<rect class="cls-9" x="786.9" y="200.89" width="103.9" height="31.61" rx="8.84" ry="8.84"/>
<text class="cls-10" transform="translate(690.6 196.74)">Data</text>
<text class="cls-10" transform="translate(806.51 221.74)">P<tspan class="cls-11" x="11.53" y="0">r</tspan>
<tspan x="17.53" y="0">ocess</tspan>
</text>
<rect class="cls-9" x="898.23" y="217.22" width="165.7" height="31.61" rx="8.84" ry="8.84"/>
<text class="cls-10" transform="translate(917.85 238.08)">Multiple Insights</text>
<line class="cls-1" x1="956.51" y1="152.36" x2="902.51" y2="122.86"/>
<line class="cls-1" x1="951.18" y1="85.03" x2="901.18" y2="119.69"/>
<circle class="cls-8" cx="993.34" cy="162.36" r="36.5"/>
<path class="cls-7" d="M978.61,89.12V66.79a1.28,1.28,0,0,0-1.29-1.26h-4.61a1.28,1.28,0,0,0-1.29,1.26V89.12"/>
<path class="cls-7" d="M991.67,89.12v-19c0-1-.58-1.77-1.29-1.77h-4.61c-.71,0-1.29.8-1.29,1.77v19"/>
<path class="cls-7" d="M1004.16,89.12V62c0-1.32-.58-2.4-1.29-2.4h-4.61c-.71,0-1.29,1.08-1.29,2.4V89.12"/>
<line class="cls-7" x1="967.51" y1="89.86" x2="1009.51" y2="89.86"/>
<polyline class="cls-7" points="974.54 61.19 982.48 52.15 988.92 62.29 1000.18 48.65"/>
<circle class="cls-8" cx="988.34" cy="71.36" r="36.5"/>
<circle class="cls-8" cx="710.68" cy="122.36" r="36.5"/>
<line class="cls-1" x1="781.51" y1="122.86" x2="749.51" y2="122.86"/>
<path class="cls-8" d="M870.21,71.9a57.44,57.44,0,0,0-18.67-6.55"/>
<path class="cls-8" d="M891.58,92.59a58.12,58.12,0,0,0-12.26-14.38"/>
<path class="cls-8" d="M899.85,122.4a57.71,57.71,0,0,0-3.61-20.15"/>
<path class="cls-8" d="M891.88,151.71a57.46,57.46,0,0,0,7.1-19.27"/>
<path class="cls-8" d="M871.08,172.41a58.1,58.1,0,0,0,14.34-11.79"/>
<path class="cls-8" d="M835.37,179.86a58.45,58.45,0,0,0,6.65.38A57.75,57.75,0,0,0,861.09,177"/>
<polyline class="cls-8" points="894.29 119.04 900.04 124.79 905.79 119.04"/>
<polyline class="cls-8" points="790.24 127.68 784.49 121.93 778.73 127.68"/>
</g>
</g>
</svg>
