<?xml version="1.0" encoding="UTF-8"?>
<svg width="921px" height="591px" viewBox="0 0 921 591" version="1.1" xmlns="http://www.w3.org/2000/svg" xmlns:xlink="http://www.w3.org/1999/xlink">
    <!-- Generator: Sketch 42 (36781) - http://www.bohemiancoding.com/sketch -->
    <title>Page 1</title>
    <desc>Created with Sketch.</desc>
    <defs>
        <polygon id="path-1" points="0 0.2378 0 37.9918 37.7535 37.9918 37.7535 0.2378 5.42101086e-20 0.2378"></polygon>
        <polygon id="path-3" points="7.779 -5.68434189e-14 7.779 7 0.7793 7 0.7793 -6.31088724e-30 7.779 -6.31088724e-30"></polygon>
        <polygon id="path-5" points="0 590.333 920.779 590.333 920.779 0 0 0"></polygon>
    </defs>
    <g id="Page-1" stroke="none" stroke-width="1" fill="none" fill-rule="evenodd">
        <g>
            <path d="M563.1015,563.8587 C564.6225,563.8587 565.8605,565.0967 565.8605,566.6177 C565.8605,568.1387 564.6225,569.3767 563.1015,569.3767 C561.7525,569.3767 560.6275,568.4017 560.3905,567.1197 L557.0075,567.1197 C562.4755,571.9527 562.4805,571.9597 562.5155,572.0027 L562.1265,572.3187 L561.9465,572.5107 L561.9045,573.2207 L554.6715,572.7887 L557.0425,575.1587 C557.4985,574.8437 558.0365,574.6707 558.6035,574.6707 C559.3405,574.6707 560.0335,574.9577 560.5545,575.4787 C561.6305,576.5547 561.6305,578.3047 560.5545,579.3807 C560.0335,579.9017 559.3405,580.1887 558.6035,580.1887 C557.8665,580.1887 557.1745,579.9017 556.6525,579.3807 C555.6985,578.4257 555.5945,576.9437 556.3335,575.8697 L553.9395,573.4757 C554.3895,580.7637 554.3885,580.7707 554.3805,580.8337 L553.8825,580.7717 L553.6195,580.7807 L553.0875,581.2527 L548.2795,575.8327 L548.2795,579.1837 C549.5615,579.4207 550.5365,580.5447 550.5365,581.8947 C550.5365,583.4157 549.2995,584.6537 547.7775,584.6537 C546.2565,584.6537 545.0185,583.4157 545.0185,581.8947 C545.0185,580.5447 545.9935,579.4207 547.2755,579.1837 L547.2755,575.8007 C542.4425,581.2687 542.4365,581.2737 542.3925,581.3087 L542.0765,580.9197 L541.8835,580.7397 L541.1745,580.6977 L541.6065,573.4647 L539.2355,575.8357 C539.9745,576.9107 539.8715,578.3937 538.9165,579.3477 C538.3955,579.8687 537.7025,580.1557 536.9665,580.1557 C536.2295,580.1557 535.5355,579.8687 535.0145,579.3477 C533.9395,578.2717 533.9395,576.5217 535.0145,575.4457 C535.5355,574.9247 536.2295,574.6377 536.9665,574.6377 C537.5325,574.6377 538.0715,574.8097 538.5275,575.1257 L540.9205,572.7327 C533.6345,573.1827 533.6245,573.1807 533.5605,573.1737 L533.6245,572.6757 L533.6155,572.4127 L533.1435,571.8807 L538.5625,567.0727 L535.2115,567.0727 C534.9755,568.3547 533.8505,569.3297 532.5005,569.3297 C530.9795,569.3297 529.7415,568.0917 529.7415,566.5707 C529.7415,565.0497 530.9795,563.8117 532.5005,563.8117 C533.8505,563.8117 534.9755,564.7877 535.2115,566.0687 L538.5945,566.0687 C533.1245,561.2327 533.1195,561.2277 533.0815,561.1797 L533.4765,560.8697 L533.6555,560.6777 L533.6985,559.9677 L540.9305,560.4007 L538.5605,558.0297 C538.1035,558.3447 537.5655,558.5177 536.9985,558.5177 C536.2615,558.5177 535.5685,558.2307 535.0475,557.7097 C534.5265,557.1887 534.2395,556.4957 534.2395,555.7587 C534.2395,555.0217 534.5265,554.3287 535.0475,553.8077 C535.5685,553.2867 536.2615,552.9997 536.9985,552.9997 C537.7355,552.9997 538.4285,553.2867 538.9505,553.8077 C539.9045,554.7627 540.0075,556.2457 539.2685,557.3197 L541.6635,559.7137 C541.2135,552.4287 541.2145,552.4197 541.2205,552.3647 L541.7195,552.4177 L541.9835,552.4077 L542.5145,551.9367 L547.3235,557.3557 L547.3235,554.0057 C546.0405,553.7687 545.0655,552.6437 545.0655,551.2937 C545.0655,549.7727 546.3035,548.5347 547.8245,548.5347 C549.3455,548.5347 550.5835,549.7727 550.5835,551.2937 C550.5835,552.6437 549.6085,553.7687 548.3265,554.0057 L548.3265,557.3877 C553.1615,551.9167 553.1675,551.9127 553.2155,551.8747 L553.5255,552.2697 L553.7175,552.4497 L554.4275,552.4917 L553.9955,559.7237 L556.3655,557.3537 C556.0505,556.8967 555.8775,556.3587 555.8775,555.7917 C555.8775,555.0547 556.1645,554.3617 556.6855,553.8417 C557.2065,553.3197 557.8995,553.0327 558.6365,553.0327 C559.3735,553.0327 560.0665,553.3197 560.5875,553.8417 C561.1085,554.3617 561.3955,555.0547 561.3955,555.7917 C561.3955,556.5287 561.1085,557.2217 560.5875,557.7427 C560.0665,558.2647 559.3735,558.5507 558.6365,558.5507 C558.0695,558.5507 557.5315,558.3787 557.0745,558.0627 L554.6815,560.4557 C561.9855,560.0047 561.9735,560.0037 562.0295,560.0137 L561.9785,560.5127 L561.9875,560.7767 L562.4595,561.3077 L557.0395,566.1157 L560.3905,566.1157 C560.6275,564.8337 561.7525,563.8587 563.1015,563.8587 Z M532.5005,568.3267 C533.4695,568.3267 534.2565,567.5387 534.2565,566.5707 C534.2565,565.6027 533.4695,564.8147 532.5005,564.8147 C531.5325,564.8147 530.7455,565.6027 530.7455,566.5707 C530.7455,567.5387 531.5325,568.3267 532.5005,568.3267 Z M561.2275,561.0597 C559.6235,561.1567 555.8935,561.3857 553.6105,561.5267 L551.7305,563.4077 C554.8015,563.2177 554.8185,563.2177 554.8695,563.2247 L554.8075,563.7227 L554.8095,563.7597 L555.1195,564.1087 L552.8565,566.1157 L555.5275,566.1157 L561.2275,561.0597 Z M549.8715,568.7157 L553.3595,568.9247 C552.4125,568.0857 551.1895,567.0057 551.1895,567.0057 L550.7645,566.6307 L553.3795,564.3117 C552.1155,564.3887 550.4885,564.4887 550.4885,564.4887 L549.9225,564.5237 L550.1315,561.0357 C549.2935,561.9827 548.2125,563.2057 548.2125,563.2057 L547.8365,563.6307 L545.5185,561.0167 C545.5955,562.2787 545.6955,563.9077 545.6955,563.9077 L545.7305,564.4737 L542.2425,564.2647 C543.1905,565.1027 544.4125,566.1837 544.4125,566.1837 L544.8375,566.5587 L542.2235,568.8777 C543.4865,568.7997 545.1145,568.6997 545.1145,568.6997 L545.6805,568.6647 L545.4715,572.1527 C546.3095,571.2057 547.3905,569.9827 547.3905,569.9827 L547.7655,569.5587 L550.0845,572.1717 C550.0065,570.9087 549.9065,569.2807 549.9065,569.2807 L549.8715,568.7157 Z M557.3955,554.5507 C557.0635,554.8827 556.8815,555.3227 556.8815,555.7917 C556.8815,556.2617 557.0635,556.7027 557.3955,557.0337 C558.0585,557.6967 559.2145,557.6967 559.8775,557.0337 C560.2095,556.7027 560.3925,556.2617 560.3925,555.7917 C560.3925,555.3227 560.2095,554.8827 559.8775,554.5507 C559.5465,554.2187 559.1055,554.0357 558.6365,554.0357 C558.1675,554.0357 557.7265,554.2187 557.3955,554.5507 Z M553.3815,553.1877 C552.3195,554.3867 549.8435,557.1867 548.3265,558.9027 L548.3265,561.5617 C550.3675,559.2527 550.3745,559.2467 550.4135,559.2147 L550.7245,559.6097 L550.7515,559.6337 L551.2185,559.6617 L551.0375,562.6817 L552.9265,560.7927 L553.3815,553.1877 Z M546.0695,551.2937 C546.0695,552.2617 546.8565,553.0497 547.8245,553.0497 C548.7925,553.0497 549.5805,552.2617 549.5805,551.2937 C549.5805,550.3267 548.7925,549.5377 547.8245,549.5377 C546.8565,549.5377 546.0695,550.3267 546.0695,551.2937 Z M542.2665,553.1687 C542.3635,554.7727 542.5935,558.5017 542.7345,560.7847 L544.6145,562.6647 C544.4245,559.5877 544.4255,559.5767 544.4315,559.5257 L544.9295,559.5877 L544.9655,559.5867 L545.3155,559.2757 L547.3235,561.5387 L547.3235,558.8687 L542.2665,553.1687 Z M535.7575,556.9997 C536.4215,557.6647 537.5775,557.6637 538.2405,556.9997 C538.9255,556.3157 538.9255,555.2017 538.2405,554.5167 C537.9085,554.1857 537.4685,554.0037 536.9985,554.0037 C536.5295,554.0037 536.0885,554.1857 535.7575,554.5167 C535.4255,554.8487 535.2425,555.2897 535.2425,555.7587 C535.2425,556.2277 535.4255,556.6687 535.7575,556.9997 Z M534.3945,561.0147 C535.5935,562.0767 538.3935,564.5517 540.1095,566.0687 L542.7685,566.0687 C540.4605,564.0287 540.4535,564.0207 540.4215,563.9817 L540.8155,563.6707 L540.8405,563.6437 L540.8685,563.1777 L543.8885,563.3577 L541.9995,561.4687 L534.3945,561.0147 Z M534.3755,572.1287 C535.9795,572.0317 539.7085,571.8027 541.9915,571.6617 L543.8715,569.7807 C540.8035,569.9707 540.7955,569.9717 540.7535,569.9667 L540.7945,569.4667 L540.7935,569.4297 L540.4825,569.0797 L542.7455,567.0727 L540.0755,567.0727 L534.3755,572.1287 Z M538.2075,578.6387 C538.8915,577.9537 538.8915,576.8397 538.2075,576.1547 C537.8755,575.8237 537.4345,575.6417 536.9665,575.6417 C536.4965,575.6417 536.0555,575.8237 535.7245,576.1547 C535.0395,576.8397 535.0395,577.9537 535.7245,578.6387 C536.3875,579.3017 537.5445,579.3017 538.2075,578.6387 Z M542.2205,580.0017 C543.2835,578.8017 545.7585,576.0027 547.2755,574.2857 L547.2755,571.6267 C545.2345,573.9357 545.2275,573.9417 545.1885,573.9727 L544.8775,573.5787 L544.8515,573.5547 L544.3845,573.5267 L544.5655,570.5067 L542.6755,572.3957 L542.2205,580.0017 Z M549.5335,581.8947 C549.5335,580.9267 548.7455,580.1387 547.7775,580.1387 C546.8095,580.1387 546.0215,580.9267 546.0215,581.8947 C546.0215,582.8627 546.8095,583.6507 547.7775,583.6507 C548.7455,583.6507 549.5335,582.8627 549.5335,581.8947 Z M553.3355,580.0197 C553.2385,578.4167 553.0095,574.6867 552.8685,572.4047 L550.9885,570.5237 C551.1775,573.5907 551.1765,573.5997 551.1735,573.6427 L550.6735,573.6007 L550.6365,573.6027 L550.2865,573.9127 L548.2795,571.6497 L548.2795,574.3197 L553.3355,580.0197 Z M559.8455,576.1877 C559.5135,575.8567 559.0725,575.6737 558.6035,575.6737 C558.1345,575.6737 557.6935,575.8567 557.3625,576.1877 C556.6775,576.8727 556.6775,577.9867 557.3625,578.6717 C558.0255,579.3347 559.1825,579.3347 559.8455,578.6717 C560.5295,577.9867 560.5295,576.8727 559.8455,576.1877 Z M561.2075,572.1737 C560.0085,571.1117 557.2095,568.6367 555.4925,567.1197 L552.8335,567.1197 C555.1415,569.1597 555.1485,569.1667 555.1795,569.2067 L554.7865,569.5177 L554.7615,569.5447 L554.7335,570.0117 L551.7135,569.8307 L553.6025,571.7197 L561.2075,572.1737 Z M563.1015,568.3737 C564.0695,568.3737 564.8575,567.5857 564.8575,566.6177 C564.8575,565.6497 564.0695,564.8617 563.1015,564.8617 C562.1335,564.8617 561.3455,565.6497 561.3455,566.6177 C561.3455,567.5857 562.1335,568.3737 563.1015,568.3737 Z" id="Fill-1" fill="#36A2D8"></path>
            <path d="M880.2207,116.6497 L874.2217,116.6497 L878.9537,111.9167 L878.2447,111.2077 L872.8037,116.6497 L869.0957,116.6497 L873.8287,111.9167 L873.1197,111.2077 L867.7167,116.6107 L864.9617,115.3747 L866.0727,112.4577 L869.7057,108.8247 L872.8977,108.8247 L872.8977,104.8117 L868.8847,104.8117 L868.8847,108.2277 L865.3557,111.7567 L862.4497,112.8637 L861.2127,110.1027 L866.6137,104.7027 L865.9037,103.9927 L861.1717,108.7257 L861.1717,105.0177 L866.6137,99.5757 L865.9037,98.8667 L861.1717,103.5997 L861.1717,97.6007 L860.1687,97.6007 L860.1687,103.5997 L855.4367,98.8667 L854.7267,99.5757 L860.1687,105.0177 L860.1687,108.7257 L855.4367,103.9927 L854.7267,104.7027 L860.1337,110.1087 L858.8977,112.8637 L855.9917,111.7567 L852.4627,108.2277 L852.4627,104.9237 L848.4497,104.9237 L848.4497,108.9367 L851.7537,108.9367 L855.2747,112.4577 L856.3857,115.3747 L853.6257,116.6127 L848.2207,111.2077 L847.5117,111.9167 L852.2447,116.6497 L848.5367,116.6497 L843.0957,111.2077 L842.3857,111.9167 L847.1187,116.6497 L841.1197,116.6497 L841.1197,117.6527 L847.1187,117.6527 L842.3857,122.3857 L843.0957,123.0947 L848.5367,117.6527 L852.2447,117.6527 L847.5117,122.3857 L848.2207,123.0947 L853.6267,117.6897 L856.3857,118.9267 L855.2797,121.8327 L851.7537,125.3587 L848.4497,125.3587 L848.4497,129.3717 L852.4627,129.3717 L852.4627,126.0677 L855.9807,122.5507 L858.8977,121.4397 L860.1327,124.1937 L854.7267,129.5997 L855.4367,130.3097 L860.1687,125.5767 L860.1687,129.2837 L854.7267,134.7257 L855.4367,135.4357 L860.1687,130.7027 L860.1687,136.7017 L861.1717,136.7017 L861.1717,130.7027 L865.9037,135.4357 L866.6137,134.7257 L861.1717,129.2837 L861.1717,125.5767 L865.9037,130.3097 L866.6137,129.5997 L861.2127,124.1987 L862.4497,121.4397 L865.3667,122.5507 L868.8847,126.0677 L868.8847,129.2597 L872.8977,129.2597 L872.8977,125.2467 L869.4827,125.2467 L866.0687,121.8327 L864.9617,118.9267 L867.7167,117.6917 L873.1197,123.0947 L873.8287,122.3857 L869.0957,117.6527 L872.8037,117.6527 L878.2447,123.0947 L878.9537,122.3857 L874.2217,117.6527 L880.2207,117.6527 L880.2207,116.6497 Z M869.8877,107.8227 L871.8947,107.8227 L871.8947,105.8157 L869.8877,105.8157 L869.8877,107.8227 Z M849.4527,107.9337 L851.4597,107.9337 L851.4597,105.9267 L849.4527,105.9267 L849.4527,107.9337 Z M849.4527,128.3687 L851.4597,128.3687 L851.4597,126.3617 L849.4527,126.3617 L849.4527,128.3687 Z M869.8877,128.2567 L871.8947,128.2567 L871.8947,126.2497 L869.8877,126.2497 L869.8877,128.2567 Z M863.6867,118.3987 L864.7727,121.2507 L861.9217,120.1647 L860.6737,122.9477 L859.4257,120.1647 L856.5747,121.2507 L857.6607,118.3987 L854.8767,117.1517 L857.6607,115.9027 L856.5747,113.0517 L859.4257,114.1377 L860.6737,111.3547 L861.9217,114.1377 L864.7727,113.0517 L863.6867,115.9027 L866.4707,117.1517 L863.6867,118.3987 Z" id="Fill-3" fill="#36A2D8"></path>
            <g id="Group-7" transform="translate(0.000000, 431.333000)">
                <mask id="mask-2" fill="white">
                    <use xlink:href="#path-1"></use>
                </mask>
                <g id="Clip-6"></g>
                <path d="M35.8165,20.5678 C35.4595,20.5678 35.1285,20.6718 34.8405,20.8408 L33.1105,19.1118 L34.8365,17.3858 C35.1245,17.5568 35.4575,17.6618 35.8165,17.6618 C36.8855,17.6618 37.7535,16.7928 37.7535,15.7238 C37.7535,14.6558 36.8855,13.7868 35.8165,13.7868 C34.7475,13.7868 33.8785,14.6558 33.8785,15.7238 C33.8785,16.0818 33.9835,16.4128 34.1525,16.6998 L32.2255,18.6278 L26.3295,18.6278 L29.5085,15.4488 C29.7965,15.6198 30.1285,15.7238 30.4885,15.7238 C31.5565,15.7238 32.4255,14.8548 32.4255,13.7868 C32.4255,12.7178 31.5565,11.8488 30.4885,11.8488 C29.4195,11.8488 28.5505,12.7178 28.5505,13.7868 C28.5505,14.1438 28.6545,14.4748 28.8245,14.7628 L24.9595,18.6278 L24.3015,18.6278 L22.2625,17.7128 L23.0575,15.6238 L29.5305,9.1498 C29.8195,9.3218 30.1525,9.4268 30.5125,9.4268 C31.5815,9.4268 32.4505,8.5578 32.4505,7.4898 C32.4505,6.9528 32.2295,6.4658 31.8755,6.1148 C31.5235,5.7618 31.0385,5.5418 30.5015,5.5418 C29.4335,5.5418 28.5645,6.4108 28.5645,7.4798 C28.5645,7.8418 28.6705,8.1768 28.8445,8.4668 L22.3825,14.9278 L20.2795,15.7298 L19.3575,13.6748 L19.3575,13.0318 L23.2245,9.1648 C23.5135,9.3358 23.8465,9.4408 24.2055,9.4408 C25.2735,9.4408 26.1425,8.5718 26.1425,7.5028 C26.1425,6.4348 25.2735,5.5658 24.2055,5.5658 C23.1365,5.5658 22.2675,6.4348 22.2675,7.5028 C22.2675,7.8598 22.3715,8.1908 22.5405,8.4788 L19.3575,11.6618 L19.3575,5.7668 L21.2875,3.8368 C21.5755,4.0078 21.9085,4.1128 22.2675,4.1128 C23.3355,4.1128 24.2045,3.2438 24.2045,2.1748 C24.2045,1.1068 23.3355,0.2378 22.2675,0.2378 C21.1995,0.2378 20.3305,1.1068 20.3305,2.1748 C20.3305,2.5328 20.4345,2.8628 20.6035,3.1508 L18.8735,4.8808 L17.1475,3.1558 C17.3185,2.8668 17.4235,2.5338 17.4235,2.1748 C17.4235,1.1068 16.5545,0.2378 15.4865,0.2378 C14.4175,0.2378 13.5485,1.1068 13.5485,2.1748 C13.5485,3.2438 14.4175,4.1128 15.4865,4.1128 C15.8435,4.1128 16.1745,4.0088 16.4615,3.8398 L18.3895,5.7668 L18.3895,11.6618 L15.2105,8.4828 C15.3815,8.1948 15.4855,7.8618 15.4855,7.5028 C15.4855,6.4348 14.6165,5.5658 13.5485,5.5658 C12.4805,5.5658 11.6115,6.4348 11.6115,7.5028 C11.6115,8.5718 12.4805,9.4408 13.5485,9.4408 C13.9065,9.4408 14.2375,9.3368 14.5245,9.1678 L18.3895,13.0318 L18.3895,13.6908 L17.4745,15.7298 L15.3835,14.9328 L8.9115,8.4618 C9.0835,8.1718 9.1885,7.8398 9.1885,7.4798 C9.1885,6.4108 8.3205,5.5418 7.2515,5.5418 C6.7155,5.5418 6.2295,5.7618 5.8785,6.1148 C5.5245,6.4658 5.3035,6.9528 5.3035,7.4898 C5.3035,8.5578 6.1725,9.4268 7.2415,9.4268 C7.6035,9.4268 7.9375,9.3208 8.2285,9.1468 L14.6915,15.6118 L15.4915,17.7128 L13.4365,18.6338 L12.7945,18.6338 L8.9275,14.7668 C9.0975,14.4778 9.2035,14.1458 9.2035,13.7868 C9.2035,12.7178 8.3345,11.8488 7.2655,11.8488 C6.1975,11.8488 5.3285,12.7178 5.3285,13.7868 C5.3285,14.8548 6.1975,15.7238 7.2655,15.7238 C7.6225,15.7238 7.9535,15.6208 8.2415,15.4508 L11.4245,18.6338 L5.5285,18.6338 L3.5985,16.7048 C3.7695,16.4158 3.8745,16.0838 3.8745,15.7238 C3.8745,14.6558 3.0055,13.7868 1.9375,13.7868 C0.8685,13.7868 -0.0005,14.6558 -0.0005,15.7238 C-0.0005,16.7928 0.8685,17.6618 1.9375,17.6618 C2.2945,17.6618 2.6255,17.5578 2.9125,17.3888 L4.6435,19.1188 L2.9175,20.8438 C2.6295,20.6728 2.2965,20.5678 1.9375,20.5678 C0.8685,20.5678 -0.0005,21.4368 -0.0005,22.5048 C-0.0005,23.5738 0.8685,24.4428 1.9375,24.4428 C3.0055,24.4428 3.8745,23.5738 3.8745,22.5048 C3.8745,22.1488 3.7705,21.8168 3.6015,21.5298 L5.5285,19.6028 L11.4245,19.6028 L8.2455,22.7818 C7.9575,22.6108 7.6245,22.5048 7.2655,22.5048 C6.1975,22.5048 5.3285,23.3738 5.3285,24.4428 C5.3285,25.5118 6.1975,26.3798 7.2655,26.3798 C8.3345,26.3798 9.2035,25.5118 9.2035,24.4428 C9.2035,24.0858 9.0985,23.7548 8.9295,23.4668 L12.7945,19.6028 L13.4535,19.6028 L15.4915,20.5168 L14.6915,22.6208 L8.2285,29.0828 C7.9385,28.9088 7.6035,28.8018 7.2415,28.8018 C6.1725,28.8018 5.3035,29.6708 5.3035,30.7398 C5.3035,31.2778 5.5245,31.7638 5.8785,32.1148 C6.2295,32.4688 6.7155,32.6878 7.2515,32.6878 C8.3205,32.6878 9.1885,31.8188 9.1885,30.7508 C9.1885,30.3908 9.0835,30.0578 8.9125,29.7688 L15.3865,23.2948 L17.4745,22.4998 L18.3955,24.5538 L18.3955,25.1978 L14.5295,29.0648 C14.2405,28.8938 13.9085,28.7888 13.5485,28.7888 C12.4805,28.7888 11.6115,29.6578 11.6115,30.7268 C11.6115,31.7948 12.4805,32.6638 13.5485,32.6638 C14.6165,32.6638 15.4855,31.7948 15.4855,30.7268 C15.4855,30.3688 15.3825,30.0388 15.2125,29.7508 L18.3955,26.5678 L18.3955,32.4638 L16.4665,34.3928 C16.1785,34.2218 15.8455,34.1168 15.4865,34.1168 C14.4175,34.1168 13.5485,34.9858 13.5485,36.0548 C13.5485,37.1228 14.4175,37.9918 15.4865,37.9918 C16.5545,37.9918 17.4235,37.1228 17.4235,36.0548 C17.4235,35.6968 17.3195,35.3668 17.1505,35.0788 L18.8805,33.3488 L20.6055,35.0738 C20.4355,35.3628 20.3305,35.6958 20.3305,36.0548 C20.3305,37.1228 21.1995,37.9918 22.2675,37.9918 C23.3355,37.9918 24.2045,37.1228 24.2045,36.0548 C24.2045,34.9858 23.3355,34.1168 22.2675,34.1168 C21.9105,34.1168 21.5795,34.2218 21.2915,34.3908 L19.3645,32.4638 L19.3645,26.5678 L22.5435,29.7458 C22.3725,30.0348 22.2675,30.3678 22.2675,30.7268 C22.2675,31.7948 23.1365,32.6638 24.2055,32.6638 C25.2735,32.6638 26.1425,31.7948 26.1425,30.7268 C26.1425,29.6578 25.2735,28.7888 24.2055,28.7888 C23.8485,28.7888 23.5165,28.8928 23.2295,29.0618 L19.3645,25.1978 L19.3645,24.5388 L20.2795,22.4998 L22.3815,23.3008 L28.8445,29.7638 C28.6705,30.0538 28.5645,30.3888 28.5645,30.7508 C28.5645,31.8188 29.4335,32.6878 30.5015,32.6878 C31.0385,32.6878 31.5235,32.4688 31.8755,32.1148 C32.2295,31.7638 32.4505,31.2778 32.4505,30.7398 C32.4505,29.6708 31.5815,28.8018 30.5125,28.8018 C30.1525,28.8018 29.8195,28.9078 29.5305,29.0798 L23.0575,22.6068 L22.2625,20.5168 L24.3165,19.5958 L24.9595,19.5958 L28.8265,23.4628 C28.6555,23.7518 28.5505,24.0838 28.5505,24.4428 C28.5505,25.5118 29.4195,26.3798 30.4885,26.3798 C31.5565,26.3798 32.4255,25.5118 32.4255,24.4428 C32.4255,23.3738 31.5565,22.5048 30.4885,22.5048 C30.1305,22.5048 29.8005,22.6098 29.5125,22.7788 L26.3295,19.5958 L32.2255,19.5958 L34.1545,21.5248 C33.9835,21.8138 33.8785,22.1468 33.8785,22.5048 C33.8785,23.5738 34.7475,24.4428 35.8165,24.4428 C36.8855,24.4428 37.7535,23.5738 37.7535,22.5048 C37.7535,21.4368 36.8855,20.5678 35.8165,20.5678 L35.8165,20.5678 Z M35.8165,14.7558 C36.3505,14.7558 36.7855,15.1898 36.7855,15.7238 C36.7855,16.2588 36.3505,16.6928 35.8165,16.6928 C35.2825,16.6928 34.8475,16.2588 34.8475,15.7238 C34.8475,15.1898 35.2825,14.7558 35.8165,14.7558 L35.8165,14.7558 Z M30.4885,12.8178 C31.0225,12.8178 31.4575,13.2528 31.4575,13.7868 C31.4575,14.3208 31.0225,14.7558 30.4885,14.7558 C29.9545,14.7558 29.5195,14.3208 29.5195,13.7868 C29.5195,13.2528 29.9545,12.8178 30.4885,12.8178 L30.4885,12.8178 Z M30.5125,6.5208 C30.7765,6.5208 31.0155,6.6278 31.1905,6.7998 C31.3635,6.9748 31.4705,7.2148 31.4705,7.4798 C31.4705,8.0128 31.0365,8.4478 30.5015,8.4478 C30.2375,8.4478 29.9985,8.3408 29.8235,8.1688 C29.6505,7.9938 29.5435,7.7538 29.5435,7.4898 C29.5435,6.9558 29.9785,6.5208 30.5125,6.5208 L30.5125,6.5208 Z M24.2055,6.5348 C24.7395,6.5348 25.1735,6.9688 25.1735,7.5028 C25.1735,8.0368 24.7395,8.4718 24.2055,8.4718 C23.6715,8.4718 23.2365,8.0368 23.2365,7.5028 C23.2365,6.9688 23.6715,6.5348 24.2055,6.5348 L24.2055,6.5348 Z M22.2675,1.2068 C22.8015,1.2068 23.2355,1.6408 23.2355,2.1748 C23.2355,2.7088 22.8015,3.1438 22.2675,3.1438 C21.7335,3.1438 21.2985,2.7088 21.2985,2.1748 C21.2985,1.6408 21.7335,1.2068 22.2675,1.2068 L22.2675,1.2068 Z M15.4865,3.1438 C14.9525,3.1438 14.5175,2.7088 14.5175,2.1748 C14.5175,1.6408 14.9525,1.2068 15.4865,1.2068 C16.0205,1.2068 16.4545,1.6408 16.4545,2.1748 C16.4545,2.7088 16.0205,3.1438 15.4865,3.1438 L15.4865,3.1438 Z M13.5485,8.4718 C13.0155,8.4718 12.5805,8.0368 12.5805,7.5028 C12.5805,6.9688 13.0155,6.5348 13.5485,6.5348 C14.0835,6.5348 14.5175,6.9688 14.5175,7.5028 C14.5175,8.0368 14.0835,8.4718 13.5485,8.4718 L13.5485,8.4718 Z M6.2835,7.4798 C6.2835,7.2148 6.3905,6.9748 6.5635,6.7998 C6.7385,6.6278 6.9775,6.5208 7.2415,6.5208 C7.7755,6.5208 8.2105,6.9558 8.2105,7.4898 C8.2105,7.7548 8.1035,7.9948 7.9305,8.1688 C7.7555,8.3408 7.5155,8.4478 7.2515,8.4478 C6.7185,8.4478 6.2835,8.0128 6.2835,7.4798 L6.2835,7.4798 Z M7.2655,14.7558 C6.7315,14.7558 6.2965,14.3208 6.2965,13.7868 C6.2965,13.2528 6.7315,12.8178 7.2655,12.8178 C7.7995,12.8178 8.2345,13.2528 8.2345,13.7868 C8.2345,14.3208 7.7995,14.7558 7.2655,14.7558 L7.2655,14.7558 Z M1.9375,16.6928 C1.4035,16.6928 0.9685,16.2588 0.9685,15.7238 C0.9685,15.1898 1.4035,14.7558 1.9375,14.7558 C2.4715,14.7558 2.9065,15.1898 2.9065,15.7238 C2.9065,16.2588 2.4715,16.6928 1.9375,16.6928 L1.9375,16.6928 Z M1.9375,23.4738 C1.4035,23.4738 0.9685,23.0398 0.9685,22.5048 C0.9685,21.9718 1.4035,21.5368 1.9375,21.5368 C2.4715,21.5368 2.9065,21.9718 2.9065,22.5048 C2.9065,23.0398 2.4715,23.4738 1.9375,23.4738 L1.9375,23.4738 Z M7.2655,25.4118 C6.7315,25.4118 6.2965,24.9768 6.2965,24.4428 C6.2965,23.9088 6.7315,23.4738 7.2655,23.4738 C7.7995,23.4738 8.2345,23.9088 8.2345,24.4428 C8.2345,24.9768 7.7995,25.4118 7.2655,25.4118 L7.2655,25.4118 Z M7.2415,31.7088 C6.9775,31.7088 6.7385,31.6018 6.5635,31.4308 C6.3905,31.2558 6.2835,31.0148 6.2835,30.7508 C6.2835,30.2158 6.7185,29.7818 7.2515,29.7818 C7.5155,29.7818 7.7555,29.8878 7.9305,30.0598 C8.1035,30.2358 8.2105,30.4748 8.2105,30.7398 C8.2105,31.2738 7.7755,31.7088 7.2415,31.7088 L7.2415,31.7088 Z M13.5485,31.6958 C13.0155,31.6958 12.5805,31.2608 12.5805,30.7268 C12.5805,30.1918 13.0155,29.7578 13.5485,29.7578 C14.0835,29.7578 14.5175,30.1918 14.5175,30.7268 C14.5175,31.2608 14.0835,31.6958 13.5485,31.6958 L13.5485,31.6958 Z M15.4865,37.0238 C14.9525,37.0238 14.5175,36.5888 14.5175,36.0548 C14.5175,35.5208 14.9525,35.0858 15.4865,35.0858 C16.0205,35.0858 16.4545,35.5208 16.4545,36.0548 C16.4545,36.5888 16.0205,37.0238 15.4865,37.0238 L15.4865,37.0238 Z M22.2675,35.0858 C22.8015,35.0858 23.2355,35.5208 23.2355,36.0548 C23.2355,36.5888 22.8015,37.0238 22.2675,37.0238 C21.7335,37.0238 21.2985,36.5888 21.2985,36.0548 C21.2985,35.5208 21.7335,35.0858 22.2675,35.0858 L22.2675,35.0858 Z M24.2055,29.7578 C24.7395,29.7578 25.1735,30.1918 25.1735,30.7268 C25.1735,31.2608 24.7395,31.6958 24.2055,31.6958 C23.6715,31.6958 23.2365,31.2608 23.2365,30.7268 C23.2365,30.1918 23.6715,29.7578 24.2055,29.7578 L24.2055,29.7578 Z M31.4705,30.7508 C31.4705,31.0148 31.3635,31.2548 31.1905,31.4298 C31.0155,31.6018 30.7765,31.7088 30.5125,31.7088 C29.9785,31.7088 29.5435,31.2738 29.5435,30.7398 C29.5435,30.4758 29.6505,30.2358 29.8235,30.0608 C29.9985,29.8888 30.2375,29.7818 30.5015,29.7818 C31.0365,29.7818 31.4705,30.2158 31.4705,30.7508 L31.4705,30.7508 Z M30.4885,23.4738 C31.0225,23.4738 31.4575,23.9088 31.4575,24.4428 C31.4575,24.9768 31.0225,25.4118 30.4885,25.4118 C29.9545,25.4118 29.5195,24.9768 29.5195,24.4428 C29.5195,23.9088 29.9545,23.4738 30.4885,23.4738 L30.4885,23.4738 Z M21.0315,20.0068 L21.8075,22.0448 L19.7695,21.2688 L18.8765,23.2588 L17.9845,21.2688 L15.9465,22.0448 L16.7225,20.0068 L14.7335,19.1148 L16.7225,18.2228 L15.9465,16.1848 L17.9845,16.9608 L18.8765,14.9708 L19.7695,16.9608 L21.8075,16.1848 L21.0315,18.2228 L23.0215,19.1148 L21.0315,20.0068 Z M35.8165,23.4738 C35.2825,23.4738 34.8475,23.0398 34.8475,22.5048 C34.8475,21.9718 35.2825,21.5368 35.8165,21.5368 C36.3505,21.5368 36.7855,21.9718 36.7855,22.5048 C36.7855,23.0398 36.3505,23.4738 35.8165,23.4738 L35.8165,23.4738 Z" id="Fill-5" fill="#36A2D8" mask="url(#mask-2)"></path>
            </g>
            <path d="M494.6074,24.6768 C494.2504,24.6768 493.9194,24.7808 493.6314,24.9498 L491.9014,23.2208 L493.6274,21.4948 C493.9154,21.6658 494.2484,21.7708 494.6074,21.7708 C495.6764,21.7708 496.5444,20.9018 496.5444,19.8328 C496.5444,18.7648 495.6764,17.8958 494.6074,17.8958 C493.5384,17.8958 492.6704,18.7648 492.6704,19.8328 C492.6704,20.1908 492.7744,20.5218 492.9434,20.8088 L491.0164,22.7368 L485.1204,22.7368 L488.2994,19.5578 C488.5874,19.7288 488.9204,19.8328 489.2794,19.8328 C490.3474,19.8328 491.2164,18.9638 491.2164,17.8958 C491.2164,16.8268 490.3474,15.9578 489.2794,15.9578 C488.2104,15.9578 487.3414,16.8268 487.3414,17.8958 C487.3414,18.2528 487.4454,18.5838 487.6154,18.8718 L483.7504,22.7368 L483.0924,22.7368 L481.0534,21.8218 L481.8484,19.7328 L488.3214,13.2588 C488.6104,13.4308 488.9434,13.5358 489.3034,13.5358 C490.3724,13.5358 491.2414,12.6668 491.2414,11.5988 C491.2414,11.0618 491.0204,10.5748 490.6664,10.2238 C490.3144,9.8708 489.8294,9.6508 489.2924,9.6508 C488.2244,9.6508 487.3554,10.5198 487.3554,11.5888 C487.3554,11.9508 487.4624,12.2858 487.6354,12.5758 L481.1734,19.0368 L479.0704,19.8388 L478.1484,17.7838 L478.1484,17.1408 L482.0154,13.2738 C482.3044,13.4448 482.6374,13.5498 482.9964,13.5498 C484.0644,13.5498 484.9334,12.6808 484.9334,11.6118 C484.9334,10.5438 484.0644,9.6748 482.9964,9.6748 C481.9274,9.6748 481.0584,10.5438 481.0584,11.6118 C481.0584,11.9688 481.1624,12.2998 481.3314,12.5878 L478.1484,15.7708 L478.1484,9.8748 L480.0784,7.9458 C480.3664,8.1168 480.6994,8.2218 481.0584,8.2218 C482.1264,8.2218 482.9954,7.3528 482.9954,6.2838 C482.9954,5.2158 482.1264,4.3468 481.0584,4.3468 C479.9904,4.3468 479.1214,5.2158 479.1214,6.2838 C479.1214,6.6418 479.2254,6.9718 479.3944,7.2598 L477.6644,8.9898 L475.9384,7.2648 C476.1094,6.9758 476.2144,6.6428 476.2144,6.2838 C476.2144,5.2158 475.3454,4.3468 474.2774,4.3468 C473.2084,4.3468 472.3394,5.2158 472.3394,6.2838 C472.3394,7.3528 473.2084,8.2218 474.2774,8.2218 C474.6344,8.2218 474.9654,8.1178 475.2524,7.9488 L477.1804,9.8748 L477.1804,15.7708 L474.0014,12.5918 C474.1724,12.3038 474.2764,11.9708 474.2764,11.6118 C474.2764,10.5438 473.4074,9.6748 472.3394,9.6748 C471.2714,9.6748 470.4024,10.5438 470.4024,11.6118 C470.4024,12.6808 471.2714,13.5498 472.3394,13.5498 C472.6974,13.5498 473.0284,13.4458 473.3154,13.2768 L477.1804,17.1408 L477.1804,17.7998 L476.2654,19.8388 L474.1744,19.0418 L467.7024,12.5708 C467.8744,12.2808 467.9794,11.9488 467.9794,11.5888 C467.9794,10.5198 467.1114,9.6508 466.0434,9.6508 C465.5064,9.6508 465.0204,9.8708 464.6694,10.2238 C464.3154,10.5748 464.0944,11.0618 464.0944,11.5988 C464.0944,12.6668 464.9634,13.5358 466.0324,13.5358 C466.3944,13.5358 466.7284,13.4298 467.0194,13.2558 L473.4834,19.7208 L474.2824,21.8218 L472.2274,22.7428 L471.5854,22.7428 L467.7184,18.8758 C467.8884,18.5868 467.9944,18.2548 467.9944,17.8958 C467.9944,16.8268 467.1254,15.9578 466.0564,15.9578 C464.9884,15.9578 464.1194,16.8268 464.1194,17.8958 C464.1194,18.9638 464.9884,19.8328 466.0564,19.8328 C466.4134,19.8328 466.7444,19.7298 467.0324,19.5598 L470.2154,22.7428 L464.3194,22.7428 L462.3894,20.8138 C462.5604,20.5248 462.6654,20.1928 462.6654,19.8328 C462.6654,18.7648 461.7974,17.8958 460.7284,17.8958 C459.6594,17.8958 458.7904,18.7648 458.7904,19.8328 C458.7904,20.9018 459.6594,21.7708 460.7284,21.7708 C461.0854,21.7708 461.4164,21.6668 461.7034,21.4978 L463.4344,23.2278 L461.7084,24.9528 C461.4204,24.7818 461.0874,24.6768 460.7284,24.6768 C459.6594,24.6768 458.7904,25.5458 458.7904,26.6138 C458.7904,27.6828 459.6594,28.5518 460.7284,28.5518 C461.7974,28.5518 462.6654,27.6828 462.6654,26.6138 C462.6654,26.2578 462.5614,25.9258 462.3924,25.6388 L464.3194,23.7118 L470.2154,23.7118 L467.0364,26.8908 C466.7484,26.7198 466.4154,26.6138 466.0564,26.6138 C464.9884,26.6138 464.1194,27.4828 464.1194,28.5518 C464.1194,29.6208 464.9884,30.4888 466.0564,30.4888 C467.1254,30.4888 467.9944,29.6208 467.9944,28.5518 C467.9944,28.1948 467.8894,27.8638 467.7204,27.5758 L471.5854,23.7118 L472.2444,23.7118 L474.2824,24.6258 L473.4824,26.7298 L467.0194,33.1918 C466.7294,33.0178 466.3944,32.9108 466.0324,32.9108 C464.9634,32.9108 464.0944,33.7798 464.0944,34.8488 C464.0944,35.3868 464.3154,35.8728 464.6694,36.2238 C465.0204,36.5778 465.5064,36.7968 466.0434,36.7968 C467.1114,36.7968 467.9794,35.9278 467.9794,34.8588 C467.9794,34.4998 467.8744,34.1668 467.7034,33.8778 L474.1774,27.4038 L476.2654,26.6088 L477.1864,28.6628 L477.1864,29.3068 L473.3204,33.1738 C473.0314,33.0028 472.6994,32.8978 472.3394,32.8978 C471.2714,32.8978 470.4024,33.7668 470.4024,34.8358 C470.4024,35.9038 471.2714,36.7728 472.3394,36.7728 C473.4074,36.7728 474.2764,35.9038 474.2764,34.8358 C474.2764,34.4778 474.1734,34.1478 474.0034,33.8598 L477.1864,30.6768 L477.1864,36.5728 L475.2574,38.5018 C474.9694,38.3308 474.6364,38.2258 474.2774,38.2258 C473.2084,38.2258 472.3394,39.0948 472.3394,40.1638 C472.3394,41.2318 473.2084,42.1008 474.2774,42.1008 C475.3454,42.1008 476.2144,41.2318 476.2144,40.1638 C476.2144,39.8058 476.1104,39.4758 475.9414,39.1878 L477.6714,37.4578 L479.3964,39.1828 C479.2264,39.4718 479.1214,39.8048 479.1214,40.1638 C479.1214,41.2318 479.9904,42.1008 481.0584,42.1008 C482.1264,42.1008 482.9954,41.2318 482.9954,40.1638 C482.9954,39.0948 482.1264,38.2258 481.0584,38.2258 C480.7014,38.2258 480.3704,38.3308 480.0824,38.4998 L478.1554,36.5728 L478.1554,30.6768 L481.3344,33.8548 C481.1634,34.1438 481.0584,34.4768 481.0584,34.8358 C481.0584,35.9038 481.9274,36.7728 482.9964,36.7728 C484.0644,36.7728 484.9334,35.9038 484.9334,34.8358 C484.9334,33.7668 484.0644,32.8978 482.9964,32.8978 C482.6394,32.8978 482.3074,33.0018 482.0204,33.1708 L478.1554,29.3068 L478.1554,28.6478 L479.0704,26.6088 L481.1724,27.4098 L487.6354,33.8728 C487.4624,34.1628 487.3554,34.4978 487.3554,34.8588 C487.3554,35.9278 488.2244,36.7968 489.2924,36.7968 C489.8294,36.7968 490.3144,36.5778 490.6664,36.2238 C491.0204,35.8728 491.2414,35.3868 491.2414,34.8488 C491.2414,33.7798 490.3724,32.9108 489.3034,32.9108 C488.9434,32.9108 488.6104,33.0168 488.3214,33.1888 L481.8484,26.7158 L481.0534,24.6258 L483.1074,23.7048 L483.7504,23.7048 L487.6174,27.5718 C487.4464,27.8608 487.3414,28.1928 487.3414,28.5518 C487.3414,29.6208 488.2104,30.4888 489.2794,30.4888 C490.3474,30.4888 491.2164,29.6208 491.2164,28.5518 C491.2164,27.4828 490.3474,26.6138 489.2794,26.6138 C488.9214,26.6138 488.5914,26.7188 488.3034,26.8878 L485.1204,23.7048 L491.0164,23.7048 L492.9454,25.6338 C492.7744,25.9228 492.6704,26.2558 492.6704,26.6138 C492.6704,27.6828 493.5384,28.5518 494.6074,28.5518 C495.6764,28.5518 496.5444,27.6828 496.5444,26.6138 C496.5444,25.5458 495.6764,24.6768 494.6074,24.6768 L494.6074,24.6768 Z M494.6074,18.8648 C495.1414,18.8648 495.5764,19.2988 495.5764,19.8328 C495.5764,20.3678 495.1414,20.8018 494.6074,20.8018 C494.0734,20.8018 493.6384,20.3678 493.6384,19.8328 C493.6384,19.2988 494.0734,18.8648 494.6074,18.8648 L494.6074,18.8648 Z M489.2794,16.9268 C489.8134,16.9268 490.2484,17.3618 490.2484,17.8958 C490.2484,18.4298 489.8134,18.8648 489.2794,18.8648 C488.7454,18.8648 488.3104,18.4298 488.3104,17.8958 C488.3104,17.3618 488.7454,16.9268 489.2794,16.9268 L489.2794,16.9268 Z M489.3034,10.6298 C489.5674,10.6298 489.8064,10.7368 489.9814,10.9088 C490.1544,11.0838 490.2614,11.3238 490.2614,11.5888 C490.2614,12.1218 489.8274,12.5568 489.2924,12.5568 C489.0284,12.5568 488.7894,12.4498 488.6144,12.2778 C488.4414,12.1028 488.3344,11.8628 488.3344,11.5988 C488.3344,11.0648 488.7694,10.6298 489.3034,10.6298 L489.3034,10.6298 Z M482.9964,10.6438 C483.5304,10.6438 483.9644,11.0778 483.9644,11.6118 C483.9644,12.1458 483.5304,12.5808 482.9964,12.5808 C482.4624,12.5808 482.0274,12.1458 482.0274,11.6118 C482.0274,11.0778 482.4624,10.6438 482.9964,10.6438 L482.9964,10.6438 Z M481.0584,5.3158 C481.5924,5.3158 482.0264,5.7498 482.0264,6.2838 C482.0264,6.8178 481.5924,7.2528 481.0584,7.2528 C480.5244,7.2528 480.0894,6.8178 480.0894,6.2838 C480.0894,5.7498 480.5244,5.3158 481.0584,5.3158 L481.0584,5.3158 Z M474.2774,7.2528 C473.7434,7.2528 473.3084,6.8178 473.3084,6.2838 C473.3084,5.7498 473.7434,5.3158 474.2774,5.3158 C474.8114,5.3158 475.2454,5.7498 475.2454,6.2838 C475.2454,6.8178 474.8114,7.2528 474.2774,7.2528 L474.2774,7.2528 Z M472.3394,12.5808 C471.8064,12.5808 471.3714,12.1458 471.3714,11.6118 C471.3714,11.0778 471.8064,10.6438 472.3394,10.6438 C472.8744,10.6438 473.3084,11.0778 473.3084,11.6118 C473.3084,12.1458 472.8744,12.5808 472.3394,12.5808 L472.3394,12.5808 Z M465.0744,11.5888 C465.0744,11.3238 465.1814,11.0838 465.3544,10.9088 C465.5294,10.7368 465.7684,10.6298 466.0324,10.6298 C466.5664,10.6298 467.0014,11.0648 467.0014,11.5988 C467.0014,11.8638 466.8944,12.1038 466.7214,12.2788 C466.5464,12.4498 466.3064,12.5568 466.0434,12.5568 C465.5094,12.5568 465.0744,12.1218 465.0744,11.5888 L465.0744,11.5888 Z M466.0564,18.8648 C465.5224,18.8648 465.0874,18.4298 465.0874,17.8958 C465.0874,17.3618 465.5224,16.9268 466.0564,16.9268 C466.5904,16.9268 467.0254,17.3618 467.0254,17.8958 C467.0254,18.4298 466.5904,18.8648 466.0564,18.8648 L466.0564,18.8648 Z M460.7284,20.8018 C460.1944,20.8018 459.7594,20.3678 459.7594,19.8328 C459.7594,19.2988 460.1944,18.8648 460.7284,18.8648 C461.2624,18.8648 461.6974,19.2988 461.6974,19.8328 C461.6974,20.3678 461.2624,20.8018 460.7284,20.8018 L460.7284,20.8018 Z M460.7284,27.5828 C460.1944,27.5828 459.7594,27.1488 459.7594,26.6138 C459.7594,26.0808 460.1944,25.6458 460.7284,25.6458 C461.2624,25.6458 461.6974,26.0808 461.6974,26.6138 C461.6974,27.1488 461.2624,27.5828 460.7284,27.5828 L460.7284,27.5828 Z M466.0564,29.5208 C465.5224,29.5208 465.0874,29.0858 465.0874,28.5518 C465.0874,28.0178 465.5224,27.5828 466.0564,27.5828 C466.5904,27.5828 467.0254,28.0178 467.0254,28.5518 C467.0254,29.0858 466.5904,29.5208 466.0564,29.5208 L466.0564,29.5208 Z M466.0324,35.8178 C465.7684,35.8178 465.5294,35.7108 465.3544,35.5398 C465.1814,35.3648 465.0744,35.1238 465.0744,34.8588 C465.0744,34.3248 465.5094,33.8908 466.0434,33.8908 C466.3064,33.8908 466.5464,33.9968 466.7214,34.1688 C466.8944,34.3448 467.0014,34.5838 467.0014,34.8488 C467.0014,35.3828 466.5664,35.8178 466.0324,35.8178 L466.0324,35.8178 Z M472.3394,35.8048 C471.8064,35.8048 471.3714,35.3698 471.3714,34.8358 C471.3714,34.3018 471.8064,33.8668 472.3394,33.8668 C472.8744,33.8668 473.3084,34.3018 473.3084,34.8358 C473.3084,35.3698 472.8744,35.8048 472.3394,35.8048 L472.3394,35.8048 Z M474.2774,41.1328 C473.7434,41.1328 473.3084,40.6978 473.3084,40.1638 C473.3084,39.6298 473.7434,39.1948 474.2774,39.1948 C474.8114,39.1948 475.2454,39.6298 475.2454,40.1638 C475.2454,40.6978 474.8114,41.1328 474.2774,41.1328 L474.2774,41.1328 Z M481.0584,39.1948 C481.5924,39.1948 482.0264,39.6298 482.0264,40.1638 C482.0264,40.6978 481.5924,41.1328 481.0584,41.1328 C480.5244,41.1328 480.0894,40.6978 480.0894,40.1638 C480.0894,39.6298 480.5244,39.1948 481.0584,39.1948 L481.0584,39.1948 Z M482.9964,33.8668 C483.5304,33.8668 483.9644,34.3018 483.9644,34.8358 C483.9644,35.3698 483.5304,35.8048 482.9964,35.8048 C482.4624,35.8048 482.0274,35.3698 482.0274,34.8358 C482.0274,34.3018 482.4624,33.8668 482.9964,33.8668 L482.9964,33.8668 Z M490.2614,34.8588 C490.2614,35.1238 490.1544,35.3638 489.9814,35.5388 C489.8064,35.7108 489.5674,35.8178 489.3034,35.8178 C488.7694,35.8178 488.3344,35.3828 488.3344,34.8488 C488.3344,34.5848 488.4414,34.3448 488.6144,34.1698 C488.7894,33.9978 489.0284,33.8908 489.2924,33.8908 C489.8274,33.8908 490.2614,34.3248 490.2614,34.8588 L490.2614,34.8588 Z M489.2794,27.5828 C489.8134,27.5828 490.2484,28.0178 490.2484,28.5518 C490.2484,29.0858 489.8134,29.5208 489.2794,29.5208 C488.7454,29.5208 488.3104,29.0858 488.3104,28.5518 C488.3104,28.0178 488.7454,27.5828 489.2794,27.5828 L489.2794,27.5828 Z M479.8224,24.1158 L480.5984,26.1538 L478.5604,25.3778 L477.6674,27.3678 L476.7754,25.3778 L474.7374,26.1538 L475.5134,24.1158 L473.5244,23.2238 L475.5134,22.3318 L474.7374,20.2938 L476.7754,21.0698 L477.6674,19.0798 L478.5604,21.0698 L480.5984,20.2938 L479.8224,22.3318 L481.8124,23.2238 L479.8224,24.1158 Z M494.6074,27.5828 C494.0734,27.5828 493.6384,27.1488 493.6384,26.6138 C493.6384,26.0808 494.0734,25.6458 494.6074,25.6458 C495.1414,25.6458 495.5764,26.0808 495.5764,26.6138 C495.5764,27.1488 495.1414,27.5828 494.6074,27.5828 L494.6074,27.5828 Z" id="Fill-8" fill="#36A2D8"></path>
            <path d="M147.2527,529.3297 L153.2797,531.8327 L150.7767,525.8057 L145.9207,523.7897 L142.2147,520.0827 L141.5297,520.7677 L145.2367,524.4747 L147.2527,529.3297 Z M150.0357,526.5467 L151.4857,530.0387 L147.9937,528.5887 L146.5437,525.0967 L150.0357,526.5467 Z M156.6367,525.4427 L154.6287,520.5837 L154.6287,515.3417 L153.6597,515.3417 L153.6597,520.5837 L151.6527,525.4427 L154.1447,531.4747 L156.6367,525.4427 Z M154.1447,521.9487 L155.5887,525.4427 L154.1447,528.9377 L152.7007,525.4427 L154.1447,521.9487 Z M155.0097,531.8327 L161.0367,529.3297 L163.0527,524.4747 L166.7597,520.7677 L166.0747,520.0827 L162.3677,523.7897 L157.5127,525.8057 L155.0097,531.8327 Z M161.7457,525.0967 L160.2957,528.5887 L156.8037,530.0387 L158.2537,526.5467 L161.7457,525.0967 Z M146.8897,535.1897 L152.9217,532.6977 L146.8897,530.2057 L142.0297,532.2137 L136.7887,532.2137 L136.7887,533.1827 L142.0297,533.1827 L146.8897,535.1897 Z M146.8897,531.2537 L150.3837,532.6977 L146.8897,534.1417 L143.3947,532.6977 L146.8897,531.2537 Z M151.6527,539.9527 L153.6597,544.8127 L153.6597,550.0537 L154.6287,550.0537 L154.6287,544.8127 L156.6367,539.9527 L154.1447,533.9207 L151.6527,539.9527 Z M154.1447,543.4477 L152.7007,539.9527 L154.1447,536.4587 L155.5887,539.9527 L154.1447,543.4477 Z M161.0367,536.0667 L155.0097,533.5627 L157.5127,539.5897 L162.3677,541.6057 L166.0747,545.3127 L166.7597,544.6277 L163.0527,540.9207 L161.0367,536.0667 Z M158.2537,538.8487 L156.8037,535.3567 L160.2957,536.8067 L161.7457,540.2987 L158.2537,538.8487 Z M166.2587,532.2137 L161.3997,530.2057 L155.3687,532.6977 L161.3997,535.1897 L166.2587,533.1827 L171.5007,533.1827 L171.5007,532.2137 L166.2587,532.2137 Z M161.3997,534.1417 L157.9057,532.6977 L161.3997,531.2537 L164.8937,532.6977 L161.3997,534.1417 Z M153.2797,533.5627 L147.2527,536.0667 L145.2367,540.9217 L141.5297,544.6277 L142.2147,545.3127 L145.9207,541.6057 L150.7767,539.5897 L153.2797,533.5627 Z M146.5437,540.2987 L147.9937,536.8067 L151.4857,535.3567 L150.0357,538.8487 L146.5437,540.2987 Z M145.8957,535.5907 L137.9237,538.8927 L138.2947,539.7877 L146.2667,536.4857 L145.8957,535.5907 Z M161.2337,516.8487 L160.3387,516.4777 L157.0377,524.4477 L157.9327,524.8197 L161.2337,516.8487 Z M162.0227,536.4857 L169.9947,539.7877 L170.3657,538.8927 L162.3947,535.5907 L162.0227,536.4857 Z M147.0557,548.5477 L147.9497,548.9187 L151.2517,540.9477 L150.3567,540.5767 L147.0557,548.5477 Z M162.3947,529.8057 L170.3657,526.5037 L169.9947,525.6087 L162.0227,528.9107 L162.3947,529.8057 Z M151.2517,524.4477 L147.9497,516.4777 L147.0557,516.8487 L150.3567,524.8197 L151.2517,524.4477 Z M146.2667,528.9107 L138.2947,525.6087 L137.9237,526.5037 L145.8957,529.8057 L146.2667,528.9107 Z M157.0377,540.9477 L160.3387,548.9187 L161.2337,548.5477 L157.9327,540.5767 L157.0377,540.9477 Z" id="Fill-10" fill="#36A2D8"></path>
            <path d="M351.1844,85.9277 C350.0154,85.9277 349.0364,86.7607 348.8114,87.8647 L337.1494,87.8647 L344.3464,84.8837 C344.4304,85.0097 344.5264,85.1297 344.6384,85.2417 C345.0954,85.6987 345.7034,85.9507 346.3504,85.9507 C346.9974,85.9507 347.6054,85.6987 348.0624,85.2417 C349.0064,84.2977 349.0064,82.7607 348.0624,81.8177 C347.6054,81.3597 346.9974,81.1077 346.3504,81.1077 C345.7034,81.1077 345.0944,81.3597 344.6384,81.8177 C344.0494,82.4067 343.8284,83.2257 343.9744,83.9887 L336.7834,86.9677 L345.0254,78.7247 C345.4184,78.9857 345.8784,79.1257 346.3604,79.1257 C347.0074,79.1257 347.6164,78.8747 348.0724,78.4167 C348.5304,77.9597 348.7824,77.3517 348.7824,76.7047 C348.7824,76.0567 348.5304,75.4497 348.0724,74.9917 C347.6164,74.5347 347.0074,74.2827 346.3604,74.2827 C345.7134,74.2827 345.1054,74.5347 344.6484,74.9917 C344.1904,75.4497 343.9384,76.0567 343.9384,76.7047 C343.9384,77.1867 344.0794,77.6477 344.3404,78.0397 L336.0974,86.2837 L339.0764,79.0887 C339.2254,79.1167 339.3774,79.1347 339.5344,79.1347 C340.8694,79.1347 341.9554,78.0487 341.9554,76.7137 C341.9554,75.3777 340.8694,74.2917 339.5344,74.2917 C338.1994,74.2917 337.1134,75.3777 337.1134,76.7137 C337.1134,77.5477 337.5374,78.2847 338.1804,78.7197 L335.2014,85.9157 L335.2014,74.2537 C336.3044,74.0277 337.1374,73.0497 337.1374,71.8807 C337.1374,70.5457 336.0504,69.4587 334.7154,69.4587 C333.3794,69.4587 332.2934,70.5457 332.2934,71.8807 C332.2934,73.0507 333.1274,74.0297 334.2324,74.2547 L334.2324,85.9157 L331.2524,78.7207 C332.1844,78.0907 332.5804,76.8687 332.1334,75.7877 C331.7564,74.8787 330.8784,74.2917 329.8944,74.2917 C329.5764,74.2917 329.2654,74.3547 328.9684,74.4767 C327.7354,74.9877 327.1474,76.4077 327.6574,77.6417 C328.0344,78.5497 328.9134,79.1377 329.8964,79.1377 C330.0524,79.1377 330.2054,79.1217 330.3564,79.0917 L333.3364,86.2837 L325.0874,78.0347 C325.1714,77.9077 325.2474,77.7757 325.3074,77.6307 C325.5554,77.0337 325.5554,76.3757 325.3074,75.7777 C325.0594,75.1807 324.5944,74.7147 323.9974,74.4677 C323.7004,74.3447 323.3894,74.2827 323.0714,74.2827 C322.0874,74.2827 321.2094,74.8697 320.8334,75.7777 C320.5854,76.3757 320.5854,77.0337 320.8334,77.6307 C321.0804,78.2287 321.5464,78.6937 322.1434,78.9417 C322.4394,79.0637 322.7514,79.1257 323.0694,79.1257 C323.5574,79.1257 324.0194,78.9817 324.4074,78.7247 L332.6514,86.9677 L325.4574,83.9897 C325.5484,83.5277 325.5024,83.0487 325.3174,82.6037 C325.0704,82.0067 324.6044,81.5407 324.0064,81.2927 C323.7104,81.1697 323.3984,81.1077 323.0804,81.1077 C322.0974,81.1077 321.2184,81.6947 320.8424,82.6037 C320.3314,83.8377 320.9194,85.2577 322.1534,85.7677 C322.4494,85.8907 322.7604,85.9527 323.0784,85.9527 C323.8974,85.9527 324.6384,85.5427 325.0824,84.8827 L332.2834,87.8647 L320.6164,87.8647 C320.5864,87.7157 320.5434,87.5687 320.4834,87.4227 C320.1074,86.5147 319.2284,85.9277 318.2464,85.9277 C317.9274,85.9277 317.6154,85.9897 317.3194,86.1127 C316.0864,86.6237 315.4984,88.0427 316.0094,89.2757 C316.3864,90.1847 317.2644,90.7717 318.2474,90.7717 C318.5654,90.7717 318.8774,90.7087 319.1734,90.5867 C319.9434,90.2677 320.4624,89.5947 320.6184,88.8327 L332.2794,88.8327 L325.0824,91.8147 C324.6374,91.1557 323.8974,90.7457 323.0794,90.7457 C322.7604,90.7457 322.4494,90.8087 322.1534,90.9307 C320.9194,91.4417 320.3314,92.8607 320.8424,94.0957 C321.2184,95.0037 322.0974,95.5907 323.0814,95.5907 C323.3984,95.5907 323.7104,95.5287 324.0064,95.4057 C324.6044,95.1577 325.0704,94.6927 325.3174,94.0957 C325.5024,93.6497 325.5484,93.1707 325.4574,92.7077 L332.6544,89.7257 L324.4034,97.9767 C324.2774,97.8927 324.1424,97.8177 323.9974,97.7577 C323.7004,97.6347 323.3894,97.5727 323.0714,97.5727 C322.0874,97.5727 321.2094,98.1597 320.8334,99.0677 C320.5854,99.6657 320.5854,100.3237 320.8334,100.9207 C321.0804,101.5187 321.5464,101.9847 322.1434,102.2327 C322.4394,102.3547 322.7514,102.4167 323.0694,102.4167 C324.0524,102.4167 324.9304,101.8297 325.3074,100.9217 C325.6264,100.1517 325.5164,99.3097 325.0894,98.6607 L333.3364,90.4147 L330.3564,97.6067 C330.2054,97.5777 330.0514,97.5617 329.8964,97.5617 C328.9134,97.5617 328.0344,98.1487 327.6574,99.0567 C327.4104,99.6547 327.4104,100.3137 327.6574,100.9107 C327.9054,101.5077 328.3714,101.9737 328.9684,102.2207 C329.2654,102.3437 329.5764,102.4057 329.8954,102.4057 C330.8784,102.4057 331.7564,101.8187 332.1334,100.9107 C332.5804,99.8297 332.1844,98.6077 331.2514,97.9767 L334.2324,90.7817 L334.2324,102.4467 C334.0814,102.4777 333.9334,102.5217 333.7894,102.5817 C332.5554,103.0917 331.9674,104.5107 332.4784,105.7447 C332.8544,106.6527 333.7324,107.2397 334.7164,107.2397 C335.0344,107.2397 335.3454,107.1777 335.6424,107.0557 C336.8754,106.5447 337.4634,105.1257 336.9524,103.8917 C336.6394,103.1377 335.9794,102.6107 335.2014,102.4517 L335.2014,90.7867 L338.1804,97.9777 C338.0534,98.0637 337.9334,98.1617 337.8224,98.2727 C336.8784,99.2167 336.8784,100.7527 337.8224,101.6967 C338.2794,102.1547 338.8874,102.4057 339.5344,102.4057 C340.1814,102.4057 340.7894,102.1547 341.2464,101.6967 C342.1904,100.7527 342.1904,99.2167 341.2464,98.2727 C340.7894,97.8157 340.1814,97.5637 339.5344,97.5637 C339.3784,97.5637 339.2254,97.5797 339.0764,97.6077 L336.0944,90.4107 L344.3414,98.6577 C343.7184,99.5977 343.8214,100.8807 344.6484,101.7077 C345.1054,102.1647 345.7134,102.4167 346.3604,102.4167 C347.0074,102.4167 347.6154,102.1647 348.0724,101.7077 C349.0164,100.7627 349.0164,99.2257 348.0724,98.2817 C347.6154,97.8247 347.0074,97.5727 346.3604,97.5727 C345.8784,97.5727 345.4194,97.7137 345.0264,97.9737 L336.7834,89.7297 L343.9754,92.7097 C343.9464,92.8587 343.9284,93.0117 343.9284,93.1687 C343.9284,94.5037 345.0144,95.5907 346.3494,95.5907 C347.6854,95.5907 348.7714,94.5037 348.7714,93.1687 C348.7714,91.8337 347.6854,90.7477 346.3494,90.7477 C345.5164,90.7477 344.7804,91.1707 344.3444,91.8137 L337.1494,88.8327 L348.8114,88.8327 C349.0354,89.9377 350.0144,90.7717 351.1844,90.7717 C352.5194,90.7717 353.6064,89.6847 353.6064,88.3497 C353.6064,87.0147 352.5194,85.9277 351.1844,85.9277 M345.3234,82.5027 C345.5974,82.2277 345.9614,82.0767 346.3504,82.0767 C346.7384,82.0767 347.1034,82.2277 347.3774,82.5027 C347.9434,83.0687 347.9434,83.9897 347.3774,84.5567 C346.8284,85.1057 345.8714,85.1057 345.3234,84.5567 C344.7564,83.9897 344.7564,83.0687 345.3234,82.5027 M339.5344,75.2607 C340.3354,75.2607 340.9864,75.9127 340.9864,76.7137 C340.9864,77.5137 340.3354,78.1657 339.5344,78.1657 C338.7344,78.1657 338.0824,77.5137 338.0824,76.7137 C338.0824,75.9127 338.7344,75.2607 339.5344,75.2607 M318.8024,89.6917 C318.6244,89.7657 318.4374,89.8027 318.2474,89.8027 C317.6574,89.8027 317.1304,89.4507 316.9044,88.9057 C316.5974,88.1657 316.9504,87.3147 317.6904,87.0077 C317.8684,86.9347 318.0554,86.8967 318.2464,86.8967 C318.8364,86.8967 319.3624,87.2487 319.5884,87.7937 C319.8954,88.5337 319.5424,89.3847 318.8024,89.6917 M340.5614,98.9577 C341.1274,99.5237 341.1274,100.4457 340.5614,101.0117 C340.0124,101.5607 339.0564,101.5607 338.5074,101.0117 C337.9414,100.4457 337.9414,99.5237 338.5074,98.9577 C338.7814,98.6827 339.1464,98.5317 339.5344,98.5317 C339.9224,98.5317 340.2874,98.6827 340.5614,98.9577 M346.3494,91.7167 C347.1514,91.7167 347.8024,92.3677 347.8024,93.1687 C347.8024,93.9697 347.1514,94.6217 346.3494,94.6217 C345.5494,94.6217 344.8974,93.9697 344.8974,93.1687 C344.8974,92.3677 345.5494,91.7167 346.3494,91.7167 M334.7164,89.8017 C333.6724,89.8017 332.9804,88.7417 333.3734,87.7927 C333.8654,86.6047 335.5604,86.5937 336.0574,87.7927 C336.4544,88.7507 335.7434,89.8017 334.7164,89.8017 M345.3334,75.6767 C345.6074,75.4027 345.9724,75.2507 346.3604,75.2507 C346.7484,75.2507 347.1134,75.4027 347.3874,75.6767 C347.6624,75.9517 347.8134,76.3167 347.8134,76.7047 C347.8134,77.0927 347.6624,77.4577 347.3874,77.7317 C346.8394,78.2807 345.8814,78.2807 345.3334,77.7317 C345.0584,77.4577 344.9074,77.0927 344.9074,76.7047 C344.9074,76.3167 345.0584,75.9517 345.3334,75.6767 M333.2624,71.8807 C333.2624,71.0797 333.9134,70.4277 334.7154,70.4277 C335.5164,70.4277 336.1684,71.0797 336.1684,71.8807 C336.1684,72.6827 335.5164,73.3337 334.7154,73.3337 C333.9134,73.3337 333.2624,72.6827 333.2624,71.8807 M328.5534,77.2707 C328.2464,76.5307 328.5994,75.6787 329.3394,75.3717 C329.5174,75.2977 329.7044,75.2607 329.8944,75.2607 C330.4844,75.2607 331.0124,75.6127 331.2384,76.1587 C331.5454,76.8987 331.1914,77.7507 330.4514,78.0567 C330.2744,78.1307 330.0874,78.1687 329.8964,78.1687 C329.3064,78.1687 328.7794,77.8157 328.5534,77.2707 M323.0694,78.1577 C322.8794,78.1577 322.6924,78.1197 322.5144,78.0467 C322.1554,77.8977 321.8764,77.6187 321.7284,77.2607 C321.5804,76.9027 321.5804,76.5067 321.7284,76.1487 C321.9544,75.6037 322.4804,75.2507 323.0714,75.2507 C323.2614,75.2507 323.4484,75.2887 323.6264,75.3627 C323.9844,75.5117 324.2634,75.7907 324.4124,76.1487 C324.5604,76.5067 324.5604,76.9017 324.4124,77.2607 C324.1864,77.8057 323.6594,78.1577 323.0694,78.1577 M324.4224,84.0867 C324.1964,84.6317 323.6694,84.9837 323.0784,84.9837 C322.8884,84.9837 322.7014,84.9467 322.5244,84.8727 C321.7834,84.5667 321.4304,83.7147 321.7374,82.9747 C321.9634,82.4287 322.4904,82.0767 323.0804,82.0767 C323.2714,82.0767 323.4574,82.1137 323.6364,82.1877 C323.9944,82.3357 324.2744,82.6157 324.4224,82.9747 C324.5714,83.3327 324.5714,83.7277 324.4224,84.0867 M324.4224,93.7237 C324.2744,94.0827 323.9944,94.3617 323.6364,94.5107 C323.4574,94.5847 323.2714,94.6217 323.0814,94.6217 C322.4904,94.6217 321.9634,94.2697 321.7374,93.7237 C321.4304,92.9837 321.7834,92.1317 322.5244,91.8257 C322.7014,91.7517 322.8884,91.7147 323.0794,91.7147 C323.6694,91.7147 324.1964,92.0667 324.4224,92.6117 C324.5714,92.9707 324.5714,93.3657 324.4224,93.7237 M324.4124,100.5507 C324.1864,101.0957 323.6594,101.4477 323.0694,101.4477 C322.8794,101.4477 322.6924,101.4107 322.5144,101.3367 C322.1554,101.1887 321.8764,100.9087 321.7284,100.5507 C321.5804,100.1927 321.5804,99.7977 321.7284,99.4387 C321.9544,98.8937 322.4804,98.5417 323.0714,98.5417 C323.2614,98.5417 323.4484,98.5787 323.6264,98.6527 C324.3664,98.9597 324.7184,99.8107 324.4124,100.5507 M331.2384,100.5397 C331.0124,101.0847 330.4854,101.4377 329.8954,101.4377 C329.7044,101.4377 329.5174,101.3997 329.3394,101.3257 C328.9814,101.1777 328.7014,100.8987 328.5534,100.5397 C328.4044,100.1817 328.4044,99.7867 328.5534,99.4277 C328.7794,98.8827 329.3064,98.5297 329.8964,98.5297 C330.0874,98.5297 330.2744,98.5677 330.4514,98.6407 C331.1914,98.9477 331.5454,99.7997 331.2384,100.5397 M336.0574,104.2627 C336.3644,105.0027 336.0114,105.8537 335.2714,106.1607 C335.0934,106.2337 334.9064,106.2717 334.7164,106.2717 C334.1264,106.2717 333.5994,105.9197 333.3734,105.3747 C333.0664,104.6347 333.4194,103.7827 334.1594,103.4767 C334.3374,103.4027 334.5244,103.3647 334.7154,103.3647 C335.3044,103.3647 335.8314,103.7177 336.0574,104.2627 M347.3874,98.9667 C347.9544,99.5337 347.9544,100.4557 347.3874,101.0227 C346.8394,101.5707 345.8814,101.5707 345.3334,101.0227 C344.7664,100.4557 344.7664,99.5337 345.3334,98.9667 C345.6074,98.6927 345.9724,98.5417 346.3604,98.5417 C346.7484,98.5417 347.1134,98.6927 347.3874,98.9667 M351.1844,89.8027 C350.3824,89.8027 349.7314,89.1517 349.7314,88.3497 C349.7314,87.5487 350.3824,86.8967 351.1844,86.8967 C351.9854,86.8967 352.6374,87.5487 352.6374,88.3497 C352.6374,89.1517 351.9854,89.8027 351.1844,89.8027" id="Fill-12" fill="#36A2D8"></path>
            <path d="M799.7147,475.1421 L801.6607,475.1421 L804.1247,477.6061 L806.5897,475.1411 L808.4787,475.1411 L809.3957,476.0591 L810.8147,474.6391 L809.3957,473.2211 L808.4787,474.1381 L806.5897,474.1381 L804.1247,471.6731 L801.6587,474.1391 L799.7187,474.1391 L796.9947,472.9181 L798.0287,470.2021 L803.2527,470.2021 L804.1267,471.0761 L805.5457,469.6571 L804.1267,468.2381 L803.1667,469.1991 L798.9827,469.1991 L801.7687,466.4131 L807.0427,466.4131 L807.9167,467.2871 L809.3357,465.8681 L807.9167,464.4491 L806.9557,465.4101 L802.7717,465.4101 L805.3597,462.8221 L806.6607,462.8221 L806.6607,460.8151 L804.6547,460.8151 L804.6547,462.1081 L802.0617,464.7011 L802.0617,460.5351 L803.0317,459.5641 L801.6137,458.1461 L800.1947,459.5641 L801.0587,460.4291 L801.0587,465.7041 L798.2727,468.4901 L798.2727,464.3241 L799.2427,463.3541 L797.8237,461.9351 L796.4047,463.3541 L797.2697,464.2191 L797.2697,469.4501 L794.5597,470.4821 L793.3417,467.7671 L793.3417,465.8181 L795.8067,463.3541 L793.3407,460.8891 L793.3407,459.0011 L794.2587,458.0831 L792.8397,456.6641 L791.4207,458.0831 L792.3377,459.0001 L792.3377,460.8891 L789.8727,463.3541 L792.3387,465.8201 L792.3387,467.7521 L791.1147,470.4821 L788.3877,469.4431 L788.3877,464.2161 L789.2617,463.3421 L787.8427,461.9231 L786.4237,463.3421 L787.3837,464.3021 L787.3837,468.4871 L784.6097,465.7131 L784.6097,460.4391 L785.4837,459.5641 L784.0647,458.1461 L782.6467,459.5641 L783.6067,460.5251 L783.6067,464.7091 L781.0197,462.1221 L781.0197,460.8201 L779.0127,460.8201 L779.0127,462.8271 L780.3047,462.8271 L782.8967,465.4191 L778.7317,465.4191 L777.7617,464.4491 L776.3427,465.8681 L777.7617,467.2871 L778.6267,466.4221 L783.9007,466.4221 L786.6737,469.1961 L782.5087,469.1961 L781.5387,468.2261 L780.1207,469.6451 L781.5387,471.0641 L782.4037,470.1991 L787.6437,470.1991 L788.6797,472.9181 L785.9597,474.1371 L784.0187,474.1371 L781.5547,471.6731 L779.0887,474.1381 L777.2007,474.1381 L776.2837,473.2211 L774.8647,474.6391 L776.2837,476.0591 L777.2007,475.1411 L779.0887,475.1411 L781.5547,477.6061 L784.0207,475.1401 L785.9547,475.1401 L788.6797,476.3621 L787.6387,479.0941 L782.4137,479.0941 L781.5387,478.2201 L780.1207,479.6391 L781.5387,481.0571 L782.4997,480.0971 L786.6837,480.0971 L783.9107,482.8711 L778.6357,482.8711 L777.7617,481.9971 L776.3427,483.4161 L777.7617,484.8351 L778.7227,483.8741 L782.9067,483.8741 L780.3197,486.4621 L779.0167,486.4621 L779.0167,488.4681 L781.0237,488.4681 L781.0237,487.1771 L783.6167,484.5841 L783.6167,488.7491 L782.6467,489.7191 L784.0647,491.1381 L785.4837,489.7191 L784.6197,488.8551 L784.6197,483.5811 L787.3937,480.8071 L787.3937,484.9721 L786.4237,485.9421 L787.8427,487.3611 L789.2617,485.9421 L788.3967,485.0771 L788.3967,479.8321 L791.1147,478.7971 L792.3377,481.5231 L792.3377,483.4601 L789.8727,485.9251 L792.3377,488.3901 L792.3377,490.2791 L791.4207,491.1961 L792.8397,492.6151 L794.2587,491.1961 L793.3407,490.2791 L793.3407,488.3901 L795.8067,485.9251 L793.3407,483.4591 L793.3407,481.5151 L794.5597,478.7971 L797.2797,479.8331 L797.2797,485.0551 L796.4047,485.9291 L797.8237,487.3491 L799.2427,485.9291 L798.2827,484.9701 L798.2827,480.7861 L801.0687,483.5721 L801.0687,488.8451 L800.1947,489.7191 L801.6137,491.1381 L803.0317,489.7191 L802.0717,488.7591 L802.0717,484.5751 L804.6587,487.1621 L804.6587,488.4641 L806.6657,488.4641 L806.6657,486.4571 L805.3727,486.4571 L802.7807,483.8651 L806.9467,483.8651 L807.9167,484.8351 L809.3357,483.4161 L807.9167,481.9971 L807.0517,482.8621 L801.7777,482.8621 L798.9907,480.0751 L803.1567,480.0751 L804.1267,481.0451 L805.5457,479.6261 L804.1267,478.2081 L803.2627,479.0721 L798.0267,479.0721 L796.9947,476.3621 L799.7147,475.1421 Z M804.1247,473.0911 L805.6727,474.6391 L804.1247,476.1871 L802.5767,474.6391 L804.1247,473.0911 Z M781.5547,476.1871 L780.0067,474.6391 L781.5547,473.0911 L783.1027,474.6391 L781.5547,476.1871 Z M791.2917,463.3541 L792.8397,461.8061 L794.3877,463.3541 L792.8397,464.9021 L791.2917,463.3541 Z M794.3877,485.9251 L792.8397,487.4731 L791.2917,485.9251 L792.8397,484.3771 L794.3877,485.9251 Z M794.0317,477.5221 L792.8367,480.1861 L791.6427,477.5221 L788.9157,478.5611 L789.9537,475.8341 L787.2907,474.6391 L789.9537,473.4451 L788.9157,470.7181 L791.6427,471.7571 L792.8367,469.0941 L794.0317,471.7571 L796.7587,470.7181 L795.7197,473.4451 L798.3827,474.6391 L795.7197,475.8341 L796.7587,478.5611 L794.0317,477.5221 Z" id="Fill-14" fill="#36A2D8"></path>
            <path d="M701.4026,91.3513 L703.7386,93.6873 L706.5756,90.8493 L703.7386,88.0113 L701.4026,90.3483 L695.7306,90.3483 L699.2426,86.8363 L702.5526,86.8363 L702.5526,82.8233 L698.5396,82.8233 L698.5396,86.1203 L694.3116,90.3483 L692.8856,90.3483 L690.6386,89.3403 L691.5126,87.0433 L691.7196,86.8363 L695.0286,86.8363 L695.0286,83.5263 L700.5676,77.9863 L699.8586,77.2773 L694.3126,82.8233 L691.0146,82.8233 L691.0146,86.1223 L690.8006,86.3373 L688.5086,87.2103 L687.5136,84.9923 L687.5136,83.5153 L691.7266,79.3023 L695.0376,79.3023 L695.0376,75.2893 L691.0246,75.2893 L691.0246,78.5863 L687.5136,82.0963 L687.5136,76.4633 L689.8566,74.1203 L687.0186,71.2823 L684.1806,74.1203 L686.5106,76.4493 L686.5106,82.1123 L682.9976,78.6003 L682.9976,75.2893 L678.9846,75.2893 L678.9846,79.3023 L682.2816,79.3023 L686.5106,83.5313 L686.5106,84.9473 L685.4956,87.2103 L683.2006,86.3353 L682.9886,86.1233 L682.9886,82.8203 L679.6846,82.8203 L674.1436,77.2783 L673.4346,77.9883 L678.9756,83.5293 L678.9756,86.8333 L682.2796,86.8333 L682.4926,87.0463 L683.3656,89.3403 L681.1176,90.3483 L679.6776,90.3483 L675.4636,86.1333 L675.4636,82.8233 L671.4506,82.8233 L671.4506,86.8363 L674.7486,86.8363 L678.2596,90.3483 L672.6166,90.3483 L670.2796,88.0113 L667.4426,90.8493 L670.2796,93.6873 L672.6156,91.3513 L678.2726,91.3513 L674.7616,94.8633 L671.4506,94.8633 L671.4506,98.8763 L675.4636,98.8763 L675.4636,95.5793 L679.6916,91.3513 L681.1326,91.3513 L683.3656,92.3523 L682.4916,94.6473 L682.2786,94.8613 L678.9736,94.8613 L678.9736,98.1643 L673.4326,103.7063 L674.1426,104.4153 L679.6836,98.8743 L682.9876,98.8743 L682.9876,95.5703 L683.2016,95.3563 L685.4956,94.4823 L686.5106,96.7453 L686.5106,98.1633 L682.2956,102.3783 L678.9846,102.3783 L678.9846,106.3913 L682.9976,106.3913 L682.9976,103.0943 L686.5106,99.5823 L686.5106,105.2493 L684.1806,107.5783 L687.0186,110.4163 L689.8566,107.5783 L687.5136,105.2353 L687.5136,99.5703 L691.0246,103.0803 L691.0246,106.3913 L695.0376,106.3913 L695.0376,102.3783 L691.7406,102.3783 L687.5136,98.1513 L687.5136,96.6993 L688.5086,94.4823 L690.8056,95.3573 L691.0136,95.5653 L691.0136,98.8743 L694.3246,98.8743 L699.8636,104.4133 L700.5726,103.7043 L695.0266,98.1583 L695.0266,94.8613 L691.7286,94.8613 L691.5106,94.6443 L690.6386,92.3523 L692.8706,91.3513 L694.3256,91.3513 L698.5396,95.5653 L698.5396,98.8763 L702.5526,98.8763 L702.5526,94.8633 L699.2566,94.8633 L695.7446,91.3513 L701.4026,91.3513 Z M699.5426,85.8333 L701.5496,85.8333 L701.5496,83.8263 L699.5426,83.8263 L699.5426,85.8333 Z M692.0186,85.8333 L694.0256,85.8333 L694.0256,83.8263 L692.0186,83.8263 L692.0186,85.8333 Z M692.0276,78.2993 L694.0346,78.2993 L694.0346,76.2923 L692.0276,76.2923 L692.0276,78.2993 Z M679.9876,78.2993 L681.9946,78.2993 L681.9946,76.2923 L679.9876,76.2923 L679.9876,78.2993 Z M679.9786,85.8293 L681.9856,85.8293 L681.9856,83.8223 L679.9786,83.8223 L679.9786,85.8293 Z M672.4536,85.8333 L674.4606,85.8333 L674.4606,83.8263 L672.4536,83.8263 L672.4536,85.8333 Z M672.4536,97.8723 L674.4606,97.8723 L674.4606,95.8653 L672.4536,95.8653 L672.4536,97.8723 Z M679.9766,97.8703 L681.9836,97.8703 L681.9836,95.8633 L679.9766,95.8633 L679.9766,97.8703 Z M679.9876,105.3883 L681.9946,105.3883 L681.9946,103.3813 L679.9876,103.3813 L679.9876,105.3883 Z M692.0276,105.3883 L694.0346,105.3883 L694.0346,103.3813 L692.0276,103.3813 L692.0276,105.3883 Z M692.0166,97.8713 L694.0236,97.8713 L694.0236,95.8643 L692.0166,95.8643 L692.0166,97.8713 Z M699.5426,97.8733 L701.5496,97.8733 L701.5496,95.8663 L699.5426,95.8663 L699.5426,97.8733 Z M703.7386,89.4303 L705.1576,90.8493 L703.7386,92.2683 L702.3196,90.8493 L703.7386,89.4303 Z M687.0186,72.7013 L688.4376,74.1203 L687.0186,75.5393 L685.5996,74.1203 L687.0186,72.7013 Z M670.2796,92.2683 L668.8616,90.8493 L670.2796,89.4303 L671.6986,90.8493 L670.2796,92.2683 Z M687.0186,108.9973 L685.5996,107.5783 L687.0186,106.1593 L688.4376,107.5783 L687.0186,108.9973 Z M689.3636,91.8243 L690.2136,94.0583 L687.9796,93.2073 L687.0016,95.3893 L686.0236,93.2073 L683.7896,94.0583 L684.6406,91.8243 L682.4586,90.8463 L684.6406,89.8683 L683.7896,87.6343 L686.0236,88.4853 L687.0016,86.3033 L687.9796,88.4853 L690.2146,87.6343 L689.3636,89.8683 L691.5446,90.8463 L689.3636,91.8243 Z" id="Fill-16" fill="#36A2D8"></path>
            <path d="M665.1371,389.8465 L664.4281,390.5555 L666.5921,392.7205 L662.8961,392.7205 L660.0221,389.8465 L659.3131,390.5555 L661.4771,392.7205 L654.9071,392.7205 L653.5071,391.3205 L653.5071,389.3375 L655.3421,387.5025 L658.8211,387.5025 L658.8211,384.0225 L662.8321,380.0125 L662.8321,383.0695 L663.8351,383.0695 L663.8351,378.3105 L659.0771,378.3105 L659.0771,379.3135 L662.1111,379.3135 L658.1191,383.3065 L654.6261,383.3065 L654.6261,386.7995 L652.7891,388.6375 L650.8231,388.6375 L649.4251,387.2385 L649.4251,380.6685 L651.5901,382.8325 L652.2991,382.1235 L649.4251,379.2495 L649.4251,375.5535 L651.5901,377.7185 L652.2991,377.0085 L648.9341,373.6445 L645.5701,377.0085 L646.2791,377.7185 L648.4221,375.5755 L648.4221,379.2715 L645.5701,382.1235 L646.2791,382.8325 L648.4221,380.6895 L648.4221,387.2435 L647.0291,388.6375 L645.0711,388.6375 L643.2191,386.7855 L643.2191,383.3065 L639.7401,383.3065 L635.7471,379.3135 L638.7921,379.3135 L638.7921,378.3105 L634.0341,378.3105 L634.0341,383.0695 L635.0371,383.0695 L635.0371,380.0235 L639.0231,384.0095 L639.0231,387.5025 L642.5171,387.5025 L644.3451,389.3305 L644.3451,391.3205 L642.9451,392.7205 L636.3921,392.7205 L638.5561,390.5555 L637.8471,389.8465 L634.9731,392.7205 L631.2771,392.7205 L633.4411,390.5555 L632.7321,389.8465 L629.3671,393.2115 L632.7321,396.5755 L633.4411,395.8665 L631.2981,393.7235 L634.9951,393.7235 L637.8471,396.5755 L638.5561,395.8665 L636.4131,393.7235 L642.9531,393.7235 L644.3451,395.1155 L644.3451,397.0665 L642.5021,398.9095 L639.0231,398.9095 L639.0231,402.3885 L635.0371,406.3745 L635.0371,403.3525 L634.0341,403.3525 L634.0341,408.1115 L638.7921,408.1115 L638.7921,407.1085 L635.7231,407.1085 L639.7261,403.1045 L643.2191,403.1045 L643.2191,399.6115 L645.0311,397.7995 L647.0291,397.7995 L648.4221,399.1925 L648.4221,405.7325 L646.2791,403.5895 L645.5701,404.2985 L648.4221,407.1505 L648.4221,410.8475 L646.2791,408.7045 L645.5701,409.4135 L648.9341,412.7785 L652.2991,409.4135 L651.5901,408.7045 L649.4251,410.8695 L649.4251,407.1725 L652.2991,404.2985 L651.5901,403.5895 L649.4251,405.7535 L649.4251,399.1975 L650.8231,397.7995 L652.7991,397.7995 L654.6261,399.6255 L654.6261,403.1045 L658.1051,403.1045 L662.1081,407.1085 L659.0771,407.1085 L659.0771,408.1115 L663.8351,408.1115 L663.8351,403.3525 L662.8321,403.3525 L662.8321,406.4125 L658.8211,402.4025 L658.8211,398.9095 L655.3281,398.9095 L653.5071,397.0885 L653.5071,395.1155 L654.8991,393.7235 L661.4551,393.7235 L659.3131,395.8665 L660.0221,396.5755 L662.8741,393.7235 L666.5701,393.7235 L664.4281,395.8665 L665.1371,396.5755 L668.5021,393.2115 L665.1371,389.8465 Z M655.6291,386.4985 L657.8181,386.4985 L657.8181,384.3095 L655.6291,384.3095 L655.6291,386.4985 Z M640.0261,386.4985 L642.2151,386.4985 L642.2151,384.3095 L640.0261,384.3095 L640.0261,386.4985 Z M640.0261,402.1015 L642.2151,402.1015 L642.2151,399.9125 L640.0261,399.9125 L640.0261,402.1015 Z M655.6291,402.1015 L657.8181,402.1015 L657.8181,399.9125 L655.6291,399.9125 L655.6291,402.1015 Z M652.5041,394.6995 L652.5041,396.7955 L650.4081,396.7955 L648.9261,398.2775 L647.4441,396.7955 L645.3481,396.7955 L645.3481,394.6995 L643.8661,393.2185 L645.3481,391.7365 L645.3481,389.6405 L647.4441,389.6405 L648.9261,388.1585 L650.4081,389.6405 L652.5041,389.6405 L652.5041,391.7365 L653.9861,393.2185 L652.5041,394.6995 Z" id="Fill-18" fill="#36A2D8"></path>
            <path d="M383.293,478.1314 C381.803,478.1314 380.566,479.2204 380.328,480.6434 L376.802,480.6434 L380.142,477.3034 C380.338,477.1074 380.338,476.7904 380.142,476.5934 C379.947,476.3974 379.629,476.3974 379.433,476.5934 L375.384,480.6434 L371.362,480.6434 L372.771,479.2364 L373.156,479.0774 C373.382,479.2934 373.68,479.4304 374.008,479.4304 C374.172,479.4304 374.331,479.3994 374.484,479.3354 C375.117,479.0734 375.419,478.3434 375.157,477.7104 C374.901,477.0924 374.154,476.7794 373.531,477.0364 C373.064,477.2304 372.78,477.6774 372.766,478.1534 L372.388,478.3094 L370.386,478.3094 L373.236,475.4584 L378.963,475.4584 C379.24,475.4584 379.464,475.2344 379.464,474.9574 C379.464,474.6804 379.24,474.4554 378.963,474.4554 L374.239,474.4554 L376.732,471.9624 C377.237,472.3224 377.838,472.5184 378.471,472.5184 C379.275,472.5184 380.031,472.2054 380.599,471.6364 C381.773,470.4624 381.773,468.5534 380.6,467.3804 C380.031,466.8114 379.275,466.4984 378.471,466.4984 C377.668,466.4984 376.912,466.8114 376.343,467.3804 C375.29,468.4334 375.19,470.0754 376.027,471.2494 L373.53,473.7464 L373.53,469.0224 C373.53,468.7454 373.305,468.5204 373.028,468.5204 C372.751,468.5204 372.527,468.7454 372.527,469.0224 L372.527,474.7494 L369.68,477.5964 L369.68,475.6014 L369.838,475.2214 C370.329,475.2064 370.764,474.9134 370.952,474.4584 C371.08,474.1514 371.08,473.8134 370.953,473.5064 C370.826,473.1984 370.586,472.9604 370.279,472.8334 C369.656,472.5744 368.909,472.8884 368.654,473.5064 C368.526,473.8134 368.526,474.1514 368.654,474.4584 C368.715,474.6044 368.802,474.7344 368.909,474.8454 L368.754,475.2174 L367.34,476.6334 L367.34,472.6044 L371.392,468.5534 C371.588,468.3564 371.588,468.0394 371.392,467.8434 C371.196,467.6474 370.878,467.6474 370.683,467.8434 L367.34,471.1854 L367.34,467.6574 C368.761,467.4174 369.848,466.1814 369.848,464.6924 C369.848,463.0324 368.498,461.6824 366.838,461.6824 C365.178,461.6824 363.829,463.0324 363.829,464.6924 C363.829,466.1814 364.916,467.4174 366.337,467.6574 L366.337,471.1814 L362.998,467.8434 C362.803,467.6474 362.485,467.6474 362.289,467.8434 C362.093,468.0394 362.093,468.3564 362.289,468.5534 L366.337,472.6004 L366.337,476.6294 L364.922,475.2124 L364.764,474.8304 C364.865,474.7224 364.949,474.5984 365.007,474.4584 C365.134,474.1514 365.134,473.8134 365.007,473.5064 C364.752,472.8884 364.004,472.5744 363.382,472.8334 C363.075,472.9604 362.835,473.1984 362.708,473.5064 C362.581,473.8134 362.581,474.1514 362.708,474.4584 C362.9,474.9194 363.343,475.2174 363.841,475.2234 L364.001,475.6094 L364.001,477.5964 L361.155,474.7494 L361.155,469.0224 C361.155,468.7454 360.93,468.5204 360.653,468.5204 C360.376,468.5204 360.151,468.7454 360.151,469.0224 L360.151,473.7464 L357.654,471.2484 C358.486,470.0744 358.383,468.4364 357.332,467.3864 C356.764,466.8174 356.008,466.5044 355.204,466.5044 C354.4,466.5044 353.644,466.8174 353.076,467.3864 C352.507,467.9544 352.194,468.7104 352.194,469.5144 C352.194,470.3174 352.507,471.0734 353.076,471.6424 C353.644,472.2114 354.4,472.5244 355.204,472.5244 C355.839,472.5244 356.443,472.3254 356.949,471.9634 L359.442,474.4554 L354.719,474.4554 C354.441,474.4554 354.217,474.6804 354.217,474.9574 C354.217,475.2344 354.441,475.4584 354.719,475.4584 L360.445,475.4584 L363.295,478.3094 L361.256,478.3094 L360.915,478.1684 C360.909,477.6854 360.622,477.2284 360.148,477.0314 C359.527,476.7724 358.78,477.0874 358.525,477.7044 C358.262,478.3374 358.564,479.0664 359.197,479.3274 C359.349,479.3914 359.509,479.4234 359.672,479.4234 C359.992,479.4234 360.282,479.2914 360.507,479.0844 L360.937,479.2634 L362.319,480.6434 L358.297,480.6434 L354.248,476.5934 C354.052,476.3974 353.735,476.3974 353.539,476.5934 C353.343,476.7904 353.343,477.1074 353.539,477.3034 L356.879,480.6434 L353.352,480.6434 C353.111,479.2244 351.875,478.1394 350.388,478.1394 C348.728,478.1394 347.378,479.4894 347.378,481.1484 C347.378,482.8084 348.728,484.1584 350.388,484.1584 C351.878,484.1584 353.115,483.0694 353.354,481.6464 L356.879,481.6464 L353.539,484.9874 C353.343,485.1824 353.343,485.5004 353.539,485.6964 C353.637,485.7944 353.765,485.8434 353.893,485.8434 C354.022,485.8434 354.15,485.7944 354.248,485.6964 L358.297,481.6464 L362.328,481.6464 L360.899,483.0754 L360.531,483.2274 C360.183,482.9024 359.655,482.7804 359.197,482.9694 C358.564,483.2314 358.262,483.9604 358.525,484.5934 C358.717,485.0604 359.169,485.3614 359.673,485.3614 C359.837,485.3614 359.996,485.3294 360.148,485.2664 C360.614,485.0734 360.897,484.6284 360.913,484.1554 L361.315,483.9884 L363.287,483.9884 L360.445,486.8304 L354.719,486.8304 C354.441,486.8304 354.217,487.0554 354.217,487.3324 C354.217,487.6094 354.441,487.8334 354.719,487.8334 L359.442,487.8334 L356.949,490.3274 C356.444,489.9674 355.842,489.7714 355.21,489.7714 C354.406,489.7714 353.65,490.0844 353.081,490.6534 C351.908,491.8264 351.908,493.7364 353.081,494.9104 C353.65,495.4784 354.406,495.7914 355.21,495.7914 C356.014,495.7914 356.769,495.4784 357.338,494.9104 C357.907,494.3414 358.22,493.5854 358.22,492.7814 C358.22,492.1464 358.021,491.5424 357.659,491.0364 L360.151,488.5434 L360.151,493.2674 C360.151,493.5444 360.376,493.7684 360.653,493.7684 C360.93,493.7684 361.155,493.5444 361.155,493.2674 L361.155,487.5404 L364.001,484.6944 L364.001,486.6994 L363.843,487.0814 C363.368,487.0994 362.912,487.3864 362.723,487.8414 C362.461,488.4744 362.763,489.2024 363.396,489.4654 C363.548,489.5274 363.708,489.5604 363.871,489.5604 C364.376,489.5604 364.827,489.2594 365.02,488.7924 C365.213,488.3254 365.098,487.8074 364.771,487.4624 L364.93,487.0774 L366.339,485.6674 L366.339,489.6874 L362.289,493.7374 C362.093,493.9334 362.093,494.2504 362.289,494.4464 C362.485,494.6424 362.803,494.6424 362.998,494.4464 L366.339,491.1064 L366.339,494.6334 C364.92,494.8754 363.835,496.1104 363.835,497.5974 C363.835,499.2574 365.185,500.6074 366.844,500.6074 C368.504,500.6074 369.854,499.2574 369.854,497.5974 C369.854,496.1074 368.765,494.8704 367.342,494.6324 L367.342,491.1064 L370.683,494.4464 C370.78,494.5444 370.909,494.5934 371.037,494.5934 C371.166,494.5934 371.294,494.5444 371.392,494.4464 C371.588,494.2504 371.588,493.9334 371.392,493.7374 L367.342,489.6874 L367.342,485.6664 L368.753,487.0794 L368.911,487.4614 C368.583,487.8064 368.468,488.3244 368.661,488.7924 C368.854,489.2594 369.306,489.5604 369.81,489.5604 C369.974,489.5604 370.133,489.5274 370.285,489.4654 C370.919,489.2024 371.22,488.4744 370.958,487.8414 C370.769,487.3864 370.314,487.1004 369.839,487.0814 L369.68,486.6964 L369.68,484.6944 L372.527,487.5404 L372.527,493.2674 C372.527,493.5444 372.751,493.7684 373.028,493.7684 C373.305,493.7684 373.53,493.5444 373.53,493.2674 L373.53,488.5434 L376.027,491.0414 C375.195,492.2154 375.298,493.8524 376.349,494.9044 C376.918,495.4724 377.673,495.7854 378.477,495.7854 C379.281,495.7854 380.037,495.4724 380.605,494.9044 C381.174,494.3354 381.487,493.5794 381.487,492.7764 C381.487,491.9714 381.174,491.2154 380.605,490.6474 C380.037,490.0784 379.281,489.7654 378.477,489.7654 C377.842,489.7654 377.238,489.9634 376.731,490.3264 L374.239,487.8334 L378.963,487.8334 C379.24,487.8334 379.464,487.6094 379.464,487.3324 C379.464,487.0554 379.24,486.8304 378.963,486.8304 L373.235,486.8304 L370.394,483.9884 L372.384,483.9884 L372.768,484.1484 C372.78,484.6244 373.065,485.0724 373.532,485.2664 C373.684,485.3294 373.844,485.3614 374.008,485.3614 C374.513,485.3614 374.964,485.0604 375.157,484.5934 C375.419,483.9604 375.117,483.2314 374.484,482.9694 C374.028,482.7814 373.504,482.9014 373.156,483.2224 L372.768,483.0614 L371.353,481.6464 L375.384,481.6464 L379.433,485.6964 C379.531,485.7944 379.659,485.8434 379.787,485.8434 C379.916,485.8434 380.044,485.7944 380.142,485.6964 C380.338,485.5004 380.338,485.1824 380.142,484.9874 L376.802,481.6464 L380.329,481.6464 C380.571,483.0664 381.806,484.1514 383.293,484.1514 C384.952,484.1514 386.303,482.8004 386.303,481.1414 C386.303,479.4814 384.952,478.1314 383.293,478.1314 L383.293,478.1314 Z M377.053,468.0894 C377.432,467.7104 377.935,467.5014 378.471,467.5014 C379.007,467.5014 379.511,467.7104 379.89,468.0894 C380.673,468.8714 380.672,470.1454 379.89,470.9274 C379.132,471.6854 377.811,471.6864 377.052,470.9274 C376.27,470.1454 376.27,468.8714 377.053,468.0894 L377.053,468.0894 Z M364.832,464.6924 C364.832,463.5854 365.732,462.6854 366.838,462.6854 C367.945,462.6854 368.845,463.5854 368.845,464.6924 C368.845,465.7984 367.945,466.6984 366.838,466.6984 C365.732,466.6984 364.832,465.7984 364.832,464.6924 L364.832,464.6924 Z M353.785,470.9334 C353.406,470.5544 353.197,470.0494 353.197,469.5144 C353.197,468.9774 353.406,468.4744 353.785,468.0954 C354.164,467.7164 354.668,467.5074 355.204,467.5074 C355.74,467.5074 356.244,467.7164 356.623,468.0954 C357.405,468.8774 357.405,470.1504 356.623,470.9334 C356.244,471.3124 355.74,471.5204 355.204,471.5204 C354.668,471.5204 354.164,471.3124 353.785,470.9334 L353.785,470.9334 Z M350.388,483.1554 C349.281,483.1554 348.381,482.2554 348.381,481.1484 C348.381,480.0424 349.281,479.1424 350.388,479.1424 C351.495,479.1424 352.395,480.0424 352.395,481.1484 C352.395,482.2554 351.495,483.1554 350.388,483.1554 L350.388,483.1554 Z M356.628,494.2004 C355.871,494.9574 354.549,494.9574 353.791,494.2004 C353.008,493.4184 353.008,492.1454 353.791,491.3624 C354.17,490.9834 354.674,490.7754 355.21,490.7754 C355.746,490.7754 356.249,490.9834 356.628,491.3624 C357.008,491.7414 357.216,492.2454 357.216,492.7814 C357.216,493.3174 357.008,493.8214 356.628,494.2004 L356.628,494.2004 Z M368.851,497.5974 C368.851,498.7044 367.952,499.6044 366.844,499.6044 C365.738,499.6044 364.838,498.7044 364.838,497.5974 C364.838,496.4904 365.738,495.5904 366.844,495.5904 C367.952,495.5904 368.851,496.4904 368.851,497.5974 L368.851,497.5974 Z M379.896,491.3564 C380.275,491.7364 380.484,492.2404 380.484,492.7764 C380.484,493.3114 380.275,493.8154 379.896,494.1944 C379.517,494.5744 379.013,494.7824 378.477,494.7824 C377.941,494.7824 377.437,494.5734 377.058,494.1944 C376.275,493.4124 376.275,492.1394 377.058,491.3564 C377.437,490.9774 377.941,490.7694 378.477,490.7694 C379.013,490.7694 379.517,490.9774 379.896,491.3564 L379.896,491.3564 Z M368.677,482.9854 L368.677,485.5834 L366.841,483.7444 L365.004,485.5834 L365.004,482.9854 L362.408,482.9854 L364.245,481.1484 L362.406,479.3124 L365.004,479.3124 L365.004,476.7144 L366.841,478.5534 L368.677,476.7144 L368.677,479.3124 L371.275,479.3124 L369.436,481.1484 L371.274,482.9854 L368.677,482.9854 Z M383.293,483.1474 C382.186,483.1474 381.286,482.2484 381.286,481.1414 C381.286,480.0344 382.186,479.1344 383.293,479.1344 C384.4,479.1344 385.3,480.0344 385.3,481.1414 C385.3,482.2484 384.4,483.1474 383.293,483.1474 L383.293,483.1474 Z" id="Fill-20" fill="#36A2D8"></path>
            <polyline id="Stroke-22" stroke="#2C8AC4" points="871.2793 146.833 917.2793 249.833 853.2793 256.833"></polyline>
            <polyline id="Stroke-24" stroke="#2C8AC4" points="692.2793 110.333 721.7793 186.333 802.2793 365.833 680.2793 461.833 504.2793 433.833 449.2793 586.833 532.4153 569.775"></polyline>
            <path d="M381.7793,471.333 L504.2793,433.833" id="Stroke-26" stroke="#2C8AC4"></path>
            <path d="M680.2793,461.833 L655.0513,408.438" id="Stroke-28" stroke="#2C8AC4"></path>
            <path d="M868.2793,567.833 L806.3793,497.777" id="Stroke-30" stroke="#2C8AC4"></path>
            <path d="M802.2793,369.333 L788.0973,455.728" id="Stroke-32" stroke="#2C8AC4"></path>
            <path d="M721.7793,186.333 L806.9123,247.566" id="Stroke-34" stroke="#2C8AC4"></path>
            <path d="M841.5101,256.3202 C840.5761,256.3202 839.7961,256.9642 839.5731,257.8292 L835.6981,257.8292 L839.3561,254.1712 L838.6471,253.4622 L834.2791,257.8292 L830.6811,257.8292 L835.8451,252.6662 L835.1361,251.9572 L829.3661,257.7262 L827.4761,256.8782 L828.3041,254.7022 L834.2441,248.7622 C834.5431,248.9392 834.8861,249.0472 835.2571,249.0472 C836.3641,249.0472 837.2641,248.1472 837.2641,247.0402 C837.2641,245.9332 836.3641,245.0332 835.2571,245.0332 C834.1501,245.0332 833.2501,245.9332 833.2501,247.0402 C833.2501,247.4112 833.3581,247.7542 833.5351,248.0532 L827.5871,254.0002 L825.4221,254.8252 L824.5721,252.9302 L830.3411,247.1612 L829.6311,246.4522 L824.4681,251.6162 L824.4681,248.0182 L828.8361,243.6502 L828.1261,242.9412 L824.4681,246.5992 L824.4681,242.7212 C825.3291,242.4962 825.9691,241.7182 825.9691,240.7872 C825.9691,239.6802 825.0691,238.7802 823.9621,238.7802 C822.8551,238.7802 821.9561,239.6802 821.9561,240.7872 C821.9561,241.7212 822.5991,242.5012 823.4641,242.7242 L823.4641,246.5992 L819.8061,242.9412 L819.0971,243.6502 L823.4641,248.0182 L823.4641,251.6162 L818.3011,246.4522 L817.5921,247.1612 L823.3651,252.9352 L822.5171,254.8252 L820.3521,254.0002 L814.4051,248.0532 C814.5811,247.7552 814.6901,247.4112 814.6901,247.0402 C814.6901,245.9332 813.7901,245.0332 812.6831,245.0332 C811.5761,245.0332 810.6761,245.9332 810.6761,247.0402 C810.6761,248.1472 811.5761,249.0472 812.6831,249.0472 C813.0541,249.0472 813.3971,248.9392 813.6951,248.7632 L819.6351,254.7022 L820.4641,256.8782 L818.5691,257.7292 L812.7971,251.9572 L812.0871,252.6662 L817.2511,257.8292 L813.6531,257.8292 L809.2851,253.4622 L808.5761,254.1712 L812.2341,257.8292 L808.3561,257.8292 C808.1311,256.9682 807.3531,256.3292 806.4221,256.3292 C805.3151,256.3292 804.4161,257.2282 804.4161,258.3352 C804.4161,259.4422 805.3151,260.3422 806.4221,260.3422 C807.3561,260.3422 808.1361,259.6982 808.3591,258.8332 L812.2341,258.8332 L808.5761,262.4912 L809.2851,263.2012 L813.6531,258.8332 L817.2511,258.8332 L812.0871,263.9962 L812.7971,264.7062 L818.5691,258.9332 L820.4641,259.7832 L819.6401,261.9482 L813.6951,267.8922 C813.3971,267.7152 813.0541,267.6082 812.6831,267.6082 C811.5761,267.6082 810.6761,268.5082 810.6761,269.6142 C810.6761,270.7212 811.5761,271.6212 812.6831,271.6212 C813.7901,271.6212 814.6901,270.7212 814.6901,269.6142 C814.6901,269.2432 814.5811,268.8992 814.4051,268.6012 L820.3411,262.6652 L822.5171,261.8372 L823.3651,263.7262 L817.5921,269.5002 L818.3011,270.2102 L823.4641,265.0462 L823.4641,268.6432 L819.0971,273.0112 L819.8061,273.7212 L823.4641,270.0632 L823.4641,273.9402 C822.6041,274.1662 821.9641,274.9442 821.9641,275.8742 C821.9641,276.9812 822.8641,277.8812 823.9701,277.8812 C825.0771,277.8812 825.9771,276.9812 825.9771,275.8742 C825.9771,274.9412 825.3331,274.1612 824.4681,273.9382 L824.4681,270.0632 L828.1261,273.7212 L828.8361,273.0112 L824.4681,268.6432 L824.4681,265.0462 L829.6311,270.2102 L830.3411,269.5002 L824.5721,263.7322 L825.4221,261.8372 L827.5981,262.6652 L833.5351,268.6012 C833.3581,268.9002 833.2501,269.2432 833.2501,269.6142 C833.2501,270.7212 834.1501,271.6212 835.2571,271.6212 C836.3641,271.6212 837.2641,270.7212 837.2641,269.6142 C837.2641,268.5082 836.3641,267.6082 835.2571,267.6082 C834.8861,267.6082 834.5431,267.7152 834.2441,267.8922 L828.3001,261.9482 L827.4761,259.7832 L829.3661,258.9362 L835.1361,264.7062 L835.8451,263.9962 L830.6811,258.8332 L834.2791,258.8332 L838.6471,263.2012 L839.3561,262.4912 L835.6981,258.8332 L839.5761,258.8332 C839.8021,259.6942 840.5791,260.3332 841.5101,260.3332 C842.6171,260.3332 843.5171,259.4332 843.5171,258.3272 C843.5171,257.2202 842.6171,256.3202 841.5101,256.3202 L841.5101,256.3202 Z M835.2571,246.0372 C835.8101,246.0372 836.2601,246.4872 836.2601,247.0402 C836.2601,247.5932 835.8101,248.0432 835.2571,248.0432 C834.7041,248.0432 834.2541,247.5932 834.2541,247.0402 C834.2541,246.4872 834.7041,246.0372 835.2571,246.0372 L835.2571,246.0372 Z M811.6801,247.0402 C811.6801,246.4872 812.1301,246.0372 812.6831,246.0372 C813.2361,246.0372 813.6861,246.4872 813.6861,247.0402 C813.6861,247.5932 813.2361,248.0432 812.6831,248.0432 C812.1301,248.0432 811.6801,247.5932 811.6801,247.0402 L811.6801,247.0402 Z M806.4221,259.3382 C805.8691,259.3382 805.4191,258.8882 805.4191,258.3352 C805.4191,257.7822 805.8691,257.3322 806.4221,257.3322 C806.9751,257.3322 807.4251,257.7822 807.4251,258.3352 C807.4251,258.8882 806.9751,259.3382 806.4221,259.3382 L806.4221,259.3382 Z M812.6831,270.6172 C812.1301,270.6172 811.6801,270.1672 811.6801,269.6142 C811.6801,269.0612 812.1301,268.6112 812.6831,268.6112 C813.2361,268.6112 813.6861,269.0612 813.6861,269.6142 C813.6861,270.1672 813.2361,270.6172 812.6831,270.6172 L812.6831,270.6172 Z M836.2601,269.6142 C836.2601,270.1672 835.8101,270.6172 835.2571,270.6172 C834.7041,270.6172 834.2541,270.1672 834.2541,269.6142 C834.2541,269.0612 834.7041,268.6112 835.2571,268.6112 C835.8101,268.6112 836.2601,269.0612 836.2601,269.6142 L836.2601,269.6142 Z M822.9591,240.7872 C822.9591,240.2342 823.4091,239.7842 823.9621,239.7842 C824.5151,239.7842 824.9651,240.2342 824.9651,240.7872 C824.9651,241.3402 824.5151,241.7902 823.9621,241.7902 C823.4091,241.7902 822.9591,241.3402 822.9591,240.7872 L822.9591,240.7872 Z M824.9731,275.8742 C824.9731,276.4282 824.5231,276.8782 823.9701,276.8782 C823.4171,276.8782 822.9671,276.4282 822.9671,275.8742 C822.9671,275.3212 823.4171,274.8712 823.9701,274.8712 C824.5231,274.8712 824.9731,275.3212 824.9731,275.8742 L824.9731,275.8742 Z M826.2011,259.2552 L827.0051,261.3662 L824.8941,260.5622 L823.9701,262.6232 L823.0461,260.5622 L820.9351,261.3662 L821.7391,259.2552 L819.6781,258.3312 L821.7391,257.4072 L820.9351,255.2962 L823.0461,256.1002 L823.9701,254.0392 L824.8941,256.1002 L827.0051,255.2962 L826.2011,257.4072 L828.2621,258.3312 L826.2011,259.2552 Z M841.5101,259.3302 C840.9571,259.3302 840.5071,258.8802 840.5071,258.3272 C840.5071,257.7732 840.9571,257.3232 841.5101,257.3232 C842.0631,257.3232 842.5131,257.7732 842.5131,258.3272 C842.5131,258.8802 842.0631,259.3302 841.5101,259.3302 L841.5101,259.3302 Z" id="Fill-36" fill="#36A2D8"></path>
            <path d="M725.7793,185.833 C725.7793,183.9 724.2123,182.333 722.2793,182.333 C720.3463,182.333 718.7793,183.9 718.7793,185.833 C718.7793,187.766 720.3463,189.333 722.2793,189.333 C724.2123,189.333 725.7793,187.766 725.7793,185.833" id="Fill-38" fill="#36A2D8"></path>
            <path d="M805.7793,365.833 C805.7793,363.9 804.2123,362.333 802.2793,362.333 C800.3463,362.333 798.7793,363.9 798.7793,365.833 C798.7793,367.766 800.3463,369.333 802.2793,369.333 C804.2123,369.333 805.7793,367.766 805.7793,365.833" id="Fill-40" fill="#36A2D8"></path>
            <path d="M683.7793,461.833 C683.7793,459.9 682.2123,458.333 680.2793,458.333 C678.3463,458.333 676.7793,459.9 676.7793,461.833 C676.7793,463.766 678.3463,465.333 680.2793,465.333 C682.2123,465.333 683.7793,463.766 683.7793,461.833" id="Fill-42" fill="#36A2D8"></path>
            <path d="M507.7793,433.833 C507.7793,431.9 506.2123,430.333 504.2793,430.333 C502.3463,430.333 500.7793,431.9 500.7793,433.833 C500.7793,435.766 502.3463,437.333 504.2793,437.333 C506.2123,437.333 507.7793,435.766 507.7793,433.833" id="Fill-44" fill="#36A2D8"></path>
            <path d="M452.7793,586.833 C452.7793,584.9 451.2123,583.333 449.2793,583.333 C447.3463,583.333 445.7793,584.9 445.7793,586.833 C445.7793,588.766 447.3463,590.333 449.2793,590.333 C451.2123,590.333 452.7793,588.766 452.7793,586.833" id="Fill-46" fill="#36A2D8"></path>
            <path d="M871.7793,567.833 C871.7793,565.9 870.2123,564.333 868.2793,564.333 C866.3463,564.333 864.7793,565.9 864.7793,567.833 C864.7793,569.766 866.3463,571.333 868.2793,571.333 C870.2123,571.333 871.7793,569.766 871.7793,567.833" id="Fill-48" fill="#36A2D8"></path>
            <g id="Group-52" transform="translate(913.000000, 246.333000)">
                <mask id="mask-4" fill="white">
                    <use xlink:href="#path-3"></use>
                </mask>
                <g id="Clip-51"></g>
                <path d="M7.7793,3.5 C7.7793,1.567 6.2123,0 4.2793,0 C2.3463,0 0.7793,1.567 0.7793,3.5 C0.7793,5.433 2.3463,7 4.2793,7 C6.2123,7 7.7793,5.433 7.7793,3.5" id="Fill-50" fill="#36A2D8" mask="url(#mask-4)"></path>
            </g>
            <mask id="mask-6" fill="white">
                <use xlink:href="#path-5"></use>
            </mask>
            <g id="Clip-54"></g>
            <polygon id="Stroke-53" stroke="#36A2D8" mask="url(#mask-6)" points="534.78 367.416 544.113 367.416 544.113 358.083 534.78 358.083"></polygon>
            <polygon id="Stroke-55" stroke="#36A2D8" mask="url(#mask-6)" points="41.613 561.499 50.946 561.499 50.946 552.166 41.613 552.166"></polygon>
            <polygon id="Stroke-56" stroke="#36A2D8" mask="url(#mask-6)" points="348.946 9.833 358.279 9.833 358.279 0.5 348.946 0.5"></polygon>
            <polygon id="Stroke-57" stroke="#36A2D8" mask="url(#mask-6)" points="610.113 504.083 619.446 504.083 619.446 494.75 610.113 494.75"></polygon>
            <polygon id="Stroke-58" stroke="#36A2D8" mask="url(#mask-6)" points="818.78 195.416 828.113 195.416 828.113 186.083 818.78 186.083"></polygon>
            <polygon id="Stroke-59" stroke="#36A2D8" mask="url(#mask-6)" points="581.946 55.499 591.279 55.499 591.279 46.166 581.946 46.166"></polygon>
            <path d="M692.2793,266.4997 L692.2793,266.4997 C694.8563,266.4997 696.9463,268.5887 696.9463,271.1667 C696.9463,273.7437 694.8563,275.8327 692.2793,275.8327 C689.7023,275.8327 687.6123,273.7437 687.6123,271.1667 C687.6123,268.5887 689.7023,266.4997 692.2793,266.4997 Z" id="Stroke-60" stroke="#36A2D8" mask="url(#mask-6)"></path>
            <path d="M861.9459,342.833 L861.9459,342.833 C864.5229,342.833 866.6129,344.922 866.6129,347.5 L866.6129,347.5 C866.6129,350.077 864.5229,352.166 861.9459,352.166 C859.3689,352.166 857.2789,350.077 857.2789,347.5 L857.2789,347.5 C857.2789,344.922 859.3689,342.833 861.9459,342.833 Z" id="Stroke-61" stroke="#36A2D8" mask="url(#mask-6)"></path>
            <path d="M738.2793,529.4997 L738.2793,529.4997 C740.8563,529.4997 742.9463,531.5887 742.9463,534.1667 L742.9463,534.1667 C742.9463,536.7437 740.8563,538.8327 738.2793,538.8327 C735.7023,538.8327 733.6123,536.7437 733.6123,534.1667 L733.6123,534.1667 C733.6123,531.5887 735.7023,529.4997 738.2793,529.4997 Z" id="Stroke-62" stroke="#36A2D8" mask="url(#mask-6)"></path>
            <path d="M429.8119,504.6679 L429.8119,504.6679 C431.0079,502.3849 433.8279,501.5029 436.1109,502.6989 L436.1109,502.6989 C438.3939,503.8949 439.2759,506.7149 438.0799,508.9979 L438.0799,508.9979 C436.8839,511.2809 434.0639,512.1629 431.7809,510.9669 L431.7809,510.9669 C429.4979,509.7709 428.6159,506.9509 429.8119,504.6679 Z" id="Stroke-63" stroke="#36A2D8" mask="url(#mask-6)"></path>
            <path d="M689.0112,6.5029 L689.0112,6.5029 C690.2072,4.2199 693.0272,3.3379 695.3102,4.5339 C697.5932,5.7299 698.4752,8.5499 697.2792,10.8329 C696.0832,13.1159 693.2632,13.9979 690.9802,12.8019 C688.6972,11.6059 687.8152,8.7859 689.0112,6.5029 Z" id="Stroke-64" stroke="#36A2D8" mask="url(#mask-6)"></path>
            <path d="M716.7793,356.833 L716.7793,365.833" id="Stroke-65" stroke="#36A2D8" mask="url(#mask-6)"></path>
            <path d="M721.2793,361.333 L712.2793,361.333" id="Stroke-66" stroke="#36A2D8" mask="url(#mask-6)"></path>
            <path d="M444.7793,92.833 L444.7793,101.833" id="Stroke-67" stroke="#36A2D8" mask="url(#mask-6)"></path>
            <path d="M449.2793,97.333 L440.2793,97.333" id="Stroke-68" stroke="#36A2D8" mask="url(#mask-6)"></path>
            <path d="M857.7793,442.833 L857.7793,451.833" id="Stroke-69" stroke="#36A2D8" mask="url(#mask-6)"></path>
            <path d="M862.2793,447.333 L853.2793,447.333" id="Stroke-70" stroke="#36A2D8" mask="url(#mask-6)"></path>
            <path d="M330.7793,560.833 L330.7793,569.833" id="Stroke-71" stroke="#36A2D8" mask="url(#mask-6)"></path>
            <path d="M335.2793,565.333 L326.2793,565.333" id="Stroke-72" stroke="#36A2D8" mask="url(#mask-6)"></path>
            <path d="M197.7793,454.833 L197.7793,463.833" id="Stroke-73" stroke="#36A2D8" mask="url(#mask-6)"></path>
            <path d="M202.2793,459.333 L193.2793,459.333" id="Stroke-74" stroke="#36A2D8" mask="url(#mask-6)"></path>
            <path d="M763.7793,143.833 L763.7793,152.833" id="Stroke-75" stroke="#36A2D8" mask="url(#mask-6)"></path>
            <path d="M768.2793,148.333 L759.2793,148.333" id="Stroke-76" stroke="#36A2D8" mask="url(#mask-6)"></path>
            <path d="M804.7793,13.833 L804.7793,22.833" id="Stroke-77" stroke="#36A2D8" mask="url(#mask-6)"></path>
            <path d="M809.2793,18.333 L800.2793,18.333" id="Stroke-78" stroke="#36A2D8" mask="url(#mask-6)"></path>
            <path d="M346.7793,492.333 L180.7793,526.833" id="Stroke-79" stroke="#2C8AC4" mask="url(#mask-6)"></path>
            <path d="M707.2793,179.833 L514.2793,54.833" id="Stroke-80" stroke="#2C8AC4" mask="url(#mask-6)"></path>
        </g>
    </g>
</svg>