<?xml version="1.0" encoding="UTF-8"?>
<svg width="1098px" height="503px" viewBox="0 0 1098 503" version="1.1" xmlns="http://www.w3.org/2000/svg" xmlns:xlink="http://www.w3.org/1999/xlink">
    <!-- Generator: Sketch 42 (36781) - http://www.bohemiancoding.com/sketch -->
    <title>Page 1</title>
    <desc>Created with Sketch.</desc>
    <defs>
        <polygon id="path-1" points="0 503 1097.418 503 1097.418 0 0 0"></polygon>
        <polygon id="path-3" points="0 503 1097.418 503 1097.418 0 0 0"></polygon>
        <polygon id="path-5" points="0 503 1097.418 503 1097.418 0 0 0"></polygon>
    </defs>
    <g id="Page-1" stroke="none" stroke-width="1" fill="none" fill-rule="evenodd">
        <g>
            <g id="Group-5" fill="#11568E">
                <path d="M217.418,0 L12,0 C5.4,0 0,5.4 0,12 L0,491 C0,497.6 5.4,503 12,503 L217.418,503 C224.018,503 229.418,497.6 229.418,491 L229.418,12 C229.418,5.4 224.018,0 217.418,0" id="Fill-1"></path>
                <path d="M1085.418,0 L880,0 C873.4,0 868,5.4 868,12 L868,491 C868,497.6 873.4,503 880,503 L1085.418,503 C1092.018,503 1097.418,497.6 1097.418,491 L1097.418,12 C1097.418,5.4 1092.018,0 1085.418,0" id="Fill-3"></path>
            </g>
            <text id="INSIGHTS" font-family="Roboto-Bold, Roboto" font-size="24" font-weight="bold" letter-spacing="0.088" fill="#FFFFFF">
                <tspan x="922.5645" y="43.0107">I</tspan>
                <tspan x="929.648594" y="43.0107" letter-spacing="0.1">NS</tspan>
                <tspan x="961.547812" y="43.0107">I</tspan>
                <tspan x="968.631906" y="43.0107" letter-spacing="0.1">G</tspan>
                <tspan x="985.079562" y="43.0107" letter-spacing="-0.2504">H</tspan>
                <tspan x="1001.44635" y="43.0107" letter-spacing="-0.0968">T</tspan>
                <tspan x="1016.00971" y="43.0107" letter-spacing="0.1">S</tspan>
            </text>
            <text id="Video" font-family="Roboto-Regular, Roboto" font-size="16" font-weight="normal" fill="#FFFFFF">
                <tspan x="119.583" y="108.9717">Video</tspan>
            </text>
            <text id="Campaign-Analytics" font-family="Roboto-Regular, Roboto" font-size="16" font-weight="normal" fill="#FFFFFF">
                <tspan x="913.247" y="178.9717">Campaign Analytics</tspan>
            </text>
            <path d="M92.8705,83.5992 L52.4625,83.5992 C49.7465,83.5992 47.5245,85.8212 47.5245,88.5372 L47.5245,125.4632 C47.5245,128.1792 49.7465,130.4012 52.4625,130.4012 L92.8705,130.4012 C95.5865,130.4012 97.8085,128.1792 97.8085,125.4632 L97.8085,88.5372 C97.8085,85.8212 95.5865,83.5992 92.8705,83.5992 Z" id="Stroke-6" stroke="#00E1FF" stroke-linecap="round"></path>
            <text id="Web" font-family="Roboto-Regular, Roboto" font-size="16" font-weight="normal" letter-spacing="-0.015" fill="#FFFFFF">
                <tspan x="119.583" y="182.9717">W</tspan>
                <tspan x="133.521125" y="182.9717" letter-spacing="0.2218">e</tspan>
                <tspan x="142.219488" y="182.9717">b</tspan>
            </text>
            <g id="Group-23">
                <path d="M93.8705,157.5992 L53.4625,157.5992 C50.7465,157.5992 48.5245,159.8212 48.5245,162.5372 L48.5245,199.4632 C48.5245,202.1792 50.7465,204.4012 53.4625,204.4012 L93.8705,204.4012 C96.5865,204.4012 98.8085,202.1792 98.8085,199.4632 L98.8085,162.5372 C98.8085,159.8212 96.5865,157.5992 93.8705,157.5992 Z" id="Stroke-8" stroke="#00E1FF" stroke-linecap="round"></path>
                <path d="M49,167.5573 L98,167.5573" id="Stroke-10" stroke="#00E1FF" stroke-linecap="round"></path>
                <path d="M55.3281,162.4636 C55.3281,161.8236 54.8091,161.3046 54.1691,161.3046 C53.5301,161.3046 53.0111,161.8236 53.0111,162.4636 C53.0111,163.1036 53.5301,163.6226 54.1691,163.6226 C54.8091,163.6226 55.3281,163.1036 55.3281,162.4636" id="Fill-12" fill="#00E1FF"></path>
                <path d="M59.9622,162.4636 C59.9622,161.8236 59.4432,161.3046 58.8032,161.3046 C58.1642,161.3046 57.6452,161.8236 57.6452,162.4636 C57.6452,163.1036 58.1642,163.6226 58.8032,163.6226 C59.4432,163.6226 59.9622,163.1036 59.9622,162.4636" id="Fill-14" fill="#00E1FF"></path>
                <path d="M64.5963,162.4636 C64.5963,161.8236 64.0773,161.3046 63.4373,161.3046 C62.7983,161.3046 62.2793,161.8236 62.2793,162.4636 C62.2793,163.1036 62.7983,163.6226 63.4373,163.6226 C64.0773,163.6226 64.5963,163.1036 64.5963,162.4636" id="Fill-16" fill="#00E1FF"></path>
                <mask id="mask-2" fill="white">
                    <use xlink:href="#path-1"></use>
                </mask>
                <g id="Clip-19"></g>
                <polygon id="Stroke-18" stroke="#00E1FF" stroke-linecap="round" mask="url(#mask-2)" points="54.47 183.574 92.916 183.574 92.916 172.92 54.47 172.92"></polygon>
                <path d="M92.9159,188.5948 L54.4699,188.5948" id="Stroke-20" stroke="#00E1FF" stroke-linecap="round" mask="url(#mask-2)"></path>
                <path d="M92.9159,193.6151 L54.4699,193.6151" id="Stroke-21" stroke="#00E1FF" stroke-linecap="round" mask="url(#mask-2)"></path>
                <path d="M74.8347,198.6354 L54.4697,198.6354" id="Stroke-22" stroke="#00E1FF" stroke-linecap="round" mask="url(#mask-2)"></path>
            </g>
            <text id="Email" font-family="Roboto-Regular, Roboto" font-size="16" font-weight="normal" fill="#FFFFFF">
                <tspan x="119.583" y="349.9717">Email</tspan>
            </text>
            <g id="Group-28" transform="translate(47.000000, 324.000000)" stroke="#00E1FF" stroke-linecap="round">
                <path d="M6.625,14.2798 L5.463,14.2798 C2.747,14.2798 0.525,16.5018 0.525,19.2178 L0.525,42.4628 C0.525,45.1788 2.747,47.4008 5.463,47.4008 L45.87,47.4008 C48.586,47.4008 50.809,45.1788 50.809,42.4628 L50.809,19.2178 C50.809,16.5018 48.586,14.2798 45.87,14.2798 L44.75,14.2798" id="Stroke-24"></path>
                <path d="M44.7642,19.25 L44.7642,2.403 C44.7642,1.411 43.9522,0.599 42.9602,0.599 L8.3732,0.599 C7.3812,0.599 6.5692,1.411 6.5692,2.403 L6.5692,18.75" id="Stroke-26"></path>
            </g>
            <text id="Social" font-family="Roboto-Regular, Roboto" font-size="16" font-weight="normal" fill="#FFFFFF">
                <tspan x="119.583" y="265.9717">Social</tspan>
            </text>
            <text id="Mobile" font-family="Roboto-Regular, Roboto" font-size="16" font-weight="normal" fill="#FFFFFF">
                <tspan x="119.583" y="427.4757">Mobile</tspan>
            </text>
            <g id="Group-107" transform="translate(47.000000, 89.000000)">
                <path d="M36.1667,10.8699 C36.1667,5.3239 31.6707,0.8279 26.1247,0.8279 C20.5787,0.8279 16.0837,5.3239 16.0837,10.8699 C16.0837,16.4159 20.5787,20.9119 26.1247,20.9119 C31.6707,20.9119 36.1667,16.4159 36.1667,10.8699 Z" id="Stroke-29" stroke="#00E1FF" stroke-linecap="round"></path>
                <polygon id="Stroke-31" stroke="#00E1FF" stroke-linecap="round" points="24.5 6.7351 24.5 15.5951 29.669 11.0171"></polygon>
                <path d="M6,34.5573 L45,34.5573" id="Stroke-33" stroke="#00E1FF" stroke-linecap="round"></path>
                <path d="M1,27.5573 L50,27.5573" id="Stroke-35" stroke="#00E1FF" stroke-linecap="round"></path>
                <path d="M19.1042,34.5886 C19.1042,33.6166 18.3162,32.8286 17.3442,32.8286 C16.3712,32.8286 15.5832,33.6166 15.5832,34.5886 C15.5832,35.5606 16.3712,36.3486 17.3442,36.3486 C18.3162,36.3486 19.1042,35.5606 19.1042,34.5886" id="Fill-37" fill="#00E1FF"></path>
                <path d="M0.4477,202.9074 C3.3107,203.0054 5.8697,202.3074 8.0747,200.6814 C7.1197,200.2584 6.0927,199.9174 5.1907,199.3714 C4.2447,198.7994 3.6277,197.8824 3.2427,196.6944 L5.3997,196.6944 C5.4147,196.6374 5.4297,196.5804 5.4447,196.5234 C4.2177,196.1894 3.1987,195.5384 2.4467,194.5394 C1.7077,193.5594 1.2517,192.4654 1.3207,191.2154 C2.0637,191.4224 2.7727,191.6194 3.4817,191.8174 C1.2147,189.0054 0.7497,186.7844 2.0867,184.4834 C5.0787,187.8914 8.7717,189.8844 13.3117,190.1794 C13.3117,189.6304 13.3027,189.1414 13.3137,188.6524 C13.3797,185.6204 16.2087,183.3824 18.7127,183.4654 C20.1067,183.5124 21.3347,183.8674 22.3647,184.7924 C22.7327,185.1234 23.0867,185.1714 23.5007,185.0174 C24.2237,184.7504 24.9397,184.4614 25.6577,184.1804 C25.8337,184.1124 26.0077,184.0424 26.2607,183.9424 C25.8457,185.1574 25.0727,185.9844 24.2497,186.8664 C25.1197,186.6344 25.9897,186.4024 26.8607,186.1714 C26.8937,186.2074 26.9267,186.2444 26.9607,186.2814 C26.2937,186.9764 25.6777,187.7344 24.9407,188.3444 C24.4667,188.7364 24.3107,189.1414 24.3047,189.7044 C24.2777,192.1854 23.7017,194.5454 22.5587,196.7394 C19.9527,201.7404 15.8417,204.6204 10.2097,205.1564 C6.9427,205.4674 3.8107,204.8684 0.9307,203.2064 C0.7667,203.1124 0.6087,203.0074 0.4477,202.9074 Z" id="Stroke-39" stroke="#00E1FF" stroke-linecap="round"></path>
                <path d="M47.1657,166.404 C47.9227,167.545 47.3077,169.375 45.9827,170.075 C45.0257,170.581 43.9757,170.653 42.9227,170.706 C41.6437,170.683 40.4587,170.395 39.5087,169.476 C38.2347,168.243 38.2767,166.528 39.6577,165.428 C41.1287,164.256 42.8497,163.878 44.6227,164.449 C45.6347,164.775 46.5507,165.477 47.1657,166.404 Z M42.3567,157.984 C41.1187,157.228 40.4887,156.045 40.1897,154.666 C40.0187,153.877 40.0317,153.09 40.2947,152.32 C40.8177,150.791 42.2437,150.256 43.5997,151.134 C45.1197,152.116 45.6887,153.625 45.8047,155.574 C45.7217,155.913 45.6527,156.468 45.4497,156.969 C44.9017,158.322 43.6017,158.745 42.3567,157.984 Z M50.9917,148.97 C50.8617,148.575 50.5307,148.57 50.1887,148.571 C47.8777,148.575 45.5667,148.568 43.2577,148.578 C42.8457,148.58 42.4287,148.611 42.0237,148.686 C40.3047,149.001 38.8387,149.787 37.7047,151.129 C35.0147,154.311 36.8007,159.166 40.9847,160.058 C41.3987,160.146 41.8217,160.191 42.1587,160.244 C42.2547,160.996 42.3427,161.685 42.4387,162.443 C42.2637,162.443 42.0397,162.427 41.8167,162.445 C39.7057,162.619 37.8047,163.303 36.3147,164.862 C33.9697,167.318 34.4837,170.294 37.4957,171.844 C37.7397,171.969 37.9937,172.081 38.2497,172.18 C39.9147,172.826 41.6507,173.057 43.4227,172.961 C45.1737,172.867 46.8297,172.431 48.2477,171.342 C49.7207,170.212 50.5017,168.751 50.4457,166.847 C50.3887,164.923 49.5527,163.463 48.0417,162.322 C47.4547,161.878 46.8957,161.383 46.3857,160.851 C45.8677,160.311 45.9107,159.855 46.4527,159.327 C46.7977,158.991 47.1897,158.704 47.5487,158.382 C49.1457,156.949 49.7947,155.183 49.2847,153.078 C49.1027,152.326 48.7397,151.617 48.5047,151.007 C48.9147,150.787 49.3707,150.559 49.8087,150.301 C50.0757,150.144 50.3127,149.939 50.5657,149.76 C50.8397,149.566 51.1217,149.372 50.9917,148.97 Z" id="Stroke-41" stroke="#00E1FF" stroke-linecap="round"></path>
                <polygon id="Stroke-43" stroke="#00E1FF" stroke-linecap="round" points="60.5 158.5573 60.5 161.5573 57.5 161.5573 57.5 164.5573 54.5 164.5573 54.5 161.5573 50.5 161.5573 50.5 158.5573 54.5 158.5573 54.5 154.5573 57.5 154.5573 57.5 158.5573"></polygon>
                <path d="M39.6887,183.5229 C38.4707,183.5709 37.7247,184.1069 37.4127,185.0959 C37.1277,185.9989 37.6037,187.1059 38.4577,187.5179 C39.1557,187.8559 39.8767,187.8809 40.5977,187.6219 C41.8307,187.1789 42.3477,185.7699 41.7067,184.6289 C41.2457,183.8059 40.4917,183.5329 39.6887,183.5229 Z M37.5727,189.4899 L37.5727,189.7429 C37.5727,193.6789 37.5737,197.6149 37.5677,201.5509 C37.5677,201.7539 37.6127,201.8259 37.8297,201.8239 C39.0367,201.8139 40.2447,201.8139 41.4527,201.8239 C41.6607,201.8249 41.7227,201.7699 41.7227,201.5569 C41.7167,197.6139 41.7177,193.6699 41.7177,189.7269 C41.7177,189.6499 41.7097,189.5729 41.7047,189.4899 L37.5727,189.4899 Z M44.0017,201.7959 C44.0417,201.8039 44.0697,201.8149 44.0967,201.8149 C45.3847,201.8159 46.6717,201.8149 47.9597,201.8199 C48.1267,201.8209 48.1247,201.7239 48.1247,201.6079 C48.1237,201.0109 48.1227,200.4149 48.1247,199.8179 C48.1287,198.0789 48.1157,196.3399 48.1467,194.6019 C48.1677,193.4029 49.1097,192.4869 50.3057,192.4289 C51.2487,192.3829 51.9247,192.8469 52.2417,193.7359 C52.4257,194.2529 52.4587,194.7879 52.4597,195.3259 C52.4627,197.4069 52.4627,199.4879 52.4577,201.5689 C52.4567,201.7489 52.4907,201.8249 52.6947,201.8229 C53.9237,201.8149 55.1537,201.8149 56.3827,201.8229 C56.5717,201.8239 56.6107,201.7579 56.6107,201.5839 C56.6057,199.3139 56.6127,197.0439 56.6037,194.7739 C56.6007,193.9209 56.5047,193.0769 56.2277,192.2609 C55.8757,191.2199 55.2787,190.3699 54.3177,189.8069 C53.3997,189.2679 52.3957,189.1289 51.3527,189.2099 C50.2997,189.2909 49.4037,189.7069 48.6897,190.4899 C48.5057,190.6909 48.3427,190.9099 48.1417,191.1569 C48.1347,191.0459 48.1267,190.9769 48.1267,190.9089 C48.1257,190.5159 48.1177,190.1229 48.1297,189.7309 C48.1357,189.5399 48.0917,189.4659 47.8797,189.4669 C46.6647,189.4779 45.4497,189.4719 44.2347,189.4729 C44.1577,189.4729 44.0807,189.4809 44.0017,189.4849 L44.0017,201.7959 Z M33.4237,204.5659 L33.4237,180.6379 C33.5557,180.1139 33.7717,179.6299 34.2467,179.3379 C34.5297,179.1629 34.8607,179.0669 35.1697,178.9349 L59.0097,178.9349 C59.3317,179.0749 59.6757,179.1779 59.9687,179.3629 C60.4247,179.6519 60.6277,180.1299 60.7567,180.6379 L60.7567,204.5659 C60.6547,204.8209 60.5887,205.0979 60.4447,205.3259 C60.0197,205.9989 59.3747,206.2699 58.5927,206.2699 C51.5427,206.2679 44.4927,206.2689 37.4427,206.2689 L35.4997,206.2689 C35.0037,206.2679 34.5597,206.1189 34.1647,205.8139 C33.7497,205.4939 33.5527,205.0519 33.4237,204.5659 Z" id="Stroke-45" stroke="#00E1FF" stroke-linecap="round"></path>
                <path d="M21.18,159.5573 L18.11,159.5573 C18.02,159.5573 17.92,159.4933 17.92,159.3433 C17.94,158.5233 17.93,157.6673 17.96,156.8573 C17.98,156.4073 18.27,156.0633 18.67,155.9833 C18.87,155.9433 19.08,155.9013 19.29,155.9013 C19.92,155.8813 20.595,155.8763 21.225,155.8863 C21.395,155.8863 21.5,155.8403 21.5,155.6603 L21.5,152.2903 L17.44,152.3183 C16.98,152.4183 16.52,152.3393 16.08,152.4793 C15.28,152.7293 14.68,153.1693 14.3,153.9193 C13.94,154.6093 13.79,155.3153 13.76,156.0653 C13.72,157.0943 13.73,158.2013 13.72,159.2313 C13.72,159.4813 13.72,159.5573 13.46,159.5573 L11.11,159.5573 C10.96,159.5573 10.9,159.4933 10.9,159.6533 C10.91,160.8233 10.91,162.1003 10.91,163.2603 C10.91,163.3203 10.91,163.5573 10.92,163.5573 L13.5,163.5573 L13.5,174.5573 L2.83,174.5573 C1.36,174.5573 0.5,173.0503 0.5,171.5803 L0.5,149.6703 C0.5,148.2003 1.36,147.5573 2.83,147.5573 L25.92,147.5573 C27.39,147.5573 28.5,148.2003 28.5,149.6703 L28.5,171.5803 C28.5,173.0503 27.39,174.5573 25.92,174.5573 L17.5,174.5573 L17.5,163.5573 L21,163.5573 L21.18,159.5573 Z" id="Stroke-47" stroke="#00E1FF" stroke-linecap="round"></path>
                <polyline id="Stroke-49" stroke="#00E1FF" stroke-linecap="round" points="0.5247 277.4627 25.9997 262.2497 50.8087 277.4627"></polyline>
                <path d="M2.6875,250.5625 L20.5625,265.1245" id="Stroke-51" stroke="#00E1FF" stroke-linecap="round"></path>
                <path d="M49.0625,250.8125 L31.0625,265.3745" id="Stroke-53" stroke="#00E1FF" stroke-linecap="round"></path>
                <path d="M11,242.5573 L39,242.5573" id="Stroke-55" stroke="#00E1FF" stroke-linecap="round"></path>
                <path d="M11,247.5573 L39,247.5573" id="Stroke-57" stroke="#00E1FF" stroke-linecap="round"></path>
                <path d="M11,252.5573 L39,252.5573" id="Stroke-59" stroke="#00E1FF" stroke-linecap="round"></path>
                <path d="M12,257.5573 L25,257.5573" id="Stroke-61" stroke="#00E1FF" stroke-linecap="round"></path>
                <path d="M39.423,309.6305 L10.58,309.6305 C8.286,309.6305 6.409,311.5075 6.409,313.8015 L6.409,361.2365 C6.409,363.5305 8.286,365.4075 10.58,365.4075 L39.423,365.4075 C41.717,365.4075 43.594,363.5305 43.594,361.2365 L43.594,313.8015 C43.594,311.5075 41.717,309.6305 39.423,309.6305 Z" id="Stroke-63" stroke="#00E1FF" stroke-linecap="round"></path>
                <path d="M37.4546,315.699 L12.0166,315.699 C11.8736,315.699 11.7556,315.817 11.7556,315.961 L11.7556,353.73 C11.7556,353.874 11.8736,353.992 12.0166,353.992 L37.4546,353.992 C37.5986,353.992 37.7166,353.874 37.7166,353.73 L37.7166,315.961 C37.7166,315.817 37.5986,315.699 37.4546,315.699 Z" id="Stroke-65" stroke="#00E1FF" stroke-linecap="round"></path>
                <path d="M26.1528,359.0731 C26.1528,358.2471 25.4828,357.5781 24.6578,357.5781 C23.8318,357.5781 23.1618,358.2471 23.1618,359.0731 C23.1618,359.8991 23.8318,360.5681 24.6578,360.5681 C25.4828,360.5681 26.1528,359.8991 26.1528,359.0731 Z" id="Stroke-67" stroke="#00E1FF" stroke-linecap="round"></path>
                <path d="M17,323.5573 L32,323.5573" id="Stroke-69" stroke="#00E1FF" stroke-linecap="round"></path>
                <path d="M17,330.5573 L32,330.5573" id="Stroke-71" stroke="#00E1FF" stroke-linecap="round"></path>
                <path d="M17,336.5573 L32,336.5573" id="Stroke-73" stroke="#00E1FF" stroke-linecap="round"></path>
                <path d="M17,342.5573 L32,342.5573" id="Stroke-75" stroke="#00E1FF" stroke-linecap="round"></path>
                <polyline id="Stroke-77" stroke="#00E1FF" points="119 21.5287 236 51.5427 332.25 137.5577 383 137.5577"></polyline>
                <path d="M239.5,51.5 C239.5,49.567 237.933,48 236,48 C234.067,48 232.5,49.567 232.5,51.5 C232.5,53.433 234.067,55 236,55 C237.933,55 239.5,53.433 239.5,51.5" id="Fill-79" fill="#00E1FF"></path>
                <path d="M335.5,137.5 C335.5,135.567 333.933,134 332,134 C330.067,134 328.5,135.567 328.5,137.5 C328.5,139.433 330.067,141 332,141 C333.933,141 335.5,139.433 335.5,137.5" id="Fill-81" fill="#00E1FF"></path>
                <polyline id="Stroke-83" stroke="#00E1FF" points="113 95.7787 210 97.0427 331.25 157.5577 382 157.5577"></polyline>
                <path d="M335.5,157.5 C335.5,155.567 333.933,154 332,154 C330.067,154 328.5,155.567 328.5,157.5 C328.5,159.433 330.067,161 332,161 C333.933,161 335.5,159.433 335.5,157.5" id="Fill-85" fill="#00E1FF"></path>
                <path d="M131,177.5573 L383,177.5573" id="Stroke-87" stroke="#00E1FF"></path>
                <path d="M216.5,97.5 C216.5,95.567 214.933,94 213,94 C211.067,94 209.5,95.567 209.5,97.5 C209.5,99.433 211.067,101 213,101 C214.933,101 216.5,99.433 216.5,97.5" id="Fill-89" fill="#00E1FF"></path>
                <polyline id="Stroke-91" stroke="#00E1FF" points="129.6667 334.724 235.9997 304.418 332.2497 218.557 382.9997 218.557"></polyline>
                <path d="M239.5,304 C239.5,305.933 237.933,307.5 236,307.5 C234.067,307.5 232.5,305.933 232.5,304 C232.5,302.067 234.067,300.5 236,300.5 C237.933,300.5 239.5,302.067 239.5,304" id="Fill-93" fill="#00E1FF"></path>
                <path d="M335.5,218 C335.5,219.933 333.933,221.5 332,221.5 C330.067,221.5 328.5,219.933 328.5,218 C328.5,216.067 330.067,214.5 332,214.5 C333.933,214.5 335.5,216.067 335.5,218" id="Fill-95" fill="#00E1FF"></path>
                <polyline id="Stroke-97" stroke="#00E1FF" points="119 260.0287 210 258.9177 331.25 198.5577 382 198.5577"></polyline>
                <path d="M335.5,198 C335.5,199.933 333.933,201.5 332,201.5 C330.067,201.5 328.5,199.933 328.5,198 C328.5,196.067 330.067,194.5 332,194.5 C333.933,194.5 335.5,196.067 335.5,198" id="Fill-99" fill="#00E1FF"></path>
                <path d="M216.5,258 C216.5,259.933 214.933,261.5 213,261.5 C211.067,261.5 209.5,259.933 209.5,258 C209.5,256.067 211.067,254.5 213,254.5 C214.933,254.5 216.5,256.067 216.5,258" id="Fill-101" fill="#00E1FF"></path>
                <path d="M216.5,177.5 C216.5,175.567 214.933,174 213,174 C211.067,174 209.5,175.567 209.5,177.5 C209.5,179.433 211.067,181 213,181 C214.933,181 216.5,179.433 216.5,177.5" id="Fill-103" fill="#00E1FF"></path>
                <path d="M335.5,177.5 C335.5,175.567 333.933,174 332,174 C330.067,174 328.5,175.567 328.5,177.5 C328.5,179.433 330.067,181 332,181 C333.933,181 335.5,179.433 335.5,177.5" id="Fill-105" fill="#00E1FF"></path>
            </g>
            <text id="COLLECT" font-family="Roboto-Bold, Roboto" font-size="24" font-weight="bold" letter-spacing="0.1" fill="#FFFFFF">
                <tspan x="58.1631" y="43.0107">CO</tspan>
                <tspan x="90.6365375" y="43.0107" letter-spacing="0.088">LLE</tspan>
                <tspan x="130.392725" y="43.0107" letter-spacing="-0.2312">C</tspan>
                <tspan x="145.524806" y="43.0107">T</tspan>
            </text>
            <g id="Group-141">
                <path d="M665,226.5573 L880,226.5573 L665,226.5573 Z" id="Stroke-108" stroke="#00E1FF"></path>
                <path d="M665,246.5573 L880,246.5573" id="Stroke-110" stroke="#00E1FF"></path>
                <path d="M665,266.5573 L880,266.5573" id="Stroke-112" stroke="#00E1FF"></path>
                <path d="M665,287.5573 L880,287.5573" id="Stroke-114" stroke="#00E1FF"></path>
                <path d="M665,307.5573 L880,307.5573" id="Stroke-116" stroke="#00E1FF"></path>
                <path d="M1025.0663,70.7976 L943.0663,70.7976 C940.7883,70.7976 938.9413,72.6446 938.9413,74.9226 L938.9413,134.5736 C938.9413,136.8516 940.7883,138.6986 943.0663,138.6986 L1025.0663,138.6986 C1027.3443,138.6986 1029.1913,136.8516 1029.1913,134.5736 L1029.1913,74.9226 C1029.1913,72.6446 1027.3443,70.7976 1025.0663,70.7976 Z" id="Stroke-118" stroke="#00E1FF"></path>
                <mask id="mask-4" fill="white">
                    <use xlink:href="#path-3"></use>
                </mask>
                <g id="Clip-121"></g>
                <polygon id="Stroke-120" stroke="#00E1FF" stroke-linecap="round" mask="url(#mask-4)" points="944.674 125.974 1023.458 125.974 1023.458 79.425 944.674 79.425"></polygon>
                <path d="M974.5,146.0573 L974.5,139.0573" id="Stroke-122" stroke="#00E1FF" mask="url(#mask-4)"></path>
                <path d="M990.5,146.0573 L990.5,139.0573" id="Stroke-123" stroke="#00E1FF" mask="url(#mask-4)"></path>
                <path d="M1000.3423,153.0094 L967.7903,153.0094 C966.5533,153.0094 965.5413,151.9974 965.5413,150.7604 L965.5413,149.0834 C965.5413,147.8464 966.5533,146.8344 967.7903,146.8344 L1000.3423,146.8344 C1001.5793,146.8344 1002.5913,147.8464 1002.5913,149.0834 L1002.5913,150.7604 C1002.5913,151.9974 1001.5793,153.0094 1000.3423,153.0094 Z" id="Stroke-124" stroke="#00E1FF" mask="url(#mask-4)"></path>
                <path d="M945,88.5573 L1023,88.5573" id="Stroke-125" stroke="#00E1FF" stroke-linecap="round" mask="url(#mask-4)"></path>
                <path d="M950,93.5573 L993,93.5573" id="Stroke-126" stroke="#00E1FF" stroke-linecap="round" mask="url(#mask-4)"></path>
                <path d="M950,100.5573 L993,100.5573" id="Stroke-127" stroke="#00E1FF" stroke-linecap="round" mask="url(#mask-4)"></path>
                <path d="M950,106.5573 L966,106.5573" id="Stroke-128" stroke="#00E1FF" stroke-linecap="round" mask="url(#mask-4)"></path>
                <path d="M970,106.5573 L973,106.5573" id="Stroke-129" stroke="#00E1FF" stroke-linecap="round" mask="url(#mask-4)"></path>
                <path d="M986.5933,131.7748 C986.5933,130.3368 985.4273,129.1698 983.9883,129.1698 C982.5503,129.1698 981.3843,130.3368 981.3843,131.7748 C981.3843,133.2128 982.5503,134.3798 983.9883,134.3798 C985.4273,134.3798 986.5933,133.2128 986.5933,131.7748 Z" id="Stroke-130" stroke="#00E1FF" stroke-linecap="round" mask="url(#mask-4)"></path>
                <path d="M950.2436,83.4513 C950.2436,82.9663 949.8506,82.5733 949.3656,82.5733 C948.8816,82.5733 948.4886,82.9663 948.4886,83.4513 C948.4886,83.9363 948.8816,84.3283 949.3656,84.3283 C949.8506,84.3283 950.2436,83.9363 950.2436,83.4513" id="Fill-131" fill="#00E1FF" mask="url(#mask-4)"></path>
                <path d="M954.8504,83.4513 C954.8504,82.9663 954.4574,82.5733 953.9724,82.5733 C953.4884,82.5733 953.0954,82.9663 953.0954,83.4513 C953.0954,83.9363 953.4884,84.3283 953.9724,84.3283 C954.4574,84.3283 954.8504,83.9363 954.8504,83.4513" id="Fill-132" fill="#00E1FF" mask="url(#mask-4)"></path>
                <path d="M959.4572,83.4513 C959.4572,82.9663 959.0642,82.5733 958.5802,82.5733 C958.0952,82.5733 957.7022,82.9663 957.7022,83.4513 C957.7022,83.9363 958.0952,84.3283 958.5802,84.3283 C959.0642,84.3283 959.4572,83.9363 959.4572,83.4513" id="Fill-133" fill="#00E1FF" mask="url(#mask-4)"></path>
                <path d="M984.3929,75.9706 C984.3929,75.4856 983.9999,75.0936 983.5149,75.0936 C983.0309,75.0936 982.6379,75.4856 982.6379,75.9706 C982.6379,76.4556 983.0309,76.8486 983.5149,76.8486 C983.9999,76.8486 984.3929,76.4556 984.3929,75.9706" id="Fill-134" fill="#00E1FF" mask="url(#mask-4)"></path>
                <polygon id="Stroke-135" stroke="#00E1FF" stroke-linecap="round" mask="url(#mask-4)" points="998.67 120.854 1018.249 120.854 1018.249 93.213 998.67 93.213"></polygon>
                <polygon id="Stroke-136" stroke="#00E1FF" stroke-linecap="round" mask="url(#mask-4)" points="949.805 120.196 957.867 120.196 957.867 112.134 949.805 112.134"></polygon>
                <polygon id="Stroke-137" stroke="#00E1FF" stroke-linecap="round" mask="url(#mask-4)" points="962.638 120.196 970.7 120.196 970.7 112.134 962.638 112.134"></polygon>
                <polygon id="Stroke-138" stroke="#00E1FF" stroke-linecap="round" mask="url(#mask-4)" points="975.471 120.196 983.533 120.196 983.533 112.134 975.471 112.134"></polygon>
                <path d="M1012.4612,104.5317 C1012.4612,102.3417 1010.6862,100.5667 1008.4962,100.5667 C1006.3062,100.5667 1004.5312,102.3417 1004.5312,104.5317 C1004.5312,106.7217 1006.3062,108.4967 1008.4962,108.4967 C1010.6862,108.4967 1012.4612,106.7217 1012.4612,104.5317 Z" id="Stroke-139" stroke="#00E1FF" stroke-linecap="round" mask="url(#mask-4)"></path>
                <path d="M1017.3326,120.6187 C1017.3326,115.6137 1013.2746,111.5557 1008.2696,111.5557 C1003.2636,111.5557 999.2066,115.6137 999.2066,120.6187" id="Stroke-140" stroke="#00E1FF" stroke-linecap="round" mask="url(#mask-4)"></path>
            </g>
            <text id="Content-Analytics" font-family="Roboto-Regular, Roboto" font-size="16" font-weight="normal" fill="#FFFFFF">
                <tspan x="921.4453" y="323.9717">Content Analytics</tspan>
            </text>
            <text id="Audience-Analytics" font-family="Roboto-Regular, Roboto" font-size="16" font-weight="normal" letter-spacing="-0.08" fill="#FFFFFF">
                <tspan x="916.3893" y="466.9797">A</tspan>
                <tspan x="926.660862" y="466.9797">udience Analytics</tspan>
            </text>
            <g id="Group-194">
                <path d="M1076.61,13.9023 L888.39,13.9023 C884.106,13.9023 880.602,17.4073 880.602,21.6903 L880.602,480.3093 C880.602,484.5933 884.106,488.0973 888.39,488.0973 L1076.61,488.0973 C1080.894,488.0973 1084.398,484.5933 1084.398,480.3093 L1084.398,21.6903 C1084.398,17.4073 1080.894,13.9023 1076.61,13.9023 Z" id="Stroke-142" stroke="#00E1FF"></path>
                <mask id="mask-6" fill="white">
                    <use xlink:href="#path-5"></use>
                </mask>
                <g id="Clip-145"></g>
                <polygon id="Stroke-144" stroke="#00E1FF" mask="url(#mask-6)" points="951.965 293.072 1011.295 293.072 1011.295 213.121 951.965 213.121"></polygon>
                <polyline id="Stroke-146" stroke="#00E1FF" mask="url(#mask-6)" points="960 299.5573 1016.5 299.5573 1016.5 220.0573"></polyline>
                <path d="M960,220.5573 L985,220.5573" id="Stroke-147" stroke="#00E1FF" mask="url(#mask-6)"></path>
                <path d="M959,253.5573 L1004,253.5573" id="Stroke-148" stroke="#00E1FF" stroke-linecap="round" mask="url(#mask-6)"></path>
                <path d="M966,260.5573 L983,260.5573" id="Stroke-149" stroke="#00E1FF" stroke-linecap="round" mask="url(#mask-6)"></path>
                <path d="M959,273.5573 L1004,273.5573" id="Stroke-150" stroke="#00E1FF" stroke-linecap="round" mask="url(#mask-6)"></path>
                <path d="M959,280.5573 L1004,280.5573" id="Stroke-151" stroke="#00E1FF" stroke-linecap="round" mask="url(#mask-6)"></path>
                <path d="M959,287.5573 L987,287.5573" id="Stroke-152" stroke="#00E1FF" stroke-linecap="round" mask="url(#mask-6)"></path>
                <polygon id="Stroke-153" stroke="#00E1FF" stroke-linecap="round" mask="url(#mask-6)" points="959.161 246.665 1003.131 246.665 1003.131 226.531 959.161 226.531"></polygon>
                <path d="M997.9235,246.3644 C997.9235,242.0184 994.4005,238.4964 990.0555,238.4964 C985.7095,238.4964 982.1865,242.0184 982.1865,246.3644" id="Stroke-154" stroke="#00E1FF" stroke-linecap="round" mask="url(#mask-6)"></path>
                <path d="M994.2772,234.0821 C994.2772,231.8031 992.4302,229.9561 990.1512,229.9561 C987.8722,229.9561 986.0252,231.8031 986.0252,234.0821 C986.0252,236.3611 987.8722,238.2081 990.1512,238.2081 C992.4302,238.2081 994.2772,236.3611 994.2772,234.0821 Z" id="Stroke-155" stroke="#00E1FF" stroke-linecap="round" mask="url(#mask-6)"></path>
                <path d="M963.5,241.0573 L963.5,230.0573" id="Stroke-156" stroke="#00E1FF" stroke-linecap="round" mask="url(#mask-6)"></path>
                <path d="M963.5,244.0573 L963.5,243.0573" id="Stroke-157" stroke="#00E1FF" stroke-linecap="round" mask="url(#mask-6)"></path>
                <path d="M965.5,241.0573 L965.5,235.0573" id="Stroke-158" stroke="#00E1FF" stroke-linecap="round" mask="url(#mask-6)"></path>
                <path d="M965.5,244.0573 L965.5,243.0573" id="Stroke-159" stroke="#00E1FF" stroke-linecap="round" mask="url(#mask-6)"></path>
                <path d="M968.5,241.0573 L968.5,234.0573" id="Stroke-160" stroke="#00E1FF" stroke-linecap="round" mask="url(#mask-6)"></path>
                <path d="M968.5,244.0573 L968.5,243.0573" id="Stroke-161" stroke="#00E1FF" stroke-linecap="round" mask="url(#mask-6)"></path>
                <path d="M970.5,241.0573 L970.5,237.0573" id="Stroke-162" stroke="#00E1FF" stroke-linecap="round" mask="url(#mask-6)"></path>
                <path d="M970.5,244.0573 L970.5,243.0573" id="Stroke-163" stroke="#00E1FF" stroke-linecap="round" mask="url(#mask-6)"></path>
                <path d="M973.5,241.0573 L973.5,233.0573" id="Stroke-164" stroke="#00E1FF" stroke-linecap="round" mask="url(#mask-6)"></path>
                <path d="M973.5,244.0573 L973.5,243.0573" id="Stroke-165" stroke="#00E1FF" stroke-linecap="round" mask="url(#mask-6)"></path>
                <polygon id="Stroke-166" stroke="#00E1FF" stroke-linecap="round" mask="url(#mask-6)" points="959.161 261.122 962.632 261.122 962.632 257.651 959.161 257.651"></polygon>
                <path d="M966,265.5573 L983,265.5573" id="Stroke-167" stroke="#00E1FF" stroke-linecap="round" mask="url(#mask-6)"></path>
                <polygon id="Stroke-168" stroke="#00E1FF" stroke-linecap="round" mask="url(#mask-6)" points="959.161 267.602 962.632 267.602 962.632 264.131 959.161 264.131"></polygon>
                <path d="M763.5,226.5 C763.5,224.567 761.933,223 760,223 C758.067,223 756.5,224.567 756.5,226.5 C756.5,228.433 758.067,230 760,230 C761.933,230 763.5,228.433 763.5,226.5" id="Fill-169" fill="#00E1FF" mask="url(#mask-6)"></path>
                <path d="M763.5,246.5 C763.5,244.567 761.933,243 760,243 C758.067,243 756.5,244.567 756.5,246.5 C756.5,248.433 758.067,250 760,250 C761.933,250 763.5,248.433 763.5,246.5" id="Fill-170" fill="#00E1FF" mask="url(#mask-6)"></path>
                <path d="M763.5,307 C763.5,308.933 761.933,310.5 760,310.5 C758.067,310.5 756.5,308.933 756.5,307 C756.5,305.067 758.067,303.5 760,303.5 C761.933,303.5 763.5,305.067 763.5,307" id="Fill-171" fill="#00E1FF" mask="url(#mask-6)"></path>
                <path d="M763.5,287 C763.5,288.933 761.933,290.5 760,290.5 C758.067,290.5 756.5,288.933 756.5,287 C756.5,285.067 758.067,283.5 760,283.5 C761.933,283.5 763.5,285.067 763.5,287" id="Fill-172" fill="#00E1FF" mask="url(#mask-6)"></path>
                <path d="M763.5,266.5 C763.5,264.567 761.933,263 760,263 C758.067,263 756.5,264.567 756.5,266.5 C756.5,268.433 758.067,270 760,270 C761.933,270 763.5,268.433 763.5,266.5" id="Fill-173" fill="#00E1FF" mask="url(#mask-6)"></path>
                <path d="M487.8131,249.6797 C487.7091,255.4977 492.6561,260.3767 498.4291,260.4317 C504.4151,260.4897 509.2961,255.4677 509.2951,249.6807 C509.2941,243.8867 504.4331,238.9567 498.5991,238.9287 C492.6831,238.9007 487.7041,243.8667 487.8131,249.6797 Z M530.7361,244.9097 L530.7361,254.5987 C530.7211,254.6517 530.7051,254.7047 530.6921,254.7587 C530.5351,255.4017 530.0631,255.8557 529.4591,255.9437 C529.1621,255.9867 528.8641,256.0267 528.5681,256.0717 C526.3801,256.4037 524.1921,256.7397 522.0031,257.0657 C521.8481,257.0887 521.7801,257.1477 521.7311,257.2877 C521.3141,258.4737 520.8401,259.6357 520.2511,260.7487 C520.1861,260.8717 520.1891,260.9537 520.2741,261.0637 C521.4281,262.5597 522.5761,264.0607 523.7301,265.5557 C524.0511,265.9717 524.3981,266.3677 524.7181,266.7837 C525.1841,267.3897 525.1911,268.0817 524.7561,268.6347 C522.9221,270.9647 520.8361,273.0507 518.6141,275.0027 C518.1571,275.4037 517.6251,275.7217 517.1151,276.0597 C516.8781,276.2167 516.5891,276.2647 516.3201,276.1747 C516.0221,276.0747 515.7181,275.9547 515.4601,275.7777 C515.0081,275.4667 514.5891,275.1057 514.1551,274.7667 C512.7221,273.6447 511.2871,272.5237 509.8551,271.3997 C509.7751,271.3377 509.7171,271.3107 509.6101,271.3667 C508.4651,271.9587 507.2811,272.4597 506.0521,272.8507 C505.9571,272.8807 505.9161,272.9257 505.9031,273.0307 C505.7601,274.1727 505.6361,275.3177 505.4561,276.4537 C505.2341,277.8537 504.9821,279.2507 504.7071,280.6417 C504.5391,281.4927 504.0281,281.8647 503.1611,281.8647 L493.9801,281.8647 C493.9051,281.8647 493.8301,281.8657 493.7551,281.8617 C493.1161,281.8297 492.5391,281.3747 492.4111,280.7947 C492.3791,280.6547 492.3691,280.5107 492.3471,280.3687 C491.9761,277.9397 491.6031,275.5117 491.2371,273.0817 C491.2171,272.9447 491.1701,272.8817 491.0351,272.8377 C489.8521,272.4497 488.7001,271.9847 487.5891,271.4207 C487.4841,271.3677 487.4101,271.3617 487.3061,271.4397 C485.3621,272.9237 483.4131,274.4007 481.4671,275.8837 C480.8641,276.3427 480.0461,276.3227 479.4901,275.8027 C478.2151,274.6107 476.9341,273.4237 475.6781,272.2117 C474.5931,271.1637 473.5501,270.0727 472.6361,268.8677 C472.0771,268.1307 472.0631,267.4357 472.6201,266.7007 C473.5041,265.5327 474.4071,264.3807 475.3001,263.2207 C475.8571,262.4977 476.4101,261.7717 476.9631,261.0497 C476.8951,260.9197 476.8371,260.8097 476.7801,260.6987 C476.1791,259.5427 475.6711,258.3487 475.3081,257.0957 C475.2591,256.9277 475.1721,256.8747 475.0141,256.8527 C474.1171,256.7267 473.2201,256.5937 472.3231,256.4617 C470.9131,256.2537 469.5031,256.0447 468.0931,255.8367 C467.9011,255.8077 467.7081,255.7867 467.5181,255.7477 C466.8361,255.6107 466.3621,255.0207 466.3611,254.2617 C466.3541,251.1577 466.3571,248.0527 466.3581,244.9487 C466.3581,244.8927 466.3621,244.8367 466.3671,244.7797 C466.4241,244.0937 466.9711,243.5097 467.6481,243.4097 C468.2671,243.3187 468.8851,243.2277 469.5031,243.1347 C471.3761,242.8517 473.2491,242.5657 475.1231,242.2887 C475.2551,242.2697 475.3011,242.2117 475.3361,242.1007 C475.7131,240.8787 476.2201,239.7107 476.8251,238.5847 C476.8981,238.4487 476.8931,238.3577 476.8001,238.2367 C475.6831,236.7847 474.5731,235.3257 473.4531,233.8747 C473.0941,233.4097 472.7051,232.9667 472.3441,232.5037 C471.9441,231.9897 471.8971,231.4397 472.2481,230.8817 C472.4071,230.6287 472.5841,230.3837 472.7751,230.1537 C474.3901,228.2007 476.1801,226.4167 478.0491,224.7107 C478.6121,224.1967 479.2021,223.7127 479.8761,223.3407 C480.3301,223.0907 480.7731,223.1067 481.2161,223.3467 C481.3691,223.4297 481.5151,223.5297 481.6531,223.6367 C483.5131,225.0757 485.3721,226.5177 487.2291,227.9617 C487.3211,228.0337 487.3881,228.0397 487.4931,227.9847 C488.6261,227.3947 489.8011,226.9047 491.0161,226.5117 C491.1271,226.4757 491.1741,226.4247 491.1901,226.3077 C491.4001,224.7147 491.5941,223.1187 491.8361,221.5307 C491.9841,220.5557 492.1901,219.5887 492.3991,218.6237 C492.5361,217.9967 492.9361,217.6047 493.5901,217.5137 C493.7321,217.4937 493.8771,217.4937 494.0211,217.4937 C497.0381,217.4927 500.0541,217.4927 503.0711,217.4927 C503.1521,217.4927 503.2341,217.4927 503.3151,217.4967 C504.0071,217.5287 504.5871,218.0107 504.6901,218.6617 C504.8421,219.6117 504.9801,220.5647 505.1251,221.5167 C505.3671,223.1117 505.6101,224.7057 505.8481,226.3017 C505.8671,226.4247 505.9211,226.4757 506.0361,226.5147 C507.2161,226.9077 508.3721,227.3657 509.4821,227.9307 C509.6041,227.9927 509.6821,227.9907 509.7941,227.9057 C511.7671,226.4087 513.7431,224.9147 515.7221,223.4237 C515.8251,223.3467 515.9451,223.2817 516.0671,223.2417 C516.7071,223.0317 517.2641,223.1957 517.7411,223.6507 C518.9911,224.8417 520.2501,226.0257 521.4811,227.2367 C522.5881,228.3247 523.6631,229.4447 524.5761,230.7077 C524.6731,230.8417 524.7561,230.9967 524.8001,231.1547 C524.9471,231.6757 524.8401,232.1577 524.5191,232.5917 C524.2631,232.9387 524.0081,233.2867 523.7441,233.6287 C522.5761,235.1447 521.4061,236.6607 520.2321,238.1727 C520.1461,238.2837 520.1461,238.3667 520.2091,238.4887 C520.8241,239.6857 521.3621,240.9157 521.7641,242.2017 C521.8231,242.3877 521.9191,242.4457 522.0991,242.4717 C523.1191,242.6187 524.1391,242.7777 525.1581,242.9327 C526.5301,243.1427 527.9001,243.3667 529.2751,243.5567 C529.9391,243.6487 530.4111,243.9477 530.6431,244.5867 C530.6811,244.6917 530.7051,244.8017 530.7361,244.9097 Z" id="Stroke-174" stroke="#00E1FF" stroke-width="2" mask="url(#mask-6)"></path>
                <path d="M561.494,285.2919 C561.337,294.1259 568.848,301.5339 577.612,301.6179 C586.702,301.7049 594.113,294.0789 594.111,285.2929 C594.109,276.4969 586.729,269.0109 577.871,268.9679 C568.889,268.9249 561.329,276.4659 561.494,285.2919 Z M626.665,278.0489 L626.665,292.7599 C626.642,292.8409 626.618,292.9219 626.598,293.0039 C626.36,293.9799 625.644,294.6689 624.726,294.8029 C624.275,294.8689 623.823,294.9289 623.373,294.9969 C620.051,295.5019 616.729,296.0119 613.406,296.5059 C613.17,296.5409 613.068,296.6299 612.993,296.8429 C612.36,298.6439 611.64,300.4089 610.746,302.0979 C610.647,302.2849 610.651,302.4089 610.781,302.5769 C612.533,304.8479 614.275,307.1259 616.028,309.3969 C616.516,310.0279 617.042,310.6299 617.529,311.2619 C618.236,312.1819 618.246,313.2319 617.585,314.0719 C614.802,317.6089 611.634,320.7779 608.259,323.7409 C607.566,324.3499 606.758,324.8319 605.985,325.3459 C605.625,325.5839 605.186,325.6569 604.778,325.5209 C604.324,325.3689 603.862,325.1859 603.472,324.9179 C602.784,324.4449 602.149,323.8979 601.49,323.3829 C599.314,321.6789 597.136,319.9759 594.961,318.2709 C594.84,318.1759 594.751,318.1359 594.589,318.2189 C592.851,319.1189 591.053,319.8789 589.187,320.4729 C589.043,320.5189 588.98,320.5869 588.96,320.7469 C588.744,322.4809 588.556,324.2189 588.282,325.9439 C587.945,328.0699 587.563,330.1909 587.145,332.3029 C586.89,333.5949 586.114,334.1599 584.798,334.1599 C580.151,334.1599 575.504,334.1599 570.857,334.1589 C570.743,334.1589 570.629,334.1609 570.515,334.1549 C569.546,334.1069 568.67,333.4149 568.475,332.5349 C568.427,332.3229 568.411,332.1039 568.378,331.8879 C567.815,328.1999 567.249,324.5129 566.693,320.8239 C566.662,320.6159 566.591,320.5199 566.387,320.4529 C564.59,319.8639 562.841,319.1589 561.155,318.3019 C560.995,318.2209 560.882,318.2119 560.725,318.3309 C557.773,320.5839 554.813,322.8269 551.859,325.0779 C550.944,325.7759 549.701,325.7439 548.857,324.9549 C546.921,323.1449 544.976,321.3439 543.069,319.5029 C541.422,317.9119 539.839,316.2549 538.451,314.4259 C537.601,313.3069 537.581,312.2519 538.427,311.1349 C539.768,309.3629 541.14,307.6139 542.496,305.8519 C543.341,304.7539 544.181,303.6509 545.02,302.5549 C544.917,302.3589 544.829,302.1909 544.742,302.0229 C543.829,300.2669 543.058,298.4539 542.507,296.5519 C542.433,296.2969 542.301,296.2159 542.062,296.1829 C540.699,295.9909 539.337,295.7889 537.975,295.5889 C535.834,295.2729 533.693,294.9569 531.552,294.6399 C531.261,294.5969 530.968,294.5639 530.68,294.5059 C529.644,294.2969 528.925,293.4019 528.922,292.2489 C528.911,287.5359 528.917,282.8219 528.918,278.1089 C528.918,278.0239 528.924,277.9379 528.931,277.8529 C529.018,276.8109 529.849,275.9239 530.877,275.7729 C531.816,275.6339 532.755,275.4959 533.694,275.3539 C536.538,274.9249 539.381,274.4909 542.226,274.0699 C542.426,274.0409 542.497,273.9529 542.549,273.7839 C543.122,271.9289 543.892,270.1549 544.81,268.4459 C544.922,268.2399 544.914,268.1009 544.773,267.9179 C543.076,265.7129 541.391,263.4979 539.691,261.2949 C539.146,260.5879 538.555,259.9169 538.006,259.2119 C537.4,258.4329 537.328,257.5979 537.861,256.7509 C538.103,256.3659 538.372,255.9949 538.662,255.6439 C541.113,252.6799 543.831,249.9719 546.669,247.3809 C547.524,246.5999 548.42,245.8659 549.444,245.3009 C550.133,244.9199 550.806,244.9449 551.478,245.3099 C551.71,245.4359 551.932,245.5879 552.141,245.7499 C554.966,247.9359 557.788,250.1239 560.607,252.3159 C560.748,252.4259 560.849,252.4349 561.008,252.3519 C562.728,251.4559 564.513,250.7129 566.358,250.1159 C566.526,250.0609 566.598,249.9839 566.621,249.8059 C566.94,247.3869 567.235,244.9639 567.602,242.5529 C567.827,241.0719 568.139,239.6029 568.457,238.1389 C568.665,237.1859 569.272,236.5919 570.266,236.4529 C570.481,236.4229 570.702,236.4229 570.92,236.4229 C575.5,236.4219 580.08,236.4219 584.661,236.4219 C584.784,236.4219 584.908,236.4219 585.031,236.4269 C586.082,236.4759 586.962,237.2079 587.119,238.1959 C587.35,239.6389 587.56,241.0859 587.779,242.5319 C588.146,244.9529 588.516,247.3739 588.878,249.7959 C588.906,249.9829 588.987,250.0609 589.162,250.1189 C590.955,250.7169 592.709,251.4119 594.395,252.2699 C594.58,252.3639 594.698,252.3619 594.869,252.2319 C597.864,249.9579 600.865,247.6909 603.869,245.4269 C604.025,245.3089 604.208,245.2109 604.394,245.1499 C605.365,244.8309 606.211,245.0809 606.935,245.7709 C608.833,247.5799 610.744,249.3769 612.613,251.2149 C614.293,252.8679 615.927,254.5679 617.312,256.4859 C617.459,256.6889 617.585,256.9249 617.653,257.1649 C617.876,257.9569 617.713,258.6879 617.227,259.3459 C616.837,259.8729 616.449,260.4019 616.049,260.9209 C614.275,263.2239 612.499,265.5239 610.717,267.8199 C610.586,267.9889 610.587,268.1139 610.683,268.2999 C611.616,270.1169 612.432,271.9859 613.043,273.9369 C613.132,274.2209 613.278,274.3089 613.551,274.3479 C615.101,274.5709 616.648,274.8119 618.197,275.0489 C620.28,275.3669 622.36,275.7069 624.447,275.9949 C625.456,276.1349 626.171,276.5879 626.524,277.5589 C626.582,277.7189 626.618,277.8859 626.665,278.0489 Z" id="Stroke-175" stroke="#00E1FF" stroke-width="2" mask="url(#mask-6)"></path>
                <polyline id="Stroke-176" stroke="#00E1FF" mask="url(#mask-6)" points="955.1514 398.6986 955.1514 376.4566 943.3604 376.4566 943.3604 425.6376"></polyline>
                <polyline id="Stroke-177" stroke="#00E1FF" mask="url(#mask-6)" points="971.9954 401.4881 971.9954 365.7971 960.2044 365.7971 960.2044 398.4591"></polyline>
                <polyline id="Stroke-178" stroke="#00E1FF" mask="url(#mask-6)" points="989.9623 394.7932 989.9623 351.9142 978.1713 351.9142 978.1713 394.7132"></polyline>
                <polyline id="Stroke-179" stroke="#00E1FF" mask="url(#mask-6)" points="995.0156 399.4159 995.0156 374.3009 1006.8066 374.3009 1006.8066 398.1049"></polyline>
                <polyline id="Stroke-180" stroke="#00E1FF" mask="url(#mask-6)" points="1023.6504 425.0795 1023.6504 365.4465 1011.8594 365.4465 1011.8594 398.3795"></polyline>
                <path d="M1026,431.5573 L1034,431.5573" id="Stroke-181" stroke="#00E1FF" mask="url(#mask-6)"></path>
                <path d="M934,431.5573 L941,431.5573" id="Stroke-182" stroke="#00E1FF" mask="url(#mask-6)"></path>
                <path d="M1006.2619,418.1952 C1003.0139,418.8342 1000.0939,420.3742 997.7949,422.5332" id="Stroke-183" stroke="#00E1FF" mask="url(#mask-6)"></path>
                <path d="M1026.6755,443.5063 L1026.6755,434.3713 C1026.6755,426.4623 1020.8535,419.8053 1013.1555,418.2243" id="Stroke-184" stroke="#00E1FF" mask="url(#mask-6)"></path>
                <path d="M1020.4155,408.4314 C1020.4155,402.7284 1015.6425,398.1044 1009.7545,398.1044 C1003.8665,398.1044 999.0935,402.7284 999.0935,408.4314 C999.0935,414.1344 1003.8665,418.7584 1009.7545,418.7584 C1015.6425,418.7584 1020.4155,414.1344 1020.4155,408.4314 Z" id="Stroke-185" stroke="#00E1FF" mask="url(#mask-6)"></path>
                <path d="M954.2355,418.204 C946.4885,419.748 940.6165,426.428 940.6165,434.372 L940.6165,443.506" id="Stroke-186" stroke="#00E1FF" mask="url(#mask-6)"></path>
                <path d="M969.6087,422.639 C967.3167,420.447 964.3907,418.876 961.1297,418.215" id="Stroke-187" stroke="#00E1FF" mask="url(#mask-6)"></path>
                <path d="M968.4337,408.4314 C968.4337,402.7284 963.6607,398.1044 957.7727,398.1044 C951.8847,398.1044 947.1117,402.7284 947.1117,408.4314 C947.1117,414.1344 951.8847,418.7584 957.7727,418.7584 C963.6607,418.7584 968.4337,414.1344 968.4337,408.4314 Z" id="Stroke-188" stroke="#00E1FF" mask="url(#mask-6)"></path>
                <path d="M979.8571,417.6376 C970.4341,419.4586 963.2761,427.5586 963.2761,437.2006 L963.2761,444.3666" id="Stroke-189" stroke="#00E1FF" mask="url(#mask-6)"></path>
                <path d="M1004.4598,444.367 L1004.4598,437.201 C1004.4598,427.661 997.4528,419.63 988.1778,417.698" id="Stroke-190" stroke="#00E1FF" mask="url(#mask-6)"></path>
                <path d="M996.9083,405.851 C996.9083,398.958 991.1393,393.371 984.0243,393.371 C976.9083,393.371 971.1393,398.958 971.1393,405.851 C971.1393,412.744 976.9083,418.331 984.0243,418.331 C991.1393,418.331 996.9083,412.744 996.9083,405.851 Z" id="Stroke-191" stroke="#00E1FF" mask="url(#mask-6)"></path>
                <polygon id="Stroke-192" stroke="#00E1FF" stroke-width="4" stroke-linecap="round" mask="url(#mask-6)" points="431 202.9998 547 135.9428 663 202.9998 663 337.1148 547 404.1718 431 337.1148"></polygon>
                <path d="M628.6667,53.724 L463.9997,53.724 C457.3997,53.724 451.9997,59.124 451.9997,65.724 L451.9997,103.724 C451.9997,110.324 457.3997,115.724 463.9997,115.724 L628.6667,115.724 C635.2667,115.724 640.6667,110.324 640.6667,103.724 L640.6667,65.724 C640.6667,59.124 635.2667,53.724 628.6667,53.724" id="Fill-193" fill="#11568E" mask="url(#mask-6)"></path>
            </g>
            <text id="ENRICH" font-family="Roboto-Bold, Roboto" font-size="30" font-weight="bold" letter-spacing="0.285" fill="#FFFFFF">
                <tspan x="494.1138" y="95.83005">E</tspan>
                <tspan x="511.2738" y="95.83005" letter-spacing="0.3">NR</tspan>
                <tspan x="552.200948" y="95.83005">I</tspan>
                <tspan x="561.231066" y="95.83005" letter-spacing="0.3">CH</tspan>
            </text>
        </g>
    </g>
</svg>