<?xml version="1.0" encoding="UTF-8"?>
<svg width="1101px" height="273px" viewBox="0 0 1101 273" version="1.1" xmlns="http://www.w3.org/2000/svg" xmlns:xlink="http://www.w3.org/1999/xlink">
    <!-- Generator: Sketch 42 (36781) - http://www.bohemiancoding.com/sketch -->
    <title>Page 1</title>
    <desc>Created with Sketch.</desc>
    <defs>
        <polygon id="path-1" points="0 272.9996 0 0.014 464.4788 0.014 464.4788 272.9996 2.10584588e-14 272.9996"></polygon>
    </defs>
    <g id="Page-1" stroke="none" stroke-width="1" fill="none" fill-rule="evenodd">
        <g transform="translate(0.000000, -1.000000)">
            <path d="M657.5139,133.8587 L428.5139,133.8587" id="Stroke-1" stroke="#00E1FF"></path>
            <path d="M576.2065,76.8592 L523.8215,192.8582" id="Stroke-2" stroke="#00E1FF"></path>
            <g id="Group-8" transform="translate(0.000000, 0.986000)">
                <path d="M554.0139,133.0602 C554.0139,131.1272 552.4469,129.5602 550.5139,129.5602 C548.5809,129.5602 547.0139,131.1272 547.0139,133.0602 C547.0139,134.9932 548.5809,136.5602 550.5139,136.5602 C552.4469,136.5602 554.0139,134.9932 554.0139,133.0602" id="Fill-3" fill="#00E1FF"></path>
                <g id="Group-7">
                    <mask id="mask-2" fill="white">
                        <use xlink:href="#path-1"></use>
                    </mask>
                    <g id="Clip-6"></g>
                    <path d="M452.4788,0.0136 L11.9998,0.0136 C5.3998,0.0136 -0.0002,5.4136 -0.0002,12.0136 L-0.0002,260.9996 C-0.0002,267.5996 5.3998,272.9996 11.9998,272.9996 L452.4788,272.9996 C459.0788,272.9996 464.4788,267.5996 464.4788,260.9996 L464.4788,12.0136 C464.4788,5.4136 459.0788,0.0136 452.4788,0.0136" id="Fill-5" fill="#11568E" mask="url(#mask-2)"></path>
                </g>
            </g>
            <text id="BATCH" font-family="Roboto-Bold, Roboto" font-size="24" font-weight="bold" letter-spacing="0.1" fill="#FFFFFF">
                <tspan x="185.0947" y="132.3908">B</tspan>
                <tspan x="200.511106" y="132.3908" letter-spacing="-1.3112">A</tspan>
                <tspan x="213.942094" y="132.3908" letter-spacing="-0.236">T</tspan>
                <tspan x="228.225625" y="132.3908">CH</tspan>
            </text>
            <g id="Group-45" transform="translate(45.000000, 58.986000)">
                <path d="M55.7639,49.9246 C55.7639,46.6426 47.2849,43.9826 36.8249,43.9826 C26.3649,43.9826 17.8859,46.6426 17.8859,49.9246 C17.8859,53.2066 26.3649,55.8666 36.8249,55.8666 C47.2849,55.8666 55.7639,53.2066 55.7639,49.9246 Z" id="Stroke-9" stroke="#00E1FF" stroke-linecap="round"></path>
                <path d="M18.0139,49.3727 L18.0139,79.3227 C18.0139,82.6047 26.6489,85.2647 37.0139,85.2647 C47.3789,85.2647 56.0139,82.6047 56.0139,79.3227 L56.0139,49.3727" id="Stroke-11" stroke="#00E1FF" stroke-linecap="round"></path>
                <path d="M17.886,73.068 C17.886,76.35 26.381,79.01 36.859,79.01 C47.338,79.01 55.833,76.35 55.833,73.068" id="Stroke-13" stroke="#00E1FF" stroke-linecap="round"></path>
                <path d="M17.886,65.562 C17.886,68.844 26.381,71.504 36.859,71.504 C47.338,71.504 55.833,68.844 55.833,65.562" id="Stroke-15" stroke="#00E1FF" stroke-linecap="round"></path>
                <path d="M17.886,58.0561 C17.886,61.3381 26.381,63.9981 36.859,63.9981 C47.338,63.9981 55.833,61.3381 55.833,58.0561" id="Stroke-17" stroke="#00E1FF" stroke-linecap="round"></path>
                <path d="M121.1805,64.4148 C121.1805,90.7938 138.8415,113.0478 162.9835,119.9978" id="Stroke-19" stroke="#00B7FF" stroke-width="4" stroke-linecap="round"></path>
                <path d="M179.0139,6.5815 C150.8109,6.5815 127.3229,26.7685 122.2129,53.4825" id="Stroke-21" stroke="#00B7FF" stroke-width="4" stroke-linecap="round"></path>
                <path d="M236.8472,64.4148 C236.8472,35.7198 215.9492,11.9058 188.5422,7.3628" id="Stroke-23" stroke="#00B7FF" stroke-width="4" stroke-linecap="round"></path>
                <path d="M172.368,121.8705 C174.549,122.1195 176.766,122.2485 179.014,122.2485 C207.822,122.2485 231.71,101.1855 236.119,73.6195" id="Stroke-25" stroke="#00B7FF" stroke-width="4" stroke-linecap="round"></path>
                <polyline id="Stroke-27" stroke="#00B7FF" stroke-width="4" stroke-linecap="round" points="173.946 12.345 179.697 6.594 173.946 0.843"></polyline>
                <polyline id="Stroke-29" stroke="#00B7FF" stroke-width="4" stroke-linecap="round" points="177.5233 116.0872 171.8343 121.7762 177.5233 127.4652"></polyline>
                <path d="M320.6114,83.1305 L320.6114,69.8025 C320.6114,69.1095 320.0294,68.5425 319.3184,68.5425 L314.7134,68.5425 C314.0024,68.5425 313.4204,69.1095 313.4204,69.8025 L313.4204,83.1305" id="Stroke-31" stroke="#00E1FF" stroke-linecap="round"></path>
                <path d="M333.6693,83.1305 L333.6693,63.1425 C333.6693,62.1675 333.0873,61.3695 332.3763,61.3695 L327.7713,61.3695 C327.0603,61.3695 326.4783,62.1675 326.4783,63.1425 L326.4783,83.1305" id="Stroke-33" stroke="#00E1FF" stroke-linecap="round"></path>
                <path d="M346.1595,83.1305 L346.1595,54.9805 C346.1595,53.6595 345.5775,52.5785 344.8665,52.5785 L340.2615,52.5785 C339.5505,52.5785 338.9685,53.6595 338.9685,54.9805 L338.9685,83.1305" id="Stroke-35" stroke="#00E1FF" stroke-linecap="round"></path>
                <path d="M309.5139,82.8727 L351.5139,82.8727" id="Stroke-37" stroke="#00E1FF" stroke-linecap="round"></path>
                <polyline id="Stroke-39" stroke="#00E1FF" stroke-linecap="round" points="316.5427 64.1982 326.4777 51.1642 330.9257 55.3072 342.1857 41.6672"></polyline>
                <path d="M66.01,117.9014 L9.018,117.9014 C4.157,117.9014 0.181,121.8784 0.181,126.7384 L0.181,140.6734 C0.181,145.5344 4.157,149.5104 9.018,149.5104 L66.01,149.5104 C70.87,149.5104 74.847,145.5344 74.847,140.6734 L74.847,126.7384 C74.847,121.8784 70.87,117.9014 66.01,117.9014" id="Fill-41" fill="#174B7A"></path>
                <path d="M220.9618,147.9014 L134.7328,147.9014 C129.8718,147.9014 125.8958,151.8784 125.8958,156.7384 L125.8958,170.6734 C125.8958,175.5344 129.8718,179.5104 134.7328,179.5104 L220.9618,179.5104 C225.8218,179.5104 229.7988,175.5344 229.7988,170.6734 L229.7988,156.7384 C229.7988,151.8784 225.8218,147.9014 220.9618,147.9014" id="Fill-43" fill="#174B7A"></path>
            </g>
            <text id="Data" font-family="Roboto-Regular, Roboto" font-size="18" font-weight="normal" fill="#FFFFFF">
                <tspan x="62.5967" y="197.64715">Data</tspan>
            </text>
            <path d="M404.718,176.8874 L347.726,176.8874 C342.865,176.8874 338.889,180.8644 338.889,185.7244 L338.889,199.6594 C338.889,204.5204 342.865,208.4964 347.726,208.4964 L404.718,208.4964 C409.579,208.4964 413.555,204.5204 413.555,199.6594 L413.555,185.7244 C413.555,180.8644 409.579,176.8874 404.718,176.8874" id="Fill-46" fill="#174B7A"></path>
            <text id="Insight" font-family="Roboto-Regular, Roboto" font-size="18" font-weight="normal" fill="#FFFFFF">
                <tspan x="349.0381" y="197.64715">Insight</tspan>
            </text>
            <text id="Process" font-family="Roboto-Regular, Roboto" font-size="18" font-weight="normal" fill="#FFFFFF">
                <tspan x="190.5121" y="227.65315">P</tspan>
                <tspan x="201.867569" y="227.65315" letter-spacing="-0.171">r</tspan>
                <tspan x="207.611608" y="227.65315">ocess</tspan>
            </text>
            <g id="Group-98" transform="translate(13.000000, 0.986000)">
                <path d="M323.5139,122.8727 L271.5139,122.8727 L323.5139,122.8727 Z" id="Stroke-48" stroke="#00E1FF"></path>
                <path d="M398.8443,122.3727 C398.8443,102.2147 382.5023,85.8727 362.3443,85.8727 C342.1863,85.8727 325.8443,102.2147 325.8443,122.3727 C325.8443,142.5307 342.1863,158.8727 362.3443,158.8727 C382.5023,158.8727 398.8443,142.5307 398.8443,122.3727 Z" id="Stroke-50" stroke="#00B7FF" stroke-width="4" stroke-linecap="round"></path>
                <path d="M106.1834,122.3727 C106.1834,102.2147 89.8414,85.8727 69.6834,85.8727 C49.5254,85.8727 33.1834,102.2147 33.1834,122.3727 C33.1834,142.5307 49.5254,158.8727 69.6834,158.8727 C89.8414,158.8727 106.1834,142.5307 106.1834,122.3727 Z" id="Stroke-52" stroke="#00B7FF" stroke-width="4" stroke-linecap="round"></path>
                <path d="M150.5139,122.8727 L108.5139,122.8727" id="Stroke-54" stroke="#00E1FF"></path>
                <polygon id="Stroke-56" stroke="#00E1FF" points="0.068 260.373 437.939 260.373 437.939 13.373 0.068 13.373"></polygon>
                <polyline id="Stroke-58" stroke="#00B7FF" stroke-width="4" stroke-linecap="round" points="263.195 117.5939 268.946 123.3449 274.697 117.5939"></polyline>
                <polyline id="Stroke-59" stroke="#00B7FF" stroke-width="4" stroke-linecap="round" points="158.697 124.5939 152.946 118.8429 147.195 124.5939"></polyline>
                <path d="M1075.9788,0.0136 L632.4998,0.0136 C625.8998,0.0136 620.4998,5.4136 620.4998,12.0136 L620.4998,260.9996 C620.4998,267.5996 625.8998,272.9996 632.4998,272.9996 L1075.9788,272.9996 C1082.5788,272.9996 1087.9788,267.5996 1087.9788,260.9996 L1087.9788,12.0136 C1087.9788,5.4136 1082.5788,0.0136 1075.9788,0.0136" id="Fill-60" fill="#11568E"></path>
                <polygon id="Stroke-61" stroke="#00E1FF" points="633.661 260.373 1074.344 260.373 1074.344 13.373 633.661 13.373"></polygon>
                <path d="M800.4728,110.9362 L803.3088,110.9362 C803.7698,110.9362 804.1738,110.8752 804.5218,110.7542 C804.8688,110.6332 805.1588,110.4612 805.3888,110.2392 C805.6188,110.0162 805.7928,109.7502 805.9098,109.4422 C806.0278,109.1332 806.0858,108.7882 806.0858,108.4052 C806.0858,107.6002 805.8578,106.9672 805.4008,106.5062 C804.9438,106.0452 804.2428,105.8152 803.2968,105.8152 L800.4728,105.8152 L800.4728,110.9362 Z M803.2738,113.7842 L800.4728,113.7842 L800.4728,120.0302 L796.9568,120.0302 L796.9568,102.9672 L803.2968,102.9672 C804.2818,102.9672 805.1638,103.0792 805.9458,103.3012 C806.7268,103.5242 807.3868,103.8522 807.9258,104.2862 C808.4648,104.7192 808.8788,105.2562 809.1678,105.8972 C809.4568,106.5382 809.6018,107.2802 809.6018,108.1232 C809.6018,108.7482 809.5318,109.3092 809.3908,109.8052 C809.2498,110.3012 809.0468,110.7432 808.7818,111.1292 C808.5158,111.5162 808.1958,111.8542 807.8208,112.1432 C807.4458,112.4322 807.0238,112.6822 806.5548,112.8932 L810.2458,119.8662 L810.2458,120.0302 L806.4728,120.0302 L803.2738,113.7842 Z" id="Fill-62" fill="#FFFFFF"></path>
                <polygon id="Fill-63" fill="#FFFFFF" points="824.9396 112.6354 818.1896 112.6354 818.1896 117.2054 826.1116 117.2054 826.1116 120.0304 814.6736 120.0304 814.6736 102.9674 826.0876 102.9674 826.0876 105.8154 818.1896 105.8154 818.1896 109.8814 824.9396 109.8814"></polygon>
                <path d="M834.9914,113.6667 L839.2574,113.6667 L837.1124,107.2797 L834.9914,113.6667 Z M840.2064,116.5147 L834.0424,116.5147 L832.8704,120.0297 L829.1324,120.0297 L835.4834,102.9677 L838.7414,102.9677 L845.1284,120.0297 L841.3894,120.0297 L840.2064,116.5147 Z" id="Fill-64" fill="#FFFFFF"></path>
                <polygon id="Fill-65" fill="#FFFFFF" points="852.6379 117.2057 860.1029 117.2057 860.1029 120.0297 849.1219 120.0297 849.1219 102.9677 852.6379 102.9677"></polygon>
                <polygon id="Fill-66" fill="#FFFFFF" points="810.5978 129.8151 805.3708 129.8151 805.3708 144.0301 801.8558 144.0301 801.8558 129.8151 796.6998 129.8151 796.6998 126.9671 810.5978 126.9671"></polygon>
                <polygon id="Fill-67" fill="#FFFFFF" points="815.224 144.03 818.74 144.03 818.74 126.968 815.224 126.968"></polygon>
                <polygon id="Fill-68" fill="#FFFFFF" points="828.9914 126.9675 833.3744 139.3425 837.7334 126.9675 842.3504 126.9675 842.3504 144.0295 838.8234 144.0295 838.8234 139.3655 839.1754 131.3155 834.5694 144.0295 832.1554 144.0295 827.5614 131.3265 827.9134 139.3655 827.9134 144.0295 824.3974 144.0295 824.3974 126.9675"></polygon>
                <polygon id="Fill-69" fill="#FFFFFF" points="858.0871 136.6354 851.3371 136.6354 851.3371 141.2054 859.2591 141.2054 859.2591 144.0304 847.8211 144.0304 847.8211 126.9674 859.2351 126.9674 859.2351 129.8154 851.3371 129.8154 851.3371 133.8814 858.0871 133.8814"></polygon>
                <path d="M715.7639,107.9246 C715.7639,104.6426 707.2849,101.9826 696.8249,101.9826 C686.3649,101.9826 677.8859,104.6426 677.8859,107.9246 C677.8859,111.2066 686.3649,113.8666 696.8249,113.8666 C707.2849,113.8666 715.7639,111.2066 715.7639,107.9246 Z" id="Stroke-70" stroke="#00E1FF" stroke-linecap="round"></path>
                <path d="M678.0139,107.3727 L678.0139,137.3227 C678.0139,140.6047 686.6489,143.2647 697.0139,143.2647 C707.3789,143.2647 716.0139,140.6047 716.0139,137.3227 L716.0139,107.3727" id="Stroke-71" stroke="#00E1FF" stroke-linecap="round"></path>
                <path d="M677.886,131.068 C677.886,134.35 686.381,137.01 696.859,137.01 C707.338,137.01 715.833,134.35 715.833,131.068" id="Stroke-72" stroke="#00E1FF" stroke-linecap="round"></path>
                <path d="M677.886,123.562 C677.886,126.844 686.381,129.504 696.859,129.504 C707.338,129.504 715.833,126.844 715.833,123.562" id="Stroke-73" stroke="#00E1FF" stroke-linecap="round"></path>
                <path d="M677.886,116.0561 C677.886,119.3381 686.381,121.9981 696.859,121.9981 C707.338,121.9981 715.833,119.3381 715.833,116.0561" id="Stroke-74" stroke="#00E1FF" stroke-linecap="round"></path>
                <path d="M798.5002,171.5526 C802.9592,174.3276 807.8232,176.5126 812.9832,177.9976" id="Stroke-75" stroke="#00B7FF" stroke-width="4" stroke-linecap="round"></path>
                <path d="M779.5906,152.4649 C782.5316,157.2919 786.1606,161.6549 790.3406,165.4169" id="Stroke-76" stroke="#00B7FF" stroke-width="4" stroke-linecap="round"></path>
                <path d="M771.2645,125.5571 C771.5905,131.6521 772.8605,137.4961 774.9305,142.9461" id="Stroke-77" stroke="#00B7FF" stroke-width="4" stroke-linecap="round"></path>
                <path d="M777.699,95.7155 C774.998,100.8965 773.059,106.5365 772.029,112.4895" id="Stroke-78" stroke="#00B7FF" stroke-width="4" stroke-linecap="round"></path>
                <path d="M797.8773,73.6702 C792.7803,76.9332 788.2283,80.9732 784.3903,85.6232" id="Stroke-79" stroke="#00B7FF" stroke-width="4" stroke-linecap="round"></path>
                <path d="M829.0139,64.5815 C821.4319,64.5815 814.1899,66.0405 807.5549,68.6935" id="Stroke-80" stroke="#00B7FF" stroke-width="4" stroke-linecap="round"></path>
                <polyline id="Stroke-81" stroke="#00B7FF" stroke-width="4" stroke-linecap="round" points="823.946 70.345 829.697 64.594 823.946 58.843"></polyline>
                <polyline id="Stroke-82" stroke="#00B7FF" stroke-width="4" stroke-linecap="round" points="798.0106 80.6083 800.1156 72.7523 792.2596 70.6473"></polyline>
                <polyline id="Stroke-83" stroke="#00B7FF" stroke-width="4" stroke-linecap="round" points="781.1815 100.5982 779.0765 92.7422 771.2205 94.8472"></polyline>
                <polyline id="Stroke-84" stroke="#00B7FF" stroke-width="4" stroke-linecap="round" points="786.4994 152.626 778.6434 150.521 776.5384 158.377"></polyline>
                <polyline id="Stroke-85" stroke="#00B7FF" stroke-width="4" stroke-linecap="round" points="805.4894 168.4551 797.6334 170.5601 799.7384 178.4161"></polyline>
                <polyline id="Stroke-86" stroke="#00B7FF" stroke-width="4" stroke-linecap="round" points="857.5172 166.1372 855.4122 173.9932 863.2682 176.0982"></polyline>
                <polyline id="Stroke-87" stroke="#00B7FF" stroke-width="4" stroke-linecap="round" points="875.3462 146.1472 877.4512 154.0032 885.3072 151.8982"></polyline>
                <polyline id="Stroke-88" stroke="#00B7FF" stroke-width="4" stroke-linecap="round" points="872.0283 93.1195 879.8843 95.2245 881.9893 87.3685"></polyline>
                <polyline id="Stroke-89" stroke="#00B7FF" stroke-width="4" stroke-linecap="round" points="851.0384 75.2904 858.8944 73.1854 856.7894 65.3294"></polyline>
                <polyline id="Stroke-90" stroke="#00B7FF" stroke-width="4" stroke-linecap="round" points="827.5233 174.0872 821.8343 179.7762 827.5233 185.4652"></polyline>
                <path d="M970.6115,180.1305 L970.6115,167.8025 C970.6115,167.1095 970.0295,166.5425 969.3185,166.5425 L964.7135,166.5425 C964.0025,166.5425 963.4205,167.1095 963.4205,167.8025 L963.4205,180.1305" id="Stroke-91" stroke="#00E1FF" stroke-linecap="round"></path>
                <path d="M983.6694,180.1305 L983.6694,161.1425 C983.6694,160.1675 983.0874,159.3695 982.3764,159.3695 L977.7714,159.3695 C977.0604,159.3695 976.4784,160.1675 976.4784,161.1425 L976.4784,180.1305" id="Stroke-92" stroke="#00E1FF" stroke-linecap="round"></path>
                <path d="M996.1595,180.1305 L996.1595,152.9805 C996.1595,151.6595 995.5775,150.5785 994.8665,150.5785 L990.2615,150.5785 C989.5505,150.5785 988.9685,151.6595 988.9685,152.9805 L988.9685,180.1305" id="Stroke-93" stroke="#00E1FF" stroke-linecap="round"></path>
                <path d="M959.5139,180.8727 L1001.5139,180.8727" id="Stroke-94" stroke="#00E1FF" stroke-linecap="round"></path>
                <polyline id="Stroke-95" stroke="#00E1FF" stroke-linecap="round" points="966.5427 162.1982 976.4777 149.1642 980.9257 153.3072 992.1857 139.6672"></polyline>
                <path d="M726.0099,175.9014 L669.0179,175.9014 C664.1569,175.9014 660.1809,179.8784 660.1809,184.7384 L660.1809,198.6734 C660.1809,203.5344 664.1569,207.5104 669.0179,207.5104 L726.0099,207.5104 C730.8699,207.5104 734.8469,203.5344 734.8469,198.6734 L734.8469,184.7384 C734.8469,179.8784 730.8699,175.9014 726.0099,175.9014" id="Fill-96" fill="#174B7A"></path>
                <path d="M868.9618,200.9014 L782.7328,200.9014 C777.8718,200.9014 773.8958,204.8784 773.8958,209.7384 L773.8958,223.6734 C773.8958,228.5344 777.8718,232.5104 782.7328,232.5104 L868.9618,232.5104 C873.8218,232.5104 877.7988,228.5344 877.7988,223.6734 L877.7988,209.7384 C877.7988,204.8784 873.8218,200.9014 868.9618,200.9014" id="Fill-97" fill="#174B7A"></path>
            </g>
            <text id="Data" font-family="Roboto-Regular, Roboto" font-size="18" font-weight="normal" fill="#FFFFFF">
                <tspan x="690.5972" y="197.64715">Data</tspan>
            </text>
            <text id="Process" font-family="Roboto-Regular, Roboto" font-size="18" font-weight="normal" fill="#FFFFFF">
                <tspan x="806.5172" y="223.64915">P</tspan>
                <tspan x="817.872669" y="223.64915" letter-spacing="-0.171">r</tspan>
                <tspan x="823.616708" y="223.64915">ocess</tspan>
            </text>
            <path d="M1025.7372,218.2207 L952.4222,218.2207 C947.5612,218.2207 943.5852,222.1977 943.5852,227.0577 L943.5852,240.9927 C943.5852,245.8537 947.5612,249.8297 952.4222,249.8297 L1025.7372,249.8297 C1030.5972,249.8297 1034.5742,245.8537 1034.5742,240.9927 L1034.5742,227.0577 C1034.5742,222.1977 1030.5972,218.2207 1025.7372,218.2207" id="Fill-99" fill="#174B7A"></path>
            <text id="Insights" font-family="Roboto-Regular, Roboto" font-size="18" font-weight="normal" fill="#FFFFFF">
                <tspan x="957.8477" y="238.98115">Insights</tspan>
            </text>
            <g id="Group-139" transform="translate(674.000000, 34.986000)">
                <path d="M282.5139,118.3727 L228.5139,88.8727" id="Stroke-101" stroke="#00E1FF"></path>
                <path d="M277.1805,51.0394 L227.1805,85.7064" id="Stroke-103" stroke="#00E1FF"></path>
                <path d="M355.8444,128.3727 C355.8444,108.2147 339.5024,91.8727 319.3444,91.8727 C299.1864,91.8727 282.8444,108.2147 282.8444,128.3727 C282.8444,148.5307 299.1864,164.8727 319.3444,164.8727 C339.5024,164.8727 355.8444,148.5307 355.8444,128.3727 Z" id="Stroke-105" stroke="#00B7FF" stroke-width="4" stroke-linecap="round"></path>
                <path d="M304.6115,55.1305 L304.6115,32.8025 C304.6115,32.1095 304.0295,31.5425 303.3185,31.5425 L298.7135,31.5425 C298.0025,31.5425 297.4205,32.1095 297.4205,32.8025 L297.4205,55.1305" id="Stroke-107" stroke="#00E1FF" stroke-linecap="round"></path>
                <path d="M317.6694,55.1305 L317.6694,36.1425 C317.6694,35.1675 317.0874,34.3695 316.3764,34.3695 L311.7714,34.3695 C311.0604,34.3695 310.4784,35.1675 310.4784,36.1425 L310.4784,55.1305" id="Stroke-109" stroke="#00E1FF" stroke-linecap="round"></path>
                <path d="M330.1595,55.1305 L330.1595,27.9805 C330.1595,26.6595 329.5775,25.5785 328.8665,25.5785 L324.2615,25.5785 C323.5505,25.5785 322.9685,26.6595 322.9685,27.9805 L322.9685,55.1305" id="Stroke-111" stroke="#00E1FF" stroke-linecap="round"></path>
                <path d="M293.5139,55.8727 L335.5139,55.8727" id="Stroke-113" stroke="#00E1FF" stroke-linecap="round"></path>
                <polyline id="Stroke-115" stroke="#00E1FF" stroke-linecap="round" points="300.5427 27.1982 308.4777 18.1642 314.9257 28.3072 326.1857 14.6672"></polyline>
                <path d="M350.8444,37.3727 C350.8444,17.2147 334.5024,0.8727 314.3444,0.8727 C294.1864,0.8727 277.8444,17.2147 277.8444,37.3727 C277.8444,57.5307 294.1864,73.8727 314.3444,73.8727 C334.5024,73.8727 350.8444,57.5307 350.8444,37.3727 Z" id="Stroke-117" stroke="#00B7FF" stroke-width="4" stroke-linecap="round"></path>
                <path d="M73.1834,88.3727 C73.1834,68.2147 56.8414,51.8727 36.6834,51.8727 C16.5254,51.8727 0.1834,68.2147 0.1834,88.3727 C0.1834,108.5307 16.5254,124.8727 36.6834,124.8727 C56.8414,124.8727 73.1834,108.5307 73.1834,88.3727 Z" id="Stroke-119" stroke="#00B7FF" stroke-width="4" stroke-linecap="round"></path>
                <path d="M107.5139,88.8727 L75.5139,88.8727" id="Stroke-121" stroke="#00E1FF"></path>
                <path d="M196.2108,37.909 C190.5128,34.721 184.2208,32.47 177.5418,31.363" id="Stroke-123" stroke="#00B7FF" stroke-width="4" stroke-linecap="round"></path>
                <path d="M217.5797,58.5999 C214.2997,53.1589 210.1487,48.3019 205.3207,44.2209" id="Stroke-125" stroke="#00B7FF" stroke-width="4" stroke-linecap="round"></path>
                <path d="M225.8472,88.4148 C225.8472,81.3288 224.5732,74.5408 222.2412,68.2668" id="Stroke-127" stroke="#00B7FF" stroke-width="4" stroke-linecap="round"></path>
                <path d="M217.8834,117.72 C221.3244,111.876 223.7684,105.375 224.9794,98.449" id="Stroke-129" stroke="#00B7FF" stroke-width="4" stroke-linecap="round"></path>
                <path d="M197.0845,138.4217 C202.4805,135.2777 207.3215,131.2857 211.4255,126.6277" id="Stroke-131" stroke="#00B7FF" stroke-width="4" stroke-linecap="round"></path>
                <path d="M161.368,145.8705 C163.549,146.1195 165.766,146.2485 168.014,146.2485 C174.699,146.2485 181.119,145.1135 187.093,143.0275" id="Stroke-133" stroke="#00B7FF" stroke-width="4" stroke-linecap="round"></path>
                <polyline id="Stroke-135" stroke="#00B7FF" stroke-width="4" stroke-linecap="round" points="220.2916 85.0549 226.0426 90.8059 231.7936 85.0549"></polyline>
                <polyline id="Stroke-137" stroke="#00B7FF" stroke-width="4" stroke-linecap="round" points="116.2361 93.6906 110.4851 87.9396 104.7341 93.6906"></polyline>
            </g>
        </g>
    </g>
</svg>