<?xml version="1.0" encoding="utf-8"?>
<!-- Generator: Adobe Illustrator 19.2.1, SVG Export Plug-In . SVG Version: 6.00 Build 0)  -->
<svg version="1.1" id="Layer_1" xmlns="http://www.w3.org/2000/svg" xmlns:xlink="http://www.w3.org/1999/xlink" x="0px" y="0px"
	 viewBox="0 0 1280 800" style="enable-background:new 0 0 1280 800;" xml:space="preserve">
<style type="text/css">
	.st0{fill:#06D8FF;}
	.st1{fill:#FF00FF;stroke:#FF00FF;stroke-width:4.1781;stroke-miterlimit:10;}
</style>
<g>
	<g>
		<g>
			<path class="st0" d="M545.5,316.9c12.2,17.3,24.4,34.7,36.6,52c19.4,27.5,38.8,55,58.1,82.5c4.5,6.4,9,12.8,13.5,19.2
				c2.3,3.2,7.7,0.1,5.4-3.1c-12.2-17.3-24.4-34.7-36.6-52c-19.4-27.5-38.8-55-58.1-82.5c-4.5-6.4-9-12.8-13.5-19.2
				C548.5,310.5,543.1,313.6,545.5,316.9L545.5,316.9z"/>
		</g>
	</g>
</g>
<g>
	<g>
		<g>
			<path class="st0" d="M368.2,318.1c25.6-16.4,51.2-32.8,76.8-49.3c40.5-26,81-52,121.5-77.9c9.4-6,18.7-12,28.1-18
				c3.4-2.2,0.2-7.5-3.1-5.4c-25.6,16.4-51.2,32.8-76.8,49.3c-40.5,26-81,52-121.5,77.9c-9.4,6-18.7,12-28.1,18
				C361.7,314.9,364.8,320.3,368.2,318.1L368.2,318.1z"/>
		</g>
	</g>
	<g>
		<g>
			<path class="st0" d="M362.4,313.4c15.2,16.8,30.4,33.5,45.5,50.3c24.3,26.9,48.6,53.7,73,80.6c5.6,6.1,11.1,12.3,16.7,18.4
				c2.7,3,7.1-1.4,4.4-4.4c-15.2-16.8-30.4-33.5-45.5-50.3c-24.3-26.9-48.6-53.7-73-80.6c-5.6-6.1-11.1-12.3-16.7-18.4
				C364.1,306.1,359.7,310.5,362.4,313.4L362.4,313.4z"/>
		</g>
	</g>
	<g>
		<g>
			<path class="st0" d="M746.6,171.9c17.1,15,34.3,29.9,51.4,44.9c27.3,23.9,54.7,47.8,82,71.7c6.3,5.5,12.6,11,18.9,16.6
				c3,2.6,7.4-1.8,4.4-4.4c-17.1-15-34.3-29.9-51.4-44.9c-27.3-23.9-54.7-47.8-82-71.7c-6.3-5.5-12.6-11-18.9-16.6
				C748,164.9,743.6,169.3,746.6,171.9L746.6,171.9z"/>
		</g>
	</g>
	<g>
		<g>
			<g>
				<g>
					<path class="st0" d="M590.5,167.4c35.8,26.7,71.6,53.4,107.4,80.1c5.1,3.8,10.3,7.7,15.4,11.5c3.2,2.4,6.3-3,3.1-5.4
						c-35.8-26.7-71.6-53.4-107.4-80.1c-5.1-3.8-10.3-7.7-15.4-11.5C590.5,159.6,587.4,165,590.5,167.4L590.5,167.4z"/>
				</g>
			</g>
		</g>
		<g>
			<g>
				<path class="st0" d="M590.3,166.7c10.1,23,20.3,46,30.4,69c16.2,36.7,32.3,73.4,48.5,110.1c3.7,8.5,7.5,16.9,11.2,25.4
					c1.6,3.7,7,0.5,5.4-3.1c-10.1-23-20.3-46-30.4-69c-16.2-36.7-32.3-73.4-48.5-110.1c-3.7-8.5-7.5-16.9-11.2-25.4
					C594.1,160,588.7,163.1,590.3,166.7L590.3,166.7z"/>
			</g>
		</g>
		<g>
			<g>
				<path class="st0" d="M590,171c7.1,32.7,14.3,65.4,21.4,98.1c11.4,52.1,22.8,104.2,34.1,156.3c2.6,12,5.2,23.9,7.8,35.9
					c0.9,3.9,6.8,2.3,6-1.7c-7.1-32.7-14.3-65.4-21.4-98.1c-11.4-52.1-22.8-104.2-34.1-156.3c-2.6-12-5.2-23.9-7.8-35.9
					C595.2,165.4,589.2,167.1,590,171L590,171z"/>
			</g>
		</g>
		<g>
			<g>
				<path class="st0" d="M501.2,462.5c8.2-9.6,16.5-19.2,24.7-28.8c19.9-23.2,39.8-46.3,59.8-69.5c24-27.9,48-55.8,72-83.8
					c20.8-24.3,41.7-48.5,62.5-72.8c10-11.7,21-23,30.3-35.2c0.1-0.2,0.3-0.3,0.4-0.5c2.6-3-1.8-7.4-4.4-4.4
					c-8.2,9.6-16.5,19.2-24.7,28.8c-19.9,23.2-39.8,46.3-59.8,69.5c-24,27.9-48,55.8-72,83.8c-20.8,24.3-41.7,48.5-62.5,72.8
					c-10,11.7-21,23-30.3,35.2c-0.1,0.2-0.3,0.3-0.4,0.5C494.2,461.1,498.6,465.5,501.2,462.5L501.2,462.5z"/>
			</g>
		</g>
		<g>
			<g>
				<path class="st0" d="M547.6,313.8c22.9-16,45.8-31.9,68.7-47.9c36.3-25.3,72.7-50.7,109-76c8.4-5.8,16.7-11.6,25.1-17.5
					c3.3-2.3,0.2-7.7-3.1-5.4c-22.9,16-45.8,31.9-68.7,47.9c-36.3,25.3-72.7,50.7-109,76c-8.4,5.8-16.7,11.6-25.1,17.5
					C541.2,310.7,544.3,316,547.6,313.8L547.6,313.8z"/>
			</g>
		</g>
		<g>
			<g>
				<path class="st0" d="M546.6,314.2c19.1-5.6,38.2-11.3,57.3-16.9c30.3-8.9,60.5-17.9,90.8-26.8c7-2.1,14.1-4.1,21.1-6.2
					c3.8-1.1,2.2-7.1-1.7-6c-19.1,5.6-38.2,11.3-57.3,16.9c-30.3,8.9-60.5,17.9-90.8,26.8c-7,2.1-14.1,4.1-21.1,6.2
					C541.1,309.4,542.7,315.4,546.6,314.2L546.6,314.2z"/>
			</g>
		</g>
		<g>
			<g>
				<path class="st0" d="M501.9,462.7c24.3-22.5,48.6-45,72.9-67.5c38.6-35.7,77.2-71.4,115.7-107.1c8.8-8.2,17.7-16.4,26.5-24.5
					c2.9-2.7-1.5-7.1-4.4-4.4c-24.3,22.5-48.6,45-72.9,67.5C601.2,362.3,562.6,398,524,433.7c-8.8,8.2-17.7,16.4-26.5,24.5
					C494.6,461,499,465.4,501.9,462.7L501.9,462.7z"/>
			</g>
		</g>
		<g>
			<g>
				<path class="st0" d="M501.3,465.3c20.5-10.4,41-20.9,61.5-31.3c32.7-16.7,65.4-33.4,98.1-50c7.6-3.9,15.2-7.7,22.7-11.6
					c3.6-1.8,0.4-7.2-3.1-5.4c-20.5,10.4-41,20.9-61.5,31.3c-32.7,16.7-65.4,33.4-98.1,50c-7.6,3.9-15.2,7.7-22.7,11.6
					C494.6,461.8,497.7,467.1,501.3,465.3L501.3,465.3z"/>
			</g>
		</g>
		<g>
			<g>
				<path class="st0" d="M714.1,264.3c21,4.7,42,9.4,62.9,14c33.4,7.5,66.9,14.9,100.3,22.4c7.7,1.7,15.3,3.4,23,5.1
					c3.9,0.9,5.6-5.1,1.7-6c-21-4.7-42-9.4-62.9-14c-33.4-7.5-66.9-14.9-100.3-22.4c-7.7-1.7-15.3-3.4-23-5.1
					C711.8,257.5,710.2,263.5,714.1,264.3L714.1,264.3z"/>
			</g>
		</g>
		<g>
			<g>
				<path class="st0" d="M682.9,372.6c24.6-7.5,49.2-15,73.8-22.5c39.4-12,78.8-24,118.2-36c9-2.7,18-5.5,27-8.2
					c3.8-1.2,2.2-7.2-1.7-6c-24.6,7.5-49.2,15-73.8,22.5c-39.4,12-78.8,24-118.2,36c-9,2.7-18,5.5-27,8.2
					C677.5,367.8,679.1,373.8,682.9,372.6L682.9,372.6z"/>
			</g>
		</g>
		<g>
			<g>
				<path class="st0" d="M658,463.2c27.7-17.8,55.4-35.7,83.1-53.5c43.8-28.2,87.6-56.4,131.4-84.6c10.1-6.5,20.2-13,30.2-19.5
					c3.4-2.2,0.2-7.5-3.1-5.4c-27.7,17.8-55.4,35.7-83.1,53.5c-43.8,28.2-87.6,56.4-131.4,84.6c-10.1,6.5-20.2,13-30.2,19.5
					C651.5,459.9,654.6,465.3,658,463.2L658,463.2z"/>
			</g>
		</g>
		<g>
			<g>
				<g>
					<path d="M402.2,159.9c-11.4,34-22.7,67.9-34.1,101.9c-18.3,54.6-36.5,109.3-54.8,163.9c-3.1,9.3-6.2,18.6-9.3,27.9
						c-2.6,7.7-4.8,17,1.6,23.6c-1-3.7-2-7.5-3-11.2c0,0,0,0.1,0,0.1c-1.9,5.9,2.2,12.6,8.1,14.2c6.2,1.7,12.3-2.1,14.2-8.1
						c0,0,0-0.1,0-0.1c-2.7,2.7-5.4,5.4-8.1,8.1c7.7-1.4,11.5-10.3,13.5-16.8c2.4-7.8,4.8-15.5,7.2-23.3
						c7.6-24.4,15.1-48.9,22.7-73.3c16.9-54.6,33.8-109.3,50.7-163.9c3.8-12.4,7.7-24.8,11.5-37.3
						C426.6,152.5,406.4,147.1,402.2,159.9L402.2,159.9z"/>
				</g>
			</g>
			<g>
				<g>
					<path d="M403.6,163c13.3,34,26.2,68.2,37.8,102.7c3.4,10,6.7,20.1,9.2,30.4c2.2,8.8,13.6,11.4,19.9,5.3
						c15.3-14.9,30.7-29.9,46-44.8c24.5-23.8,48.9-47.7,73.4-71.5c5.6-5.5,11.3-11,16.9-16.5c-7.6-4.4-15.2-8.9-22.9-13.3
						c-11.8,35-23.5,70.1-35.2,105.1c-18.6,55.9-37.2,111.7-55.8,167.6c-3.1,9.3-6.7,18.6-9.2,28c-0.7,2.6-1.4,5.2-2.1,7.9
						c-0.2,0.7-0.4,1.3-0.5,2c-1.3,6.1,0,4.4,0,0.3c0,0.1-0.1,0.2-0.1,0.3c0,0.1,0,0.1-0.1,0.2c-2.4,7.4,2.8,15.8,10.1,17.8
						c7.9,2.2,15.4-2.7,17.8-10.1c0.1-0.2,0.1-0.4,0.2-0.5c-1.2,2.1-2.5,4.3-3.7,6.4c3.8-4.2,6-11.8,8-17.2c3-8,5.3-16.2,7.9-24.3
						c8.1-25,16.1-50,24.2-75c17.6-54.6,35.5-109.1,52.9-163.8c3.9-12.4,7.9-24.8,11.8-37.2c4.2-13.2-13.5-22.8-22.9-13.3
						c-15,15.2-30.1,30.4-45.1,45.7c-24,24.3-48,48.6-72,72.8c-5.5,5.6-11.1,11.2-16.6,16.8c6.6,1.8,13.3,3.5,19.9,5.3
						c-5.4-20.3-13.3-40-20.7-59.7c-7.7-20.2-15.7-40.2-23.8-60.2c-1.7-4.2-3.4-8.4-5.1-12.5c-2.2-5.3-7-9-13-7.4
						C405.9,151.4,401.5,157.7,403.6,163L403.6,163z"/>
				</g>
			</g>
		</g>
		<g>
			<g>
				<g>
					<path d="M738.7,157.2c-11.8,34.6-23.8,69.2-35.5,103.8c-18.6,55.2-37.8,110.3-55.7,165.8c-4.1,12.7-8.2,25.5-12.3,38.2
						c-3.1,9.5,5.2,19.7,14.9,19.6c20.8-0.3,41.7-0.6,62.5-0.8c33.8-0.4,67.6-0.8,101.4-1.1c11.1-0.1,31.4,2.9,37.8-9.1
						c-4.1,2.4-8.2,4.7-12.3,7.1c0.1,0,0.2,0,0.3,0c7.7-0.1,14.3-6.5,14.3-14.3c0-7.7-6.5-14.4-14.3-14.3c-0.1,0-0.2,0-0.3,0
						c4.1,2.4,8.2,4.7,12.3,7.1c-6.4-11.1-22.5-8.7-33-8.5c-15.1,0.3-30.2,0.6-45.3,0.9c-33.5,0.6-66.9,1.4-100.4,1.9
						c-7.7,0.1-15.4,0.2-23,0.3c5,6.5,9.9,13.1,14.9,19.6c11.2-34.8,22.1-69.7,32.7-104.6c17-55.7,34.1-111.3,50.8-167.1
						c3.8-12.8,7.7-25.6,11.5-38.4c1.7-5.8-2.1-12.2-7.8-13.7C746.3,147.8,740.6,151.5,738.7,157.2L738.7,157.2z"/>
				</g>
			</g>
			<g>
				<g>
					<path d="M753.8,172.3c19.9,0.2,39.7,0.4,59.6,0.6c31.5,0.3,63,0.7,94.5,1c10.6,0.1,27.1,2.6,33.2-8.5
						c-3.8,2.2-7.6,4.3-11.3,6.5c0,0,0,0,0.1,0c16.9-0.1,16.9-26.4,0-26.2c0,0,0,0-0.1,0c3.8,2.2,7.6,4.3,11.3,6.5
						c-5.7-9.9-18.9-8.5-28.6-8.3c-14.1,0.4-28.2,0.7-42.2,1.1c-31.5,0.8-63,1.6-94.5,2.4c-7.3,0.2-14.6,0.4-22,0.6
						C738.2,148.5,738.2,172.2,753.8,172.3L753.8,172.3z"/>
				</g>
			</g>
			<g>
				<g>
					<path d="M777.1,314.9c34.8,0.3,69.6,0.7,104.5,1c5,0,10.1,0.1,15.1,0.2c-4.3-5.6-8.5-11.2-12.8-16.7
						c-15.9,45.1-30.7,90.6-45.6,136.1c-1.9,5.9-3.9,11.8-5.8,17.7c-1.4,4.1-4.5,10.2-3.9,14.6c0.8,6,3.1,11.1,9.1,13.5
						c5.4,2.2,12,1.3,16.1-3.1c3.8-4,5.1-10.1,6.7-15.3c1.6-4.9,3.2-9.9,4.7-14.8c4.4-13.7,8.7-27.3,13.1-41
						c8.7-27.5,17.6-54.9,25.8-82.5c1.8-6.1,3.6-12.1,5.4-18.2c2.4-8-4.2-17-12.8-16.7c-34.8,1.2-69.6,2-104.5,2.9
						c-5,0.1-10.1,0.3-15.1,0.4C763.1,293.4,763,314.8,777.1,314.9L777.1,314.9z"/>
				</g>
			</g>
		</g>
		<g>
			<g>
				<g>
					<path class="st0" d="M656.4,463.6c4,0,4-6.2,0-6.2C652.4,457.4,652.4,463.6,656.4,463.6L656.4,463.6z"/>
				</g>
			</g>
			<g>
				<g>
					<path class="st0" d="M546,316.2c4,0,4-6.2,0-6.2C542,310,542,316.2,546,316.2L546,316.2z"/>
				</g>
			</g>
		</g>
		<g>
			<g>
				<g>
					<path class="st0" d="M544.3,315.3c40,16.7,80,33.5,120,50.2c5.6,2.4,11.3,4.7,16.9,7.1c3.7,1.5,5.3-4.5,1.7-6
						c-40-16.7-80-33.5-120-50.2c-5.6-2.4-11.3-4.7-16.9-7.1C542.3,307.8,540.7,313.8,544.3,315.3L544.3,315.3z"/>
				</g>
			</g>
		</g>
		<path class="st1" d="M675.5,465.6c-3.5,9.4-14.9,17-25.5,17s-16.4-7.6-12.9-17c3.5-9.4,14.9-17,25.5-17
			C673.3,448.6,679,456.3,675.5,465.6z"/>
		<path class="st1" d="M737.2,261.3c-3.5,9.4-14.9,17-25.5,17c-10.6,0-16.4-7.6-12.9-17s14.9-17,25.5-17S740.7,251.9,737.2,261.3z"
			/>
		<path class="st1" d="M766.9,165.5c-3.5,9.4-14.9,17-25.5,17c-10.6,0-16.4-7.6-12.9-17s14.9-17,25.5-17
			C764.6,148.5,770.4,156.1,766.9,165.5z"/>
		<path class="st1" d="M702.3,369.6c-3.5,9.4-14.9,17-25.5,17c-10.6,0-16.4-7.6-12.9-17c3.5-9.4,14.9-17,25.5-17
			C700,352.6,705.8,360.3,702.3,369.6z"/>
		<g>
			<g>
				<path class="st0" d="M364.6,314.3c20.4,0,40.9,0,61.3-0.1c32.6,0,65.2-0.1,97.7-0.1c7.5,0,15,0,22.4,0c4,0,4-6.2,0-6.2
					c-20.4,0-40.9,0-61.3,0.1c-32.6,0-65.2,0.1-97.7,0.1c-7.5,0-15,0-22.4,0C360.6,308.1,360.6,314.3,364.6,314.3L364.6,314.3z"/>
			</g>
		</g>
		<path class="st1" d="M382.3,315.9c-3.5,9.4-14.9,17-25.5,17c-10.6,0-16.4-7.6-12.9-17c3.5-9.4,14.9-17,25.5-17
			S385.8,306.6,382.3,315.9z"/>
		<path class="st1" d="M519,466.6c-3.5,9.4-14.9,17-25.5,17s-16.4-7.6-12.9-17c3.5-9.4,14.9-17,25.5-17S522.4,457.3,519,466.6z"/>
		<path class="st1" d="M567,312.1c-3.5,9.4-14.9,17-25.5,17s-16.4-7.6-12.9-17s14.9-17,25.5-17S570.5,302.8,567,312.1z"/>
		<path class="st1" d="M610.3,164.5c-3.5,9.4-14.9,17-25.5,17c-10.6,0-16.4-7.6-12.9-17s14.9-17,25.5-17
			C608,147.5,613.8,155.1,610.3,164.5z"/>
		<path class="st1" d="M912.1,304.8c-3.5,9.4-14.9,17-25.5,17c-10.6,0-16.4-7.6-12.9-17c3.5-9.4,14.9-17,25.5-17
			C909.8,287.8,915.6,295.5,912.1,304.8z"/>
	</g>
</g>
</svg>
