<?xml version="1.0" encoding="utf-8"?>
<!-- Generator: Adobe Illustrator 19.2.1, SVG Export Plug-In . SVG Version: 6.00 Build 0)  -->
<svg version="1.1" id="Layer_1" xmlns="http://www.w3.org/2000/svg" xmlns:xlink="http://www.w3.org/1999/xlink" x="0px" y="0px"
	 viewBox="0 0 1280 800" style="enable-background:new 0 0 1280 800;" xml:space="preserve">
<style type="text/css">
	.st0{fill:#06D8FF;}
	.st1{fill:#FF00FF;stroke:#FF00FF;stroke-width:2.1123;stroke-miterlimit:10;}
</style>
<g>
	<line class="st0" x1="553.7" y1="307.3" x2="608.8" y2="389"/>
	<g>
		<path class="st0" d="M552.3,308.1c16,23.8,32.1,47.5,48.1,71.3c2.3,3.5,4.7,6.9,7,10.4c1.1,1.7,3.9,0.1,2.7-1.6
			c-16-23.8-32.1-47.5-48.1-71.3c-2.3-3.5-4.7-6.9-7-10.4C553.9,304.8,551.2,306.4,552.3,308.1L552.3,308.1z"/>
	</g>
</g>
<g>
	<g>
		<line class="st0" x1="575.8" y1="241.1" x2="620.8" y2="342"/>
		<g>
			<path class="st0" d="M574.4,241.9c13.2,29.5,26.3,58.9,39.5,88.4c1.9,4.2,3.7,8.3,5.6,12.5c0.8,1.8,3.5,0.2,2.7-1.6
				c-13.2-29.5-26.3-58.9-39.5-88.4c-1.9-4.2-3.7-8.3-5.6-12.5C576.3,238.5,573.6,240.1,574.4,241.9L574.4,241.9z"/>
		</g>
	</g>
	<g>
		<line class="st0" x1="575.8" y1="241.1" x2="607.8" y2="387.9"/>
		<g>
			<path class="st0" d="M574.3,241.5c9.3,42.8,18.7,85.6,28,128.4c1.3,6.1,2.7,12.2,4,18.4c0.4,2,3.5,1.1,3-0.8
				c-9.3-42.8-18.7-85.6-28-128.4c-1.3-6.1-2.7-12.2-4-18.4C576.9,238.7,573.8,239.5,574.3,241.5L574.3,241.5z"/>
		</g>
	</g>
	<g>
		<line class="st0" x1="528.2" y1="387.8" x2="654.5" y2="240.9"/>
		<g>
			<path class="st0" d="M529.3,388.9c14.2-16.5,28.4-33.1,42.6-49.6c22.7-26.4,45.3-52.7,68-79.1c5.2-6.1,10.4-12.1,15.6-18.2
				c1.3-1.5-0.9-3.8-2.2-2.2c-14.2,16.5-28.4,33.1-42.6,49.6c-22.7,26.4-45.3,52.7-68,79.1c-5.2,6.1-10.4,12.1-15.6,18.2
				C525.8,388.2,528,390.4,529.3,388.9L529.3,388.9z"/>
		</g>
	</g>
	<g>
		<line class="st0" x1="552" y1="312.3" x2="654.5" y2="240.9"/>
		<g>
			<path class="st0" d="M552.8,313.7c29.9-20.9,59.8-41.7,89.7-62.6c4.3-3,8.5-5.9,12.8-8.9c1.6-1.1,0.1-3.9-1.6-2.7
				c-29.9,20.9-59.8,41.7-89.7,62.6c-4.3,3-8.5,5.9-12.8,8.9C549.6,312.1,551.2,314.9,552.8,313.7L552.8,313.7z"/>
		</g>
	</g>
	<g>
		<line class="st0" x1="551.9" y1="312.4" x2="637.4" y2="287.2"/>
		<g>
			<path class="st0" d="M552.3,313.9c25-7.4,49.9-14.7,74.9-22.1c3.5-1,7.1-2.1,10.6-3.1c1.9-0.6,1.1-3.6-0.8-3
				c-25,7.4-49.9,14.7-74.9,22.1c-3.5,1-7.1,2.1-10.6,3.1C549.5,311.5,550.3,314.5,552.3,313.9L552.3,313.9z"/>
		</g>
	</g>
	<g>
		<line class="st0" x1="528.6" y1="387.9" x2="637.4" y2="287.2"/>
		<g>
			<path class="st0" d="M529.7,389c31.8-29.4,63.6-58.8,95.3-88.2c4.5-4.1,9-8.3,13.4-12.4c1.5-1.4-0.7-3.6-2.2-2.2
				c-31.8,29.4-63.6,58.8-95.3,88.2c-4.5,4.1-9,8.3-13.4,12.4C526,388.1,528.2,390.4,529.7,389L529.7,389z"/>
		</g>
	</g>
	<g>
		<line class="st0" x1="528.6" y1="389" x2="620.8" y2="342"/>
		<g>
			<path class="st0" d="M529.4,390.3c26.9-13.7,53.8-27.4,80.7-41.1c3.8-2,7.7-3.9,11.5-5.9c1.8-0.9,0.2-3.6-1.6-2.7
				c-26.9,13.7-53.8,27.4-80.7,41.1c-3.8,2-7.7,3.9-11.5,5.9C526,388.5,527.6,391.2,529.4,390.3L529.4,390.3z"/>
		</g>
	</g>
	<g>
		<line class="st0" x1="654.5" y1="241.6" x2="1108.2" y2="311"/>
		<g>
			<path class="st0" d="M654.1,243.1c15,2.3,30.1,4.6,45.1,6.9c36.1,5.5,72.2,11.1,108.4,16.6c43.7,6.7,87.4,13.4,131.1,20.1
				c37.8,5.8,75.6,11.6,113.3,17.3c12.4,1.9,24.8,3.8,37.2,5.7c5.9,0.9,11.9,2.3,17.8,2.7c0.3,0,0.5,0.1,0.8,0.1
				c2,0.3,2.8-2.7,0.8-3c-15-2.3-30.1-4.6-45.1-6.9c-36.1-5.5-72.2-11.1-108.4-16.6c-43.7-6.7-87.4-13.4-131.1-20.1
				c-37.8-5.8-75.6-11.6-113.3-17.3c-12.4-1.9-24.8-3.8-37.2-5.7c-5.9-0.9-11.9-2.3-17.8-2.7c-0.3,0-0.5-0.1-0.8-0.1
				C652.9,239.8,652.1,242.8,654.1,243.1L654.1,243.1z"/>
		</g>
	</g>
	<g>
		<line class="st0" x1="637.6" y1="287" x2="1108.2" y2="311"/>
		<g>
			<path class="st0" d="M637.6,288.6c15.6,0.8,31.2,1.6,46.8,2.4c37.5,1.9,74.9,3.8,112.4,5.7c45.3,2.3,90.6,4.6,136,6.9
				c39.2,2,78.4,4,117.6,6c12.9,0.7,25.8,1.3,38.7,2c5.9,0.3,12.4,1.4,18.4,0.9c0.3,0,0.5,0,0.8,0c2,0.1,2-3,0-3.1
				c-15.6-0.8-31.2-1.6-46.8-2.4c-37.5-1.9-74.9-3.8-112.4-5.7c-45.3-2.3-90.6-4.6-136-6.9c-39.2-2-78.4-4-117.6-6
				c-12.9-0.7-25.8-1.3-38.7-2c-5.9-0.3-12.4-1.4-18.4-0.9c-0.3,0-0.5,0-0.8,0C635.6,285.3,635.6,288.5,637.6,288.6L637.6,288.6z"/>
		</g>
	</g>
	<g>
		<line class="st0" x1="620.8" y1="342" x2="1109.3" y2="311"/>
		<g>
			<path class="st0" d="M620.8,343.5c16.2-1,32.4-2.1,48.6-3.1c38.9-2.5,77.8-4.9,116.7-7.4c47.1-3,94.1-6,141.2-8.9
				c40.7-2.6,81.3-5.2,122-7.7c13.4-0.8,26.7-1.7,40.1-2.5c6.3-0.4,12.9-0.2,19.1-1.2c0.3,0,0.6,0,0.9-0.1c2-0.1,2-3.3,0-3.1
				c-16.2,1-32.4,2.1-48.6,3.1c-38.9,2.5-77.8,4.9-116.7,7.4c-47.1,3-94.1,6-141.2,8.9c-40.7,2.6-81.3,5.2-122,7.7
				c-13.4,0.8-26.7,1.7-40.1,2.5c-6.3,0.4-12.9,0.2-19.1,1.2c-0.3,0-0.6,0-0.9,0.1C618.8,340.5,618.8,343.7,620.8,343.5L620.8,343.5
				z"/>
		</g>
	</g>
	<g>
		<line class="st0" x1="607.8" y1="387.9" x2="1109.3" y2="311"/>
		<g>
			<path class="st0" d="M608.2,389.4c16.7-2.6,33.4-5.1,50.1-7.7c39.8-6.1,79.6-12.2,119.4-18.3c48.4-7.4,96.9-14.9,145.3-22.3
				c41.6-6.4,83.2-12.8,124.8-19.1c13.8-2.1,27.6-4.2,41.4-6.3c6.3-1,13.5-1.1,19.6-3c0.3-0.1,0.6-0.1,0.8-0.1c2-0.3,1.1-3.3-0.8-3
				c-16.7,2.6-33.4,5.1-50.1,7.7c-39.8,6.1-79.6,12.2-119.4,18.3c-48.4,7.4-96.9,14.9-145.3,22.3c-41.6,6.4-83.2,12.8-124.8,19.1
				c-13.8,2.1-27.6,4.2-41.4,6.3c-6.3,1-13.5,1.1-19.6,3c-0.3,0.1-0.6,0.1-0.8,0.1C605.4,386.7,606.3,389.7,608.2,389.4L608.2,389.4
				z"/>
		</g>
	</g>
	<g>
		<line class="st0" x1="394.1" y1="279.6" x2="528.2" y2="387.8"/>
		<g>
			<path class="st0" d="M393,280.8c15.1,12.2,30.2,24.3,45.3,36.5c24.1,19.4,48.1,38.8,72.2,58.2c5.5,4.5,11.1,8.9,16.6,13.4
				c1.6,1.3,3.8-1,2.2-2.2c-15.1-12.2-30.2-24.3-45.3-36.5c-24.1-19.4-48.1-38.8-72.2-58.2c-5.5-4.5-11.1-8.9-16.6-13.4
				C393.7,277.3,391.4,279.5,393,280.8L393,280.8z"/>
		</g>
	</g>
	<g>
		<line class="st0" x1="393.6" y1="280" x2="551.6" y2="313"/>
		<g>
			<path class="st0" d="M393.2,281.5c46.2,9.7,92.4,19.3,138.7,29c6.4,1.3,12.8,2.7,19.3,4c2,0.4,2.8-2.6,0.8-3
				c-46.2-9.7-92.4-19.3-138.7-29c-6.4-1.3-12.8-2.7-19.3-4C392.1,278,391.2,281.1,393.2,281.5L393.2,281.5z"/>
		</g>
	</g>
	<g>
		<line class="st0" x1="393.6" y1="280" x2="575.3" y2="240.9"/>
		<g>
			<path class="st0" d="M394.1,281.5c20.5-4.4,41-8.8,61.5-13.2c32.5-7,65-14,97.6-21c7.5-1.6,15.1-3.2,22.6-4.9
				c2-0.4,1.1-3.5-0.8-3c-20.5,4.4-41,8.8-61.5,13.2c-32.5,7-65,14-97.6,21c-7.5,1.6-15.1,3.2-22.6,4.9
				C391.2,278.9,392.1,281.9,394.1,281.5L394.1,281.5z"/>
		</g>
	</g>
	<g>
		<g>
			<g>
				<g>
					<path d="M289.2,233.8c-15.1,45.3-30.3,90.6-45.4,135.9c-2.2,6.7-9.8,19.9-2.2,25.4c-0.9-2.2-1.8-4.4-2.7-6.6c0,0,0,0,0,0.1
						c-2.3,7.2,9,10.2,11.3,3.1c0,0,0,0,0-0.1c-1.9,1.4-3.8,2.9-5.6,4.3c8.1,0,9.8-13.1,11.5-18.8c3.8-12.3,7.6-24.7,11.5-37
						c8.7-28,17.4-56.1,26-84.1c2-6.4,4-12.9,6-19.3C301.5,230.1,291.3,227.3,289.2,233.8L289.2,233.8z"/>
				</g>
			</g>
			<g>
				<g>
					<path d="M290.4,236.7c3.9,8.4,7.5,16.9,10.9,25.5c4.9,12,11.3,26.4,12.6,38.6c0.6,5,6.3,8.2,10.3,4.3
						c19.9-19.5,39.8-38.9,59.8-58.4c2.9-2.8,5.8-5.6,8.6-8.4c-3.9-2.2-7.7-4.5-11.6-6.7c-15.5,45.8-30.6,91.8-45.9,137.7
						c-1.6,4.7-3.3,9.4-4.6,14.1c-0.4,1.4-0.8,2.8-1.1,4.2c-0.1,0.4-0.2,0.7-0.3,1.1c-1.6,6.4,0.5-1.4-0.1,0.4
						c-2.9,9,11.2,12.8,14.1,3.9c-0.9,2.6-0.2,0.5,0.4-1c0.4-1.1,0.9-2.2,1.3-3.3c1.5-3.7,2.6-7.6,3.8-11.4c4-12.4,8-24.8,12-37.2
						c9.1-28.3,18.4-56.5,27.4-84.9c2.1-6.6,4.2-13.1,6.3-19.7c2.1-6.7-6.8-11.5-11.6-6.7c-19.5,19.8-39.1,39.6-58.6,59.5
						c-2.8,2.9-5.6,5.7-8.5,8.6c3.4,1.4,6.8,2.8,10.3,4.3c-1.9-14.5-8.3-28.5-14-41.9c-3.9-9.3-8.1-18.5-12.4-27.6
						C296.7,225,287.6,230.5,290.4,236.7L290.4,236.7z"/>
				</g>
			</g>
		</g>
		<g>
			<g>
				<path d="M384.7,304.4c-7,18.4-13.5,37-19.9,55.7c-2.3,6.7-4.5,13.4-6.8,20.2c-0.7,2.1-1.1,4.1-1.5,6.2c-0.1,1-0.4,2-0.4,3
					c0,0.2,0,0.3,0,0.5c-0.4,6.1,0.8-3.4,0.2-1.5c-2.5,8.1,10.1,11.5,12.6,3.5c-1.1,3.5-1.9,3.6-0.6,1.4c0.1-0.1,0.2-0.2,0.3-0.4
					c0.3-0.5,0.5-1,0.8-1.6c1.2-2.2,2-4.5,2.8-6.9c2.1-6.9,4.1-13.8,6.3-20.7c5.8-18.8,11.7-37.6,18.1-56.2
					C399.4,300.1,387.5,297,384.7,304.4L384.7,304.4z"/>
			</g>
		</g>
		<g>
			<g>
				<g>
					<path d="M412.2,327.7c12-7.8,26.3-10.3,40.2-13c1.5-0.3,3-0.7,4.5-0.8c0.9-0.1,3.8,0.7,2.9-0.4c-0.8-0.9-0.5,1-0.9,2.2
						c-0.3,1.2-0.8,2.3-1.2,3.4c-2.4,6.1-4.7,12.2-6.9,18.3c-4.2,11.8-8.1,23.7-11.9,35.7c-1.2,3.9-2.5,7.7-3.6,11.6
						c-0.4,1.5-0.7,3.1-0.6,4.7c0,0.3,0,0.6,0,0.9c0.3,4.8-0.2,0.1,0.3-1.4c-2.5,8.7,11.1,12.4,13.6,3.7c-0.5,1.9-2.9,4.8-0.5,1.3
						c0.3-0.4,0.5-0.8,0.7-1.2c1.1-1.9,1.6-3.9,2.2-6c1.5-5.2,3-10.4,4.6-15.6c4.3-14.5,8.9-28.9,14.1-43c2.3-6.2,5.5-12.7,3.3-19.4
						c-2.8-8.4-12-9.8-19.5-8.6c-16.3,2.7-34.1,6.7-48,16.1C398.5,321,405,332.4,412.2,327.7L412.2,327.7z"/>
				</g>
			</g>
			<g>
				<g>
					<path d="M407.2,304.4c-6.2,18.3-12.5,36.5-18.8,54.6c-2.4,7-4.9,14-7.3,21c-0.8,2.2-1.3,4.2-1.7,6.4c-0.2,1.1-0.4,2.2-0.5,3.2
						c0,0.2,0,0.4,0,0.6c-0.5,6.4,1-4,0.2-1.5c-2.7,8,10,11.4,12.6,3.5c-0.6,1.9-2.4,4.1-0.7,1.6c0.5-0.7,0.9-1.4,1.3-2.1
						c1.3-2.3,2.2-4.8,3-7.3c2.3-7.2,4.5-14.4,6.8-21.5c5.8-18.4,11.5-36.7,17.1-55.1C421.6,300,409.8,296.9,407.2,304.4
						L407.2,304.4z"/>
				</g>
			</g>
		</g>
		<g>
			<g>
				<g>
					<path d="M572.8,234c-15.9,45.4-31.8,90.7-47.7,136.1c-1.6,4.7-3.3,9.4-4.9,14.1c-1.2,3.4-2.4,8.8,0.9,11.5
						c-0.5-1.9-1-3.8-1.5-5.7c0,0,0,0,0,0.1c-2.4,7.1,8.9,10.2,11.3,3.1c0,0,0,0,0-0.1c-1.9,1.4-3.8,2.9-5.6,4.3
						c8.2-0.1,10-13.3,11.9-19.2c4-12.3,8-24.6,12-36.9c9.2-28.2,18.4-56.5,27.6-84.7c2.1-6.6,4.3-13.1,6.4-19.7
						C585.3,230.3,575.1,227.6,572.8,234L572.8,234z"/>
				</g>
			</g>
			<g>
				<g>
					<path d="M520.9,379.4c-7.3,1.7-14.6,2.9-22,3.7c-3.7,0.4-7.5,0.6-11.2,0.7c-2.4,0-7.8,0.7-10-0.8c-0.5-0.3-0.2-0.5-0.6-0.9
						c-0.3-0.3-0.5-3-0.3-1c0.1,1.4,0.1,0.7,0.1,0.4c0-0.3,0-0.6,0-0.9c-0.2-1.7-0.1,0.4,0-0.2c0.6-3.2,1.5-6.3,2.4-9.4
						c1.9-6.1,4-12,6.1-18c2.6-7.1,4.7-14.6,8.9-21c3.8-5.8,8.7-11.3,14.5-13.8c4.9-2.1,10.6-3.1,15.9-3.9
						c5.9-0.9,11.8-1.3,17.7-1.6c2.4-0.1,4.8-0.2,7.2-0.7c0.6-0.1,1.2-0.3,1.8-0.4c0.1,0,0.3-0.1,0.5-0.1c2.9-0.8,1.7,0.2-1.6,0.2
						c9,0,9.1-14.1,0-14.1c3.3,0,0.3-0.1-0.9-0.3c-2.8-0.5-5.4-0.3-8.2-0.1c-6.9,0.4-13.7,1.2-20.5,2.3c-6.7,1.1-13.3,2.7-19.5,5.7
						c-7.6,3.7-13.7,10.7-18.4,17.6c-5.4,7.7-8,16.9-11,25.7c-2.3,6.6-4.6,13.3-6.5,20c-2.3,8-4.5,17.2,2,24
						c6.4,6.7,18.7,5.4,27.1,4.7c10.1-0.8,20.2-2.5,30.1-4.9C532.8,390.1,529.3,377.4,520.9,379.4L520.9,379.4z"/>
				</g>
			</g>
		</g>
	</g>
	<g>
		<g>
			<g>
				<path d="M657.1,241.1c26.1,0.3,52.2,0.6,78.3,0.8c5.5,0.1,10.9,0.7,15.4-2.9c-1.6,0.6-3.1,1.3-4.7,1.9c0,0,0,0,0,0
					c8.5-0.1,8.6-13.3,0-13.3c0,0,0,0,0,0c1.6,0.6,3.1,1.3,4.7,1.9c-4-3.1-8.2-3-13.1-2.8c-7,0.2-13.9,0.4-20.9,0.5
					c-16.1,0.4-32.2,0.8-48.3,1.2c-3.8,0.1-7.6,0.2-11.4,0.3C649.2,229.1,649.2,241.1,657.1,241.1L657.1,241.1z"/>
			</g>
		</g>
		<g>
			<g>
				<path d="M668.9,313.2c20.1,0.2,40.3,0.3,60.4,0.6c-2.1-2.8-4.3-5.6-6.4-8.5c-4.4,12.6-8.8,25.2-12.9,37.9
					c-3.1,9.4-6.1,18.7-9.2,28.1c-1.2,3.6-2.4,7.2-3.5,10.8c-0.8,2.5-2.4,5.7-2.3,8.4c0.3,5.7,8.4,10.7,12.7,5.2
					c4.1-5.2,5.4-13.9,7.4-20.1c3-9.4,6-18.7,8.9-28.1c4.1-12.9,8-25.8,11.9-38.7c1.2-4.1-2.1-8.6-6.4-8.5
					c-20.1,0.7-40.3,1.1-60.4,1.7C661.7,302.3,661.7,313.2,668.9,313.2L668.9,313.2z"/>
			</g>
		</g>
		<g>
			<g>
				<path d="M649.4,233.5c-15.5,45.4-31.4,90.8-46.1,136.5c-2,6.4-4.1,12.8-6.1,19.1c-1.5,4.8,2.6,10,7.5,9.9
					c28.2-0.4,56.3-0.7,84.5-1c5.9-0.1,16.1,1.2,18.2-6.3c-2.3,1.8-4.6,3.5-7,5.3c0.1,0,0.1,0,0.2,0c9.3-0.1,9.3-14.6,0-14.5
					c-0.1,0-0.1,0-0.2,0c2.3,1.8,4.6,3.5,7,5.3c-2.1-6.8-10-6.1-15.6-6c-7.6,0.1-15.3,0.3-22.9,0.4c-17.4,0.3-34.7,0.7-52.1,1
					c-4,0.1-8.1,0.1-12.1,0.2c2.5,3.3,5,6.6,7.5,9.9c14.7-45.7,28.5-91.6,42.3-137.5c1.9-6.4,3.9-12.8,5.8-19.2
					C662.4,229.5,651.7,226.7,649.4,233.5L649.4,233.5z"/>
			</g>
		</g>
	</g>
	<g>
		<g>
			<g>
				<path d="M828.1,303.9c-4.3,12.8-8.5,25.5-12.8,38.3c-3.1,9.3-6.3,18.7-9.4,28c-1.9,5.6-4.1,11.2-5.5,17
					c-2.4,10.6,11.9,13.9,15.8,4.4c2.2-5.3,3.7-11.1,5.4-16.6c2.9-9.5,5.9-19,8.8-28.6c4-12.8,7.9-25.7,11.9-38.5
					C845.3,298.7,831.1,294.9,828.1,303.9L828.1,303.9z"/>
			</g>
		</g>
		<g>
			<g>
				<path d="M837.5,314.4c5.6,0,11.2,0.1,16.8,0.1c4,0,8,0,12.1,0.1c3,0,7.3,0.6,9.9-1.2c4.7-3.3,4.9-9.6,0-12.9
					c-2.7-1.8-6.8-1.1-9.9-1.1c-4,0.1-8,0.2-12.1,0.3c-5.6,0.1-11.2,0.3-16.8,0.4C828.4,300.3,828.3,314.3,837.5,314.4L837.5,314.4z
					"/>
			</g>
		</g>
	</g>
	<g>
		<g>
			<g>
				<path d="M751.4,313.7c19.7,0.1,39.5,0.2,59.2,0.4c-2.2-2.9-4.4-5.8-6.7-8.7c-8,24.2-15.9,48.4-23.9,72.6
					c-0.8,2.5-1.6,4.9-2.2,7.4c-0.2,0.8-0.4,1.5-0.5,2.3c-0.3,1.5-1,3.2-0.2,0.8c-2.7,8.5,10.6,12.2,13.4,3.7
					c-0.7,2-0.4,1.1,0.2-0.5c0.2-0.6,0.5-1.2,0.7-1.7c0.8-1.9,1.5-3.9,2.2-5.9c2.1-6.6,4.2-13.2,6.2-19.8
					c4.7-14.9,9.4-29.9,14.1-44.8c1.1-3.5,2.2-7,3.3-10.4c1.4-4.3-2.3-8.8-6.7-8.7c-19.7,0.1-39.5,0.3-59.2,0.4
					C743,300.7,743,313.6,751.4,313.7L751.4,313.7z"/>
			</g>
		</g>
		<g>
			<g>
				<path d="M798.1,330.6c-18.1-0.4-36.3-0.8-54.4-1.1c-2.8-0.1-4.9,1.9-5.8,4.4c-6.2,17.7-12.7,35.2-19,52.8
					c-1.7,4.7,2.7,9.2,7.1,9.3c9.6,0.3,19.2,0.5,28.9,0.5c6.5,0,13.2,0.4,19.7-0.2c2.2-0.2,4.4-0.4,6.7-0.6c1.2-0.1,6.1-0.2,2.5-0.2
					c8.7,0,8.7-13.5,0-13.5c2.5,0,1,0.1-0.7-0.1c-0.6-0.1-1.2-0.1-1.9-0.2c-2.2-0.2-4.4-0.4-6.7-0.6c-6.5-0.6-13.1-0.3-19.7-0.3
					c-9.6,0-19.2,0.2-28.9,0.4c2.4,3.1,4.7,6.2,7.1,9.3c5.4-17.9,10.8-35.7,16.4-53.5c-1.9,1.5-3.9,2.9-5.8,4.4
					c18.1-0.2,36.3-0.4,54.4-0.6C804.8,340.8,804.8,330.7,798.1,330.6L798.1,330.6z"/>
			</g>
		</g>
	</g>
	<g>
		<g>
			<g>
				<path d="M889.8,313.7c19.7,0.1,39.5,0.2,59.2,0.4c-2.2-2.9-4.4-5.8-6.7-8.7c-8,24.2-15.9,48.4-23.9,72.6
					c-0.8,2.5-1.6,4.9-2.2,7.4c-0.2,0.8-0.4,1.5-0.5,2.3c-0.3,1.5-1,3.2-0.2,0.8c-2.7,8.5,10.6,12.2,13.4,3.7
					c-0.7,2-0.4,1.1,0.2-0.5c0.2-0.6,0.5-1.2,0.7-1.7c0.8-1.9,1.5-3.9,2.2-5.9c2.1-6.6,4.2-13.2,6.2-19.8
					c4.7-14.9,9.4-29.9,14.1-44.8c1.1-3.5,2.2-7,3.3-10.4c1.4-4.3-2.3-8.8-6.7-8.7c-19.7,0.1-39.5,0.3-59.2,0.4
					C881.3,300.7,881.3,313.6,889.8,313.7L889.8,313.7z"/>
			</g>
		</g>
		<g>
			<g>
				<path d="M936.5,330.6c-18.1-0.4-36.3-0.8-54.4-1.1c-2.8-0.1-4.9,1.9-5.8,4.4c-6.2,17.7-12.7,35.2-19,52.8
					c-1.7,4.7,2.7,9.2,7.1,9.3c9.6,0.3,19.2,0.5,28.9,0.5c6.5,0,13.2,0.4,19.7-0.2c2.2-0.2,4.4-0.4,6.7-0.6c1.2-0.1,6.1-0.2,2.5-0.2
					c8.7,0,8.7-13.5,0-13.5c2.5,0,1,0.1-0.7-0.1c-0.6-0.1-1.2-0.1-1.9-0.2c-2.2-0.2-4.4-0.4-6.7-0.6c-6.5-0.6-13.1-0.3-19.7-0.3
					c-9.6,0-19.2,0.2-28.9,0.4c2.4,3.1,4.7,6.2,7.1,9.3c5.4-17.9,10.8-35.7,16.4-53.5c-1.9,1.5-3.9,2.9-5.8,4.4
					c18.1-0.2,36.3-0.4,54.4-0.6C943.1,340.8,943.1,330.7,936.5,330.6L936.5,330.6z"/>
			</g>
		</g>
	</g>
	<g>
		<g>
			<g>
				<path d="M1023.3,306c-10.6,31.8-21.1,63.7-31.7,95.5c-1.1,3.2-2.3,6.4-3.1,9.6c-0.2,0.9-0.4,1.9-0.6,2.9
					c-0.3,1.5-1.1,3.9-0.2,1.1c-2.7,8.5,10.6,12.2,13.4,3.7c-1.1,3.5,0.3-0.5,0.7-1.5c1.3-3.1,2.3-6.2,3.3-9.4
					c2.7-8.7,5.4-17.3,8.1-26c6.2-19.7,12.3-39.3,18.5-59c1.4-4.5,2.8-9,4.2-13.5C1038.5,301.4,1026,298,1023.3,306L1023.3,306z"/>
			</g>
		</g>
		<g>
			<g>
				<path d="M1024.2,301.8c-17.5-0.2-34.9-0.5-52.4-0.7c-2.7,0-4.8,1.9-5.7,4.3c-8.2,23.7-16.6,47.3-24.9,71
					c-1.2,3.4-2.4,6.9-3.7,10.3c-1.7,4.8,2.7,9.5,7.3,9.6c9.6,0.2,19.3,0.2,28.9,0.2c6.6,0,13.1,0.2,19.7-0.4
					c2.2-0.2,4.5-0.4,6.7-0.5c1.2-0.1,6.1-0.2,2.5-0.2c8.7,0,8.7-13.5,0-13.5c2.5,0,0.9,0.1-0.7-0.1c-0.6-0.1-1.2-0.1-1.9-0.1
					c-2.2-0.2-4.5-0.4-6.7-0.5c-6.5-0.5-13.1-0.4-19.7-0.4c-9.6,0-19.3,0-28.9,0.2c2.4,3.2,4.9,6.4,7.3,9.6
					c7.3-23.9,14.5-47.9,22-71.8c1.1-3.5,2.2-7,3.3-10.4c-1.9,1.4-3.8,2.9-5.7,4.3c17.5-0.2,34.9-0.5,52.4-0.7
					C1030.8,312,1030.9,301.9,1024.2,301.8L1024.2,301.8z"/>
			</g>
		</g>
		<g>
			<g>
				<path d="M603.6,425.3c12.9,0,25.9-0.1,38.8-0.1c31.1-0.1,62.1-0.1,93.2-0.2c37.6-0.1,75.2-0.2,112.8-0.2
					c32.5-0.1,65.1-0.1,97.6-0.2c15.8,0,31.9,0.6,47.7-0.6c3.8-0.3,0.6,0,0.7,0c8.9,0,8.9-13.9,0-13.9c-0.1,0-0.1,0-0.2,0
					c3,0.3,0.8,0.1-0.5,0c-0.7,0-1.3,0-2-0.1c-2.6-0.1-5.2-0.1-7.8-0.2c-9.4-0.3-18.9,0-28.3,0c-31.1,0.2-62.1,0.4-93.2,0.6
					c-37.6,0.3-75.2,0.5-112.8,0.8c-32.5,0.2-65.1,0.4-97.6,0.7c-15.8,0.1-31.8-0.4-47.7,0.3c-0.2,0-0.4,0-0.7,0
					C595.2,412.2,595.2,425.3,603.6,425.3L603.6,425.3z"/>
			</g>
		</g>
	</g>
	<g>
		<g>
			<g>
				<path d="M1090,382.2c-21.5-0.1-42.9-0.3-64.4-0.4c2.2,2.9,4.5,5.9,6.7,8.8c4.3-13.4,8.5-26.8,12.8-40.1
					c2.9-9.1,5.8-18.3,8.7-27.4c1-3.1,2-6.1,2.7-9.3c0.2-0.9,0.4-1.8,0.6-2.7c0.2-1.3,1.3-4.3,0.2-0.9c2.7-8.5-10.7-12.2-13.4-3.7
					c1-3.3,0.1-0.2-0.4,0.9c-0.3,0.8-0.7,1.7-1,2.5c-1.2,3-2.1,6.1-3,9.2c-2.8,9.2-5.6,18.3-8.4,27.5c-4.1,13.4-8.2,26.9-12.3,40.3
					c-1.3,4.3,2.3,8.8,6.7,8.8c21.5-0.1,42.9-0.3,64.4-0.4C1098.4,395.2,1098.4,382.3,1090,382.2L1090,382.2z"/>
			</g>
		</g>
		<g>
			<g>
				<path d="M1036.5,365.9c19.8,0.3,39.7,0.6,59.5,0.8c2.7,0,5-1.9,5.9-4.5c5.5-17.4,11.3-34.7,17-52c1.6-4.8-2.6-9.2-7.1-9.4
					c-9.8-0.4-19.6-0.8-29.4-1c-6.7-0.1-13.4-0.6-20.1-0.1c-2.2,0.2-4.5,0.3-6.7,0.5c-0.6,0-1.3,0.1-1.9,0.1c-1.1,0.1-4.2,0-0.8,0.1
					c-8.7-0.2-8.7,13.3,0,13.5c-2.6,0-0.7-0.1,0.8,0.1c0.6,0.1,1.1,0.1,1.7,0.2c2.2,0.2,4.4,0.5,6.5,0.7c6.8,0.7,13.6,0.5,20.4,0.6
					c9.8,0.2,19.6,0.2,29.4,0.1c-2.4-3.1-4.8-6.2-7.1-9.4c-4.8,17.6-9.5,35.2-14.5,52.7c2-1.5,3.9-3,5.9-4.5
					c-19.8,0.3-39.7,0.7-59.5,1C1029.8,355.7,1029.8,365.8,1036.5,365.9L1036.5,365.9z"/>
			</g>
		</g>
	</g>
	<g>
		<g>
			<line class="st0" x1="575.3" y1="240.9" x2="637.4" y2="287.2"/>
			<g>
				<path class="st0" d="M574.5,242.2c20.7,15.4,41.4,30.9,62.1,46.3c1.6,1.2,3.2-1.5,1.6-2.7c-20.7-15.4-41.4-30.9-62.1-46.3
					C574.5,238.3,572.9,241,574.5,242.2L574.5,242.2z"/>
			</g>
		</g>
	</g>
	<g>
		<g>
			<line class="st0" x1="553.7" y1="307.3" x2="620.8" y2="342"/>
			<g>
				<path class="st0" d="M552.9,308.6c22.4,11.6,44.7,23.1,67.1,34.7c1.8,0.9,3.4-1.8,1.6-2.7c-22.4-11.6-44.7-23.1-67.1-34.7
					C552.7,305,551.1,307.7,552.9,308.6L552.9,308.6z"/>
			</g>
		</g>
	</g>
	<path class="st1" d="M616.5,389.9c-1.8,4.7-7.5,8.6-12.9,8.6c-5.4,0-8.3-3.8-6.5-8.6c1.8-4.7,7.5-8.6,12.9-8.6
		C615.3,381.3,618.2,385.2,616.5,389.9z"/>
	<path class="st1" d="M647.1,287.2c-1.8,4.7-7.5,8.6-12.9,8.6c-5.4,0-8.3-3.8-6.5-8.6c1.8-4.7,7.5-8.6,12.9-8.6
		C646,278.6,648.9,282.4,647.1,287.2z"/>
	<path class="st1" d="M665.3,237.7c-1.8,4.7-7.5,8.6-12.9,8.6c-5.4,0-8.3-3.8-6.5-8.6c1.8-4.7,7.5-8.6,12.9-8.6
		C664.1,229.1,667.1,233,665.3,237.7z"/>
	<path class="st1" d="M630.5,342c-1.8,4.7-7.5,8.6-12.9,8.6c-5.4,0-8.3-3.8-6.5-8.6c1.8-4.7,7.5-8.6,12.9-8.6
		C629.4,333.4,632.3,337.2,630.5,342z"/>
	<path class="st1" d="M562.6,306.8c-1.8,4.7-7.5,8.6-12.9,8.6c-5.4,0-8.3-3.8-6.5-8.6c1.8-4.7,7.5-8.6,12.9-8.6
		C561.5,298.2,564.4,302,562.6,306.8z"/>
	<path class="st1" d="M1118,310c-1.8,4.7-7.5,8.6-12.9,8.6s-8.3-3.8-6.5-8.6c1.8-4.7,7.5-8.6,12.9-8.6S1119.7,305.3,1118,310z"/>
	<path class="st1" d="M408,279.6c-1.8,4.7-7.5,8.6-12.9,8.6s-8.3-3.8-6.5-8.6c1.8-4.7,7.5-8.6,12.9-8.6
		C406.9,271.1,409.8,274.9,408,279.6z"/>
	<path class="st1" d="M587.1,238.8c-1.8,4.7-7.5,8.6-12.9,8.6c-5.4,0-8.3-3.8-6.5-8.6c1.8-4.7,7.5-8.6,12.9-8.6
		C586,230.2,588.9,234.1,587.1,238.8z"/>
	<path class="st1" d="M536.3,387.9c-1.8,4.7-7.5,8.6-12.9,8.6c-5.4,0-8.3-3.8-6.5-8.6c1.8-4.7,7.5-8.6,12.9-8.6
		C535.2,379.3,538.1,383.1,536.3,387.9z"/>
</g>
</svg>
